G04 #@! TF.GenerationSoftware,KiCad,Pcbnew,8.0.6*
G04 #@! TF.CreationDate,2024-11-03T17:07:20-03:00*
G04 #@! TF.ProjectId,555-temporizador-r01,3535352d-7465-46d7-906f-72697a61646f,rev?*
G04 #@! TF.SameCoordinates,Original*
G04 #@! TF.FileFunction,Legend,Top*
G04 #@! TF.FilePolarity,Positive*
%FSLAX46Y46*%
G04 Gerber Fmt 4.6, Leading zero omitted, Abs format (unit mm)*
G04 Created by KiCad (PCBNEW 8.0.6) date 2024-11-03 17:07:20*
%MOMM*%
%LPD*%
G01*
G04 APERTURE LIST*
%ADD10C,0.200000*%
%ADD11C,0.300000*%
%ADD12C,0.150000*%
%ADD13C,0.120000*%
G04 APERTURE END LIST*
D10*
X147828000Y-101092000D02*
X149352000Y-102616000D01*
X120142000Y-102616000D02*
X131318000Y-102616000D01*
X133858000Y-86614000D02*
X133858000Y-100076000D01*
X149352000Y-102616000D02*
X162814000Y-102616000D01*
X147828000Y-86614000D02*
X147828000Y-101092000D01*
X147320000Y-100584000D02*
X134366000Y-100584000D01*
X131318000Y-102616000D02*
X133858000Y-100076000D01*
D11*
X144537757Y-98678856D02*
X144466328Y-98821714D01*
X144466328Y-98821714D02*
X144466328Y-99035999D01*
X144466328Y-99035999D02*
X144537757Y-99250285D01*
X144537757Y-99250285D02*
X144680614Y-99393142D01*
X144680614Y-99393142D02*
X144823471Y-99464571D01*
X144823471Y-99464571D02*
X145109185Y-99535999D01*
X145109185Y-99535999D02*
X145323471Y-99535999D01*
X145323471Y-99535999D02*
X145609185Y-99464571D01*
X145609185Y-99464571D02*
X145752042Y-99393142D01*
X145752042Y-99393142D02*
X145894900Y-99250285D01*
X145894900Y-99250285D02*
X145966328Y-99035999D01*
X145966328Y-99035999D02*
X145966328Y-98893142D01*
X145966328Y-98893142D02*
X145894900Y-98678856D01*
X145894900Y-98678856D02*
X145823471Y-98607428D01*
X145823471Y-98607428D02*
X145323471Y-98607428D01*
X145323471Y-98607428D02*
X145323471Y-98893142D01*
X145966328Y-97964571D02*
X144466328Y-97964571D01*
X144466328Y-97964571D02*
X145966328Y-97107428D01*
X145966328Y-97107428D02*
X144466328Y-97107428D01*
X145966328Y-96393142D02*
X144466328Y-96393142D01*
X144466328Y-96393142D02*
X144466328Y-96035999D01*
X144466328Y-96035999D02*
X144537757Y-95821713D01*
X144537757Y-95821713D02*
X144680614Y-95678856D01*
X144680614Y-95678856D02*
X144823471Y-95607427D01*
X144823471Y-95607427D02*
X145109185Y-95535999D01*
X145109185Y-95535999D02*
X145323471Y-95535999D01*
X145323471Y-95535999D02*
X145609185Y-95607427D01*
X145609185Y-95607427D02*
X145752042Y-95678856D01*
X145752042Y-95678856D02*
X145894900Y-95821713D01*
X145894900Y-95821713D02*
X145966328Y-96035999D01*
X145966328Y-96035999D02*
X145966328Y-96393142D01*
X157745757Y-98932856D02*
X157674328Y-99075714D01*
X157674328Y-99075714D02*
X157674328Y-99289999D01*
X157674328Y-99289999D02*
X157745757Y-99504285D01*
X157745757Y-99504285D02*
X157888614Y-99647142D01*
X157888614Y-99647142D02*
X158031471Y-99718571D01*
X158031471Y-99718571D02*
X158317185Y-99789999D01*
X158317185Y-99789999D02*
X158531471Y-99789999D01*
X158531471Y-99789999D02*
X158817185Y-99718571D01*
X158817185Y-99718571D02*
X158960042Y-99647142D01*
X158960042Y-99647142D02*
X159102900Y-99504285D01*
X159102900Y-99504285D02*
X159174328Y-99289999D01*
X159174328Y-99289999D02*
X159174328Y-99147142D01*
X159174328Y-99147142D02*
X159102900Y-98932856D01*
X159102900Y-98932856D02*
X159031471Y-98861428D01*
X159031471Y-98861428D02*
X158531471Y-98861428D01*
X158531471Y-98861428D02*
X158531471Y-99147142D01*
X159174328Y-98218571D02*
X157674328Y-98218571D01*
X157674328Y-98218571D02*
X159174328Y-97361428D01*
X159174328Y-97361428D02*
X157674328Y-97361428D01*
X159174328Y-96647142D02*
X157674328Y-96647142D01*
X157674328Y-96647142D02*
X157674328Y-96289999D01*
X157674328Y-96289999D02*
X157745757Y-96075713D01*
X157745757Y-96075713D02*
X157888614Y-95932856D01*
X157888614Y-95932856D02*
X158031471Y-95861427D01*
X158031471Y-95861427D02*
X158317185Y-95789999D01*
X158317185Y-95789999D02*
X158531471Y-95789999D01*
X158531471Y-95789999D02*
X158817185Y-95861427D01*
X158817185Y-95861427D02*
X158960042Y-95932856D01*
X158960042Y-95932856D02*
X159102900Y-96075713D01*
X159102900Y-96075713D02*
X159174328Y-96289999D01*
X159174328Y-96289999D02*
X159174328Y-96647142D01*
X150380000Y-98976328D02*
X150380000Y-98190614D01*
X150380000Y-98190614D02*
X150308571Y-98047757D01*
X150308571Y-98047757D02*
X150165714Y-97976328D01*
X150165714Y-97976328D02*
X149880000Y-97976328D01*
X149880000Y-97976328D02*
X149737142Y-98047757D01*
X150380000Y-98904900D02*
X150237142Y-98976328D01*
X150237142Y-98976328D02*
X149880000Y-98976328D01*
X149880000Y-98976328D02*
X149737142Y-98904900D01*
X149737142Y-98904900D02*
X149665714Y-98762042D01*
X149665714Y-98762042D02*
X149665714Y-98619185D01*
X149665714Y-98619185D02*
X149737142Y-98476328D01*
X149737142Y-98476328D02*
X149880000Y-98404900D01*
X149880000Y-98404900D02*
X150237142Y-98404900D01*
X150237142Y-98404900D02*
X150380000Y-98333471D01*
X150880000Y-97976328D02*
X151451428Y-97976328D01*
X151094285Y-97476328D02*
X151094285Y-98762042D01*
X151094285Y-98762042D02*
X151165714Y-98904900D01*
X151165714Y-98904900D02*
X151308571Y-98976328D01*
X151308571Y-98976328D02*
X151451428Y-98976328D01*
X152522857Y-98904900D02*
X152380000Y-98976328D01*
X152380000Y-98976328D02*
X152094286Y-98976328D01*
X152094286Y-98976328D02*
X151951428Y-98904900D01*
X151951428Y-98904900D02*
X151880000Y-98762042D01*
X151880000Y-98762042D02*
X151880000Y-98190614D01*
X151880000Y-98190614D02*
X151951428Y-98047757D01*
X151951428Y-98047757D02*
X152094286Y-97976328D01*
X152094286Y-97976328D02*
X152380000Y-97976328D01*
X152380000Y-97976328D02*
X152522857Y-98047757D01*
X152522857Y-98047757D02*
X152594286Y-98190614D01*
X152594286Y-98190614D02*
X152594286Y-98333471D01*
X152594286Y-98333471D02*
X151880000Y-98476328D01*
X152380000Y-97404900D02*
X152165714Y-97619185D01*
X124667047Y-126544400D02*
X124476571Y-126639638D01*
X124476571Y-126639638D02*
X124095618Y-126639638D01*
X124095618Y-126639638D02*
X123905142Y-126544400D01*
X123905142Y-126544400D02*
X123809904Y-126449161D01*
X123809904Y-126449161D02*
X123714666Y-126258685D01*
X123714666Y-126258685D02*
X123714666Y-125687257D01*
X123714666Y-125687257D02*
X123809904Y-125496780D01*
X123809904Y-125496780D02*
X123905142Y-125401542D01*
X123905142Y-125401542D02*
X124095618Y-125306304D01*
X124095618Y-125306304D02*
X124476571Y-125306304D01*
X124476571Y-125306304D02*
X124667047Y-125401542D01*
X125809904Y-126639638D02*
X125619428Y-126544400D01*
X125619428Y-126544400D02*
X125524190Y-126449161D01*
X125524190Y-126449161D02*
X125428952Y-126258685D01*
X125428952Y-126258685D02*
X125428952Y-125687257D01*
X125428952Y-125687257D02*
X125524190Y-125496780D01*
X125524190Y-125496780D02*
X125619428Y-125401542D01*
X125619428Y-125401542D02*
X125809904Y-125306304D01*
X125809904Y-125306304D02*
X126095619Y-125306304D01*
X126095619Y-125306304D02*
X126286095Y-125401542D01*
X126286095Y-125401542D02*
X126381333Y-125496780D01*
X126381333Y-125496780D02*
X126476571Y-125687257D01*
X126476571Y-125687257D02*
X126476571Y-126258685D01*
X126476571Y-126258685D02*
X126381333Y-126449161D01*
X126381333Y-126449161D02*
X126286095Y-126544400D01*
X126286095Y-126544400D02*
X126095619Y-126639638D01*
X126095619Y-126639638D02*
X125809904Y-126639638D01*
X127333714Y-126639638D02*
X127333714Y-125306304D01*
X127333714Y-125496780D02*
X127428952Y-125401542D01*
X127428952Y-125401542D02*
X127619428Y-125306304D01*
X127619428Y-125306304D02*
X127905143Y-125306304D01*
X127905143Y-125306304D02*
X128095619Y-125401542D01*
X128095619Y-125401542D02*
X128190857Y-125592019D01*
X128190857Y-125592019D02*
X128190857Y-126639638D01*
X128190857Y-125592019D02*
X128286095Y-125401542D01*
X128286095Y-125401542D02*
X128476571Y-125306304D01*
X128476571Y-125306304D02*
X128762285Y-125306304D01*
X128762285Y-125306304D02*
X128952762Y-125401542D01*
X128952762Y-125401542D02*
X129048000Y-125592019D01*
X129048000Y-125592019D02*
X129048000Y-126639638D01*
X132476572Y-124639638D02*
X131524191Y-124639638D01*
X131524191Y-124639638D02*
X131428953Y-125592019D01*
X131428953Y-125592019D02*
X131524191Y-125496780D01*
X131524191Y-125496780D02*
X131714667Y-125401542D01*
X131714667Y-125401542D02*
X132190858Y-125401542D01*
X132190858Y-125401542D02*
X132381334Y-125496780D01*
X132381334Y-125496780D02*
X132476572Y-125592019D01*
X132476572Y-125592019D02*
X132571810Y-125782495D01*
X132571810Y-125782495D02*
X132571810Y-126258685D01*
X132571810Y-126258685D02*
X132476572Y-126449161D01*
X132476572Y-126449161D02*
X132381334Y-126544400D01*
X132381334Y-126544400D02*
X132190858Y-126639638D01*
X132190858Y-126639638D02*
X131714667Y-126639638D01*
X131714667Y-126639638D02*
X131524191Y-126544400D01*
X131524191Y-126544400D02*
X131428953Y-126449161D01*
X134381334Y-124639638D02*
X133428953Y-124639638D01*
X133428953Y-124639638D02*
X133333715Y-125592019D01*
X133333715Y-125592019D02*
X133428953Y-125496780D01*
X133428953Y-125496780D02*
X133619429Y-125401542D01*
X133619429Y-125401542D02*
X134095620Y-125401542D01*
X134095620Y-125401542D02*
X134286096Y-125496780D01*
X134286096Y-125496780D02*
X134381334Y-125592019D01*
X134381334Y-125592019D02*
X134476572Y-125782495D01*
X134476572Y-125782495D02*
X134476572Y-126258685D01*
X134476572Y-126258685D02*
X134381334Y-126449161D01*
X134381334Y-126449161D02*
X134286096Y-126544400D01*
X134286096Y-126544400D02*
X134095620Y-126639638D01*
X134095620Y-126639638D02*
X133619429Y-126639638D01*
X133619429Y-126639638D02*
X133428953Y-126544400D01*
X133428953Y-126544400D02*
X133333715Y-126449161D01*
X136286096Y-124639638D02*
X135333715Y-124639638D01*
X135333715Y-124639638D02*
X135238477Y-125592019D01*
X135238477Y-125592019D02*
X135333715Y-125496780D01*
X135333715Y-125496780D02*
X135524191Y-125401542D01*
X135524191Y-125401542D02*
X136000382Y-125401542D01*
X136000382Y-125401542D02*
X136190858Y-125496780D01*
X136190858Y-125496780D02*
X136286096Y-125592019D01*
X136286096Y-125592019D02*
X136381334Y-125782495D01*
X136381334Y-125782495D02*
X136381334Y-126258685D01*
X136381334Y-126258685D02*
X136286096Y-126449161D01*
X136286096Y-126449161D02*
X136190858Y-126544400D01*
X136190858Y-126544400D02*
X136000382Y-126639638D01*
X136000382Y-126639638D02*
X135524191Y-126639638D01*
X135524191Y-126639638D02*
X135333715Y-126544400D01*
X135333715Y-126544400D02*
X135238477Y-126449161D01*
X149868571Y-129456328D02*
X149868571Y-127956328D01*
X149868571Y-127956328D02*
X150440000Y-127956328D01*
X150440000Y-127956328D02*
X150582857Y-128027757D01*
X150582857Y-128027757D02*
X150654286Y-128099185D01*
X150654286Y-128099185D02*
X150725714Y-128242042D01*
X150725714Y-128242042D02*
X150725714Y-128456328D01*
X150725714Y-128456328D02*
X150654286Y-128599185D01*
X150654286Y-128599185D02*
X150582857Y-128670614D01*
X150582857Y-128670614D02*
X150440000Y-128742042D01*
X150440000Y-128742042D02*
X149868571Y-128742042D01*
X151368571Y-129456328D02*
X151368571Y-128456328D01*
X151368571Y-128742042D02*
X151440000Y-128599185D01*
X151440000Y-128599185D02*
X151511429Y-128527757D01*
X151511429Y-128527757D02*
X151654286Y-128456328D01*
X151654286Y-128456328D02*
X151797143Y-128456328D01*
X152868571Y-129384900D02*
X152725714Y-129456328D01*
X152725714Y-129456328D02*
X152440000Y-129456328D01*
X152440000Y-129456328D02*
X152297142Y-129384900D01*
X152297142Y-129384900D02*
X152225714Y-129242042D01*
X152225714Y-129242042D02*
X152225714Y-128670614D01*
X152225714Y-128670614D02*
X152297142Y-128527757D01*
X152297142Y-128527757D02*
X152440000Y-128456328D01*
X152440000Y-128456328D02*
X152725714Y-128456328D01*
X152725714Y-128456328D02*
X152868571Y-128527757D01*
X152868571Y-128527757D02*
X152940000Y-128670614D01*
X152940000Y-128670614D02*
X152940000Y-128813471D01*
X152940000Y-128813471D02*
X152225714Y-128956328D01*
X153511428Y-129384900D02*
X153654285Y-129456328D01*
X153654285Y-129456328D02*
X153939999Y-129456328D01*
X153939999Y-129456328D02*
X154082856Y-129384900D01*
X154082856Y-129384900D02*
X154154285Y-129242042D01*
X154154285Y-129242042D02*
X154154285Y-129170614D01*
X154154285Y-129170614D02*
X154082856Y-129027757D01*
X154082856Y-129027757D02*
X153939999Y-128956328D01*
X153939999Y-128956328D02*
X153725714Y-128956328D01*
X153725714Y-128956328D02*
X153582856Y-128884900D01*
X153582856Y-128884900D02*
X153511428Y-128742042D01*
X153511428Y-128742042D02*
X153511428Y-128670614D01*
X153511428Y-128670614D02*
X153582856Y-128527757D01*
X153582856Y-128527757D02*
X153725714Y-128456328D01*
X153725714Y-128456328D02*
X153939999Y-128456328D01*
X153939999Y-128456328D02*
X154082856Y-128527757D01*
X154725714Y-129384900D02*
X154868571Y-129456328D01*
X154868571Y-129456328D02*
X155154285Y-129456328D01*
X155154285Y-129456328D02*
X155297142Y-129384900D01*
X155297142Y-129384900D02*
X155368571Y-129242042D01*
X155368571Y-129242042D02*
X155368571Y-129170614D01*
X155368571Y-129170614D02*
X155297142Y-129027757D01*
X155297142Y-129027757D02*
X155154285Y-128956328D01*
X155154285Y-128956328D02*
X154940000Y-128956328D01*
X154940000Y-128956328D02*
X154797142Y-128884900D01*
X154797142Y-128884900D02*
X154725714Y-128742042D01*
X154725714Y-128742042D02*
X154725714Y-128670614D01*
X154725714Y-128670614D02*
X154797142Y-128527757D01*
X154797142Y-128527757D02*
X154940000Y-128456328D01*
X154940000Y-128456328D02*
X155154285Y-128456328D01*
X155154285Y-128456328D02*
X155297142Y-128527757D01*
X156011428Y-129456328D02*
X156011428Y-128456328D01*
X156011428Y-127956328D02*
X155940000Y-128027757D01*
X155940000Y-128027757D02*
X156011428Y-128099185D01*
X156011428Y-128099185D02*
X156082857Y-128027757D01*
X156082857Y-128027757D02*
X156011428Y-127956328D01*
X156011428Y-127956328D02*
X156011428Y-128099185D01*
X156940000Y-129456328D02*
X156797143Y-129384900D01*
X156797143Y-129384900D02*
X156725714Y-129313471D01*
X156725714Y-129313471D02*
X156654286Y-129170614D01*
X156654286Y-129170614D02*
X156654286Y-128742042D01*
X156654286Y-128742042D02*
X156725714Y-128599185D01*
X156725714Y-128599185D02*
X156797143Y-128527757D01*
X156797143Y-128527757D02*
X156940000Y-128456328D01*
X156940000Y-128456328D02*
X157154286Y-128456328D01*
X157154286Y-128456328D02*
X157297143Y-128527757D01*
X157297143Y-128527757D02*
X157368572Y-128599185D01*
X157368572Y-128599185D02*
X157440000Y-128742042D01*
X157440000Y-128742042D02*
X157440000Y-129170614D01*
X157440000Y-129170614D02*
X157368572Y-129313471D01*
X157368572Y-129313471D02*
X157297143Y-129384900D01*
X157297143Y-129384900D02*
X157154286Y-129456328D01*
X157154286Y-129456328D02*
X156940000Y-129456328D01*
X158082857Y-128456328D02*
X158082857Y-129456328D01*
X158082857Y-128599185D02*
X158154286Y-128527757D01*
X158154286Y-128527757D02*
X158297143Y-128456328D01*
X158297143Y-128456328D02*
X158511429Y-128456328D01*
X158511429Y-128456328D02*
X158654286Y-128527757D01*
X158654286Y-128527757D02*
X158725715Y-128670614D01*
X158725715Y-128670614D02*
X158725715Y-129456328D01*
X160011429Y-129384900D02*
X159868572Y-129456328D01*
X159868572Y-129456328D02*
X159582858Y-129456328D01*
X159582858Y-129456328D02*
X159440000Y-129384900D01*
X159440000Y-129384900D02*
X159368572Y-129242042D01*
X159368572Y-129242042D02*
X159368572Y-128670614D01*
X159368572Y-128670614D02*
X159440000Y-128527757D01*
X159440000Y-128527757D02*
X159582858Y-128456328D01*
X159582858Y-128456328D02*
X159868572Y-128456328D01*
X159868572Y-128456328D02*
X160011429Y-128527757D01*
X160011429Y-128527757D02*
X160082858Y-128670614D01*
X160082858Y-128670614D02*
X160082858Y-128813471D01*
X160082858Y-128813471D02*
X159368572Y-128956328D01*
X123988856Y-130448614D02*
X123488856Y-130448614D01*
X123488856Y-131234328D02*
X123488856Y-129734328D01*
X123488856Y-129734328D02*
X124203142Y-129734328D01*
X124774570Y-131234328D02*
X124774570Y-130234328D01*
X124774570Y-130520042D02*
X124845999Y-130377185D01*
X124845999Y-130377185D02*
X124917428Y-130305757D01*
X124917428Y-130305757D02*
X125060285Y-130234328D01*
X125060285Y-130234328D02*
X125203142Y-130234328D01*
X125703141Y-131234328D02*
X125703141Y-130234328D01*
X125703141Y-129734328D02*
X125631713Y-129805757D01*
X125631713Y-129805757D02*
X125703141Y-129877185D01*
X125703141Y-129877185D02*
X125774570Y-129805757D01*
X125774570Y-129805757D02*
X125703141Y-129734328D01*
X125703141Y-129734328D02*
X125703141Y-129877185D01*
X126203142Y-130234328D02*
X126774570Y-130234328D01*
X126417427Y-129734328D02*
X126417427Y-131020042D01*
X126417427Y-131020042D02*
X126488856Y-131162900D01*
X126488856Y-131162900D02*
X126631713Y-131234328D01*
X126631713Y-131234328D02*
X126774570Y-131234328D01*
X127131713Y-130234328D02*
X127917428Y-130234328D01*
X127917428Y-130234328D02*
X127131713Y-131234328D01*
X127131713Y-131234328D02*
X127917428Y-131234328D01*
X129060285Y-131162900D02*
X128917428Y-131234328D01*
X128917428Y-131234328D02*
X128631714Y-131234328D01*
X128631714Y-131234328D02*
X128488856Y-131162900D01*
X128488856Y-131162900D02*
X128417428Y-131020042D01*
X128417428Y-131020042D02*
X128417428Y-130448614D01*
X128417428Y-130448614D02*
X128488856Y-130305757D01*
X128488856Y-130305757D02*
X128631714Y-130234328D01*
X128631714Y-130234328D02*
X128917428Y-130234328D01*
X128917428Y-130234328D02*
X129060285Y-130305757D01*
X129060285Y-130305757D02*
X129131714Y-130448614D01*
X129131714Y-130448614D02*
X129131714Y-130591471D01*
X129131714Y-130591471D02*
X128417428Y-130734328D01*
X129774570Y-130234328D02*
X129774570Y-131234328D01*
X129774570Y-130377185D02*
X129845999Y-130305757D01*
X129845999Y-130305757D02*
X129988856Y-130234328D01*
X129988856Y-130234328D02*
X130203142Y-130234328D01*
X130203142Y-130234328D02*
X130345999Y-130305757D01*
X130345999Y-130305757D02*
X130417428Y-130448614D01*
X130417428Y-130448614D02*
X130417428Y-131234328D01*
X131845999Y-131234328D02*
X131131713Y-131234328D01*
X131131713Y-131234328D02*
X131131713Y-129734328D01*
X132988857Y-131234328D02*
X132988857Y-130448614D01*
X132988857Y-130448614D02*
X132917428Y-130305757D01*
X132917428Y-130305757D02*
X132774571Y-130234328D01*
X132774571Y-130234328D02*
X132488857Y-130234328D01*
X132488857Y-130234328D02*
X132345999Y-130305757D01*
X132988857Y-131162900D02*
X132845999Y-131234328D01*
X132845999Y-131234328D02*
X132488857Y-131234328D01*
X132488857Y-131234328D02*
X132345999Y-131162900D01*
X132345999Y-131162900D02*
X132274571Y-131020042D01*
X132274571Y-131020042D02*
X132274571Y-130877185D01*
X132274571Y-130877185D02*
X132345999Y-130734328D01*
X132345999Y-130734328D02*
X132488857Y-130662900D01*
X132488857Y-130662900D02*
X132845999Y-130662900D01*
X132845999Y-130662900D02*
X132988857Y-130591471D01*
X133703142Y-131234328D02*
X133703142Y-129734328D01*
X133703142Y-130305757D02*
X133846000Y-130234328D01*
X133846000Y-130234328D02*
X134131714Y-130234328D01*
X134131714Y-130234328D02*
X134274571Y-130305757D01*
X134274571Y-130305757D02*
X134346000Y-130377185D01*
X134346000Y-130377185D02*
X134417428Y-130520042D01*
X134417428Y-130520042D02*
X134417428Y-130948614D01*
X134417428Y-130948614D02*
X134346000Y-131091471D01*
X134346000Y-131091471D02*
X134274571Y-131162900D01*
X134274571Y-131162900D02*
X134131714Y-131234328D01*
X134131714Y-131234328D02*
X133846000Y-131234328D01*
X133846000Y-131234328D02*
X133703142Y-131162900D01*
X135060285Y-131091471D02*
X135131714Y-131162900D01*
X135131714Y-131162900D02*
X135060285Y-131234328D01*
X135060285Y-131234328D02*
X134988857Y-131162900D01*
X134988857Y-131162900D02*
X135060285Y-131091471D01*
X135060285Y-131091471D02*
X135060285Y-131234328D01*
X136417429Y-131162900D02*
X136274571Y-131234328D01*
X136274571Y-131234328D02*
X135988857Y-131234328D01*
X135988857Y-131234328D02*
X135846000Y-131162900D01*
X135846000Y-131162900D02*
X135774571Y-131091471D01*
X135774571Y-131091471D02*
X135703143Y-130948614D01*
X135703143Y-130948614D02*
X135703143Y-130520042D01*
X135703143Y-130520042D02*
X135774571Y-130377185D01*
X135774571Y-130377185D02*
X135846000Y-130305757D01*
X135846000Y-130305757D02*
X135988857Y-130234328D01*
X135988857Y-130234328D02*
X136274571Y-130234328D01*
X136274571Y-130234328D02*
X136417429Y-130305757D01*
X137274571Y-131234328D02*
X137131714Y-131162900D01*
X137131714Y-131162900D02*
X137060285Y-131091471D01*
X137060285Y-131091471D02*
X136988857Y-130948614D01*
X136988857Y-130948614D02*
X136988857Y-130520042D01*
X136988857Y-130520042D02*
X137060285Y-130377185D01*
X137060285Y-130377185D02*
X137131714Y-130305757D01*
X137131714Y-130305757D02*
X137274571Y-130234328D01*
X137274571Y-130234328D02*
X137488857Y-130234328D01*
X137488857Y-130234328D02*
X137631714Y-130305757D01*
X137631714Y-130305757D02*
X137703143Y-130377185D01*
X137703143Y-130377185D02*
X137774571Y-130520042D01*
X137774571Y-130520042D02*
X137774571Y-130948614D01*
X137774571Y-130948614D02*
X137703143Y-131091471D01*
X137703143Y-131091471D02*
X137631714Y-131162900D01*
X137631714Y-131162900D02*
X137488857Y-131234328D01*
X137488857Y-131234328D02*
X137274571Y-131234328D01*
X138417428Y-131234328D02*
X138417428Y-130234328D01*
X138417428Y-130377185D02*
X138488857Y-130305757D01*
X138488857Y-130305757D02*
X138631714Y-130234328D01*
X138631714Y-130234328D02*
X138846000Y-130234328D01*
X138846000Y-130234328D02*
X138988857Y-130305757D01*
X138988857Y-130305757D02*
X139060286Y-130448614D01*
X139060286Y-130448614D02*
X139060286Y-131234328D01*
X139060286Y-130448614D02*
X139131714Y-130305757D01*
X139131714Y-130305757D02*
X139274571Y-130234328D01*
X139274571Y-130234328D02*
X139488857Y-130234328D01*
X139488857Y-130234328D02*
X139631714Y-130305757D01*
X139631714Y-130305757D02*
X139703143Y-130448614D01*
X139703143Y-130448614D02*
X139703143Y-131234328D01*
X140417428Y-131091471D02*
X140488857Y-131162900D01*
X140488857Y-131162900D02*
X140417428Y-131234328D01*
X140417428Y-131234328D02*
X140346000Y-131162900D01*
X140346000Y-131162900D02*
X140417428Y-131091471D01*
X140417428Y-131091471D02*
X140417428Y-131234328D01*
X141131714Y-131234328D02*
X141131714Y-129734328D01*
X141131714Y-130305757D02*
X141274572Y-130234328D01*
X141274572Y-130234328D02*
X141560286Y-130234328D01*
X141560286Y-130234328D02*
X141703143Y-130305757D01*
X141703143Y-130305757D02*
X141774572Y-130377185D01*
X141774572Y-130377185D02*
X141846000Y-130520042D01*
X141846000Y-130520042D02*
X141846000Y-130948614D01*
X141846000Y-130948614D02*
X141774572Y-131091471D01*
X141774572Y-131091471D02*
X141703143Y-131162900D01*
X141703143Y-131162900D02*
X141560286Y-131234328D01*
X141560286Y-131234328D02*
X141274572Y-131234328D01*
X141274572Y-131234328D02*
X141131714Y-131162900D01*
X142488857Y-131234328D02*
X142488857Y-130234328D01*
X142488857Y-130520042D02*
X142560286Y-130377185D01*
X142560286Y-130377185D02*
X142631715Y-130305757D01*
X142631715Y-130305757D02*
X142774572Y-130234328D01*
X142774572Y-130234328D02*
X142917429Y-130234328D01*
X142946572Y-101540328D02*
X142232286Y-101540328D01*
X142232286Y-101540328D02*
X142160858Y-102254614D01*
X142160858Y-102254614D02*
X142232286Y-102183185D01*
X142232286Y-102183185D02*
X142375144Y-102111757D01*
X142375144Y-102111757D02*
X142732286Y-102111757D01*
X142732286Y-102111757D02*
X142875144Y-102183185D01*
X142875144Y-102183185D02*
X142946572Y-102254614D01*
X142946572Y-102254614D02*
X143018001Y-102397471D01*
X143018001Y-102397471D02*
X143018001Y-102754614D01*
X143018001Y-102754614D02*
X142946572Y-102897471D01*
X142946572Y-102897471D02*
X142875144Y-102968900D01*
X142875144Y-102968900D02*
X142732286Y-103040328D01*
X142732286Y-103040328D02*
X142375144Y-103040328D01*
X142375144Y-103040328D02*
X142232286Y-102968900D01*
X142232286Y-102968900D02*
X142160858Y-102897471D01*
X144375143Y-101540328D02*
X143660857Y-101540328D01*
X143660857Y-101540328D02*
X143589429Y-102254614D01*
X143589429Y-102254614D02*
X143660857Y-102183185D01*
X143660857Y-102183185D02*
X143803715Y-102111757D01*
X143803715Y-102111757D02*
X144160857Y-102111757D01*
X144160857Y-102111757D02*
X144303715Y-102183185D01*
X144303715Y-102183185D02*
X144375143Y-102254614D01*
X144375143Y-102254614D02*
X144446572Y-102397471D01*
X144446572Y-102397471D02*
X144446572Y-102754614D01*
X144446572Y-102754614D02*
X144375143Y-102897471D01*
X144375143Y-102897471D02*
X144303715Y-102968900D01*
X144303715Y-102968900D02*
X144160857Y-103040328D01*
X144160857Y-103040328D02*
X143803715Y-103040328D01*
X143803715Y-103040328D02*
X143660857Y-102968900D01*
X143660857Y-102968900D02*
X143589429Y-102897471D01*
X145803714Y-101540328D02*
X145089428Y-101540328D01*
X145089428Y-101540328D02*
X145018000Y-102254614D01*
X145018000Y-102254614D02*
X145089428Y-102183185D01*
X145089428Y-102183185D02*
X145232286Y-102111757D01*
X145232286Y-102111757D02*
X145589428Y-102111757D01*
X145589428Y-102111757D02*
X145732286Y-102183185D01*
X145732286Y-102183185D02*
X145803714Y-102254614D01*
X145803714Y-102254614D02*
X145875143Y-102397471D01*
X145875143Y-102397471D02*
X145875143Y-102754614D01*
X145875143Y-102754614D02*
X145803714Y-102897471D01*
X145803714Y-102897471D02*
X145732286Y-102968900D01*
X145732286Y-102968900D02*
X145589428Y-103040328D01*
X145589428Y-103040328D02*
X145232286Y-103040328D01*
X145232286Y-103040328D02*
X145089428Y-102968900D01*
X145089428Y-102968900D02*
X145018000Y-102897471D01*
X121254475Y-121337638D02*
X122397332Y-121337638D01*
X121825903Y-123337638D02*
X121825903Y-121337638D01*
X123825904Y-123242400D02*
X123635428Y-123337638D01*
X123635428Y-123337638D02*
X123254475Y-123337638D01*
X123254475Y-123337638D02*
X123063999Y-123242400D01*
X123063999Y-123242400D02*
X122968761Y-123051923D01*
X122968761Y-123051923D02*
X122968761Y-122290019D01*
X122968761Y-122290019D02*
X123063999Y-122099542D01*
X123063999Y-122099542D02*
X123254475Y-122004304D01*
X123254475Y-122004304D02*
X123635428Y-122004304D01*
X123635428Y-122004304D02*
X123825904Y-122099542D01*
X123825904Y-122099542D02*
X123921142Y-122290019D01*
X123921142Y-122290019D02*
X123921142Y-122480495D01*
X123921142Y-122480495D02*
X122968761Y-122670971D01*
X124778285Y-123337638D02*
X124778285Y-122004304D01*
X124778285Y-122194780D02*
X124873523Y-122099542D01*
X124873523Y-122099542D02*
X125063999Y-122004304D01*
X125063999Y-122004304D02*
X125349714Y-122004304D01*
X125349714Y-122004304D02*
X125540190Y-122099542D01*
X125540190Y-122099542D02*
X125635428Y-122290019D01*
X125635428Y-122290019D02*
X125635428Y-123337638D01*
X125635428Y-122290019D02*
X125730666Y-122099542D01*
X125730666Y-122099542D02*
X125921142Y-122004304D01*
X125921142Y-122004304D02*
X126206856Y-122004304D01*
X126206856Y-122004304D02*
X126397333Y-122099542D01*
X126397333Y-122099542D02*
X126492571Y-122290019D01*
X126492571Y-122290019D02*
X126492571Y-123337638D01*
X127444952Y-122004304D02*
X127444952Y-124004304D01*
X127444952Y-122099542D02*
X127635428Y-122004304D01*
X127635428Y-122004304D02*
X128016381Y-122004304D01*
X128016381Y-122004304D02*
X128206857Y-122099542D01*
X128206857Y-122099542D02*
X128302095Y-122194780D01*
X128302095Y-122194780D02*
X128397333Y-122385257D01*
X128397333Y-122385257D02*
X128397333Y-122956685D01*
X128397333Y-122956685D02*
X128302095Y-123147161D01*
X128302095Y-123147161D02*
X128206857Y-123242400D01*
X128206857Y-123242400D02*
X128016381Y-123337638D01*
X128016381Y-123337638D02*
X127635428Y-123337638D01*
X127635428Y-123337638D02*
X127444952Y-123242400D01*
X129540190Y-123337638D02*
X129349714Y-123242400D01*
X129349714Y-123242400D02*
X129254476Y-123147161D01*
X129254476Y-123147161D02*
X129159238Y-122956685D01*
X129159238Y-122956685D02*
X129159238Y-122385257D01*
X129159238Y-122385257D02*
X129254476Y-122194780D01*
X129254476Y-122194780D02*
X129349714Y-122099542D01*
X129349714Y-122099542D02*
X129540190Y-122004304D01*
X129540190Y-122004304D02*
X129825905Y-122004304D01*
X129825905Y-122004304D02*
X130016381Y-122099542D01*
X130016381Y-122099542D02*
X130111619Y-122194780D01*
X130111619Y-122194780D02*
X130206857Y-122385257D01*
X130206857Y-122385257D02*
X130206857Y-122956685D01*
X130206857Y-122956685D02*
X130111619Y-123147161D01*
X130111619Y-123147161D02*
X130016381Y-123242400D01*
X130016381Y-123242400D02*
X129825905Y-123337638D01*
X129825905Y-123337638D02*
X129540190Y-123337638D01*
X131064000Y-123337638D02*
X131064000Y-122004304D01*
X131064000Y-122385257D02*
X131159238Y-122194780D01*
X131159238Y-122194780D02*
X131254476Y-122099542D01*
X131254476Y-122099542D02*
X131444952Y-122004304D01*
X131444952Y-122004304D02*
X131635429Y-122004304D01*
X132302095Y-123337638D02*
X132302095Y-122004304D01*
X132302095Y-121337638D02*
X132206857Y-121432876D01*
X132206857Y-121432876D02*
X132302095Y-121528114D01*
X132302095Y-121528114D02*
X132397333Y-121432876D01*
X132397333Y-121432876D02*
X132302095Y-121337638D01*
X132302095Y-121337638D02*
X132302095Y-121528114D01*
X133064000Y-122004304D02*
X134111619Y-122004304D01*
X134111619Y-122004304D02*
X133064000Y-123337638D01*
X133064000Y-123337638D02*
X134111619Y-123337638D01*
X135730667Y-123337638D02*
X135730667Y-122290019D01*
X135730667Y-122290019D02*
X135635429Y-122099542D01*
X135635429Y-122099542D02*
X135444953Y-122004304D01*
X135444953Y-122004304D02*
X135064000Y-122004304D01*
X135064000Y-122004304D02*
X134873524Y-122099542D01*
X135730667Y-123242400D02*
X135540191Y-123337638D01*
X135540191Y-123337638D02*
X135064000Y-123337638D01*
X135064000Y-123337638D02*
X134873524Y-123242400D01*
X134873524Y-123242400D02*
X134778286Y-123051923D01*
X134778286Y-123051923D02*
X134778286Y-122861447D01*
X134778286Y-122861447D02*
X134873524Y-122670971D01*
X134873524Y-122670971D02*
X135064000Y-122575733D01*
X135064000Y-122575733D02*
X135540191Y-122575733D01*
X135540191Y-122575733D02*
X135730667Y-122480495D01*
X137540191Y-123337638D02*
X137540191Y-121337638D01*
X137540191Y-123242400D02*
X137349715Y-123337638D01*
X137349715Y-123337638D02*
X136968762Y-123337638D01*
X136968762Y-123337638D02*
X136778286Y-123242400D01*
X136778286Y-123242400D02*
X136683048Y-123147161D01*
X136683048Y-123147161D02*
X136587810Y-122956685D01*
X136587810Y-122956685D02*
X136587810Y-122385257D01*
X136587810Y-122385257D02*
X136683048Y-122194780D01*
X136683048Y-122194780D02*
X136778286Y-122099542D01*
X136778286Y-122099542D02*
X136968762Y-122004304D01*
X136968762Y-122004304D02*
X137349715Y-122004304D01*
X137349715Y-122004304D02*
X137540191Y-122099542D01*
X138778286Y-123337638D02*
X138587810Y-123242400D01*
X138587810Y-123242400D02*
X138492572Y-123147161D01*
X138492572Y-123147161D02*
X138397334Y-122956685D01*
X138397334Y-122956685D02*
X138397334Y-122385257D01*
X138397334Y-122385257D02*
X138492572Y-122194780D01*
X138492572Y-122194780D02*
X138587810Y-122099542D01*
X138587810Y-122099542D02*
X138778286Y-122004304D01*
X138778286Y-122004304D02*
X139064001Y-122004304D01*
X139064001Y-122004304D02*
X139254477Y-122099542D01*
X139254477Y-122099542D02*
X139349715Y-122194780D01*
X139349715Y-122194780D02*
X139444953Y-122385257D01*
X139444953Y-122385257D02*
X139444953Y-122956685D01*
X139444953Y-122956685D02*
X139349715Y-123147161D01*
X139349715Y-123147161D02*
X139254477Y-123242400D01*
X139254477Y-123242400D02*
X139064001Y-123337638D01*
X139064001Y-123337638D02*
X138778286Y-123337638D01*
X140302096Y-123337638D02*
X140302096Y-122004304D01*
X140302096Y-122385257D02*
X140397334Y-122194780D01*
X140397334Y-122194780D02*
X140492572Y-122099542D01*
X140492572Y-122099542D02*
X140683048Y-122004304D01*
X140683048Y-122004304D02*
X140873525Y-122004304D01*
X129551757Y-98932856D02*
X129480328Y-99075714D01*
X129480328Y-99075714D02*
X129480328Y-99289999D01*
X129480328Y-99289999D02*
X129551757Y-99504285D01*
X129551757Y-99504285D02*
X129694614Y-99647142D01*
X129694614Y-99647142D02*
X129837471Y-99718571D01*
X129837471Y-99718571D02*
X130123185Y-99789999D01*
X130123185Y-99789999D02*
X130337471Y-99789999D01*
X130337471Y-99789999D02*
X130623185Y-99718571D01*
X130623185Y-99718571D02*
X130766042Y-99647142D01*
X130766042Y-99647142D02*
X130908900Y-99504285D01*
X130908900Y-99504285D02*
X130980328Y-99289999D01*
X130980328Y-99289999D02*
X130980328Y-99147142D01*
X130980328Y-99147142D02*
X130908900Y-98932856D01*
X130908900Y-98932856D02*
X130837471Y-98861428D01*
X130837471Y-98861428D02*
X130337471Y-98861428D01*
X130337471Y-98861428D02*
X130337471Y-99147142D01*
X130980328Y-98218571D02*
X129480328Y-98218571D01*
X129480328Y-98218571D02*
X130980328Y-97361428D01*
X130980328Y-97361428D02*
X129480328Y-97361428D01*
X130980328Y-96647142D02*
X129480328Y-96647142D01*
X129480328Y-96647142D02*
X129480328Y-96289999D01*
X129480328Y-96289999D02*
X129551757Y-96075713D01*
X129551757Y-96075713D02*
X129694614Y-95932856D01*
X129694614Y-95932856D02*
X129837471Y-95861427D01*
X129837471Y-95861427D02*
X130123185Y-95789999D01*
X130123185Y-95789999D02*
X130337471Y-95789999D01*
X130337471Y-95789999D02*
X130623185Y-95861427D01*
X130623185Y-95861427D02*
X130766042Y-95932856D01*
X130766042Y-95932856D02*
X130908900Y-96075713D01*
X130908900Y-96075713D02*
X130980328Y-96289999D01*
X130980328Y-96289999D02*
X130980328Y-96647142D01*
X134572856Y-97960328D02*
X134572856Y-96460328D01*
X134572856Y-96460328D02*
X134929999Y-96460328D01*
X134929999Y-96460328D02*
X135144285Y-96531757D01*
X135144285Y-96531757D02*
X135287142Y-96674614D01*
X135287142Y-96674614D02*
X135358571Y-96817471D01*
X135358571Y-96817471D02*
X135429999Y-97103185D01*
X135429999Y-97103185D02*
X135429999Y-97317471D01*
X135429999Y-97317471D02*
X135358571Y-97603185D01*
X135358571Y-97603185D02*
X135287142Y-97746042D01*
X135287142Y-97746042D02*
X135144285Y-97888900D01*
X135144285Y-97888900D02*
X134929999Y-97960328D01*
X134929999Y-97960328D02*
X134572856Y-97960328D01*
X136072856Y-97960328D02*
X136072856Y-96960328D01*
X136072856Y-96460328D02*
X136001428Y-96531757D01*
X136001428Y-96531757D02*
X136072856Y-96603185D01*
X136072856Y-96603185D02*
X136144285Y-96531757D01*
X136144285Y-96531757D02*
X136072856Y-96460328D01*
X136072856Y-96460328D02*
X136072856Y-96603185D01*
X136715714Y-97888900D02*
X136858571Y-97960328D01*
X136858571Y-97960328D02*
X137144285Y-97960328D01*
X137144285Y-97960328D02*
X137287142Y-97888900D01*
X137287142Y-97888900D02*
X137358571Y-97746042D01*
X137358571Y-97746042D02*
X137358571Y-97674614D01*
X137358571Y-97674614D02*
X137287142Y-97531757D01*
X137287142Y-97531757D02*
X137144285Y-97460328D01*
X137144285Y-97460328D02*
X136930000Y-97460328D01*
X136930000Y-97460328D02*
X136787142Y-97388900D01*
X136787142Y-97388900D02*
X136715714Y-97246042D01*
X136715714Y-97246042D02*
X136715714Y-97174614D01*
X136715714Y-97174614D02*
X136787142Y-97031757D01*
X136787142Y-97031757D02*
X136930000Y-96960328D01*
X136930000Y-96960328D02*
X137144285Y-96960328D01*
X137144285Y-96960328D02*
X137287142Y-97031757D01*
X138001428Y-96960328D02*
X138001428Y-98460328D01*
X138001428Y-97031757D02*
X138144286Y-96960328D01*
X138144286Y-96960328D02*
X138430000Y-96960328D01*
X138430000Y-96960328D02*
X138572857Y-97031757D01*
X138572857Y-97031757D02*
X138644286Y-97103185D01*
X138644286Y-97103185D02*
X138715714Y-97246042D01*
X138715714Y-97246042D02*
X138715714Y-97674614D01*
X138715714Y-97674614D02*
X138644286Y-97817471D01*
X138644286Y-97817471D02*
X138572857Y-97888900D01*
X138572857Y-97888900D02*
X138430000Y-97960328D01*
X138430000Y-97960328D02*
X138144286Y-97960328D01*
X138144286Y-97960328D02*
X138001428Y-97888900D01*
X140001429Y-97960328D02*
X140001429Y-97174614D01*
X140001429Y-97174614D02*
X139930000Y-97031757D01*
X139930000Y-97031757D02*
X139787143Y-96960328D01*
X139787143Y-96960328D02*
X139501429Y-96960328D01*
X139501429Y-96960328D02*
X139358571Y-97031757D01*
X140001429Y-97888900D02*
X139858571Y-97960328D01*
X139858571Y-97960328D02*
X139501429Y-97960328D01*
X139501429Y-97960328D02*
X139358571Y-97888900D01*
X139358571Y-97888900D02*
X139287143Y-97746042D01*
X139287143Y-97746042D02*
X139287143Y-97603185D01*
X139287143Y-97603185D02*
X139358571Y-97460328D01*
X139358571Y-97460328D02*
X139501429Y-97388900D01*
X139501429Y-97388900D02*
X139858571Y-97388900D01*
X139858571Y-97388900D02*
X140001429Y-97317471D01*
X140715714Y-97960328D02*
X140715714Y-96960328D01*
X140715714Y-97246042D02*
X140787143Y-97103185D01*
X140787143Y-97103185D02*
X140858572Y-97031757D01*
X140858572Y-97031757D02*
X141001429Y-96960328D01*
X141001429Y-96960328D02*
X141144286Y-96960328D01*
X141858571Y-97960328D02*
X141715714Y-97888900D01*
X141715714Y-97888900D02*
X141644285Y-97817471D01*
X141644285Y-97817471D02*
X141572857Y-97674614D01*
X141572857Y-97674614D02*
X141572857Y-97246042D01*
X141572857Y-97246042D02*
X141644285Y-97103185D01*
X141644285Y-97103185D02*
X141715714Y-97031757D01*
X141715714Y-97031757D02*
X141858571Y-96960328D01*
X141858571Y-96960328D02*
X142072857Y-96960328D01*
X142072857Y-96960328D02*
X142215714Y-97031757D01*
X142215714Y-97031757D02*
X142287143Y-97103185D01*
X142287143Y-97103185D02*
X142358571Y-97246042D01*
X142358571Y-97246042D02*
X142358571Y-97674614D01*
X142358571Y-97674614D02*
X142287143Y-97817471D01*
X142287143Y-97817471D02*
X142215714Y-97888900D01*
X142215714Y-97888900D02*
X142072857Y-97960328D01*
X142072857Y-97960328D02*
X141858571Y-97960328D01*
X149201428Y-96372900D02*
X150344286Y-96372900D01*
X149772857Y-96944328D02*
X149772857Y-95801471D01*
X151130000Y-96944328D02*
X151415714Y-96944328D01*
X151415714Y-96944328D02*
X151558571Y-96872900D01*
X151558571Y-96872900D02*
X151630000Y-96801471D01*
X151630000Y-96801471D02*
X151772857Y-96587185D01*
X151772857Y-96587185D02*
X151844286Y-96301471D01*
X151844286Y-96301471D02*
X151844286Y-95730042D01*
X151844286Y-95730042D02*
X151772857Y-95587185D01*
X151772857Y-95587185D02*
X151701429Y-95515757D01*
X151701429Y-95515757D02*
X151558571Y-95444328D01*
X151558571Y-95444328D02*
X151272857Y-95444328D01*
X151272857Y-95444328D02*
X151130000Y-95515757D01*
X151130000Y-95515757D02*
X151058571Y-95587185D01*
X151058571Y-95587185D02*
X150987143Y-95730042D01*
X150987143Y-95730042D02*
X150987143Y-96087185D01*
X150987143Y-96087185D02*
X151058571Y-96230042D01*
X151058571Y-96230042D02*
X151130000Y-96301471D01*
X151130000Y-96301471D02*
X151272857Y-96372900D01*
X151272857Y-96372900D02*
X151558571Y-96372900D01*
X151558571Y-96372900D02*
X151701429Y-96301471D01*
X151701429Y-96301471D02*
X151772857Y-96230042D01*
X151772857Y-96230042D02*
X151844286Y-96087185D01*
X152272857Y-95444328D02*
X152772857Y-96944328D01*
X152772857Y-96944328D02*
X153272857Y-95444328D01*
X121002900Y-101892856D02*
X121074328Y-101678571D01*
X121074328Y-101678571D02*
X121074328Y-101321428D01*
X121074328Y-101321428D02*
X121002900Y-101178571D01*
X121002900Y-101178571D02*
X120931471Y-101107142D01*
X120931471Y-101107142D02*
X120788614Y-101035713D01*
X120788614Y-101035713D02*
X120645757Y-101035713D01*
X120645757Y-101035713D02*
X120502900Y-101107142D01*
X120502900Y-101107142D02*
X120431471Y-101178571D01*
X120431471Y-101178571D02*
X120360042Y-101321428D01*
X120360042Y-101321428D02*
X120288614Y-101607142D01*
X120288614Y-101607142D02*
X120217185Y-101749999D01*
X120217185Y-101749999D02*
X120145757Y-101821428D01*
X120145757Y-101821428D02*
X120002900Y-101892856D01*
X120002900Y-101892856D02*
X119860042Y-101892856D01*
X119860042Y-101892856D02*
X119717185Y-101821428D01*
X119717185Y-101821428D02*
X119645757Y-101749999D01*
X119645757Y-101749999D02*
X119574328Y-101607142D01*
X119574328Y-101607142D02*
X119574328Y-101249999D01*
X119574328Y-101249999D02*
X119645757Y-101035713D01*
X121074328Y-99750000D02*
X120288614Y-99750000D01*
X120288614Y-99750000D02*
X120145757Y-99821428D01*
X120145757Y-99821428D02*
X120074328Y-99964285D01*
X120074328Y-99964285D02*
X120074328Y-100250000D01*
X120074328Y-100250000D02*
X120145757Y-100392857D01*
X121002900Y-99750000D02*
X121074328Y-99892857D01*
X121074328Y-99892857D02*
X121074328Y-100250000D01*
X121074328Y-100250000D02*
X121002900Y-100392857D01*
X121002900Y-100392857D02*
X120860042Y-100464285D01*
X120860042Y-100464285D02*
X120717185Y-100464285D01*
X120717185Y-100464285D02*
X120574328Y-100392857D01*
X120574328Y-100392857D02*
X120502900Y-100250000D01*
X120502900Y-100250000D02*
X120502900Y-99892857D01*
X120502900Y-99892857D02*
X120431471Y-99750000D01*
X121074328Y-99035714D02*
X120074328Y-99035714D01*
X119502900Y-98892857D02*
X119717185Y-99107142D01*
X121074328Y-97678571D02*
X119574328Y-97678571D01*
X121002900Y-97678571D02*
X121074328Y-97821428D01*
X121074328Y-97821428D02*
X121074328Y-98107142D01*
X121074328Y-98107142D02*
X121002900Y-98249999D01*
X121002900Y-98249999D02*
X120931471Y-98321428D01*
X120931471Y-98321428D02*
X120788614Y-98392856D01*
X120788614Y-98392856D02*
X120360042Y-98392856D01*
X120360042Y-98392856D02*
X120217185Y-98321428D01*
X120217185Y-98321428D02*
X120145757Y-98249999D01*
X120145757Y-98249999D02*
X120074328Y-98107142D01*
X120074328Y-98107142D02*
X120074328Y-97821428D01*
X120074328Y-97821428D02*
X120145757Y-97678571D01*
X121074328Y-96321428D02*
X120288614Y-96321428D01*
X120288614Y-96321428D02*
X120145757Y-96392856D01*
X120145757Y-96392856D02*
X120074328Y-96535713D01*
X120074328Y-96535713D02*
X120074328Y-96821428D01*
X120074328Y-96821428D02*
X120145757Y-96964285D01*
X121002900Y-96321428D02*
X121074328Y-96464285D01*
X121074328Y-96464285D02*
X121074328Y-96821428D01*
X121074328Y-96821428D02*
X121002900Y-96964285D01*
X121002900Y-96964285D02*
X120860042Y-97035713D01*
X120860042Y-97035713D02*
X120717185Y-97035713D01*
X120717185Y-97035713D02*
X120574328Y-96964285D01*
X120574328Y-96964285D02*
X120502900Y-96821428D01*
X120502900Y-96821428D02*
X120502900Y-96464285D01*
X120502900Y-96464285D02*
X120431471Y-96321428D01*
X120931471Y-93607142D02*
X121002900Y-93678570D01*
X121002900Y-93678570D02*
X121074328Y-93892856D01*
X121074328Y-93892856D02*
X121074328Y-94035713D01*
X121074328Y-94035713D02*
X121002900Y-94249999D01*
X121002900Y-94249999D02*
X120860042Y-94392856D01*
X120860042Y-94392856D02*
X120717185Y-94464285D01*
X120717185Y-94464285D02*
X120431471Y-94535713D01*
X120431471Y-94535713D02*
X120217185Y-94535713D01*
X120217185Y-94535713D02*
X119931471Y-94464285D01*
X119931471Y-94464285D02*
X119788614Y-94392856D01*
X119788614Y-94392856D02*
X119645757Y-94249999D01*
X119645757Y-94249999D02*
X119574328Y-94035713D01*
X119574328Y-94035713D02*
X119574328Y-93892856D01*
X119574328Y-93892856D02*
X119645757Y-93678570D01*
X119645757Y-93678570D02*
X119717185Y-93607142D01*
X121074328Y-92321428D02*
X120288614Y-92321428D01*
X120288614Y-92321428D02*
X120145757Y-92392856D01*
X120145757Y-92392856D02*
X120074328Y-92535713D01*
X120074328Y-92535713D02*
X120074328Y-92821428D01*
X120074328Y-92821428D02*
X120145757Y-92964285D01*
X121002900Y-92321428D02*
X121074328Y-92464285D01*
X121074328Y-92464285D02*
X121074328Y-92821428D01*
X121074328Y-92821428D02*
X121002900Y-92964285D01*
X121002900Y-92964285D02*
X120860042Y-93035713D01*
X120860042Y-93035713D02*
X120717185Y-93035713D01*
X120717185Y-93035713D02*
X120574328Y-92964285D01*
X120574328Y-92964285D02*
X120502900Y-92821428D01*
X120502900Y-92821428D02*
X120502900Y-92464285D01*
X120502900Y-92464285D02*
X120431471Y-92321428D01*
X121074328Y-91607142D02*
X120074328Y-91607142D01*
X120360042Y-91607142D02*
X120217185Y-91535713D01*
X120217185Y-91535713D02*
X120145757Y-91464285D01*
X120145757Y-91464285D02*
X120074328Y-91321427D01*
X120074328Y-91321427D02*
X120074328Y-91178570D01*
X120074328Y-90035714D02*
X121288614Y-90035714D01*
X121288614Y-90035714D02*
X121431471Y-90107142D01*
X121431471Y-90107142D02*
X121502900Y-90178571D01*
X121502900Y-90178571D02*
X121574328Y-90321428D01*
X121574328Y-90321428D02*
X121574328Y-90535714D01*
X121574328Y-90535714D02*
X121502900Y-90678571D01*
X121002900Y-90035714D02*
X121074328Y-90178571D01*
X121074328Y-90178571D02*
X121074328Y-90464285D01*
X121074328Y-90464285D02*
X121002900Y-90607142D01*
X121002900Y-90607142D02*
X120931471Y-90678571D01*
X120931471Y-90678571D02*
X120788614Y-90749999D01*
X120788614Y-90749999D02*
X120360042Y-90749999D01*
X120360042Y-90749999D02*
X120217185Y-90678571D01*
X120217185Y-90678571D02*
X120145757Y-90607142D01*
X120145757Y-90607142D02*
X120074328Y-90464285D01*
X120074328Y-90464285D02*
X120074328Y-90178571D01*
X120074328Y-90178571D02*
X120145757Y-90035714D01*
X121074328Y-88678571D02*
X120288614Y-88678571D01*
X120288614Y-88678571D02*
X120145757Y-88749999D01*
X120145757Y-88749999D02*
X120074328Y-88892856D01*
X120074328Y-88892856D02*
X120074328Y-89178571D01*
X120074328Y-89178571D02*
X120145757Y-89321428D01*
X121002900Y-88678571D02*
X121074328Y-88821428D01*
X121074328Y-88821428D02*
X121074328Y-89178571D01*
X121074328Y-89178571D02*
X121002900Y-89321428D01*
X121002900Y-89321428D02*
X120860042Y-89392856D01*
X120860042Y-89392856D02*
X120717185Y-89392856D01*
X120717185Y-89392856D02*
X120574328Y-89321428D01*
X120574328Y-89321428D02*
X120502900Y-89178571D01*
X120502900Y-89178571D02*
X120502900Y-88821428D01*
X120502900Y-88821428D02*
X120431471Y-88678571D01*
X132778571Y-108564900D02*
X133921429Y-108564900D01*
X133350000Y-109136328D02*
X133350000Y-107993471D01*
X148487143Y-100436900D02*
X149630001Y-100436900D01*
X149058572Y-101008328D02*
X149058572Y-99865471D01*
X151130001Y-101008328D02*
X150272858Y-101008328D01*
X150701429Y-101008328D02*
X150701429Y-99508328D01*
X150701429Y-99508328D02*
X150558572Y-99722614D01*
X150558572Y-99722614D02*
X150415715Y-99865471D01*
X150415715Y-99865471D02*
X150272858Y-99936900D01*
X151701429Y-99651185D02*
X151772857Y-99579757D01*
X151772857Y-99579757D02*
X151915715Y-99508328D01*
X151915715Y-99508328D02*
X152272857Y-99508328D01*
X152272857Y-99508328D02*
X152415715Y-99579757D01*
X152415715Y-99579757D02*
X152487143Y-99651185D01*
X152487143Y-99651185D02*
X152558572Y-99794042D01*
X152558572Y-99794042D02*
X152558572Y-99936900D01*
X152558572Y-99936900D02*
X152487143Y-100151185D01*
X152487143Y-100151185D02*
X151630000Y-101008328D01*
X151630000Y-101008328D02*
X152558572Y-101008328D01*
X152987143Y-99508328D02*
X153487143Y-101008328D01*
X153487143Y-101008328D02*
X153987143Y-99508328D01*
D12*
X121499333Y-114754819D02*
X121166000Y-114278628D01*
X120927905Y-114754819D02*
X120927905Y-113754819D01*
X120927905Y-113754819D02*
X121308857Y-113754819D01*
X121308857Y-113754819D02*
X121404095Y-113802438D01*
X121404095Y-113802438D02*
X121451714Y-113850057D01*
X121451714Y-113850057D02*
X121499333Y-113945295D01*
X121499333Y-113945295D02*
X121499333Y-114088152D01*
X121499333Y-114088152D02*
X121451714Y-114183390D01*
X121451714Y-114183390D02*
X121404095Y-114231009D01*
X121404095Y-114231009D02*
X121308857Y-114278628D01*
X121308857Y-114278628D02*
X120927905Y-114278628D01*
X121880286Y-113850057D02*
X121927905Y-113802438D01*
X121927905Y-113802438D02*
X122023143Y-113754819D01*
X122023143Y-113754819D02*
X122261238Y-113754819D01*
X122261238Y-113754819D02*
X122356476Y-113802438D01*
X122356476Y-113802438D02*
X122404095Y-113850057D01*
X122404095Y-113850057D02*
X122451714Y-113945295D01*
X122451714Y-113945295D02*
X122451714Y-114040533D01*
X122451714Y-114040533D02*
X122404095Y-114183390D01*
X122404095Y-114183390D02*
X121832667Y-114754819D01*
X121832667Y-114754819D02*
X122451714Y-114754819D01*
X160361333Y-117040819D02*
X160028000Y-116564628D01*
X159789905Y-117040819D02*
X159789905Y-116040819D01*
X159789905Y-116040819D02*
X160170857Y-116040819D01*
X160170857Y-116040819D02*
X160266095Y-116088438D01*
X160266095Y-116088438D02*
X160313714Y-116136057D01*
X160313714Y-116136057D02*
X160361333Y-116231295D01*
X160361333Y-116231295D02*
X160361333Y-116374152D01*
X160361333Y-116374152D02*
X160313714Y-116469390D01*
X160313714Y-116469390D02*
X160266095Y-116517009D01*
X160266095Y-116517009D02*
X160170857Y-116564628D01*
X160170857Y-116564628D02*
X159789905Y-116564628D01*
X161218476Y-116374152D02*
X161218476Y-117040819D01*
X160980381Y-115993200D02*
X160742286Y-116707485D01*
X160742286Y-116707485D02*
X161361333Y-116707485D01*
X136318666Y-94196819D02*
X136318666Y-94911104D01*
X136318666Y-94911104D02*
X136271047Y-95053961D01*
X136271047Y-95053961D02*
X136175809Y-95149200D01*
X136175809Y-95149200D02*
X136032952Y-95196819D01*
X136032952Y-95196819D02*
X135937714Y-95196819D01*
X136699619Y-94196819D02*
X137318666Y-94196819D01*
X137318666Y-94196819D02*
X136985333Y-94577771D01*
X136985333Y-94577771D02*
X137128190Y-94577771D01*
X137128190Y-94577771D02*
X137223428Y-94625390D01*
X137223428Y-94625390D02*
X137271047Y-94673009D01*
X137271047Y-94673009D02*
X137318666Y-94768247D01*
X137318666Y-94768247D02*
X137318666Y-95006342D01*
X137318666Y-95006342D02*
X137271047Y-95101580D01*
X137271047Y-95101580D02*
X137223428Y-95149200D01*
X137223428Y-95149200D02*
X137128190Y-95196819D01*
X137128190Y-95196819D02*
X136842476Y-95196819D01*
X136842476Y-95196819D02*
X136747238Y-95149200D01*
X136747238Y-95149200D02*
X136699619Y-95101580D01*
X159448667Y-119279200D02*
X159591524Y-119326819D01*
X159591524Y-119326819D02*
X159829619Y-119326819D01*
X159829619Y-119326819D02*
X159924857Y-119279200D01*
X159924857Y-119279200D02*
X159972476Y-119231580D01*
X159972476Y-119231580D02*
X160020095Y-119136342D01*
X160020095Y-119136342D02*
X160020095Y-119041104D01*
X160020095Y-119041104D02*
X159972476Y-118945866D01*
X159972476Y-118945866D02*
X159924857Y-118898247D01*
X159924857Y-118898247D02*
X159829619Y-118850628D01*
X159829619Y-118850628D02*
X159639143Y-118803009D01*
X159639143Y-118803009D02*
X159543905Y-118755390D01*
X159543905Y-118755390D02*
X159496286Y-118707771D01*
X159496286Y-118707771D02*
X159448667Y-118612533D01*
X159448667Y-118612533D02*
X159448667Y-118517295D01*
X159448667Y-118517295D02*
X159496286Y-118422057D01*
X159496286Y-118422057D02*
X159543905Y-118374438D01*
X159543905Y-118374438D02*
X159639143Y-118326819D01*
X159639143Y-118326819D02*
X159877238Y-118326819D01*
X159877238Y-118326819D02*
X160020095Y-118374438D01*
X160353429Y-118326819D02*
X160591524Y-119326819D01*
X160591524Y-119326819D02*
X160782000Y-118612533D01*
X160782000Y-118612533D02*
X160972476Y-119326819D01*
X160972476Y-119326819D02*
X161210572Y-118326819D01*
X162115333Y-119326819D02*
X161543905Y-119326819D01*
X161829619Y-119326819D02*
X161829619Y-118326819D01*
X161829619Y-118326819D02*
X161734381Y-118469676D01*
X161734381Y-118469676D02*
X161639143Y-118564914D01*
X161639143Y-118564914D02*
X161543905Y-118612533D01*
X125904666Y-95466819D02*
X125904666Y-96181104D01*
X125904666Y-96181104D02*
X125857047Y-96323961D01*
X125857047Y-96323961D02*
X125761809Y-96419200D01*
X125761809Y-96419200D02*
X125618952Y-96466819D01*
X125618952Y-96466819D02*
X125523714Y-96466819D01*
X126904666Y-96466819D02*
X126333238Y-96466819D01*
X126618952Y-96466819D02*
X126618952Y-95466819D01*
X126618952Y-95466819D02*
X126523714Y-95609676D01*
X126523714Y-95609676D02*
X126428476Y-95704914D01*
X126428476Y-95704914D02*
X126333238Y-95752533D01*
X160702666Y-92672819D02*
X160702666Y-93387104D01*
X160702666Y-93387104D02*
X160655047Y-93529961D01*
X160655047Y-93529961D02*
X160559809Y-93625200D01*
X160559809Y-93625200D02*
X160416952Y-93672819D01*
X160416952Y-93672819D02*
X160321714Y-93672819D01*
X161131238Y-92768057D02*
X161178857Y-92720438D01*
X161178857Y-92720438D02*
X161274095Y-92672819D01*
X161274095Y-92672819D02*
X161512190Y-92672819D01*
X161512190Y-92672819D02*
X161607428Y-92720438D01*
X161607428Y-92720438D02*
X161655047Y-92768057D01*
X161655047Y-92768057D02*
X161702666Y-92863295D01*
X161702666Y-92863295D02*
X161702666Y-92958533D01*
X161702666Y-92958533D02*
X161655047Y-93101390D01*
X161655047Y-93101390D02*
X161083619Y-93672819D01*
X161083619Y-93672819D02*
X161702666Y-93672819D01*
X150455333Y-109166819D02*
X150122000Y-108690628D01*
X149883905Y-109166819D02*
X149883905Y-108166819D01*
X149883905Y-108166819D02*
X150264857Y-108166819D01*
X150264857Y-108166819D02*
X150360095Y-108214438D01*
X150360095Y-108214438D02*
X150407714Y-108262057D01*
X150407714Y-108262057D02*
X150455333Y-108357295D01*
X150455333Y-108357295D02*
X150455333Y-108500152D01*
X150455333Y-108500152D02*
X150407714Y-108595390D01*
X150407714Y-108595390D02*
X150360095Y-108643009D01*
X150360095Y-108643009D02*
X150264857Y-108690628D01*
X150264857Y-108690628D02*
X149883905Y-108690628D01*
X151407714Y-109166819D02*
X150836286Y-109166819D01*
X151122000Y-109166819D02*
X151122000Y-108166819D01*
X151122000Y-108166819D02*
X151026762Y-108309676D01*
X151026762Y-108309676D02*
X150931524Y-108404914D01*
X150931524Y-108404914D02*
X150836286Y-108452533D01*
X121499333Y-118310819D02*
X121166000Y-117834628D01*
X120927905Y-118310819D02*
X120927905Y-117310819D01*
X120927905Y-117310819D02*
X121308857Y-117310819D01*
X121308857Y-117310819D02*
X121404095Y-117358438D01*
X121404095Y-117358438D02*
X121451714Y-117406057D01*
X121451714Y-117406057D02*
X121499333Y-117501295D01*
X121499333Y-117501295D02*
X121499333Y-117644152D01*
X121499333Y-117644152D02*
X121451714Y-117739390D01*
X121451714Y-117739390D02*
X121404095Y-117787009D01*
X121404095Y-117787009D02*
X121308857Y-117834628D01*
X121308857Y-117834628D02*
X120927905Y-117834628D01*
X121832667Y-117310819D02*
X122451714Y-117310819D01*
X122451714Y-117310819D02*
X122118381Y-117691771D01*
X122118381Y-117691771D02*
X122261238Y-117691771D01*
X122261238Y-117691771D02*
X122356476Y-117739390D01*
X122356476Y-117739390D02*
X122404095Y-117787009D01*
X122404095Y-117787009D02*
X122451714Y-117882247D01*
X122451714Y-117882247D02*
X122451714Y-118120342D01*
X122451714Y-118120342D02*
X122404095Y-118215580D01*
X122404095Y-118215580D02*
X122356476Y-118263200D01*
X122356476Y-118263200D02*
X122261238Y-118310819D01*
X122261238Y-118310819D02*
X121975524Y-118310819D01*
X121975524Y-118310819D02*
X121880286Y-118263200D01*
X121880286Y-118263200D02*
X121832667Y-118215580D01*
X135890095Y-102070819D02*
X135890095Y-102880342D01*
X135890095Y-102880342D02*
X135937714Y-102975580D01*
X135937714Y-102975580D02*
X135985333Y-103023200D01*
X135985333Y-103023200D02*
X136080571Y-103070819D01*
X136080571Y-103070819D02*
X136271047Y-103070819D01*
X136271047Y-103070819D02*
X136366285Y-103023200D01*
X136366285Y-103023200D02*
X136413904Y-102975580D01*
X136413904Y-102975580D02*
X136461523Y-102880342D01*
X136461523Y-102880342D02*
X136461523Y-102070819D01*
X137461523Y-103070819D02*
X136890095Y-103070819D01*
X137175809Y-103070819D02*
X137175809Y-102070819D01*
X137175809Y-102070819D02*
X137080571Y-102213676D01*
X137080571Y-102213676D02*
X136985333Y-102308914D01*
X136985333Y-102308914D02*
X136890095Y-102356533D01*
X125753905Y-105356819D02*
X125753905Y-104356819D01*
X125753905Y-104356819D02*
X125992000Y-104356819D01*
X125992000Y-104356819D02*
X126134857Y-104404438D01*
X126134857Y-104404438D02*
X126230095Y-104499676D01*
X126230095Y-104499676D02*
X126277714Y-104594914D01*
X126277714Y-104594914D02*
X126325333Y-104785390D01*
X126325333Y-104785390D02*
X126325333Y-104928247D01*
X126325333Y-104928247D02*
X126277714Y-105118723D01*
X126277714Y-105118723D02*
X126230095Y-105213961D01*
X126230095Y-105213961D02*
X126134857Y-105309200D01*
X126134857Y-105309200D02*
X125992000Y-105356819D01*
X125992000Y-105356819D02*
X125753905Y-105356819D01*
X126658667Y-104356819D02*
X127277714Y-104356819D01*
X127277714Y-104356819D02*
X126944381Y-104737771D01*
X126944381Y-104737771D02*
X127087238Y-104737771D01*
X127087238Y-104737771D02*
X127182476Y-104785390D01*
X127182476Y-104785390D02*
X127230095Y-104833009D01*
X127230095Y-104833009D02*
X127277714Y-104928247D01*
X127277714Y-104928247D02*
X127277714Y-105166342D01*
X127277714Y-105166342D02*
X127230095Y-105261580D01*
X127230095Y-105261580D02*
X127182476Y-105309200D01*
X127182476Y-105309200D02*
X127087238Y-105356819D01*
X127087238Y-105356819D02*
X126801524Y-105356819D01*
X126801524Y-105356819D02*
X126706286Y-105309200D01*
X126706286Y-105309200D02*
X126658667Y-105261580D01*
X133183333Y-102721580D02*
X133135714Y-102769200D01*
X133135714Y-102769200D02*
X132992857Y-102816819D01*
X132992857Y-102816819D02*
X132897619Y-102816819D01*
X132897619Y-102816819D02*
X132754762Y-102769200D01*
X132754762Y-102769200D02*
X132659524Y-102673961D01*
X132659524Y-102673961D02*
X132611905Y-102578723D01*
X132611905Y-102578723D02*
X132564286Y-102388247D01*
X132564286Y-102388247D02*
X132564286Y-102245390D01*
X132564286Y-102245390D02*
X132611905Y-102054914D01*
X132611905Y-102054914D02*
X132659524Y-101959676D01*
X132659524Y-101959676D02*
X132754762Y-101864438D01*
X132754762Y-101864438D02*
X132897619Y-101816819D01*
X132897619Y-101816819D02*
X132992857Y-101816819D01*
X132992857Y-101816819D02*
X133135714Y-101864438D01*
X133135714Y-101864438D02*
X133183333Y-101912057D01*
X134135714Y-102816819D02*
X133564286Y-102816819D01*
X133850000Y-102816819D02*
X133850000Y-101816819D01*
X133850000Y-101816819D02*
X133754762Y-101959676D01*
X133754762Y-101959676D02*
X133659524Y-102054914D01*
X133659524Y-102054914D02*
X133564286Y-102102533D01*
X140823333Y-118941580D02*
X140775714Y-118989200D01*
X140775714Y-118989200D02*
X140632857Y-119036819D01*
X140632857Y-119036819D02*
X140537619Y-119036819D01*
X140537619Y-119036819D02*
X140394762Y-118989200D01*
X140394762Y-118989200D02*
X140299524Y-118893961D01*
X140299524Y-118893961D02*
X140251905Y-118798723D01*
X140251905Y-118798723D02*
X140204286Y-118608247D01*
X140204286Y-118608247D02*
X140204286Y-118465390D01*
X140204286Y-118465390D02*
X140251905Y-118274914D01*
X140251905Y-118274914D02*
X140299524Y-118179676D01*
X140299524Y-118179676D02*
X140394762Y-118084438D01*
X140394762Y-118084438D02*
X140537619Y-118036819D01*
X140537619Y-118036819D02*
X140632857Y-118036819D01*
X140632857Y-118036819D02*
X140775714Y-118084438D01*
X140775714Y-118084438D02*
X140823333Y-118132057D01*
X141204286Y-118132057D02*
X141251905Y-118084438D01*
X141251905Y-118084438D02*
X141347143Y-118036819D01*
X141347143Y-118036819D02*
X141585238Y-118036819D01*
X141585238Y-118036819D02*
X141680476Y-118084438D01*
X141680476Y-118084438D02*
X141728095Y-118132057D01*
X141728095Y-118132057D02*
X141775714Y-118227295D01*
X141775714Y-118227295D02*
X141775714Y-118322533D01*
X141775714Y-118322533D02*
X141728095Y-118465390D01*
X141728095Y-118465390D02*
X141156667Y-119036819D01*
X141156667Y-119036819D02*
X141775714Y-119036819D01*
D13*
X124738000Y-114808000D02*
X125508000Y-114808000D01*
X125508000Y-113438000D02*
X125508000Y-116178000D01*
X125508000Y-116178000D02*
X132048000Y-116178000D01*
X132048000Y-113438000D02*
X125508000Y-113438000D01*
X132048000Y-116178000D02*
X132048000Y-113438000D01*
X132818000Y-114808000D02*
X132048000Y-114808000D01*
X151916000Y-114300000D02*
X152686000Y-114300000D01*
X152686000Y-112930000D02*
X152686000Y-115670000D01*
X152686000Y-115670000D02*
X159226000Y-115670000D01*
X159226000Y-112930000D02*
X152686000Y-112930000D01*
X159226000Y-115670000D02*
X159226000Y-112930000D01*
X159996000Y-114300000D02*
X159226000Y-114300000D01*
X135390000Y-85574000D02*
X137390000Y-85574000D01*
X135390000Y-86824000D02*
X135390000Y-85574000D01*
X135780000Y-85964000D02*
X135780000Y-93434000D01*
X135780000Y-93434000D02*
X146160000Y-93434000D01*
X136930000Y-86924000D02*
X139930000Y-86924000D01*
X136930000Y-88274000D02*
X137680000Y-88274000D01*
X136930000Y-92574000D02*
X136930000Y-88274000D01*
X137180000Y-87924000D02*
X136930000Y-86924000D01*
X137680000Y-87924000D02*
X137180000Y-87924000D01*
X137680000Y-88274000D02*
X137680000Y-87924000D01*
X137680000Y-92574000D02*
X136930000Y-92574000D01*
X139180000Y-87924000D02*
X139180000Y-88274000D01*
X139180000Y-88274000D02*
X139930000Y-88274000D01*
X139680000Y-87924000D02*
X139180000Y-87924000D01*
X139930000Y-86924000D02*
X139680000Y-87924000D01*
X139930000Y-88274000D02*
X139930000Y-92574000D01*
X139930000Y-92574000D02*
X139180000Y-92574000D01*
X142010000Y-86924000D02*
X145010000Y-86924000D01*
X142010000Y-88274000D02*
X142760000Y-88274000D01*
X142010000Y-92574000D02*
X142010000Y-88274000D01*
X142260000Y-87924000D02*
X142010000Y-86924000D01*
X142760000Y-87924000D02*
X142260000Y-87924000D01*
X142760000Y-88274000D02*
X142760000Y-87924000D01*
X142760000Y-92574000D02*
X142010000Y-92574000D01*
X144260000Y-87924000D02*
X144260000Y-88274000D01*
X144260000Y-88274000D02*
X145010000Y-88274000D01*
X144760000Y-87924000D02*
X144260000Y-87924000D01*
X145010000Y-86924000D02*
X144760000Y-87924000D01*
X145010000Y-88274000D02*
X145010000Y-92574000D01*
X145010000Y-92574000D02*
X144260000Y-92574000D01*
X146160000Y-85964000D02*
X135780000Y-85964000D01*
X146160000Y-93434000D02*
X146160000Y-85964000D01*
X137680000Y-92574000D02*
G75*
G02*
X139179647Y-92573844I750000J-1700000D01*
G01*
X142760000Y-92574000D02*
G75*
G02*
X144259647Y-92573844I750000J-1700000D01*
G01*
X152762000Y-122730000D02*
X152762000Y-124230000D01*
X154012000Y-126730000D02*
X158512000Y-126730000D01*
X158512000Y-120230000D02*
X154012000Y-120230000D01*
X159762000Y-124230000D02*
X159762000Y-122730000D01*
X121928000Y-85574000D02*
X123928000Y-85574000D01*
X121928000Y-86824000D02*
X121928000Y-85574000D01*
X122318000Y-85964000D02*
X122318000Y-93434000D01*
X122318000Y-93434000D02*
X132698000Y-93434000D01*
X123468000Y-86924000D02*
X126468000Y-86924000D01*
X123468000Y-88274000D02*
X124218000Y-88274000D01*
X123468000Y-92574000D02*
X123468000Y-88274000D01*
X123718000Y-87924000D02*
X123468000Y-86924000D01*
X124218000Y-87924000D02*
X123718000Y-87924000D01*
X124218000Y-88274000D02*
X124218000Y-87924000D01*
X124218000Y-92574000D02*
X123468000Y-92574000D01*
X125718000Y-87924000D02*
X125718000Y-88274000D01*
X125718000Y-88274000D02*
X126468000Y-88274000D01*
X126218000Y-87924000D02*
X125718000Y-87924000D01*
X126468000Y-86924000D02*
X126218000Y-87924000D01*
X126468000Y-88274000D02*
X126468000Y-92574000D01*
X126468000Y-92574000D02*
X125718000Y-92574000D01*
X128548000Y-86924000D02*
X131548000Y-86924000D01*
X128548000Y-88274000D02*
X129298000Y-88274000D01*
X128548000Y-92574000D02*
X128548000Y-88274000D01*
X128798000Y-87924000D02*
X128548000Y-86924000D01*
X129298000Y-87924000D02*
X128798000Y-87924000D01*
X129298000Y-88274000D02*
X129298000Y-87924000D01*
X129298000Y-92574000D02*
X128548000Y-92574000D01*
X130798000Y-87924000D02*
X130798000Y-88274000D01*
X130798000Y-88274000D02*
X131548000Y-88274000D01*
X131298000Y-87924000D02*
X130798000Y-87924000D01*
X131548000Y-86924000D02*
X131298000Y-87924000D01*
X131548000Y-88274000D02*
X131548000Y-92574000D01*
X131548000Y-92574000D02*
X130798000Y-92574000D01*
X132698000Y-85964000D02*
X122318000Y-85964000D01*
X132698000Y-93434000D02*
X132698000Y-85964000D01*
X124218000Y-92574000D02*
G75*
G02*
X125717647Y-92573844I750000J-1700000D01*
G01*
X129298000Y-92574000D02*
G75*
G02*
X130797647Y-92573844I750000J-1700000D01*
G01*
X148852000Y-85574000D02*
X150852000Y-85574000D01*
X148852000Y-86824000D02*
X148852000Y-85574000D01*
X149242000Y-85964000D02*
X149242000Y-93434000D01*
X149242000Y-93434000D02*
X159622000Y-93434000D01*
X150392000Y-86924000D02*
X153392000Y-86924000D01*
X150392000Y-88274000D02*
X151142000Y-88274000D01*
X150392000Y-92574000D02*
X150392000Y-88274000D01*
X150642000Y-87924000D02*
X150392000Y-86924000D01*
X151142000Y-87924000D02*
X150642000Y-87924000D01*
X151142000Y-88274000D02*
X151142000Y-87924000D01*
X151142000Y-92574000D02*
X150392000Y-92574000D01*
X152642000Y-87924000D02*
X152642000Y-88274000D01*
X152642000Y-88274000D02*
X153392000Y-88274000D01*
X153142000Y-87924000D02*
X152642000Y-87924000D01*
X153392000Y-86924000D02*
X153142000Y-87924000D01*
X153392000Y-88274000D02*
X153392000Y-92574000D01*
X153392000Y-92574000D02*
X152642000Y-92574000D01*
X155472000Y-86924000D02*
X158472000Y-86924000D01*
X155472000Y-88274000D02*
X156222000Y-88274000D01*
X155472000Y-92574000D02*
X155472000Y-88274000D01*
X155722000Y-87924000D02*
X155472000Y-86924000D01*
X156222000Y-87924000D02*
X155722000Y-87924000D01*
X156222000Y-88274000D02*
X156222000Y-87924000D01*
X156222000Y-92574000D02*
X155472000Y-92574000D01*
X157722000Y-87924000D02*
X157722000Y-88274000D01*
X157722000Y-88274000D02*
X158472000Y-88274000D01*
X158222000Y-87924000D02*
X157722000Y-87924000D01*
X158472000Y-86924000D02*
X158222000Y-87924000D01*
X158472000Y-88274000D02*
X158472000Y-92574000D01*
X158472000Y-92574000D02*
X157722000Y-92574000D01*
X159622000Y-85964000D02*
X149242000Y-85964000D01*
X159622000Y-93434000D02*
X159622000Y-85964000D01*
X151142000Y-92574000D02*
G75*
G02*
X152641647Y-92573844I750000J-1700000D01*
G01*
X156222000Y-92574000D02*
G75*
G02*
X157721647Y-92573844I750000J-1700000D01*
G01*
X151916000Y-110998000D02*
X152686000Y-110998000D01*
X152686000Y-109628000D02*
X152686000Y-112368000D01*
X152686000Y-112368000D02*
X159226000Y-112368000D01*
X159226000Y-109628000D02*
X152686000Y-109628000D01*
X159226000Y-112368000D02*
X159226000Y-109628000D01*
X159996000Y-110998000D02*
X159226000Y-110998000D01*
X124738000Y-118110000D02*
X125508000Y-118110000D01*
X125508000Y-116740000D02*
X125508000Y-119480000D01*
X125508000Y-119480000D02*
X132048000Y-119480000D01*
X132048000Y-116740000D02*
X125508000Y-116740000D01*
X132048000Y-119480000D02*
X132048000Y-116740000D01*
X132818000Y-118110000D02*
X132048000Y-118110000D01*
X135720000Y-103512000D02*
X135720000Y-113912000D01*
X135720000Y-113912000D02*
X146220000Y-113912000D01*
X138720000Y-103572000D02*
X138720000Y-113852000D01*
X138720000Y-113852000D02*
X143220000Y-113852000D01*
X139970000Y-103572000D02*
X138720000Y-103572000D01*
X143220000Y-103572000D02*
X141970000Y-103572000D01*
X143220000Y-113852000D02*
X143220000Y-103572000D01*
X146220000Y-103512000D02*
X135720000Y-103512000D01*
X146220000Y-113912000D02*
X146220000Y-103512000D01*
X141970000Y-103572000D02*
G75*
G02*
X139970000Y-103572000I-1000000J0D01*
G01*
X129053000Y-106152000D02*
X125963000Y-106152000D01*
X127508462Y-111702000D02*
G75*
G02*
X125963170Y-106152000I-462J2990000D01*
G01*
X129052830Y-106152000D02*
G75*
G02*
X127507538Y-111702000I-1544830J-2560000D01*
G01*
X130008000Y-108712000D02*
G75*
G02*
X125008000Y-108712000I-2500000J0D01*
G01*
X125008000Y-108712000D02*
G75*
G02*
X130008000Y-108712000I2500000J0D01*
G01*
X132230000Y-103810000D02*
X132295000Y-103810000D01*
X132230000Y-107050000D02*
X132230000Y-103810000D01*
X132230000Y-107050000D02*
X132295000Y-107050000D01*
X134405000Y-103810000D02*
X134470000Y-103810000D01*
X134405000Y-107050000D02*
X134470000Y-107050000D01*
X134470000Y-107050000D02*
X134470000Y-103810000D01*
X139370000Y-115277000D02*
X139370000Y-115212000D01*
X139370000Y-117452000D02*
X139370000Y-117387000D01*
X142610000Y-115212000D02*
X139370000Y-115212000D01*
X142610000Y-115277000D02*
X142610000Y-115212000D01*
X142610000Y-117452000D02*
X139370000Y-117452000D01*
X142610000Y-117452000D02*
X142610000Y-117387000D01*
M02*
