G04 #@! TF.GenerationSoftware,KiCad,Pcbnew,8.0.6*
G04 #@! TF.CreationDate,2024-11-03T17:07:20-03:00*
G04 #@! TF.ProjectId,555-temporizador-r01,3535352d-7465-46d7-906f-72697a61646f,rev?*
G04 #@! TF.SameCoordinates,Original*
G04 #@! TF.FileFunction,Copper,L2,Bot*
G04 #@! TF.FilePolarity,Positive*
%FSLAX46Y46*%
G04 Gerber Fmt 4.6, Leading zero omitted, Abs format (unit mm)*
G04 Created by KiCad (PCBNEW 8.0.6) date 2024-11-03 17:07:20*
%MOMM*%
%LPD*%
G01*
G04 APERTURE LIST*
G04 Aperture macros list*
%AMRoundRect*
0 Rectangle with rounded corners*
0 $1 Rounding radius*
0 $2 $3 $4 $5 $6 $7 $8 $9 X,Y pos of 4 corners*
0 Add a 4 corners polygon primitive as box body*
4,1,4,$2,$3,$4,$5,$6,$7,$8,$9,$2,$3,0*
0 Add four circle primitives for the rounded corners*
1,1,$1+$1,$2,$3*
1,1,$1+$1,$4,$5*
1,1,$1+$1,$6,$7*
1,1,$1+$1,$8,$9*
0 Add four rect primitives between the rounded corners*
20,1,$1+$1,$2,$3,$4,$5,0*
20,1,$1+$1,$4,$5,$6,$7,0*
20,1,$1+$1,$6,$7,$8,$9,0*
20,1,$1+$1,$8,$9,$2,$3,0*%
G04 Aperture macros list end*
G04 #@! TA.AperFunction,ComponentPad*
%ADD10C,1.600000*%
G04 #@! TD*
G04 #@! TA.AperFunction,ComponentPad*
%ADD11O,1.600000X1.600000*%
G04 #@! TD*
G04 #@! TA.AperFunction,ComponentPad*
%ADD12RoundRect,0.250000X-0.650000X-1.550000X0.650000X-1.550000X0.650000X1.550000X-0.650000X1.550000X0*%
G04 #@! TD*
G04 #@! TA.AperFunction,ComponentPad*
%ADD13O,1.800000X3.600000*%
G04 #@! TD*
G04 #@! TA.AperFunction,ComponentPad*
%ADD14C,2.000000*%
G04 #@! TD*
G04 #@! TA.AperFunction,ComponentPad*
%ADD15R,2.400000X1.600000*%
G04 #@! TD*
G04 #@! TA.AperFunction,ComponentPad*
%ADD16O,2.400000X1.600000*%
G04 #@! TD*
G04 #@! TA.AperFunction,ComponentPad*
%ADD17R,1.800000X1.800000*%
G04 #@! TD*
G04 #@! TA.AperFunction,ComponentPad*
%ADD18C,1.800000*%
G04 #@! TD*
G04 #@! TA.AperFunction,ViaPad*
%ADD19C,3.500000*%
G04 #@! TD*
G04 #@! TA.AperFunction,Conductor*
%ADD20C,1.000000*%
G04 #@! TD*
G04 APERTURE END LIST*
D10*
X123698000Y-114808000D03*
D11*
X133858000Y-114808000D03*
D10*
X161036000Y-114300000D03*
D11*
X150876000Y-114300000D03*
D12*
X138430000Y-90424000D03*
D13*
X143510000Y-90424000D03*
D14*
X159512000Y-125730000D03*
X153012000Y-125730000D03*
X159512000Y-121230000D03*
X153012000Y-121230000D03*
D12*
X124968000Y-90424000D03*
D13*
X130048000Y-90424000D03*
D12*
X151892000Y-90424000D03*
D13*
X156972000Y-90424000D03*
D10*
X161036000Y-110998000D03*
D11*
X150876000Y-110998000D03*
D10*
X123698000Y-118110000D03*
D11*
X133858000Y-118110000D03*
D15*
X137160000Y-104902000D03*
D16*
X137160000Y-107442000D03*
X137160000Y-109982000D03*
X137160000Y-112522000D03*
X144780000Y-112522000D03*
X144780000Y-109982000D03*
X144780000Y-107442000D03*
X144780000Y-104902000D03*
D17*
X127508000Y-107442000D03*
D18*
X127508000Y-109982000D03*
D10*
X133350000Y-106680000D03*
X133350000Y-104180000D03*
X142240000Y-116332000D03*
X139740000Y-116332000D03*
D19*
X118872000Y-130556000D03*
X162814000Y-130556000D03*
X162814000Y-86868000D03*
X118872000Y-86868000D03*
D20*
X151892000Y-90424000D02*
X151892000Y-92324000D01*
X161036000Y-109866630D02*
X152146000Y-100976630D01*
X144780000Y-104902000D02*
X148220630Y-104902000D01*
X152146000Y-100976630D02*
X152146000Y-98806000D01*
X139954000Y-112522000D02*
X140970000Y-111506000D01*
X148220630Y-104902000D02*
X152146000Y-100976630D01*
X161036000Y-114300000D02*
X161036000Y-110998000D01*
X145180000Y-104902000D02*
X144780000Y-104902000D01*
X151892000Y-92324000D02*
X152146000Y-92578000D01*
X141986000Y-108966000D02*
X140970000Y-109982000D01*
X152146000Y-98806000D02*
X152146000Y-99274000D01*
X142580000Y-104902000D02*
X141986000Y-105496000D01*
X161036000Y-110998000D02*
X161036000Y-109866630D01*
X137560000Y-112522000D02*
X139954000Y-112522000D01*
X140970000Y-109982000D02*
X140970000Y-111506000D01*
X141986000Y-105496000D02*
X141986000Y-108966000D01*
X137160000Y-112522000D02*
X137560000Y-112522000D01*
X152146000Y-92578000D02*
X152146000Y-98806000D01*
X144780000Y-104902000D02*
X142580000Y-104902000D01*
X136652000Y-116078000D02*
X136652000Y-118872000D01*
X144780000Y-109982000D02*
X144780000Y-107442000D01*
X131064000Y-118872000D02*
X131064000Y-108966000D01*
X144191070Y-109982000D02*
X143937070Y-110236000D01*
X142494000Y-110998000D02*
X142494000Y-112268000D01*
X131064000Y-108966000D02*
X133350000Y-106680000D01*
X132334000Y-120142000D02*
X131064000Y-118872000D01*
X142494000Y-112268000D02*
X140462000Y-114300000D01*
X136652000Y-118872000D02*
X135382000Y-120142000D01*
X140462000Y-114300000D02*
X138430000Y-114300000D01*
X150876000Y-110998000D02*
X147996000Y-110998000D01*
X147996000Y-110998000D02*
X146980000Y-109982000D01*
X138430000Y-114300000D02*
X136652000Y-116078000D01*
X143256000Y-110236000D02*
X142494000Y-110998000D01*
X135382000Y-120142000D02*
X132334000Y-120142000D01*
X146980000Y-109982000D02*
X144780000Y-109982000D01*
X144780000Y-109982000D02*
X144191070Y-109982000D01*
X143937070Y-110236000D02*
X143256000Y-110236000D01*
X142240000Y-116332000D02*
X142240000Y-115062000D01*
X142240000Y-115062000D02*
X144780000Y-112522000D01*
X123698000Y-113792000D02*
X127508000Y-109982000D01*
X123698000Y-114808000D02*
X123698000Y-113792000D01*
X123698000Y-118110000D02*
X120142000Y-114554000D01*
X120142000Y-95250000D02*
X124968000Y-90424000D01*
X120142000Y-114554000D02*
X120142000Y-95250000D01*
X129540000Y-108204000D02*
X129540000Y-120904000D01*
X159512000Y-125730000D02*
X153012000Y-125730000D01*
X137160000Y-104902000D02*
X134072000Y-104902000D01*
X131948000Y-90424000D02*
X130048000Y-90424000D01*
X156972000Y-87624000D02*
X154946000Y-85598000D01*
X139740000Y-120356000D02*
X139740000Y-116332000D01*
X153012000Y-125730000D02*
X141478000Y-125730000D01*
X129540000Y-120904000D02*
X130810000Y-122174000D01*
X141616000Y-85598000D02*
X140600000Y-86614000D01*
X127508000Y-107442000D02*
X128778000Y-107442000D01*
X134072000Y-104902000D02*
X133350000Y-104180000D01*
X128778000Y-107442000D02*
X129540000Y-108204000D01*
X140600000Y-86614000D02*
X138176000Y-86614000D01*
X130048000Y-103002000D02*
X130048000Y-90424000D01*
X138176000Y-86614000D02*
X135758000Y-86614000D01*
X130810000Y-122174000D02*
X137922000Y-122174000D01*
X156972000Y-90424000D02*
X156972000Y-87624000D01*
X156972000Y-90424000D02*
X156972000Y-89524000D01*
X127508000Y-107442000D02*
X127508000Y-105542000D01*
X143510000Y-90424000D02*
X143510000Y-89524000D01*
X143510000Y-89524000D02*
X140600000Y-86614000D01*
X135758000Y-86614000D02*
X131948000Y-90424000D01*
X154946000Y-85598000D02*
X141616000Y-85598000D01*
X137922000Y-122174000D02*
X139740000Y-120356000D01*
X127508000Y-105542000D02*
X130048000Y-103002000D01*
X131226000Y-104180000D02*
X130048000Y-103002000D01*
X141478000Y-125730000D02*
X137922000Y-122174000D01*
X133350000Y-104180000D02*
X131226000Y-104180000D01*
X154432000Y-93552930D02*
X154432000Y-88138000D01*
X139360000Y-107442000D02*
X140208000Y-106594000D01*
X163322000Y-120142000D02*
X163322000Y-101854000D01*
X153924000Y-87630000D02*
X150114000Y-87630000D01*
X140208000Y-93472000D02*
X140208000Y-92202000D01*
X150876000Y-114300000D02*
X150876000Y-120650000D01*
X147066000Y-93472000D02*
X140208000Y-93472000D01*
X149098000Y-88646000D02*
X149098000Y-91440000D01*
X140208000Y-92202000D02*
X138430000Y-90424000D01*
X159512000Y-121230000D02*
X153012000Y-121230000D01*
X137160000Y-107442000D02*
X139360000Y-107442000D01*
X158750000Y-97282000D02*
X158161070Y-97282000D01*
X150114000Y-87630000D02*
X149098000Y-88646000D01*
X163322000Y-101854000D02*
X158750000Y-97282000D01*
X150876000Y-120650000D02*
X151456000Y-121230000D01*
X159512000Y-121230000D02*
X162234000Y-121230000D01*
X158161070Y-97282000D02*
X154432000Y-93552930D01*
X162234000Y-121230000D02*
X163322000Y-120142000D01*
X149098000Y-91440000D02*
X147066000Y-93472000D01*
X140208000Y-106594000D02*
X140208000Y-93472000D01*
X154432000Y-88138000D02*
X153924000Y-87630000D01*
X153012000Y-121230000D02*
X151456000Y-121230000D01*
X137160000Y-109982000D02*
X134620000Y-109982000D01*
X134620000Y-109982000D02*
X133858000Y-110744000D01*
X133858000Y-110744000D02*
X133858000Y-114808000D01*
X133858000Y-118110000D02*
X133858000Y-114808000D01*
G04 #@! TA.AperFunction,Conductor*
G36*
X141171718Y-115127281D02*
G01*
X141219161Y-115180098D01*
X141231500Y-115234478D01*
X141231500Y-115451259D01*
X141211498Y-115519380D01*
X141208713Y-115523530D01*
X141102474Y-115675253D01*
X141099726Y-115680015D01*
X141097931Y-115678978D01*
X141056942Y-115725480D01*
X140988653Y-115744903D01*
X140920705Y-115724324D01*
X140881655Y-115679217D01*
X140879839Y-115680266D01*
X140877086Y-115675498D01*
X140827100Y-115604110D01*
X140827098Y-115604110D01*
X140140000Y-116291208D01*
X140140000Y-116279339D01*
X140112741Y-116177606D01*
X140060080Y-116086394D01*
X139985606Y-116011920D01*
X139894394Y-115959259D01*
X139792661Y-115932000D01*
X139780790Y-115932000D01*
X140367385Y-115345405D01*
X140429697Y-115311379D01*
X140456480Y-115308500D01*
X140561328Y-115308500D01*
X140561329Y-115308500D01*
X140756169Y-115269744D01*
X140939704Y-115193721D01*
X141035498Y-115129712D01*
X141103251Y-115108498D01*
X141171718Y-115127281D01*
G37*
G04 #@! TD.AperFunction*
G04 #@! TA.AperFunction,Conductor*
G36*
X165449621Y-84194502D02*
G01*
X165496114Y-84248158D01*
X165507500Y-84300500D01*
X165507500Y-133123500D01*
X165487498Y-133191621D01*
X165433842Y-133238114D01*
X165381500Y-133249500D01*
X116304500Y-133249500D01*
X116236379Y-133229498D01*
X116189886Y-133175842D01*
X116178500Y-133123500D01*
X116178500Y-130555996D01*
X116608654Y-130555996D01*
X116608654Y-130556003D01*
X116628016Y-130851421D01*
X116628018Y-130851435D01*
X116685776Y-131141795D01*
X116685778Y-131141805D01*
X116780938Y-131422137D01*
X116780944Y-131422151D01*
X116911883Y-131687670D01*
X117076359Y-131933827D01*
X117076361Y-131933830D01*
X117076367Y-131933838D01*
X117271573Y-132156427D01*
X117494162Y-132351633D01*
X117740327Y-132516115D01*
X118005855Y-132647059D01*
X118286203Y-132742224D01*
X118576574Y-132799983D01*
X118745388Y-132811047D01*
X118871997Y-132819346D01*
X118872000Y-132819346D01*
X118872003Y-132819346D01*
X118982784Y-132812084D01*
X119167426Y-132799983D01*
X119457797Y-132742224D01*
X119738145Y-132647059D01*
X120003673Y-132516115D01*
X120249838Y-132351633D01*
X120472427Y-132156427D01*
X120667633Y-131933838D01*
X120832115Y-131687673D01*
X120963059Y-131422145D01*
X121058224Y-131141797D01*
X121115983Y-130851426D01*
X121135346Y-130556000D01*
X121135346Y-130555996D01*
X160550654Y-130555996D01*
X160550654Y-130556003D01*
X160570016Y-130851421D01*
X160570018Y-130851435D01*
X160627776Y-131141795D01*
X160627778Y-131141805D01*
X160722938Y-131422137D01*
X160722944Y-131422151D01*
X160853883Y-131687670D01*
X161018359Y-131933827D01*
X161018361Y-131933830D01*
X161018367Y-131933838D01*
X161213573Y-132156427D01*
X161436162Y-132351633D01*
X161682327Y-132516115D01*
X161947855Y-132647059D01*
X162228203Y-132742224D01*
X162518574Y-132799983D01*
X162687388Y-132811047D01*
X162813997Y-132819346D01*
X162814000Y-132819346D01*
X162814003Y-132819346D01*
X162924784Y-132812084D01*
X163109426Y-132799983D01*
X163399797Y-132742224D01*
X163680145Y-132647059D01*
X163945673Y-132516115D01*
X164191838Y-132351633D01*
X164414427Y-132156427D01*
X164609633Y-131933838D01*
X164774115Y-131687673D01*
X164905059Y-131422145D01*
X165000224Y-131141797D01*
X165057983Y-130851426D01*
X165077346Y-130556000D01*
X165057983Y-130260574D01*
X165000224Y-129970203D01*
X164905059Y-129689855D01*
X164774115Y-129424327D01*
X164609633Y-129178162D01*
X164414427Y-128955573D01*
X164191838Y-128760367D01*
X164191830Y-128760361D01*
X164191827Y-128760359D01*
X163945670Y-128595883D01*
X163680151Y-128464944D01*
X163680145Y-128464941D01*
X163680140Y-128464939D01*
X163680137Y-128464938D01*
X163399805Y-128369778D01*
X163399799Y-128369776D01*
X163399797Y-128369776D01*
X163302566Y-128350435D01*
X163109435Y-128312018D01*
X163109421Y-128312016D01*
X162814003Y-128292654D01*
X162813997Y-128292654D01*
X162518578Y-128312016D01*
X162518564Y-128312018D01*
X162276818Y-128360105D01*
X162228203Y-128369776D01*
X162228201Y-128369776D01*
X162228194Y-128369778D01*
X161947862Y-128464938D01*
X161947848Y-128464944D01*
X161682329Y-128595883D01*
X161436172Y-128760359D01*
X161436165Y-128760364D01*
X161436162Y-128760367D01*
X161213573Y-128955573D01*
X161018367Y-129178162D01*
X161018364Y-129178165D01*
X161018359Y-129178172D01*
X160853883Y-129424329D01*
X160722944Y-129689848D01*
X160722938Y-129689862D01*
X160627778Y-129970194D01*
X160627776Y-129970204D01*
X160570018Y-130260564D01*
X160570016Y-130260578D01*
X160550654Y-130555996D01*
X121135346Y-130555996D01*
X121115983Y-130260574D01*
X121058224Y-129970203D01*
X120963059Y-129689855D01*
X120832115Y-129424327D01*
X120667633Y-129178162D01*
X120472427Y-128955573D01*
X120249838Y-128760367D01*
X120249830Y-128760361D01*
X120249827Y-128760359D01*
X120003670Y-128595883D01*
X119738151Y-128464944D01*
X119738145Y-128464941D01*
X119738140Y-128464939D01*
X119738137Y-128464938D01*
X119457805Y-128369778D01*
X119457799Y-128369776D01*
X119457797Y-128369776D01*
X119360566Y-128350435D01*
X119167435Y-128312018D01*
X119167421Y-128312016D01*
X118872003Y-128292654D01*
X118871997Y-128292654D01*
X118576578Y-128312016D01*
X118576564Y-128312018D01*
X118334818Y-128360105D01*
X118286203Y-128369776D01*
X118286201Y-128369776D01*
X118286194Y-128369778D01*
X118005862Y-128464938D01*
X118005848Y-128464944D01*
X117740329Y-128595883D01*
X117494172Y-128760359D01*
X117494165Y-128760364D01*
X117494162Y-128760367D01*
X117271573Y-128955573D01*
X117076367Y-129178162D01*
X117076364Y-129178165D01*
X117076359Y-129178172D01*
X116911883Y-129424329D01*
X116780944Y-129689848D01*
X116780938Y-129689862D01*
X116685778Y-129970194D01*
X116685776Y-129970204D01*
X116628018Y-130260564D01*
X116628016Y-130260578D01*
X116608654Y-130555996D01*
X116178500Y-130555996D01*
X116178500Y-125730000D01*
X151499337Y-125730000D01*
X151517960Y-125966632D01*
X151573371Y-126197437D01*
X151664208Y-126416738D01*
X151778896Y-126603890D01*
X151778897Y-126603890D01*
X152487016Y-125895771D01*
X152499482Y-125942292D01*
X152571890Y-126067708D01*
X152674292Y-126170110D01*
X152799708Y-126242518D01*
X152846226Y-126254982D01*
X152138107Y-126963101D01*
X152138108Y-126963102D01*
X152325261Y-127077791D01*
X152544562Y-127168628D01*
X152775367Y-127224039D01*
X153012000Y-127242662D01*
X153248632Y-127224039D01*
X153479437Y-127168628D01*
X153698738Y-127077791D01*
X153885890Y-126963102D01*
X153885891Y-126963102D01*
X153177772Y-126254982D01*
X153224292Y-126242518D01*
X153349708Y-126170110D01*
X153452110Y-126067708D01*
X153524518Y-125942292D01*
X153536983Y-125895772D01*
X154245102Y-126603891D01*
X154245102Y-126603890D01*
X154359791Y-126416738D01*
X154450628Y-126197437D01*
X154506039Y-125966632D01*
X154524662Y-125730000D01*
X157999337Y-125730000D01*
X158017960Y-125966632D01*
X158073371Y-126197437D01*
X158164208Y-126416738D01*
X158278896Y-126603890D01*
X158278897Y-126603890D01*
X158987016Y-125895771D01*
X158999482Y-125942292D01*
X159071890Y-126067708D01*
X159174292Y-126170110D01*
X159299708Y-126242518D01*
X159346226Y-126254982D01*
X158638107Y-126963101D01*
X158638108Y-126963102D01*
X158825261Y-127077791D01*
X159044562Y-127168628D01*
X159275367Y-127224039D01*
X159512000Y-127242662D01*
X159748632Y-127224039D01*
X159979437Y-127168628D01*
X160198738Y-127077791D01*
X160385890Y-126963102D01*
X160385891Y-126963102D01*
X159677772Y-126254982D01*
X159724292Y-126242518D01*
X159849708Y-126170110D01*
X159952110Y-126067708D01*
X160024518Y-125942292D01*
X160036983Y-125895772D01*
X160745102Y-126603891D01*
X160745102Y-126603890D01*
X160859791Y-126416738D01*
X160950628Y-126197437D01*
X161006039Y-125966632D01*
X161024662Y-125730000D01*
X161006039Y-125493367D01*
X160950628Y-125262562D01*
X160859791Y-125043261D01*
X160745102Y-124856108D01*
X160745101Y-124856107D01*
X160036982Y-125564226D01*
X160024518Y-125517708D01*
X159952110Y-125392292D01*
X159849708Y-125289890D01*
X159724292Y-125217482D01*
X159677771Y-125205016D01*
X160385890Y-124496897D01*
X160385890Y-124496896D01*
X160198738Y-124382208D01*
X159979437Y-124291371D01*
X159748632Y-124235960D01*
X159512000Y-124217337D01*
X159275367Y-124235960D01*
X159044562Y-124291371D01*
X158825266Y-124382206D01*
X158638108Y-124496897D01*
X158638108Y-124496898D01*
X159346227Y-125205017D01*
X159299708Y-125217482D01*
X159174292Y-125289890D01*
X159071890Y-125392292D01*
X158999482Y-125517708D01*
X158987017Y-125564227D01*
X158278898Y-124856108D01*
X158278897Y-124856108D01*
X158164206Y-125043266D01*
X158073371Y-125262562D01*
X158017960Y-125493367D01*
X157999337Y-125730000D01*
X154524662Y-125730000D01*
X154506039Y-125493367D01*
X154450628Y-125262562D01*
X154359791Y-125043261D01*
X154245102Y-124856108D01*
X154245101Y-124856107D01*
X153536982Y-125564226D01*
X153524518Y-125517708D01*
X153452110Y-125392292D01*
X153349708Y-125289890D01*
X153224292Y-125217482D01*
X153177771Y-125205016D01*
X153885890Y-124496897D01*
X153885890Y-124496896D01*
X153698738Y-124382208D01*
X153479437Y-124291371D01*
X153248632Y-124235960D01*
X153012000Y-124217337D01*
X152775367Y-124235960D01*
X152544562Y-124291371D01*
X152325266Y-124382206D01*
X152138108Y-124496897D01*
X152138108Y-124496898D01*
X152846227Y-125205017D01*
X152799708Y-125217482D01*
X152674292Y-125289890D01*
X152571890Y-125392292D01*
X152499482Y-125517708D01*
X152487017Y-125564227D01*
X151778898Y-124856108D01*
X151778897Y-124856108D01*
X151664206Y-125043266D01*
X151573371Y-125262562D01*
X151517960Y-125493367D01*
X151499337Y-125730000D01*
X116178500Y-125730000D01*
X116178500Y-95150668D01*
X119133500Y-95150668D01*
X119133500Y-95150671D01*
X119133500Y-114653329D01*
X119172256Y-114848169D01*
X119237499Y-115005678D01*
X119248279Y-115031704D01*
X119358647Y-115196881D01*
X119358649Y-115196883D01*
X122362881Y-118201115D01*
X122396907Y-118263427D01*
X122399306Y-118279226D01*
X122404455Y-118338078D01*
X122404456Y-118338083D01*
X122404456Y-118338086D01*
X122404457Y-118338087D01*
X122463716Y-118559243D01*
X122560477Y-118766749D01*
X122691802Y-118954300D01*
X122853700Y-119116198D01*
X123041251Y-119247523D01*
X123248757Y-119344284D01*
X123469913Y-119403543D01*
X123698000Y-119423498D01*
X123926087Y-119403543D01*
X124147243Y-119344284D01*
X124354749Y-119247523D01*
X124542300Y-119116198D01*
X124704198Y-118954300D01*
X124835523Y-118766749D01*
X124932284Y-118559243D01*
X124991543Y-118338087D01*
X125011498Y-118110000D01*
X124991543Y-117881913D01*
X124932284Y-117660757D01*
X124835523Y-117453251D01*
X124704198Y-117265700D01*
X124542300Y-117103802D01*
X124479584Y-117059888D01*
X124354749Y-116972477D01*
X124147246Y-116875717D01*
X124147240Y-116875715D01*
X123926083Y-116816456D01*
X123926078Y-116816455D01*
X123867226Y-116811306D01*
X123801109Y-116785442D01*
X123789115Y-116774881D01*
X123318661Y-116304427D01*
X123284635Y-116242115D01*
X123289700Y-116171300D01*
X123332247Y-116114464D01*
X123398767Y-116089653D01*
X123440365Y-116093625D01*
X123469913Y-116101543D01*
X123698000Y-116121498D01*
X123926087Y-116101543D01*
X124147243Y-116042284D01*
X124354749Y-115945523D01*
X124542300Y-115814198D01*
X124704198Y-115652300D01*
X124835523Y-115464749D01*
X124932284Y-115257243D01*
X124991543Y-115036087D01*
X125011498Y-114808000D01*
X124991543Y-114579913D01*
X124932284Y-114358757D01*
X124850374Y-114183100D01*
X124839714Y-114112911D01*
X124868694Y-114048099D01*
X124875462Y-114040771D01*
X127488830Y-111427405D01*
X127551142Y-111393379D01*
X127577925Y-111390500D01*
X127624708Y-111390500D01*
X127624712Y-111390500D01*
X127854951Y-111352080D01*
X128075727Y-111276287D01*
X128281017Y-111165190D01*
X128465220Y-111021818D01*
X128475638Y-111010502D01*
X128623314Y-110850083D01*
X128633541Y-110834430D01*
X128750984Y-110654669D01*
X128844749Y-110440907D01*
X128902051Y-110214626D01*
X128921327Y-109982000D01*
X128902051Y-109749374D01*
X128902049Y-109749366D01*
X128844750Y-109523096D01*
X128844747Y-109523089D01*
X128825718Y-109479708D01*
X128750984Y-109309331D01*
X128623314Y-109113917D01*
X128537789Y-109021013D01*
X128506370Y-108957351D01*
X128514356Y-108886805D01*
X128530771Y-108866668D01*
X130055500Y-108866668D01*
X130055500Y-118971331D01*
X130087758Y-119133500D01*
X130094256Y-119166169D01*
X130127954Y-119247523D01*
X130170279Y-119349704D01*
X130280647Y-119514881D01*
X131550647Y-120784881D01*
X131691119Y-120925353D01*
X131856296Y-121035721D01*
X132039831Y-121111744D01*
X132234671Y-121150500D01*
X132234672Y-121150500D01*
X135481328Y-121150500D01*
X135481329Y-121150500D01*
X135676169Y-121111744D01*
X135859704Y-121035721D01*
X136024881Y-120925353D01*
X136165353Y-120784881D01*
X137435353Y-119514881D01*
X137545721Y-119349704D01*
X137621744Y-119166169D01*
X137660500Y-118971329D01*
X137660500Y-118772671D01*
X137660500Y-116547924D01*
X137680502Y-116479803D01*
X137697405Y-116458829D01*
X138245333Y-115910901D01*
X138258920Y-115897314D01*
X138321231Y-115863289D01*
X138392046Y-115868354D01*
X138448882Y-115910901D01*
X138473693Y-115977421D01*
X138469721Y-116019021D01*
X138446951Y-116103997D01*
X138427004Y-116332000D01*
X138446951Y-116560002D01*
X138506186Y-116781068D01*
X138506188Y-116781073D01*
X138602913Y-116988501D01*
X138652898Y-117059888D01*
X138652900Y-117059888D01*
X139340000Y-116372789D01*
X139340000Y-116384661D01*
X139367259Y-116486394D01*
X139419920Y-116577606D01*
X139494394Y-116652080D01*
X139585606Y-116704741D01*
X139687339Y-116732000D01*
X139699210Y-116732000D01*
X139012110Y-117419098D01*
X139012110Y-117419100D01*
X139083498Y-117469086D01*
X139290926Y-117565811D01*
X139290931Y-117565813D01*
X139511999Y-117625048D01*
X139511995Y-117625048D01*
X139740000Y-117644995D01*
X139968002Y-117625048D01*
X140189068Y-117565813D01*
X140189073Y-117565811D01*
X140396497Y-117469088D01*
X140467888Y-117419099D01*
X140467888Y-117419097D01*
X139780791Y-116732000D01*
X139792661Y-116732000D01*
X139894394Y-116704741D01*
X139985606Y-116652080D01*
X140060080Y-116577606D01*
X140112741Y-116486394D01*
X140140000Y-116384661D01*
X140140000Y-116372791D01*
X140827097Y-117059888D01*
X140827099Y-117059888D01*
X140877088Y-116988496D01*
X140879841Y-116983730D01*
X140881729Y-116984820D01*
X140922384Y-116938594D01*
X140990651Y-116919094D01*
X141058622Y-116939597D01*
X141097989Y-116984987D01*
X141099726Y-116983985D01*
X141102474Y-116988746D01*
X141233799Y-117176296D01*
X141233802Y-117176300D01*
X141395700Y-117338198D01*
X141583251Y-117469523D01*
X141790757Y-117566284D01*
X142011913Y-117625543D01*
X142240000Y-117645498D01*
X142468087Y-117625543D01*
X142689243Y-117566284D01*
X142896749Y-117469523D01*
X143084300Y-117338198D01*
X143246198Y-117176300D01*
X143377523Y-116988749D01*
X143474284Y-116781243D01*
X143533543Y-116560087D01*
X143553498Y-116332000D01*
X143533543Y-116103913D01*
X143474284Y-115882757D01*
X143377523Y-115675251D01*
X143304506Y-115570972D01*
X143281819Y-115503700D01*
X143299104Y-115434840D01*
X143318621Y-115409612D01*
X144860829Y-113867405D01*
X144923141Y-113833379D01*
X144949924Y-113830500D01*
X145282978Y-113830500D01*
X145282981Y-113830500D01*
X145486408Y-113798280D01*
X145682290Y-113734634D01*
X145865803Y-113641129D01*
X146032430Y-113520068D01*
X146178068Y-113374430D01*
X146299129Y-113207803D01*
X146392634Y-113024290D01*
X146456280Y-112828408D01*
X146488500Y-112624981D01*
X146488500Y-112419019D01*
X146456280Y-112215592D01*
X146392634Y-112019710D01*
X146299129Y-111836197D01*
X146178068Y-111669570D01*
X146178065Y-111669567D01*
X146178063Y-111669564D01*
X146032435Y-111523936D01*
X146032432Y-111523934D01*
X146032430Y-111523932D01*
X145899571Y-111427405D01*
X145865806Y-111402873D01*
X145865805Y-111402872D01*
X145865803Y-111402871D01*
X145790034Y-111364265D01*
X145738422Y-111315519D01*
X145721356Y-111246604D01*
X145744257Y-111179402D01*
X145790034Y-111139735D01*
X145865803Y-111101129D01*
X145883508Y-111088266D01*
X145984952Y-111014564D01*
X146051819Y-110990705D01*
X146059012Y-110990500D01*
X146510076Y-110990500D01*
X146578197Y-111010502D01*
X146599170Y-111027404D01*
X147212647Y-111640881D01*
X147353119Y-111781353D01*
X147518296Y-111891721D01*
X147701831Y-111967744D01*
X147896671Y-112006500D01*
X148095329Y-112006500D01*
X149995260Y-112006500D01*
X150063381Y-112026502D01*
X150067530Y-112029287D01*
X150175082Y-112104595D01*
X150219251Y-112135523D01*
X150426757Y-112232284D01*
X150647913Y-112291543D01*
X150876000Y-112311498D01*
X151104087Y-112291543D01*
X151325243Y-112232284D01*
X151532749Y-112135523D01*
X151720300Y-112004198D01*
X151882198Y-111842300D01*
X152013523Y-111654749D01*
X152110284Y-111447243D01*
X152169543Y-111226087D01*
X152189498Y-110998000D01*
X152169543Y-110769913D01*
X152110284Y-110548757D01*
X152013523Y-110341251D01*
X151882198Y-110153700D01*
X151720300Y-109991802D01*
X151717012Y-109989500D01*
X151532749Y-109860477D01*
X151325246Y-109763717D01*
X151325240Y-109763715D01*
X151231771Y-109738670D01*
X151104087Y-109704457D01*
X150876000Y-109684502D01*
X150647913Y-109704457D01*
X150426759Y-109763715D01*
X150426753Y-109763717D01*
X150219252Y-109860476D01*
X150219250Y-109860477D01*
X150067530Y-109966713D01*
X150000257Y-109989401D01*
X149995260Y-109989500D01*
X148465924Y-109989500D01*
X148397803Y-109969498D01*
X148376829Y-109952595D01*
X147622883Y-109198649D01*
X147622882Y-109198648D01*
X147622881Y-109198647D01*
X147457704Y-109088279D01*
X147390239Y-109060334D01*
X147301314Y-109023500D01*
X147274174Y-109012258D01*
X147274169Y-109012256D01*
X147079331Y-108973500D01*
X147079329Y-108973500D01*
X146059012Y-108973500D01*
X145990891Y-108953498D01*
X145984952Y-108949436D01*
X145865811Y-108862876D01*
X145865790Y-108862863D01*
X145857291Y-108858532D01*
X145805678Y-108809781D01*
X145788500Y-108746269D01*
X145788500Y-108677729D01*
X145808502Y-108609608D01*
X145857298Y-108565462D01*
X145865803Y-108561129D01*
X146032430Y-108440068D01*
X146178068Y-108294430D01*
X146299129Y-108127803D01*
X146392634Y-107944290D01*
X146456280Y-107748408D01*
X146488500Y-107544981D01*
X146488500Y-107339019D01*
X146456280Y-107135592D01*
X146392634Y-106939710D01*
X146299129Y-106756197D01*
X146178068Y-106589570D01*
X146178065Y-106589567D01*
X146178063Y-106589564D01*
X146032435Y-106443936D01*
X146032432Y-106443934D01*
X146032430Y-106443932D01*
X145865803Y-106322871D01*
X145790034Y-106284265D01*
X145738422Y-106235519D01*
X145721356Y-106166604D01*
X145744257Y-106099402D01*
X145790034Y-106059735D01*
X145865803Y-106021129D01*
X145865809Y-106021125D01*
X145984952Y-105934564D01*
X146051819Y-105910705D01*
X146059012Y-105910500D01*
X148319958Y-105910500D01*
X148319959Y-105910500D01*
X148514799Y-105871744D01*
X148698334Y-105795721D01*
X148863511Y-105685353D01*
X149003983Y-105544881D01*
X152056904Y-102491958D01*
X152119216Y-102457933D01*
X152190031Y-102462998D01*
X152235094Y-102491959D01*
X159900280Y-110157145D01*
X159934306Y-110219457D01*
X159929241Y-110290272D01*
X159914401Y-110318507D01*
X159898477Y-110341250D01*
X159801717Y-110548753D01*
X159801715Y-110548759D01*
X159758500Y-110710040D01*
X159742457Y-110769913D01*
X159722502Y-110998000D01*
X159742457Y-111226087D01*
X159758500Y-111285959D01*
X159801715Y-111447240D01*
X159801717Y-111447246D01*
X159892010Y-111640881D01*
X159898477Y-111654749D01*
X160004713Y-111806469D01*
X160027401Y-111873742D01*
X160027500Y-111878739D01*
X160027500Y-113419259D01*
X160007498Y-113487380D01*
X160004713Y-113491530D01*
X159898477Y-113643250D01*
X159801717Y-113850753D01*
X159801715Y-113850759D01*
X159742457Y-114071913D01*
X159722502Y-114300000D01*
X159742457Y-114528086D01*
X159801715Y-114749240D01*
X159801717Y-114749246D01*
X159898477Y-114956749D01*
X160024416Y-115136609D01*
X160029802Y-115144300D01*
X160191700Y-115306198D01*
X160379251Y-115437523D01*
X160586757Y-115534284D01*
X160807913Y-115593543D01*
X161036000Y-115613498D01*
X161264087Y-115593543D01*
X161485243Y-115534284D01*
X161692749Y-115437523D01*
X161880300Y-115306198D01*
X162042198Y-115144300D01*
X162084287Y-115084191D01*
X162139744Y-115039863D01*
X162210363Y-115032554D01*
X162273724Y-115064585D01*
X162309709Y-115125786D01*
X162313500Y-115156462D01*
X162313500Y-119672076D01*
X162293498Y-119740197D01*
X162276595Y-119761171D01*
X161853171Y-120184595D01*
X161790859Y-120218621D01*
X161764076Y-120221500D01*
X160692556Y-120221500D01*
X160624435Y-120201498D01*
X160596746Y-120177332D01*
X160581967Y-120160028D01*
X160401419Y-120005826D01*
X160401417Y-120005825D01*
X160401416Y-120005824D01*
X160198963Y-119881760D01*
X159979594Y-119790895D01*
X159979592Y-119790894D01*
X159768421Y-119740197D01*
X159748711Y-119735465D01*
X159512000Y-119716835D01*
X159275289Y-119735465D01*
X159044407Y-119790894D01*
X158825038Y-119881759D01*
X158622582Y-120005825D01*
X158622580Y-120005826D01*
X158442032Y-120160028D01*
X158427254Y-120177332D01*
X158367802Y-120216140D01*
X158331444Y-120221500D01*
X154192556Y-120221500D01*
X154124435Y-120201498D01*
X154096746Y-120177332D01*
X154081967Y-120160028D01*
X153901419Y-120005826D01*
X153901417Y-120005825D01*
X153901416Y-120005824D01*
X153698963Y-119881760D01*
X153479594Y-119790895D01*
X153479592Y-119790894D01*
X153268421Y-119740197D01*
X153248711Y-119735465D01*
X153012000Y-119716835D01*
X152775289Y-119735465D01*
X152544407Y-119790894D01*
X152325038Y-119881759D01*
X152122582Y-120005825D01*
X152122580Y-120005826D01*
X152092330Y-120031663D01*
X152027540Y-120060694D01*
X151957340Y-120050089D01*
X151904018Y-120003214D01*
X151884500Y-119935852D01*
X151884500Y-115180739D01*
X151904502Y-115112618D01*
X151907271Y-115108491D01*
X152013523Y-114956749D01*
X152110284Y-114749243D01*
X152169543Y-114528087D01*
X152189498Y-114300000D01*
X152169543Y-114071913D01*
X152110284Y-113850757D01*
X152013523Y-113643251D01*
X151882198Y-113455700D01*
X151720300Y-113293802D01*
X151532749Y-113162477D01*
X151504111Y-113149123D01*
X151325246Y-113065717D01*
X151325240Y-113065715D01*
X151231771Y-113040670D01*
X151104087Y-113006457D01*
X150876000Y-112986502D01*
X150647913Y-113006457D01*
X150426759Y-113065715D01*
X150426753Y-113065717D01*
X150219250Y-113162477D01*
X150031703Y-113293799D01*
X150031697Y-113293804D01*
X149869804Y-113455697D01*
X149869799Y-113455703D01*
X149738477Y-113643250D01*
X149641717Y-113850753D01*
X149641715Y-113850759D01*
X149582457Y-114071913D01*
X149562502Y-114300000D01*
X149582457Y-114528086D01*
X149641715Y-114749240D01*
X149641717Y-114749246D01*
X149687847Y-114848172D01*
X149738477Y-114956749D01*
X149844713Y-115108469D01*
X149867401Y-115175742D01*
X149867500Y-115180739D01*
X149867500Y-120749331D01*
X149874572Y-120784883D01*
X149906256Y-120944169D01*
X149944178Y-121035721D01*
X149982279Y-121127704D01*
X150092647Y-121292881D01*
X150813119Y-122013353D01*
X150978296Y-122123722D01*
X151085269Y-122168031D01*
X151161831Y-122199744D01*
X151356671Y-122238500D01*
X151831444Y-122238500D01*
X151899565Y-122258502D01*
X151927254Y-122282668D01*
X151942032Y-122299971D01*
X152122580Y-122454173D01*
X152122584Y-122454176D01*
X152325037Y-122578240D01*
X152544406Y-122669105D01*
X152775289Y-122724535D01*
X153012000Y-122743165D01*
X153248711Y-122724535D01*
X153479594Y-122669105D01*
X153698963Y-122578240D01*
X153901416Y-122454176D01*
X154081969Y-122299969D01*
X154096746Y-122282668D01*
X154156198Y-122243860D01*
X154192556Y-122238500D01*
X158331444Y-122238500D01*
X158399565Y-122258502D01*
X158427254Y-122282668D01*
X158442032Y-122299971D01*
X158622580Y-122454173D01*
X158622584Y-122454176D01*
X158825037Y-122578240D01*
X159044406Y-122669105D01*
X159275289Y-122724535D01*
X159512000Y-122743165D01*
X159748711Y-122724535D01*
X159979594Y-122669105D01*
X160198963Y-122578240D01*
X160401416Y-122454176D01*
X160581969Y-122299969D01*
X160596746Y-122282668D01*
X160656198Y-122243860D01*
X160692556Y-122238500D01*
X162333328Y-122238500D01*
X162333329Y-122238500D01*
X162528169Y-122199744D01*
X162711704Y-122123721D01*
X162876881Y-122013353D01*
X163017353Y-121872881D01*
X164105353Y-120784881D01*
X164215721Y-120619704D01*
X164291744Y-120436169D01*
X164311613Y-120336279D01*
X164330500Y-120241329D01*
X164330500Y-101754671D01*
X164291744Y-101559831D01*
X164215721Y-101376296D01*
X164105353Y-101211119D01*
X163964881Y-101070647D01*
X159392881Y-96498647D01*
X159227704Y-96388279D01*
X159044169Y-96312256D01*
X158849331Y-96273500D01*
X158849329Y-96273500D01*
X158630994Y-96273500D01*
X158562873Y-96253498D01*
X158541899Y-96236595D01*
X155477405Y-93172101D01*
X155443379Y-93109789D01*
X155440500Y-93083006D01*
X155440500Y-91944475D01*
X155460502Y-91876354D01*
X155514158Y-91829861D01*
X155584432Y-91819757D01*
X155649012Y-91849251D01*
X155678767Y-91887273D01*
X155767770Y-92061953D01*
X155898039Y-92241253D01*
X156054746Y-92397960D01*
X156234043Y-92528227D01*
X156431514Y-92628843D01*
X156431516Y-92628844D01*
X156642289Y-92697329D01*
X156718000Y-92709320D01*
X156718000Y-90970173D01*
X156740409Y-90983111D01*
X156893009Y-91024000D01*
X157050991Y-91024000D01*
X157203591Y-90983111D01*
X157226000Y-90970173D01*
X157226000Y-92709320D01*
X157301709Y-92697329D01*
X157301711Y-92697329D01*
X157512483Y-92628844D01*
X157512485Y-92628843D01*
X157709956Y-92528227D01*
X157889253Y-92397960D01*
X158045960Y-92241253D01*
X158176227Y-92061956D01*
X158276843Y-91864485D01*
X158276844Y-91864483D01*
X158345329Y-91653710D01*
X158380000Y-91434808D01*
X158380000Y-90678000D01*
X157518173Y-90678000D01*
X157531111Y-90655591D01*
X157572000Y-90502991D01*
X157572000Y-90345009D01*
X157531111Y-90192409D01*
X157518173Y-90170000D01*
X158380000Y-90170000D01*
X158380000Y-89413191D01*
X158345329Y-89194289D01*
X158276844Y-88983516D01*
X158276843Y-88983514D01*
X158176227Y-88786043D01*
X158045960Y-88606746D01*
X157889253Y-88450039D01*
X157709956Y-88319772D01*
X157512485Y-88219156D01*
X157512483Y-88219155D01*
X157301709Y-88150669D01*
X157226000Y-88138678D01*
X157226000Y-89877826D01*
X157203591Y-89864889D01*
X157050991Y-89824000D01*
X156893009Y-89824000D01*
X156740409Y-89864889D01*
X156718000Y-89877826D01*
X156718000Y-88138678D01*
X156642290Y-88150669D01*
X156431516Y-88219155D01*
X156431514Y-88219156D01*
X156234043Y-88319772D01*
X156054746Y-88450039D01*
X155898039Y-88606746D01*
X155767772Y-88786043D01*
X155678767Y-88960727D01*
X155630019Y-89012342D01*
X155561104Y-89029408D01*
X155493902Y-89006507D01*
X155449750Y-88950910D01*
X155440500Y-88903524D01*
X155440500Y-88038672D01*
X155440499Y-88038668D01*
X155433428Y-88003119D01*
X155401744Y-87843831D01*
X155325721Y-87660296D01*
X155215353Y-87495119D01*
X155074881Y-87354647D01*
X154588230Y-86867996D01*
X160550654Y-86867996D01*
X160550654Y-86868003D01*
X160570016Y-87163421D01*
X160570018Y-87163435D01*
X160627776Y-87453795D01*
X160627778Y-87453805D01*
X160722938Y-87734137D01*
X160722944Y-87734151D01*
X160853883Y-87999670D01*
X161018359Y-88245827D01*
X161018361Y-88245830D01*
X161018367Y-88245838D01*
X161213573Y-88468427D01*
X161436162Y-88663633D01*
X161682327Y-88828115D01*
X161947855Y-88959059D01*
X162228203Y-89054224D01*
X162518574Y-89111983D01*
X162687388Y-89123047D01*
X162813997Y-89131346D01*
X162814000Y-89131346D01*
X162814003Y-89131346D01*
X162924784Y-89124084D01*
X163109426Y-89111983D01*
X163399797Y-89054224D01*
X163680145Y-88959059D01*
X163945673Y-88828115D01*
X164191838Y-88663633D01*
X164414427Y-88468427D01*
X164609633Y-88245838D01*
X164774115Y-87999673D01*
X164905059Y-87734145D01*
X165000224Y-87453797D01*
X165057983Y-87163426D01*
X165077346Y-86868000D01*
X165075946Y-86846647D01*
X165057983Y-86572578D01*
X165057983Y-86572574D01*
X165000224Y-86282203D01*
X164905059Y-86001855D01*
X164774115Y-85736327D01*
X164609633Y-85490162D01*
X164414427Y-85267573D01*
X164191838Y-85072367D01*
X164191830Y-85072361D01*
X164191827Y-85072359D01*
X163945670Y-84907883D01*
X163680151Y-84776944D01*
X163680145Y-84776941D01*
X163680140Y-84776939D01*
X163680137Y-84776938D01*
X163399805Y-84681778D01*
X163399799Y-84681776D01*
X163399797Y-84681776D01*
X163302566Y-84662435D01*
X163109435Y-84624018D01*
X163109421Y-84624016D01*
X162814003Y-84604654D01*
X162813997Y-84604654D01*
X162518578Y-84624016D01*
X162518564Y-84624018D01*
X162276818Y-84672105D01*
X162228203Y-84681776D01*
X162228201Y-84681776D01*
X162228194Y-84681778D01*
X161947862Y-84776938D01*
X161947848Y-84776944D01*
X161682329Y-84907883D01*
X161436172Y-85072359D01*
X161436165Y-85072364D01*
X161436162Y-85072367D01*
X161213573Y-85267573D01*
X161018367Y-85490162D01*
X161018364Y-85490165D01*
X161018359Y-85490172D01*
X160853883Y-85736329D01*
X160722944Y-86001848D01*
X160722938Y-86001862D01*
X160627778Y-86282194D01*
X160627776Y-86282204D01*
X160570018Y-86572564D01*
X160570016Y-86572578D01*
X160550654Y-86867996D01*
X154588230Y-86867996D01*
X154566881Y-86846647D01*
X154401704Y-86736279D01*
X154218169Y-86660256D01*
X154023331Y-86621500D01*
X154023329Y-86621500D01*
X150014671Y-86621500D01*
X150014668Y-86621500D01*
X149819830Y-86660256D01*
X149819825Y-86660258D01*
X149636296Y-86736279D01*
X149471123Y-86846644D01*
X149471116Y-86846649D01*
X148314649Y-88003116D01*
X148314644Y-88003123D01*
X148204279Y-88168296D01*
X148128258Y-88351825D01*
X148128256Y-88351830D01*
X148089500Y-88546668D01*
X148089500Y-90970076D01*
X148069498Y-91038197D01*
X148052595Y-91059171D01*
X146685171Y-92426595D01*
X146622859Y-92460621D01*
X146596076Y-92463500D01*
X144665904Y-92463500D01*
X144597783Y-92443498D01*
X144551290Y-92389842D01*
X144541186Y-92319568D01*
X144570680Y-92254988D01*
X144576809Y-92248405D01*
X144583957Y-92241256D01*
X144583960Y-92241253D01*
X144714227Y-92061956D01*
X144814843Y-91864485D01*
X144814844Y-91864483D01*
X144883329Y-91653710D01*
X144918000Y-91434808D01*
X144918000Y-90678000D01*
X144056173Y-90678000D01*
X144069111Y-90655591D01*
X144110000Y-90502991D01*
X144110000Y-90345009D01*
X144069111Y-90192409D01*
X144056173Y-90170000D01*
X144918000Y-90170000D01*
X144918000Y-89413191D01*
X144883329Y-89194289D01*
X144814844Y-88983516D01*
X144814843Y-88983514D01*
X144714227Y-88786043D01*
X144583960Y-88606746D01*
X144427253Y-88450039D01*
X144247956Y-88319772D01*
X144050485Y-88219156D01*
X144050483Y-88219155D01*
X143839709Y-88150669D01*
X143764000Y-88138678D01*
X143764000Y-89877826D01*
X143741591Y-89864889D01*
X143588991Y-89824000D01*
X143431009Y-89824000D01*
X143278409Y-89864889D01*
X143256000Y-89877826D01*
X143256000Y-88138678D01*
X143180290Y-88150669D01*
X142969516Y-88219155D01*
X142969514Y-88219156D01*
X142772043Y-88319772D01*
X142592746Y-88450039D01*
X142436039Y-88606746D01*
X142305772Y-88786043D01*
X142205156Y-88983514D01*
X142205155Y-88983516D01*
X142136670Y-89194289D01*
X142102000Y-89413191D01*
X142102000Y-90170000D01*
X142963827Y-90170000D01*
X142950889Y-90192409D01*
X142910000Y-90345009D01*
X142910000Y-90502991D01*
X142950889Y-90655591D01*
X142963827Y-90678000D01*
X142102000Y-90678000D01*
X142102000Y-91434808D01*
X142136670Y-91653710D01*
X142205155Y-91864483D01*
X142205156Y-91864485D01*
X142305772Y-92061956D01*
X142436039Y-92241253D01*
X142443191Y-92248405D01*
X142477217Y-92310717D01*
X142472152Y-92381532D01*
X142429605Y-92438368D01*
X142363085Y-92463179D01*
X142354096Y-92463500D01*
X141342500Y-92463500D01*
X141274379Y-92443498D01*
X141227886Y-92389842D01*
X141216500Y-92337500D01*
X141216500Y-92102672D01*
X141216499Y-92102668D01*
X141177744Y-91907831D01*
X141146254Y-91831809D01*
X141101722Y-91724297D01*
X140991354Y-91559119D01*
X140415346Y-90983111D01*
X139875404Y-90443169D01*
X139841378Y-90380857D01*
X139838499Y-90354074D01*
X139838499Y-88823455D01*
X139827887Y-88719574D01*
X139827886Y-88719572D01*
X139772115Y-88551262D01*
X139679030Y-88400348D01*
X139679029Y-88400347D01*
X139679024Y-88400341D01*
X139553658Y-88274975D01*
X139553652Y-88274970D01*
X139402738Y-88181885D01*
X139308533Y-88150669D01*
X139234427Y-88126113D01*
X139234420Y-88126112D01*
X139130553Y-88115500D01*
X137729455Y-88115500D01*
X137625574Y-88126112D01*
X137457261Y-88181885D01*
X137306347Y-88274970D01*
X137306341Y-88274975D01*
X137180975Y-88400341D01*
X137180970Y-88400347D01*
X137087885Y-88551262D01*
X137032113Y-88719572D01*
X137032112Y-88719579D01*
X137021500Y-88823446D01*
X137021500Y-92024544D01*
X137032112Y-92128425D01*
X137087885Y-92296738D01*
X137180970Y-92447652D01*
X137180975Y-92447658D01*
X137306341Y-92573024D01*
X137306347Y-92573029D01*
X137306348Y-92573030D01*
X137457262Y-92666115D01*
X137625574Y-92721887D01*
X137729455Y-92732500D01*
X139073500Y-92732499D01*
X139141621Y-92752501D01*
X139188114Y-92806157D01*
X139199500Y-92858499D01*
X139199500Y-106124076D01*
X139179498Y-106192197D01*
X139162595Y-106213171D01*
X138979171Y-106396595D01*
X138916859Y-106430621D01*
X138890076Y-106433500D01*
X138550797Y-106433500D01*
X138482676Y-106413498D01*
X138436183Y-106359842D01*
X138426079Y-106289568D01*
X138455573Y-106224988D01*
X138506765Y-106189444D01*
X138605964Y-106152444D01*
X138605965Y-106152444D01*
X138722904Y-106064904D01*
X138810444Y-105947965D01*
X138810444Y-105947964D01*
X138861494Y-105811093D01*
X138867999Y-105750597D01*
X138868000Y-105750585D01*
X138868000Y-105156000D01*
X137471686Y-105156000D01*
X137480080Y-105147606D01*
X137532741Y-105056394D01*
X137560000Y-104954661D01*
X137560000Y-104849339D01*
X137532741Y-104747606D01*
X137480080Y-104656394D01*
X137471686Y-104648000D01*
X138868000Y-104648000D01*
X138868000Y-104053414D01*
X138867999Y-104053402D01*
X138861494Y-103992906D01*
X138810444Y-103856035D01*
X138810444Y-103856034D01*
X138722904Y-103739095D01*
X138605965Y-103651555D01*
X138469093Y-103600505D01*
X138408597Y-103594000D01*
X137414000Y-103594000D01*
X137414000Y-104590314D01*
X137405606Y-104581920D01*
X137314394Y-104529259D01*
X137212661Y-104502000D01*
X137107339Y-104502000D01*
X137005606Y-104529259D01*
X136914394Y-104581920D01*
X136906000Y-104590314D01*
X136906000Y-103594000D01*
X135911402Y-103594000D01*
X135850906Y-103600505D01*
X135714035Y-103651555D01*
X135714034Y-103651555D01*
X135597095Y-103739095D01*
X135509555Y-103856034D01*
X135509555Y-103856035D01*
X135458505Y-103992906D01*
X135452000Y-104053402D01*
X135452000Y-104648000D01*
X136848314Y-104648000D01*
X136839920Y-104656394D01*
X136787259Y-104747606D01*
X136760000Y-104849339D01*
X136760000Y-104954661D01*
X136787259Y-105056394D01*
X136839920Y-105147606D01*
X136848314Y-105156000D01*
X135452000Y-105156000D01*
X135452000Y-105750597D01*
X135458505Y-105811093D01*
X135509555Y-105947964D01*
X135509555Y-105947965D01*
X135597095Y-106064904D01*
X135714034Y-106152444D01*
X135850906Y-106203494D01*
X135863337Y-106204831D01*
X135928929Y-106232000D01*
X135969421Y-106290317D01*
X135971955Y-106361269D01*
X135935728Y-106422327D01*
X135923933Y-106432043D01*
X135907567Y-106443934D01*
X135907564Y-106443936D01*
X135761936Y-106589564D01*
X135761934Y-106589567D01*
X135640873Y-106756193D01*
X135547367Y-106939708D01*
X135547364Y-106939714D01*
X135483721Y-107135587D01*
X135483720Y-107135590D01*
X135483720Y-107135592D01*
X135451500Y-107339019D01*
X135451500Y-107544981D01*
X135483720Y-107748408D01*
X135483721Y-107748412D01*
X135537615Y-107914282D01*
X135547366Y-107944290D01*
X135640871Y-108127803D01*
X135761932Y-108294430D01*
X135761934Y-108294432D01*
X135761936Y-108294435D01*
X135907564Y-108440063D01*
X135907567Y-108440065D01*
X135907570Y-108440068D01*
X136074197Y-108561129D01*
X136149962Y-108599733D01*
X136201577Y-108648482D01*
X136218643Y-108717397D01*
X136195742Y-108784598D01*
X136149963Y-108824266D01*
X136135224Y-108831776D01*
X136074190Y-108862874D01*
X135955048Y-108949436D01*
X135888181Y-108973295D01*
X135880988Y-108973500D01*
X134520668Y-108973500D01*
X134325831Y-109012256D01*
X134298683Y-109023501D01*
X134142296Y-109088278D01*
X133977123Y-109198643D01*
X133977116Y-109198648D01*
X133215118Y-109960646D01*
X133215119Y-109960647D01*
X133074645Y-110101121D01*
X133074644Y-110101123D01*
X132964279Y-110266296D01*
X132888258Y-110449825D01*
X132888256Y-110449830D01*
X132849500Y-110644668D01*
X132849500Y-113927259D01*
X132829498Y-113995380D01*
X132826713Y-113999530D01*
X132720477Y-114151250D01*
X132623717Y-114358753D01*
X132623717Y-114358754D01*
X132623716Y-114358757D01*
X132564457Y-114579913D01*
X132544502Y-114808000D01*
X132561796Y-115005677D01*
X132564457Y-115036086D01*
X132623715Y-115257240D01*
X132623717Y-115257246D01*
X132720475Y-115464745D01*
X132720477Y-115464749D01*
X132826713Y-115616469D01*
X132849401Y-115683742D01*
X132849500Y-115688739D01*
X132849500Y-117229259D01*
X132829498Y-117297380D01*
X132826713Y-117301530D01*
X132720477Y-117453250D01*
X132623717Y-117660753D01*
X132623716Y-117660757D01*
X132564457Y-117881913D01*
X132544502Y-118110000D01*
X132564457Y-118338087D01*
X132595587Y-118454266D01*
X132623715Y-118559240D01*
X132623719Y-118559250D01*
X132711616Y-118747748D01*
X132722277Y-118817939D01*
X132693297Y-118882752D01*
X132633877Y-118921608D01*
X132562882Y-118922171D01*
X132508326Y-118890092D01*
X132109405Y-118491171D01*
X132075379Y-118428859D01*
X132072500Y-118402076D01*
X132072500Y-109435923D01*
X132092502Y-109367802D01*
X132109400Y-109346833D01*
X133441115Y-108015117D01*
X133503427Y-107981092D01*
X133519223Y-107978692D01*
X133578087Y-107973543D01*
X133799243Y-107914284D01*
X134006749Y-107817523D01*
X134194300Y-107686198D01*
X134356198Y-107524300D01*
X134487523Y-107336749D01*
X134584284Y-107129243D01*
X134643543Y-106908087D01*
X134663498Y-106680000D01*
X134643543Y-106451913D01*
X134584284Y-106230757D01*
X134487523Y-106023251D01*
X134356198Y-105835700D01*
X134194300Y-105673802D01*
X134194296Y-105673799D01*
X134006746Y-105542474D01*
X134001985Y-105539726D01*
X134003023Y-105537927D01*
X133956532Y-105496963D01*
X133937095Y-105428679D01*
X133957661Y-105360726D01*
X134002782Y-105321664D01*
X134001730Y-105319841D01*
X134006496Y-105317088D01*
X134077888Y-105267099D01*
X134077888Y-105267097D01*
X133390791Y-104580000D01*
X133402661Y-104580000D01*
X133504394Y-104552741D01*
X133595606Y-104500080D01*
X133670080Y-104425606D01*
X133722741Y-104334394D01*
X133750000Y-104232661D01*
X133750000Y-104220791D01*
X134437097Y-104907888D01*
X134437099Y-104907888D01*
X134487088Y-104836497D01*
X134583811Y-104629073D01*
X134583813Y-104629068D01*
X134643048Y-104408002D01*
X134662995Y-104180000D01*
X134643048Y-103951997D01*
X134583813Y-103730931D01*
X134583811Y-103730926D01*
X134487086Y-103523498D01*
X134437100Y-103452110D01*
X134437098Y-103452110D01*
X133750000Y-104139208D01*
X133750000Y-104127339D01*
X133722741Y-104025606D01*
X133670080Y-103934394D01*
X133595606Y-103859920D01*
X133504394Y-103807259D01*
X133402661Y-103780000D01*
X133390790Y-103780000D01*
X134077888Y-103092899D01*
X134077888Y-103092898D01*
X134006501Y-103042913D01*
X133799073Y-102946188D01*
X133799068Y-102946186D01*
X133578000Y-102886951D01*
X133578004Y-102886951D01*
X133350000Y-102867004D01*
X133121997Y-102886951D01*
X132900931Y-102946186D01*
X132900926Y-102946188D01*
X132693500Y-103042913D01*
X132622109Y-103092900D01*
X133309209Y-103780000D01*
X133297339Y-103780000D01*
X133195606Y-103807259D01*
X133104394Y-103859920D01*
X133029920Y-103934394D01*
X132977259Y-104025606D01*
X132950000Y-104127339D01*
X132950000Y-104139209D01*
X132262900Y-103452109D01*
X132212913Y-103523500D01*
X132116188Y-103730926D01*
X132116186Y-103730931D01*
X132056951Y-103951997D01*
X132037004Y-104180000D01*
X132056951Y-104408002D01*
X132116186Y-104629068D01*
X132116188Y-104629073D01*
X132212913Y-104836501D01*
X132262899Y-104907888D01*
X132950000Y-104220788D01*
X132950000Y-104232661D01*
X132977259Y-104334394D01*
X133029920Y-104425606D01*
X133104394Y-104500080D01*
X133195606Y-104552741D01*
X133297339Y-104580000D01*
X133309210Y-104580000D01*
X132622110Y-105267098D01*
X132622110Y-105267100D01*
X132693498Y-105317086D01*
X132698266Y-105319839D01*
X132697178Y-105321721D01*
X132743420Y-105362409D01*
X132762904Y-105430680D01*
X132742386Y-105498647D01*
X132697015Y-105537995D01*
X132698015Y-105539726D01*
X132693253Y-105542474D01*
X132505703Y-105673799D01*
X132505697Y-105673804D01*
X132343804Y-105835697D01*
X132343799Y-105835703D01*
X132212477Y-106023250D01*
X132115717Y-106230753D01*
X132115715Y-106230759D01*
X132056456Y-106451916D01*
X132056455Y-106451921D01*
X132051306Y-106510772D01*
X132025442Y-106576890D01*
X132014881Y-106588883D01*
X130421119Y-108182647D01*
X130280649Y-108323116D01*
X130280644Y-108323123D01*
X130170279Y-108488296D01*
X130094258Y-108671825D01*
X130094256Y-108671830D01*
X130055500Y-108866668D01*
X128530771Y-108866668D01*
X128559215Y-108831776D01*
X128586460Y-108817622D01*
X128653965Y-108792444D01*
X128770904Y-108704904D01*
X128858444Y-108587965D01*
X128858444Y-108587964D01*
X128909494Y-108451093D01*
X128915999Y-108390597D01*
X128916000Y-108390585D01*
X128916000Y-107696000D01*
X127880968Y-107696000D01*
X127927333Y-107615694D01*
X127958000Y-107501244D01*
X127958000Y-107382756D01*
X127927333Y-107268306D01*
X127880968Y-107188000D01*
X128916000Y-107188000D01*
X128916000Y-106493414D01*
X128915999Y-106493402D01*
X128909494Y-106432906D01*
X128858444Y-106296035D01*
X128858444Y-106296034D01*
X128770904Y-106179095D01*
X128653965Y-106091555D01*
X128517093Y-106040505D01*
X128456597Y-106034000D01*
X127762000Y-106034000D01*
X127762000Y-107069031D01*
X127681694Y-107022667D01*
X127567244Y-106992000D01*
X127448756Y-106992000D01*
X127334306Y-107022667D01*
X127254000Y-107069031D01*
X127254000Y-106034000D01*
X126559402Y-106034000D01*
X126498906Y-106040505D01*
X126362035Y-106091555D01*
X126362034Y-106091555D01*
X126245095Y-106179095D01*
X126157555Y-106296034D01*
X126157555Y-106296035D01*
X126106505Y-106432906D01*
X126100000Y-106493402D01*
X126100000Y-107188000D01*
X127135032Y-107188000D01*
X127088667Y-107268306D01*
X127058000Y-107382756D01*
X127058000Y-107501244D01*
X127088667Y-107615694D01*
X127135032Y-107696000D01*
X126100000Y-107696000D01*
X126100000Y-108390597D01*
X126106505Y-108451093D01*
X126157555Y-108587964D01*
X126157555Y-108587965D01*
X126245095Y-108704904D01*
X126362034Y-108792444D01*
X126429539Y-108817622D01*
X126486375Y-108860169D01*
X126511186Y-108926689D01*
X126496095Y-108996063D01*
X126478208Y-109021016D01*
X126392683Y-109113920D01*
X126265015Y-109309331D01*
X126171252Y-109523089D01*
X126171249Y-109523096D01*
X126113950Y-109749366D01*
X126113949Y-109749372D01*
X126113949Y-109749374D01*
X126104743Y-109860476D01*
X126099653Y-109921896D01*
X126074093Y-109988132D01*
X126063178Y-110000585D01*
X123055119Y-113008647D01*
X122914649Y-113149116D01*
X122914644Y-113149123D01*
X122804279Y-113314296D01*
X122728258Y-113497825D01*
X122728256Y-113497830D01*
X122689500Y-113692668D01*
X122689500Y-113927259D01*
X122669498Y-113995380D01*
X122666713Y-113999530D01*
X122560477Y-114151250D01*
X122463717Y-114358753D01*
X122463717Y-114358754D01*
X122463716Y-114358757D01*
X122404457Y-114579913D01*
X122384502Y-114808000D01*
X122401796Y-115005677D01*
X122404457Y-115036086D01*
X122412374Y-115065632D01*
X122410684Y-115136609D01*
X122370890Y-115195404D01*
X122305625Y-115223352D01*
X122235611Y-115211578D01*
X122201572Y-115187338D01*
X121187405Y-114173171D01*
X121153379Y-114110859D01*
X121150500Y-114084076D01*
X121150500Y-95719924D01*
X121170502Y-95651803D01*
X121187405Y-95630829D01*
X122622428Y-94195806D01*
X124060243Y-92757990D01*
X124122553Y-92723966D01*
X124162144Y-92721740D01*
X124163570Y-92721885D01*
X124163574Y-92721887D01*
X124267455Y-92732500D01*
X125668544Y-92732499D01*
X125772426Y-92721887D01*
X125940738Y-92666115D01*
X126091652Y-92573030D01*
X126217030Y-92447652D01*
X126310115Y-92296738D01*
X126365887Y-92128426D01*
X126376500Y-92024545D01*
X126376499Y-89413191D01*
X128640000Y-89413191D01*
X128640000Y-90170000D01*
X129501827Y-90170000D01*
X129488889Y-90192409D01*
X129448000Y-90345009D01*
X129448000Y-90502991D01*
X129488889Y-90655591D01*
X129501827Y-90678000D01*
X128640000Y-90678000D01*
X128640000Y-91434808D01*
X128674670Y-91653710D01*
X128743155Y-91864483D01*
X128743156Y-91864485D01*
X128843772Y-92061956D01*
X128974039Y-92241253D01*
X129130746Y-92397960D01*
X129310043Y-92528227D01*
X129507514Y-92628843D01*
X129507516Y-92628844D01*
X129718289Y-92697329D01*
X129794000Y-92709320D01*
X129794000Y-90970173D01*
X129816409Y-90983111D01*
X129969009Y-91024000D01*
X130126991Y-91024000D01*
X130279591Y-90983111D01*
X130302000Y-90970173D01*
X130302000Y-92709320D01*
X130377709Y-92697329D01*
X130377711Y-92697329D01*
X130588483Y-92628844D01*
X130588485Y-92628843D01*
X130785956Y-92528227D01*
X130965253Y-92397960D01*
X131121960Y-92241253D01*
X131252227Y-92061956D01*
X131352843Y-91864485D01*
X131352844Y-91864483D01*
X131421329Y-91653710D01*
X131456000Y-91434808D01*
X131456000Y-90678000D01*
X130594173Y-90678000D01*
X130607111Y-90655591D01*
X130648000Y-90502991D01*
X130648000Y-90345009D01*
X130607111Y-90192409D01*
X130594173Y-90170000D01*
X131456000Y-90170000D01*
X131456000Y-89413191D01*
X131421329Y-89194289D01*
X131352844Y-88983516D01*
X131352843Y-88983514D01*
X131252227Y-88786043D01*
X131121960Y-88606746D01*
X130965253Y-88450039D01*
X130785956Y-88319772D01*
X130588485Y-88219156D01*
X130588483Y-88219155D01*
X130377709Y-88150669D01*
X130302000Y-88138678D01*
X130302000Y-89877826D01*
X130279591Y-89864889D01*
X130126991Y-89824000D01*
X129969009Y-89824000D01*
X129816409Y-89864889D01*
X129794000Y-89877826D01*
X129794000Y-88138678D01*
X129718290Y-88150669D01*
X129507516Y-88219155D01*
X129507514Y-88219156D01*
X129310043Y-88319772D01*
X129130746Y-88450039D01*
X128974039Y-88606746D01*
X128843772Y-88786043D01*
X128743156Y-88983514D01*
X128743155Y-88983516D01*
X128674670Y-89194289D01*
X128640000Y-89413191D01*
X126376499Y-89413191D01*
X126376499Y-88823456D01*
X126365887Y-88719574D01*
X126310115Y-88551262D01*
X126217030Y-88400348D01*
X126217029Y-88400347D01*
X126217024Y-88400341D01*
X126091658Y-88274975D01*
X126091652Y-88274970D01*
X125940738Y-88181885D01*
X125846533Y-88150669D01*
X125772427Y-88126113D01*
X125772420Y-88126112D01*
X125668553Y-88115500D01*
X124267455Y-88115500D01*
X124163574Y-88126112D01*
X123995261Y-88181885D01*
X123844347Y-88274970D01*
X123844341Y-88274975D01*
X123718975Y-88400341D01*
X123718970Y-88400347D01*
X123625885Y-88551262D01*
X123570113Y-88719572D01*
X123570112Y-88719579D01*
X123559500Y-88823446D01*
X123559500Y-90354074D01*
X123539498Y-90422195D01*
X123522595Y-90443169D01*
X119499119Y-94466647D01*
X119358649Y-94607116D01*
X119358644Y-94607123D01*
X119248279Y-94772296D01*
X119172258Y-94955825D01*
X119172256Y-94955830D01*
X119133500Y-95150668D01*
X116178500Y-95150668D01*
X116178500Y-86867996D01*
X116608654Y-86867996D01*
X116608654Y-86868003D01*
X116628016Y-87163421D01*
X116628018Y-87163435D01*
X116685776Y-87453795D01*
X116685778Y-87453805D01*
X116780938Y-87734137D01*
X116780944Y-87734151D01*
X116911883Y-87999670D01*
X117076359Y-88245827D01*
X117076361Y-88245830D01*
X117076367Y-88245838D01*
X117271573Y-88468427D01*
X117494162Y-88663633D01*
X117740327Y-88828115D01*
X118005855Y-88959059D01*
X118286203Y-89054224D01*
X118576574Y-89111983D01*
X118745388Y-89123047D01*
X118871997Y-89131346D01*
X118872000Y-89131346D01*
X118872003Y-89131346D01*
X118982784Y-89124084D01*
X119167426Y-89111983D01*
X119457797Y-89054224D01*
X119738145Y-88959059D01*
X120003673Y-88828115D01*
X120249838Y-88663633D01*
X120472427Y-88468427D01*
X120667633Y-88245838D01*
X120832115Y-87999673D01*
X120963059Y-87734145D01*
X121058224Y-87453797D01*
X121115983Y-87163426D01*
X121135346Y-86868000D01*
X121133946Y-86846647D01*
X121115983Y-86572578D01*
X121115983Y-86572574D01*
X121058224Y-86282203D01*
X120963059Y-86001855D01*
X120832115Y-85736327D01*
X120667633Y-85490162D01*
X120472427Y-85267573D01*
X120249838Y-85072367D01*
X120249830Y-85072361D01*
X120249827Y-85072359D01*
X120003670Y-84907883D01*
X119738151Y-84776944D01*
X119738145Y-84776941D01*
X119738140Y-84776939D01*
X119738137Y-84776938D01*
X119457805Y-84681778D01*
X119457799Y-84681776D01*
X119457797Y-84681776D01*
X119360566Y-84662435D01*
X119167435Y-84624018D01*
X119167421Y-84624016D01*
X118872003Y-84604654D01*
X118871997Y-84604654D01*
X118576578Y-84624016D01*
X118576564Y-84624018D01*
X118334818Y-84672105D01*
X118286203Y-84681776D01*
X118286201Y-84681776D01*
X118286194Y-84681778D01*
X118005862Y-84776938D01*
X118005848Y-84776944D01*
X117740329Y-84907883D01*
X117494172Y-85072359D01*
X117494165Y-85072364D01*
X117494162Y-85072367D01*
X117271573Y-85267573D01*
X117076367Y-85490162D01*
X117076364Y-85490165D01*
X117076359Y-85490172D01*
X116911883Y-85736329D01*
X116780944Y-86001848D01*
X116780938Y-86001862D01*
X116685778Y-86282194D01*
X116685776Y-86282204D01*
X116628018Y-86572564D01*
X116628016Y-86572578D01*
X116608654Y-86867996D01*
X116178500Y-86867996D01*
X116178500Y-84300500D01*
X116198502Y-84232379D01*
X116252158Y-84185886D01*
X116304500Y-84174500D01*
X165381500Y-84174500D01*
X165449621Y-84194502D01*
G37*
G04 #@! TD.AperFunction*
M02*
