G04 #@! TF.GenerationSoftware,KiCad,Pcbnew,8.0.6*
G04 #@! TF.CreationDate,2024-11-03T17:07:20-03:00*
G04 #@! TF.ProjectId,555-temporizador-r01,3535352d-7465-46d7-906f-72697a61646f,rev?*
G04 #@! TF.SameCoordinates,Original*
G04 #@! TF.FileFunction,Soldermask,Bot*
G04 #@! TF.FilePolarity,Negative*
%FSLAX46Y46*%
G04 Gerber Fmt 4.6, Leading zero omitted, Abs format (unit mm)*
G04 Created by KiCad (PCBNEW 8.0.6) date 2024-11-03 17:07:20*
%MOMM*%
%LPD*%
G01*
G04 APERTURE LIST*
G04 APERTURE END LIST*
G36*
X153062938Y-124684017D02*
G01*
X153108923Y-124684017D01*
X153160139Y-124693590D01*
X153217040Y-124699195D01*
X153260261Y-124712306D01*
X153299474Y-124719636D01*
X153353785Y-124740676D01*
X153414200Y-124759003D01*
X153448720Y-124777454D01*
X153480232Y-124789662D01*
X153534977Y-124823559D01*
X153595904Y-124856125D01*
X153621506Y-124877136D01*
X153645048Y-124891713D01*
X153697212Y-124939267D01*
X153755169Y-124986831D01*
X153772342Y-125007757D01*
X153788301Y-125022305D01*
X153834629Y-125083653D01*
X153885875Y-125146096D01*
X153895783Y-125164634D01*
X153905122Y-125177000D01*
X153942274Y-125251613D01*
X153982997Y-125327800D01*
X153987340Y-125342117D01*
X153991528Y-125350528D01*
X154016267Y-125437476D01*
X154042805Y-125524960D01*
X154043676Y-125533811D01*
X154044577Y-125536975D01*
X154053938Y-125638002D01*
X154063000Y-125730000D01*
X154053938Y-125822005D01*
X154044577Y-125923024D01*
X154043676Y-125926187D01*
X154042805Y-125935040D01*
X154016262Y-126022538D01*
X153991528Y-126109471D01*
X153987341Y-126117879D01*
X153982997Y-126132200D01*
X153942267Y-126208399D01*
X153905122Y-126282999D01*
X153895785Y-126295362D01*
X153885875Y-126313904D01*
X153834620Y-126376357D01*
X153788301Y-126437694D01*
X153772345Y-126452238D01*
X153755169Y-126473169D01*
X153697201Y-126520741D01*
X153645048Y-126568286D01*
X153621511Y-126582859D01*
X153595904Y-126603875D01*
X153534965Y-126636447D01*
X153480232Y-126670337D01*
X153448726Y-126682542D01*
X153414200Y-126700997D01*
X153353773Y-126719327D01*
X153299474Y-126740363D01*
X153260268Y-126747691D01*
X153217040Y-126760805D01*
X153160136Y-126766409D01*
X153108923Y-126775983D01*
X153062938Y-126775983D01*
X153012000Y-126781000D01*
X152961062Y-126775983D01*
X152915077Y-126775983D01*
X152863863Y-126766409D01*
X152806960Y-126760805D01*
X152763732Y-126747692D01*
X152724525Y-126740363D01*
X152670221Y-126719325D01*
X152609800Y-126700997D01*
X152575275Y-126682543D01*
X152543767Y-126670337D01*
X152489027Y-126636443D01*
X152428096Y-126603875D01*
X152402491Y-126582861D01*
X152378951Y-126568286D01*
X152326788Y-126520733D01*
X152268831Y-126473169D01*
X152251656Y-126452242D01*
X152235698Y-126437694D01*
X152189367Y-126376342D01*
X152138125Y-126313904D01*
X152128216Y-126295366D01*
X152118877Y-126282999D01*
X152081717Y-126208372D01*
X152041003Y-126132200D01*
X152036660Y-126117884D01*
X152032471Y-126109471D01*
X152007721Y-126022485D01*
X151981195Y-125935040D01*
X151980323Y-125926192D01*
X151979422Y-125923024D01*
X151970044Y-125821833D01*
X151961000Y-125730000D01*
X151970044Y-125638173D01*
X151979422Y-125536975D01*
X151980323Y-125533805D01*
X151981195Y-125524960D01*
X152007716Y-125437529D01*
X152032471Y-125350528D01*
X152036661Y-125342112D01*
X152041003Y-125327800D01*
X152081710Y-125251641D01*
X152118877Y-125177000D01*
X152128218Y-125164629D01*
X152138125Y-125146096D01*
X152189357Y-125083668D01*
X152235698Y-125022305D01*
X152251660Y-125007753D01*
X152268831Y-124986831D01*
X152326777Y-124939275D01*
X152378951Y-124891713D01*
X152402496Y-124877134D01*
X152428096Y-124856125D01*
X152489015Y-124823563D01*
X152543767Y-124789662D01*
X152575282Y-124777452D01*
X152609800Y-124759003D01*
X152670209Y-124740677D01*
X152724525Y-124719636D01*
X152763739Y-124712305D01*
X152806960Y-124699195D01*
X152863860Y-124693590D01*
X152915077Y-124684017D01*
X152961062Y-124684017D01*
X153012000Y-124679000D01*
X153062938Y-124684017D01*
G37*
G36*
X159562938Y-124684017D02*
G01*
X159608923Y-124684017D01*
X159660139Y-124693590D01*
X159717040Y-124699195D01*
X159760261Y-124712306D01*
X159799474Y-124719636D01*
X159853785Y-124740676D01*
X159914200Y-124759003D01*
X159948720Y-124777454D01*
X159980232Y-124789662D01*
X160034977Y-124823559D01*
X160095904Y-124856125D01*
X160121506Y-124877136D01*
X160145048Y-124891713D01*
X160197212Y-124939267D01*
X160255169Y-124986831D01*
X160272342Y-125007757D01*
X160288301Y-125022305D01*
X160334629Y-125083653D01*
X160385875Y-125146096D01*
X160395783Y-125164634D01*
X160405122Y-125177000D01*
X160442274Y-125251613D01*
X160482997Y-125327800D01*
X160487340Y-125342117D01*
X160491528Y-125350528D01*
X160516267Y-125437476D01*
X160542805Y-125524960D01*
X160543676Y-125533811D01*
X160544577Y-125536975D01*
X160553938Y-125638002D01*
X160563000Y-125730000D01*
X160553938Y-125822005D01*
X160544577Y-125923024D01*
X160543676Y-125926187D01*
X160542805Y-125935040D01*
X160516262Y-126022538D01*
X160491528Y-126109471D01*
X160487341Y-126117879D01*
X160482997Y-126132200D01*
X160442267Y-126208399D01*
X160405122Y-126282999D01*
X160395785Y-126295362D01*
X160385875Y-126313904D01*
X160334620Y-126376357D01*
X160288301Y-126437694D01*
X160272345Y-126452238D01*
X160255169Y-126473169D01*
X160197201Y-126520741D01*
X160145048Y-126568286D01*
X160121511Y-126582859D01*
X160095904Y-126603875D01*
X160034965Y-126636447D01*
X159980232Y-126670337D01*
X159948726Y-126682542D01*
X159914200Y-126700997D01*
X159853773Y-126719327D01*
X159799474Y-126740363D01*
X159760268Y-126747691D01*
X159717040Y-126760805D01*
X159660136Y-126766409D01*
X159608923Y-126775983D01*
X159562938Y-126775983D01*
X159512000Y-126781000D01*
X159461062Y-126775983D01*
X159415077Y-126775983D01*
X159363863Y-126766409D01*
X159306960Y-126760805D01*
X159263732Y-126747692D01*
X159224525Y-126740363D01*
X159170221Y-126719325D01*
X159109800Y-126700997D01*
X159075275Y-126682543D01*
X159043767Y-126670337D01*
X158989027Y-126636443D01*
X158928096Y-126603875D01*
X158902491Y-126582861D01*
X158878951Y-126568286D01*
X158826788Y-126520733D01*
X158768831Y-126473169D01*
X158751656Y-126452242D01*
X158735698Y-126437694D01*
X158689367Y-126376342D01*
X158638125Y-126313904D01*
X158628216Y-126295366D01*
X158618877Y-126282999D01*
X158581717Y-126208372D01*
X158541003Y-126132200D01*
X158536660Y-126117884D01*
X158532471Y-126109471D01*
X158507721Y-126022485D01*
X158481195Y-125935040D01*
X158480323Y-125926192D01*
X158479422Y-125923024D01*
X158470044Y-125821833D01*
X158461000Y-125730000D01*
X158470044Y-125638173D01*
X158479422Y-125536975D01*
X158480323Y-125533805D01*
X158481195Y-125524960D01*
X158507716Y-125437529D01*
X158532471Y-125350528D01*
X158536661Y-125342112D01*
X158541003Y-125327800D01*
X158581710Y-125251641D01*
X158618877Y-125177000D01*
X158628218Y-125164629D01*
X158638125Y-125146096D01*
X158689357Y-125083668D01*
X158735698Y-125022305D01*
X158751660Y-125007753D01*
X158768831Y-124986831D01*
X158826777Y-124939275D01*
X158878951Y-124891713D01*
X158902496Y-124877134D01*
X158928096Y-124856125D01*
X158989015Y-124823563D01*
X159043767Y-124789662D01*
X159075282Y-124777452D01*
X159109800Y-124759003D01*
X159170209Y-124740677D01*
X159224525Y-124719636D01*
X159263739Y-124712305D01*
X159306960Y-124699195D01*
X159363860Y-124693590D01*
X159415077Y-124684017D01*
X159461062Y-124684017D01*
X159512000Y-124679000D01*
X159562938Y-124684017D01*
G37*
G36*
X153062938Y-120184017D02*
G01*
X153108923Y-120184017D01*
X153160139Y-120193590D01*
X153217040Y-120199195D01*
X153260261Y-120212306D01*
X153299474Y-120219636D01*
X153353785Y-120240676D01*
X153414200Y-120259003D01*
X153448720Y-120277454D01*
X153480232Y-120289662D01*
X153534977Y-120323559D01*
X153595904Y-120356125D01*
X153621506Y-120377136D01*
X153645048Y-120391713D01*
X153697212Y-120439267D01*
X153755169Y-120486831D01*
X153772342Y-120507757D01*
X153788301Y-120522305D01*
X153834629Y-120583653D01*
X153885875Y-120646096D01*
X153895783Y-120664634D01*
X153905122Y-120677000D01*
X153942274Y-120751613D01*
X153982997Y-120827800D01*
X153987340Y-120842117D01*
X153991528Y-120850528D01*
X154016267Y-120937476D01*
X154042805Y-121024960D01*
X154043676Y-121033811D01*
X154044577Y-121036975D01*
X154053938Y-121138002D01*
X154063000Y-121230000D01*
X154053938Y-121322005D01*
X154044577Y-121423024D01*
X154043676Y-121426187D01*
X154042805Y-121435040D01*
X154016262Y-121522538D01*
X153991528Y-121609471D01*
X153987341Y-121617879D01*
X153982997Y-121632200D01*
X153942267Y-121708399D01*
X153905122Y-121782999D01*
X153895785Y-121795362D01*
X153885875Y-121813904D01*
X153834620Y-121876357D01*
X153788301Y-121937694D01*
X153772345Y-121952238D01*
X153755169Y-121973169D01*
X153697201Y-122020741D01*
X153645048Y-122068286D01*
X153621511Y-122082859D01*
X153595904Y-122103875D01*
X153534965Y-122136447D01*
X153480232Y-122170337D01*
X153448726Y-122182542D01*
X153414200Y-122200997D01*
X153353773Y-122219327D01*
X153299474Y-122240363D01*
X153260268Y-122247691D01*
X153217040Y-122260805D01*
X153160136Y-122266409D01*
X153108923Y-122275983D01*
X153062938Y-122275983D01*
X153012000Y-122281000D01*
X152961062Y-122275983D01*
X152915077Y-122275983D01*
X152863863Y-122266409D01*
X152806960Y-122260805D01*
X152763732Y-122247692D01*
X152724525Y-122240363D01*
X152670221Y-122219325D01*
X152609800Y-122200997D01*
X152575275Y-122182543D01*
X152543767Y-122170337D01*
X152489027Y-122136443D01*
X152428096Y-122103875D01*
X152402491Y-122082861D01*
X152378951Y-122068286D01*
X152326788Y-122020733D01*
X152268831Y-121973169D01*
X152251656Y-121952242D01*
X152235698Y-121937694D01*
X152189367Y-121876342D01*
X152138125Y-121813904D01*
X152128216Y-121795366D01*
X152118877Y-121782999D01*
X152081717Y-121708372D01*
X152041003Y-121632200D01*
X152036660Y-121617884D01*
X152032471Y-121609471D01*
X152007721Y-121522485D01*
X151981195Y-121435040D01*
X151980323Y-121426192D01*
X151979422Y-121423024D01*
X151970044Y-121321833D01*
X151961000Y-121230000D01*
X151970044Y-121138173D01*
X151979422Y-121036975D01*
X151980323Y-121033805D01*
X151981195Y-121024960D01*
X152007716Y-120937529D01*
X152032471Y-120850528D01*
X152036661Y-120842112D01*
X152041003Y-120827800D01*
X152081710Y-120751641D01*
X152118877Y-120677000D01*
X152128218Y-120664629D01*
X152138125Y-120646096D01*
X152189357Y-120583668D01*
X152235698Y-120522305D01*
X152251660Y-120507753D01*
X152268831Y-120486831D01*
X152326777Y-120439275D01*
X152378951Y-120391713D01*
X152402496Y-120377134D01*
X152428096Y-120356125D01*
X152489015Y-120323563D01*
X152543767Y-120289662D01*
X152575282Y-120277452D01*
X152609800Y-120259003D01*
X152670209Y-120240677D01*
X152724525Y-120219636D01*
X152763739Y-120212305D01*
X152806960Y-120199195D01*
X152863860Y-120193590D01*
X152915077Y-120184017D01*
X152961062Y-120184017D01*
X153012000Y-120179000D01*
X153062938Y-120184017D01*
G37*
G36*
X159562938Y-120184017D02*
G01*
X159608923Y-120184017D01*
X159660139Y-120193590D01*
X159717040Y-120199195D01*
X159760261Y-120212306D01*
X159799474Y-120219636D01*
X159853785Y-120240676D01*
X159914200Y-120259003D01*
X159948720Y-120277454D01*
X159980232Y-120289662D01*
X160034977Y-120323559D01*
X160095904Y-120356125D01*
X160121506Y-120377136D01*
X160145048Y-120391713D01*
X160197212Y-120439267D01*
X160255169Y-120486831D01*
X160272342Y-120507757D01*
X160288301Y-120522305D01*
X160334629Y-120583653D01*
X160385875Y-120646096D01*
X160395783Y-120664634D01*
X160405122Y-120677000D01*
X160442274Y-120751613D01*
X160482997Y-120827800D01*
X160487340Y-120842117D01*
X160491528Y-120850528D01*
X160516267Y-120937476D01*
X160542805Y-121024960D01*
X160543676Y-121033811D01*
X160544577Y-121036975D01*
X160553938Y-121138002D01*
X160563000Y-121230000D01*
X160553938Y-121322005D01*
X160544577Y-121423024D01*
X160543676Y-121426187D01*
X160542805Y-121435040D01*
X160516262Y-121522538D01*
X160491528Y-121609471D01*
X160487341Y-121617879D01*
X160482997Y-121632200D01*
X160442267Y-121708399D01*
X160405122Y-121782999D01*
X160395785Y-121795362D01*
X160385875Y-121813904D01*
X160334620Y-121876357D01*
X160288301Y-121937694D01*
X160272345Y-121952238D01*
X160255169Y-121973169D01*
X160197201Y-122020741D01*
X160145048Y-122068286D01*
X160121511Y-122082859D01*
X160095904Y-122103875D01*
X160034965Y-122136447D01*
X159980232Y-122170337D01*
X159948726Y-122182542D01*
X159914200Y-122200997D01*
X159853773Y-122219327D01*
X159799474Y-122240363D01*
X159760268Y-122247691D01*
X159717040Y-122260805D01*
X159660136Y-122266409D01*
X159608923Y-122275983D01*
X159562938Y-122275983D01*
X159512000Y-122281000D01*
X159461062Y-122275983D01*
X159415077Y-122275983D01*
X159363863Y-122266409D01*
X159306960Y-122260805D01*
X159263732Y-122247692D01*
X159224525Y-122240363D01*
X159170221Y-122219325D01*
X159109800Y-122200997D01*
X159075275Y-122182543D01*
X159043767Y-122170337D01*
X158989027Y-122136443D01*
X158928096Y-122103875D01*
X158902491Y-122082861D01*
X158878951Y-122068286D01*
X158826788Y-122020733D01*
X158768831Y-121973169D01*
X158751656Y-121952242D01*
X158735698Y-121937694D01*
X158689367Y-121876342D01*
X158638125Y-121813904D01*
X158628216Y-121795366D01*
X158618877Y-121782999D01*
X158581717Y-121708372D01*
X158541003Y-121632200D01*
X158536660Y-121617884D01*
X158532471Y-121609471D01*
X158507721Y-121522485D01*
X158481195Y-121435040D01*
X158480323Y-121426192D01*
X158479422Y-121423024D01*
X158470044Y-121321833D01*
X158461000Y-121230000D01*
X158470044Y-121138173D01*
X158479422Y-121036975D01*
X158480323Y-121033805D01*
X158481195Y-121024960D01*
X158507716Y-120937529D01*
X158532471Y-120850528D01*
X158536661Y-120842112D01*
X158541003Y-120827800D01*
X158581710Y-120751641D01*
X158618877Y-120677000D01*
X158628218Y-120664629D01*
X158638125Y-120646096D01*
X158689357Y-120583668D01*
X158735698Y-120522305D01*
X158751660Y-120507753D01*
X158768831Y-120486831D01*
X158826777Y-120439275D01*
X158878951Y-120391713D01*
X158902496Y-120377134D01*
X158928096Y-120356125D01*
X158989015Y-120323563D01*
X159043767Y-120289662D01*
X159075282Y-120277452D01*
X159109800Y-120259003D01*
X159170209Y-120240677D01*
X159224525Y-120219636D01*
X159263739Y-120212305D01*
X159306960Y-120199195D01*
X159363860Y-120193590D01*
X159415077Y-120184017D01*
X159461062Y-120184017D01*
X159512000Y-120179000D01*
X159562938Y-120184017D01*
G37*
G36*
X123739199Y-117263662D02*
G01*
X123786954Y-117263662D01*
X123828194Y-117272427D01*
X123863901Y-117275945D01*
X123908759Y-117289552D01*
X123960973Y-117300651D01*
X123994384Y-117315526D01*
X124023435Y-117324339D01*
X124069602Y-117349015D01*
X124123500Y-117373012D01*
X124148554Y-117391215D01*
X124170453Y-117402920D01*
X124215128Y-117439584D01*
X124267430Y-117477584D01*
X124284411Y-117496443D01*
X124299320Y-117508679D01*
X124339387Y-117557501D01*
X124386473Y-117609795D01*
X124396364Y-117626927D01*
X124405079Y-117637546D01*
X124437306Y-117697840D01*
X124475427Y-117763867D01*
X124479813Y-117777368D01*
X124483660Y-117784564D01*
X124504861Y-117854455D01*
X124530404Y-117933067D01*
X124531303Y-117941623D01*
X124532054Y-117944098D01*
X124539371Y-118018389D01*
X124549000Y-118110000D01*
X124539370Y-118201619D01*
X124532054Y-118275901D01*
X124531303Y-118278375D01*
X124530404Y-118286933D01*
X124504856Y-118365558D01*
X124483660Y-118435435D01*
X124479814Y-118442629D01*
X124475427Y-118456133D01*
X124437299Y-118522172D01*
X124405079Y-118582453D01*
X124396366Y-118593069D01*
X124386473Y-118610205D01*
X124339378Y-118662509D01*
X124299320Y-118711320D01*
X124284414Y-118723552D01*
X124267430Y-118742416D01*
X124215118Y-118780423D01*
X124170453Y-118817079D01*
X124148559Y-118828780D01*
X124123500Y-118846988D01*
X124069591Y-118870989D01*
X124023435Y-118895660D01*
X123994391Y-118904470D01*
X123960973Y-118919349D01*
X123908748Y-118930449D01*
X123863901Y-118944054D01*
X123828203Y-118947570D01*
X123786954Y-118956338D01*
X123739188Y-118956338D01*
X123698000Y-118960395D01*
X123656811Y-118956338D01*
X123609046Y-118956338D01*
X123567797Y-118947570D01*
X123532098Y-118944054D01*
X123487248Y-118930448D01*
X123435027Y-118919349D01*
X123401610Y-118904471D01*
X123372564Y-118895660D01*
X123326402Y-118870986D01*
X123272500Y-118846988D01*
X123247443Y-118828783D01*
X123225546Y-118817079D01*
X123180873Y-118780416D01*
X123128570Y-118742416D01*
X123111588Y-118723555D01*
X123096679Y-118711320D01*
X123056610Y-118662496D01*
X123009527Y-118610205D01*
X122999636Y-118593073D01*
X122990920Y-118582453D01*
X122958687Y-118522148D01*
X122920573Y-118456133D01*
X122916186Y-118442634D01*
X122912339Y-118435435D01*
X122891128Y-118365512D01*
X122865596Y-118286933D01*
X122864697Y-118278380D01*
X122863945Y-118275901D01*
X122856613Y-118201467D01*
X122847000Y-118110000D01*
X122856612Y-118018540D01*
X122863945Y-117944098D01*
X122864697Y-117941618D01*
X122865596Y-117933067D01*
X122891123Y-117854502D01*
X122912339Y-117784564D01*
X122916187Y-117777363D01*
X122920573Y-117763867D01*
X122958680Y-117697863D01*
X122990920Y-117637546D01*
X122999638Y-117626923D01*
X123009527Y-117609795D01*
X123056601Y-117557513D01*
X123096679Y-117508679D01*
X123111591Y-117496440D01*
X123128570Y-117477584D01*
X123180862Y-117439591D01*
X123225546Y-117402920D01*
X123247448Y-117391213D01*
X123272500Y-117373012D01*
X123326391Y-117349018D01*
X123372564Y-117324339D01*
X123401617Y-117315525D01*
X123435027Y-117300651D01*
X123487237Y-117289553D01*
X123532098Y-117275945D01*
X123567806Y-117272427D01*
X123609046Y-117263662D01*
X123656801Y-117263662D01*
X123698000Y-117259604D01*
X123739199Y-117263662D01*
G37*
G36*
X133899199Y-117263662D02*
G01*
X133946954Y-117263662D01*
X133988194Y-117272427D01*
X134023901Y-117275945D01*
X134068759Y-117289552D01*
X134120973Y-117300651D01*
X134154384Y-117315526D01*
X134183435Y-117324339D01*
X134229602Y-117349015D01*
X134283500Y-117373012D01*
X134308554Y-117391215D01*
X134330453Y-117402920D01*
X134375128Y-117439584D01*
X134427430Y-117477584D01*
X134444411Y-117496443D01*
X134459320Y-117508679D01*
X134499387Y-117557501D01*
X134546473Y-117609795D01*
X134556364Y-117626927D01*
X134565079Y-117637546D01*
X134597306Y-117697840D01*
X134635427Y-117763867D01*
X134639813Y-117777368D01*
X134643660Y-117784564D01*
X134664861Y-117854455D01*
X134690404Y-117933067D01*
X134691303Y-117941623D01*
X134692054Y-117944098D01*
X134699371Y-118018389D01*
X134709000Y-118110000D01*
X134699370Y-118201619D01*
X134692054Y-118275901D01*
X134691303Y-118278375D01*
X134690404Y-118286933D01*
X134664856Y-118365558D01*
X134643660Y-118435435D01*
X134639814Y-118442629D01*
X134635427Y-118456133D01*
X134597299Y-118522172D01*
X134565079Y-118582453D01*
X134556366Y-118593069D01*
X134546473Y-118610205D01*
X134499378Y-118662509D01*
X134459320Y-118711320D01*
X134444414Y-118723552D01*
X134427430Y-118742416D01*
X134375118Y-118780423D01*
X134330453Y-118817079D01*
X134308559Y-118828780D01*
X134283500Y-118846988D01*
X134229591Y-118870989D01*
X134183435Y-118895660D01*
X134154391Y-118904470D01*
X134120973Y-118919349D01*
X134068748Y-118930449D01*
X134023901Y-118944054D01*
X133988203Y-118947570D01*
X133946954Y-118956338D01*
X133899188Y-118956338D01*
X133858000Y-118960395D01*
X133816811Y-118956338D01*
X133769046Y-118956338D01*
X133727797Y-118947570D01*
X133692098Y-118944054D01*
X133647248Y-118930448D01*
X133595027Y-118919349D01*
X133561610Y-118904471D01*
X133532564Y-118895660D01*
X133486402Y-118870986D01*
X133432500Y-118846988D01*
X133407443Y-118828783D01*
X133385546Y-118817079D01*
X133340873Y-118780416D01*
X133288570Y-118742416D01*
X133271588Y-118723555D01*
X133256679Y-118711320D01*
X133216610Y-118662496D01*
X133169527Y-118610205D01*
X133159636Y-118593073D01*
X133150920Y-118582453D01*
X133118687Y-118522148D01*
X133080573Y-118456133D01*
X133076186Y-118442634D01*
X133072339Y-118435435D01*
X133051128Y-118365512D01*
X133025596Y-118286933D01*
X133024697Y-118278380D01*
X133023945Y-118275901D01*
X133016613Y-118201467D01*
X133007000Y-118110000D01*
X133016612Y-118018540D01*
X133023945Y-117944098D01*
X133024697Y-117941618D01*
X133025596Y-117933067D01*
X133051123Y-117854502D01*
X133072339Y-117784564D01*
X133076187Y-117777363D01*
X133080573Y-117763867D01*
X133118680Y-117697863D01*
X133150920Y-117637546D01*
X133159638Y-117626923D01*
X133169527Y-117609795D01*
X133216601Y-117557513D01*
X133256679Y-117508679D01*
X133271591Y-117496440D01*
X133288570Y-117477584D01*
X133340862Y-117439591D01*
X133385546Y-117402920D01*
X133407448Y-117391213D01*
X133432500Y-117373012D01*
X133486391Y-117349018D01*
X133532564Y-117324339D01*
X133561617Y-117315525D01*
X133595027Y-117300651D01*
X133647237Y-117289553D01*
X133692098Y-117275945D01*
X133727806Y-117272427D01*
X133769046Y-117263662D01*
X133816801Y-117263662D01*
X133858000Y-117259604D01*
X133899199Y-117263662D01*
G37*
G36*
X139781199Y-115485662D02*
G01*
X139828954Y-115485662D01*
X139870194Y-115494427D01*
X139905901Y-115497945D01*
X139950759Y-115511552D01*
X140002973Y-115522651D01*
X140036384Y-115537526D01*
X140065435Y-115546339D01*
X140111602Y-115571015D01*
X140165500Y-115595012D01*
X140190554Y-115613215D01*
X140212453Y-115624920D01*
X140257128Y-115661584D01*
X140309430Y-115699584D01*
X140326411Y-115718443D01*
X140341320Y-115730679D01*
X140381387Y-115779501D01*
X140428473Y-115831795D01*
X140438364Y-115848927D01*
X140447079Y-115859546D01*
X140479306Y-115919840D01*
X140517427Y-115985867D01*
X140521813Y-115999368D01*
X140525660Y-116006564D01*
X140546861Y-116076455D01*
X140572404Y-116155067D01*
X140573303Y-116163623D01*
X140574054Y-116166098D01*
X140581371Y-116240389D01*
X140591000Y-116332000D01*
X140581370Y-116423619D01*
X140574054Y-116497901D01*
X140573303Y-116500375D01*
X140572404Y-116508933D01*
X140546856Y-116587558D01*
X140525660Y-116657435D01*
X140521814Y-116664629D01*
X140517427Y-116678133D01*
X140479299Y-116744172D01*
X140447079Y-116804453D01*
X140438366Y-116815069D01*
X140428473Y-116832205D01*
X140381378Y-116884509D01*
X140341320Y-116933320D01*
X140326414Y-116945552D01*
X140309430Y-116964416D01*
X140257118Y-117002423D01*
X140212453Y-117039079D01*
X140190559Y-117050780D01*
X140165500Y-117068988D01*
X140111591Y-117092989D01*
X140065435Y-117117660D01*
X140036391Y-117126470D01*
X140002973Y-117141349D01*
X139950748Y-117152449D01*
X139905901Y-117166054D01*
X139870203Y-117169570D01*
X139828954Y-117178338D01*
X139781188Y-117178338D01*
X139740000Y-117182395D01*
X139698811Y-117178338D01*
X139651046Y-117178338D01*
X139609797Y-117169570D01*
X139574098Y-117166054D01*
X139529248Y-117152448D01*
X139477027Y-117141349D01*
X139443610Y-117126471D01*
X139414564Y-117117660D01*
X139368402Y-117092986D01*
X139314500Y-117068988D01*
X139289443Y-117050783D01*
X139267546Y-117039079D01*
X139222873Y-117002416D01*
X139170570Y-116964416D01*
X139153588Y-116945555D01*
X139138679Y-116933320D01*
X139098610Y-116884496D01*
X139051527Y-116832205D01*
X139041636Y-116815073D01*
X139032920Y-116804453D01*
X139000687Y-116744148D01*
X138962573Y-116678133D01*
X138958186Y-116664634D01*
X138954339Y-116657435D01*
X138933128Y-116587512D01*
X138907596Y-116508933D01*
X138906697Y-116500380D01*
X138905945Y-116497901D01*
X138898613Y-116423467D01*
X138889000Y-116332000D01*
X138898612Y-116240540D01*
X138905945Y-116166098D01*
X138906697Y-116163618D01*
X138907596Y-116155067D01*
X138933123Y-116076502D01*
X138954339Y-116006564D01*
X138958187Y-115999363D01*
X138962573Y-115985867D01*
X139000680Y-115919863D01*
X139032920Y-115859546D01*
X139041638Y-115848923D01*
X139051527Y-115831795D01*
X139098601Y-115779513D01*
X139138679Y-115730679D01*
X139153591Y-115718440D01*
X139170570Y-115699584D01*
X139222862Y-115661591D01*
X139267546Y-115624920D01*
X139289448Y-115613213D01*
X139314500Y-115595012D01*
X139368391Y-115571018D01*
X139414564Y-115546339D01*
X139443617Y-115537525D01*
X139477027Y-115522651D01*
X139529237Y-115511553D01*
X139574098Y-115497945D01*
X139609806Y-115494427D01*
X139651046Y-115485662D01*
X139698801Y-115485662D01*
X139740000Y-115481604D01*
X139781199Y-115485662D01*
G37*
G36*
X142281199Y-115485662D02*
G01*
X142328954Y-115485662D01*
X142370194Y-115494427D01*
X142405901Y-115497945D01*
X142450759Y-115511552D01*
X142502973Y-115522651D01*
X142536384Y-115537526D01*
X142565435Y-115546339D01*
X142611602Y-115571015D01*
X142665500Y-115595012D01*
X142690554Y-115613215D01*
X142712453Y-115624920D01*
X142757128Y-115661584D01*
X142809430Y-115699584D01*
X142826411Y-115718443D01*
X142841320Y-115730679D01*
X142881387Y-115779501D01*
X142928473Y-115831795D01*
X142938364Y-115848927D01*
X142947079Y-115859546D01*
X142979306Y-115919840D01*
X143017427Y-115985867D01*
X143021813Y-115999368D01*
X143025660Y-116006564D01*
X143046861Y-116076455D01*
X143072404Y-116155067D01*
X143073303Y-116163623D01*
X143074054Y-116166098D01*
X143081371Y-116240389D01*
X143091000Y-116332000D01*
X143081370Y-116423619D01*
X143074054Y-116497901D01*
X143073303Y-116500375D01*
X143072404Y-116508933D01*
X143046856Y-116587558D01*
X143025660Y-116657435D01*
X143021814Y-116664629D01*
X143017427Y-116678133D01*
X142979299Y-116744172D01*
X142947079Y-116804453D01*
X142938366Y-116815069D01*
X142928473Y-116832205D01*
X142881378Y-116884509D01*
X142841320Y-116933320D01*
X142826414Y-116945552D01*
X142809430Y-116964416D01*
X142757118Y-117002423D01*
X142712453Y-117039079D01*
X142690559Y-117050780D01*
X142665500Y-117068988D01*
X142611591Y-117092989D01*
X142565435Y-117117660D01*
X142536391Y-117126470D01*
X142502973Y-117141349D01*
X142450748Y-117152449D01*
X142405901Y-117166054D01*
X142370203Y-117169570D01*
X142328954Y-117178338D01*
X142281188Y-117178338D01*
X142240000Y-117182395D01*
X142198811Y-117178338D01*
X142151046Y-117178338D01*
X142109797Y-117169570D01*
X142074098Y-117166054D01*
X142029248Y-117152448D01*
X141977027Y-117141349D01*
X141943610Y-117126471D01*
X141914564Y-117117660D01*
X141868402Y-117092986D01*
X141814500Y-117068988D01*
X141789443Y-117050783D01*
X141767546Y-117039079D01*
X141722873Y-117002416D01*
X141670570Y-116964416D01*
X141653588Y-116945555D01*
X141638679Y-116933320D01*
X141598610Y-116884496D01*
X141551527Y-116832205D01*
X141541636Y-116815073D01*
X141532920Y-116804453D01*
X141500687Y-116744148D01*
X141462573Y-116678133D01*
X141458186Y-116664634D01*
X141454339Y-116657435D01*
X141433128Y-116587512D01*
X141407596Y-116508933D01*
X141406697Y-116500380D01*
X141405945Y-116497901D01*
X141398613Y-116423467D01*
X141389000Y-116332000D01*
X141398612Y-116240540D01*
X141405945Y-116166098D01*
X141406697Y-116163618D01*
X141407596Y-116155067D01*
X141433123Y-116076502D01*
X141454339Y-116006564D01*
X141458187Y-115999363D01*
X141462573Y-115985867D01*
X141500680Y-115919863D01*
X141532920Y-115859546D01*
X141541638Y-115848923D01*
X141551527Y-115831795D01*
X141598601Y-115779513D01*
X141638679Y-115730679D01*
X141653591Y-115718440D01*
X141670570Y-115699584D01*
X141722862Y-115661591D01*
X141767546Y-115624920D01*
X141789448Y-115613213D01*
X141814500Y-115595012D01*
X141868391Y-115571018D01*
X141914564Y-115546339D01*
X141943617Y-115537525D01*
X141977027Y-115522651D01*
X142029237Y-115511553D01*
X142074098Y-115497945D01*
X142109806Y-115494427D01*
X142151046Y-115485662D01*
X142198801Y-115485662D01*
X142240000Y-115481604D01*
X142281199Y-115485662D01*
G37*
G36*
X123739199Y-113961662D02*
G01*
X123786954Y-113961662D01*
X123828194Y-113970427D01*
X123863901Y-113973945D01*
X123908759Y-113987552D01*
X123960973Y-113998651D01*
X123994384Y-114013526D01*
X124023435Y-114022339D01*
X124069602Y-114047015D01*
X124123500Y-114071012D01*
X124148554Y-114089215D01*
X124170453Y-114100920D01*
X124215128Y-114137584D01*
X124267430Y-114175584D01*
X124284411Y-114194443D01*
X124299320Y-114206679D01*
X124339387Y-114255501D01*
X124386473Y-114307795D01*
X124396364Y-114324927D01*
X124405079Y-114335546D01*
X124437306Y-114395840D01*
X124475427Y-114461867D01*
X124479813Y-114475368D01*
X124483660Y-114482564D01*
X124504861Y-114552455D01*
X124530404Y-114631067D01*
X124531303Y-114639623D01*
X124532054Y-114642098D01*
X124539371Y-114716389D01*
X124549000Y-114808000D01*
X124539370Y-114899619D01*
X124532054Y-114973901D01*
X124531303Y-114976375D01*
X124530404Y-114984933D01*
X124504856Y-115063558D01*
X124483660Y-115133435D01*
X124479814Y-115140629D01*
X124475427Y-115154133D01*
X124437299Y-115220172D01*
X124405079Y-115280453D01*
X124396366Y-115291069D01*
X124386473Y-115308205D01*
X124339378Y-115360509D01*
X124299320Y-115409320D01*
X124284414Y-115421552D01*
X124267430Y-115440416D01*
X124215118Y-115478423D01*
X124170453Y-115515079D01*
X124148559Y-115526780D01*
X124123500Y-115544988D01*
X124069591Y-115568989D01*
X124023435Y-115593660D01*
X123994391Y-115602470D01*
X123960973Y-115617349D01*
X123908748Y-115628449D01*
X123863901Y-115642054D01*
X123828203Y-115645570D01*
X123786954Y-115654338D01*
X123739188Y-115654338D01*
X123698000Y-115658395D01*
X123656811Y-115654338D01*
X123609046Y-115654338D01*
X123567797Y-115645570D01*
X123532098Y-115642054D01*
X123487248Y-115628448D01*
X123435027Y-115617349D01*
X123401610Y-115602471D01*
X123372564Y-115593660D01*
X123326402Y-115568986D01*
X123272500Y-115544988D01*
X123247443Y-115526783D01*
X123225546Y-115515079D01*
X123180873Y-115478416D01*
X123128570Y-115440416D01*
X123111588Y-115421555D01*
X123096679Y-115409320D01*
X123056610Y-115360496D01*
X123009527Y-115308205D01*
X122999636Y-115291073D01*
X122990920Y-115280453D01*
X122958687Y-115220148D01*
X122920573Y-115154133D01*
X122916186Y-115140634D01*
X122912339Y-115133435D01*
X122891128Y-115063512D01*
X122865596Y-114984933D01*
X122864697Y-114976380D01*
X122863945Y-114973901D01*
X122856613Y-114899467D01*
X122847000Y-114808000D01*
X122856612Y-114716540D01*
X122863945Y-114642098D01*
X122864697Y-114639618D01*
X122865596Y-114631067D01*
X122891123Y-114552502D01*
X122912339Y-114482564D01*
X122916187Y-114475363D01*
X122920573Y-114461867D01*
X122958680Y-114395863D01*
X122990920Y-114335546D01*
X122999638Y-114324923D01*
X123009527Y-114307795D01*
X123056601Y-114255513D01*
X123096679Y-114206679D01*
X123111591Y-114194440D01*
X123128570Y-114175584D01*
X123180862Y-114137591D01*
X123225546Y-114100920D01*
X123247448Y-114089213D01*
X123272500Y-114071012D01*
X123326391Y-114047018D01*
X123372564Y-114022339D01*
X123401617Y-114013525D01*
X123435027Y-113998651D01*
X123487237Y-113987553D01*
X123532098Y-113973945D01*
X123567806Y-113970427D01*
X123609046Y-113961662D01*
X123656801Y-113961662D01*
X123698000Y-113957604D01*
X123739199Y-113961662D01*
G37*
G36*
X133899199Y-113961662D02*
G01*
X133946954Y-113961662D01*
X133988194Y-113970427D01*
X134023901Y-113973945D01*
X134068759Y-113987552D01*
X134120973Y-113998651D01*
X134154384Y-114013526D01*
X134183435Y-114022339D01*
X134229602Y-114047015D01*
X134283500Y-114071012D01*
X134308554Y-114089215D01*
X134330453Y-114100920D01*
X134375128Y-114137584D01*
X134427430Y-114175584D01*
X134444411Y-114194443D01*
X134459320Y-114206679D01*
X134499387Y-114255501D01*
X134546473Y-114307795D01*
X134556364Y-114324927D01*
X134565079Y-114335546D01*
X134597306Y-114395840D01*
X134635427Y-114461867D01*
X134639813Y-114475368D01*
X134643660Y-114482564D01*
X134664861Y-114552455D01*
X134690404Y-114631067D01*
X134691303Y-114639623D01*
X134692054Y-114642098D01*
X134699371Y-114716389D01*
X134709000Y-114808000D01*
X134699370Y-114899619D01*
X134692054Y-114973901D01*
X134691303Y-114976375D01*
X134690404Y-114984933D01*
X134664856Y-115063558D01*
X134643660Y-115133435D01*
X134639814Y-115140629D01*
X134635427Y-115154133D01*
X134597299Y-115220172D01*
X134565079Y-115280453D01*
X134556366Y-115291069D01*
X134546473Y-115308205D01*
X134499378Y-115360509D01*
X134459320Y-115409320D01*
X134444414Y-115421552D01*
X134427430Y-115440416D01*
X134375118Y-115478423D01*
X134330453Y-115515079D01*
X134308559Y-115526780D01*
X134283500Y-115544988D01*
X134229591Y-115568989D01*
X134183435Y-115593660D01*
X134154391Y-115602470D01*
X134120973Y-115617349D01*
X134068748Y-115628449D01*
X134023901Y-115642054D01*
X133988203Y-115645570D01*
X133946954Y-115654338D01*
X133899188Y-115654338D01*
X133858000Y-115658395D01*
X133816811Y-115654338D01*
X133769046Y-115654338D01*
X133727797Y-115645570D01*
X133692098Y-115642054D01*
X133647248Y-115628448D01*
X133595027Y-115617349D01*
X133561610Y-115602471D01*
X133532564Y-115593660D01*
X133486402Y-115568986D01*
X133432500Y-115544988D01*
X133407443Y-115526783D01*
X133385546Y-115515079D01*
X133340873Y-115478416D01*
X133288570Y-115440416D01*
X133271588Y-115421555D01*
X133256679Y-115409320D01*
X133216610Y-115360496D01*
X133169527Y-115308205D01*
X133159636Y-115291073D01*
X133150920Y-115280453D01*
X133118687Y-115220148D01*
X133080573Y-115154133D01*
X133076186Y-115140634D01*
X133072339Y-115133435D01*
X133051128Y-115063512D01*
X133025596Y-114984933D01*
X133024697Y-114976380D01*
X133023945Y-114973901D01*
X133016613Y-114899467D01*
X133007000Y-114808000D01*
X133016612Y-114716540D01*
X133023945Y-114642098D01*
X133024697Y-114639618D01*
X133025596Y-114631067D01*
X133051123Y-114552502D01*
X133072339Y-114482564D01*
X133076187Y-114475363D01*
X133080573Y-114461867D01*
X133118680Y-114395863D01*
X133150920Y-114335546D01*
X133159638Y-114324923D01*
X133169527Y-114307795D01*
X133216601Y-114255513D01*
X133256679Y-114206679D01*
X133271591Y-114194440D01*
X133288570Y-114175584D01*
X133340862Y-114137591D01*
X133385546Y-114100920D01*
X133407448Y-114089213D01*
X133432500Y-114071012D01*
X133486391Y-114047018D01*
X133532564Y-114022339D01*
X133561617Y-114013525D01*
X133595027Y-113998651D01*
X133647237Y-113987553D01*
X133692098Y-113973945D01*
X133727806Y-113970427D01*
X133769046Y-113961662D01*
X133816801Y-113961662D01*
X133858000Y-113957604D01*
X133899199Y-113961662D01*
G37*
G36*
X150917199Y-113453662D02*
G01*
X150964954Y-113453662D01*
X151006194Y-113462427D01*
X151041901Y-113465945D01*
X151086759Y-113479552D01*
X151138973Y-113490651D01*
X151172384Y-113505526D01*
X151201435Y-113514339D01*
X151247602Y-113539015D01*
X151301500Y-113563012D01*
X151326554Y-113581215D01*
X151348453Y-113592920D01*
X151393128Y-113629584D01*
X151445430Y-113667584D01*
X151462411Y-113686443D01*
X151477320Y-113698679D01*
X151517387Y-113747501D01*
X151564473Y-113799795D01*
X151574364Y-113816927D01*
X151583079Y-113827546D01*
X151615306Y-113887840D01*
X151653427Y-113953867D01*
X151657813Y-113967368D01*
X151661660Y-113974564D01*
X151682861Y-114044455D01*
X151708404Y-114123067D01*
X151709303Y-114131623D01*
X151710054Y-114134098D01*
X151717371Y-114208389D01*
X151727000Y-114300000D01*
X151717370Y-114391619D01*
X151710054Y-114465901D01*
X151709303Y-114468375D01*
X151708404Y-114476933D01*
X151682856Y-114555558D01*
X151661660Y-114625435D01*
X151657814Y-114632629D01*
X151653427Y-114646133D01*
X151615299Y-114712172D01*
X151583079Y-114772453D01*
X151574366Y-114783069D01*
X151564473Y-114800205D01*
X151517378Y-114852509D01*
X151477320Y-114901320D01*
X151462414Y-114913552D01*
X151445430Y-114932416D01*
X151393118Y-114970423D01*
X151348453Y-115007079D01*
X151326559Y-115018780D01*
X151301500Y-115036988D01*
X151247591Y-115060989D01*
X151201435Y-115085660D01*
X151172391Y-115094470D01*
X151138973Y-115109349D01*
X151086748Y-115120449D01*
X151041901Y-115134054D01*
X151006203Y-115137570D01*
X150964954Y-115146338D01*
X150917188Y-115146338D01*
X150876000Y-115150395D01*
X150834811Y-115146338D01*
X150787046Y-115146338D01*
X150745797Y-115137570D01*
X150710098Y-115134054D01*
X150665248Y-115120448D01*
X150613027Y-115109349D01*
X150579610Y-115094471D01*
X150550564Y-115085660D01*
X150504402Y-115060986D01*
X150450500Y-115036988D01*
X150425443Y-115018783D01*
X150403546Y-115007079D01*
X150358873Y-114970416D01*
X150306570Y-114932416D01*
X150289588Y-114913555D01*
X150274679Y-114901320D01*
X150234610Y-114852496D01*
X150187527Y-114800205D01*
X150177636Y-114783073D01*
X150168920Y-114772453D01*
X150136687Y-114712148D01*
X150098573Y-114646133D01*
X150094186Y-114632634D01*
X150090339Y-114625435D01*
X150069128Y-114555512D01*
X150043596Y-114476933D01*
X150042697Y-114468380D01*
X150041945Y-114465901D01*
X150034613Y-114391467D01*
X150025000Y-114300000D01*
X150034612Y-114208540D01*
X150041945Y-114134098D01*
X150042697Y-114131618D01*
X150043596Y-114123067D01*
X150069123Y-114044502D01*
X150090339Y-113974564D01*
X150094187Y-113967363D01*
X150098573Y-113953867D01*
X150136680Y-113887863D01*
X150168920Y-113827546D01*
X150177638Y-113816923D01*
X150187527Y-113799795D01*
X150234601Y-113747513D01*
X150274679Y-113698679D01*
X150289591Y-113686440D01*
X150306570Y-113667584D01*
X150358862Y-113629591D01*
X150403546Y-113592920D01*
X150425448Y-113581213D01*
X150450500Y-113563012D01*
X150504391Y-113539018D01*
X150550564Y-113514339D01*
X150579617Y-113505525D01*
X150613027Y-113490651D01*
X150665237Y-113479553D01*
X150710098Y-113465945D01*
X150745806Y-113462427D01*
X150787046Y-113453662D01*
X150834801Y-113453662D01*
X150876000Y-113449604D01*
X150917199Y-113453662D01*
G37*
G36*
X161077199Y-113453662D02*
G01*
X161124954Y-113453662D01*
X161166194Y-113462427D01*
X161201901Y-113465945D01*
X161246759Y-113479552D01*
X161298973Y-113490651D01*
X161332384Y-113505526D01*
X161361435Y-113514339D01*
X161407602Y-113539015D01*
X161461500Y-113563012D01*
X161486554Y-113581215D01*
X161508453Y-113592920D01*
X161553128Y-113629584D01*
X161605430Y-113667584D01*
X161622411Y-113686443D01*
X161637320Y-113698679D01*
X161677387Y-113747501D01*
X161724473Y-113799795D01*
X161734364Y-113816927D01*
X161743079Y-113827546D01*
X161775306Y-113887840D01*
X161813427Y-113953867D01*
X161817813Y-113967368D01*
X161821660Y-113974564D01*
X161842861Y-114044455D01*
X161868404Y-114123067D01*
X161869303Y-114131623D01*
X161870054Y-114134098D01*
X161877371Y-114208389D01*
X161887000Y-114300000D01*
X161877370Y-114391619D01*
X161870054Y-114465901D01*
X161869303Y-114468375D01*
X161868404Y-114476933D01*
X161842856Y-114555558D01*
X161821660Y-114625435D01*
X161817814Y-114632629D01*
X161813427Y-114646133D01*
X161775299Y-114712172D01*
X161743079Y-114772453D01*
X161734366Y-114783069D01*
X161724473Y-114800205D01*
X161677378Y-114852509D01*
X161637320Y-114901320D01*
X161622414Y-114913552D01*
X161605430Y-114932416D01*
X161553118Y-114970423D01*
X161508453Y-115007079D01*
X161486559Y-115018780D01*
X161461500Y-115036988D01*
X161407591Y-115060989D01*
X161361435Y-115085660D01*
X161332391Y-115094470D01*
X161298973Y-115109349D01*
X161246748Y-115120449D01*
X161201901Y-115134054D01*
X161166203Y-115137570D01*
X161124954Y-115146338D01*
X161077188Y-115146338D01*
X161036000Y-115150395D01*
X160994811Y-115146338D01*
X160947046Y-115146338D01*
X160905797Y-115137570D01*
X160870098Y-115134054D01*
X160825248Y-115120448D01*
X160773027Y-115109349D01*
X160739610Y-115094471D01*
X160710564Y-115085660D01*
X160664402Y-115060986D01*
X160610500Y-115036988D01*
X160585443Y-115018783D01*
X160563546Y-115007079D01*
X160518873Y-114970416D01*
X160466570Y-114932416D01*
X160449588Y-114913555D01*
X160434679Y-114901320D01*
X160394610Y-114852496D01*
X160347527Y-114800205D01*
X160337636Y-114783073D01*
X160328920Y-114772453D01*
X160296687Y-114712148D01*
X160258573Y-114646133D01*
X160254186Y-114632634D01*
X160250339Y-114625435D01*
X160229128Y-114555512D01*
X160203596Y-114476933D01*
X160202697Y-114468380D01*
X160201945Y-114465901D01*
X160194613Y-114391467D01*
X160185000Y-114300000D01*
X160194612Y-114208540D01*
X160201945Y-114134098D01*
X160202697Y-114131618D01*
X160203596Y-114123067D01*
X160229123Y-114044502D01*
X160250339Y-113974564D01*
X160254187Y-113967363D01*
X160258573Y-113953867D01*
X160296680Y-113887863D01*
X160328920Y-113827546D01*
X160337638Y-113816923D01*
X160347527Y-113799795D01*
X160394601Y-113747513D01*
X160434679Y-113698679D01*
X160449591Y-113686440D01*
X160466570Y-113667584D01*
X160518862Y-113629591D01*
X160563546Y-113592920D01*
X160585448Y-113581213D01*
X160610500Y-113563012D01*
X160664391Y-113539018D01*
X160710564Y-113514339D01*
X160739617Y-113505525D01*
X160773027Y-113490651D01*
X160825237Y-113479553D01*
X160870098Y-113465945D01*
X160905806Y-113462427D01*
X160947046Y-113453662D01*
X160994801Y-113453662D01*
X161036000Y-113449604D01*
X161077199Y-113453662D01*
G37*
G36*
X137643413Y-111675098D02*
G01*
X137807032Y-111707644D01*
X137961159Y-111771485D01*
X138099869Y-111864168D01*
X138217832Y-111982131D01*
X138310515Y-112120841D01*
X138374356Y-112274968D01*
X138406902Y-112438587D01*
X138406902Y-112605413D01*
X138374356Y-112769032D01*
X138310515Y-112923159D01*
X138217832Y-113061869D01*
X138099869Y-113179832D01*
X137961159Y-113272515D01*
X137807032Y-113336356D01*
X137643413Y-113368902D01*
X137560000Y-113373000D01*
X137556939Y-113373000D01*
X136763061Y-113373000D01*
X136760000Y-113373000D01*
X136676587Y-113368902D01*
X136512968Y-113336356D01*
X136358841Y-113272515D01*
X136220131Y-113179832D01*
X136102168Y-113061869D01*
X136009485Y-112923159D01*
X135945644Y-112769032D01*
X135913098Y-112605413D01*
X135913098Y-112438587D01*
X135945644Y-112274968D01*
X136009485Y-112120841D01*
X136102168Y-111982131D01*
X136220131Y-111864168D01*
X136358841Y-111771485D01*
X136512968Y-111707644D01*
X136676587Y-111675098D01*
X136760000Y-111671000D01*
X137560000Y-111671000D01*
X137643413Y-111675098D01*
G37*
G36*
X145263413Y-111675098D02*
G01*
X145427032Y-111707644D01*
X145581159Y-111771485D01*
X145719869Y-111864168D01*
X145837832Y-111982131D01*
X145930515Y-112120841D01*
X145994356Y-112274968D01*
X146026902Y-112438587D01*
X146026902Y-112605413D01*
X145994356Y-112769032D01*
X145930515Y-112923159D01*
X145837832Y-113061869D01*
X145719869Y-113179832D01*
X145581159Y-113272515D01*
X145427032Y-113336356D01*
X145263413Y-113368902D01*
X145180000Y-113373000D01*
X145176939Y-113373000D01*
X144383061Y-113373000D01*
X144380000Y-113373000D01*
X144296587Y-113368902D01*
X144132968Y-113336356D01*
X143978841Y-113272515D01*
X143840131Y-113179832D01*
X143722168Y-113061869D01*
X143629485Y-112923159D01*
X143565644Y-112769032D01*
X143533098Y-112605413D01*
X143533098Y-112438587D01*
X143565644Y-112274968D01*
X143629485Y-112120841D01*
X143722168Y-111982131D01*
X143840131Y-111864168D01*
X143978841Y-111771485D01*
X144132968Y-111707644D01*
X144296587Y-111675098D01*
X144380000Y-111671000D01*
X145180000Y-111671000D01*
X145263413Y-111675098D01*
G37*
G36*
X150917199Y-110151662D02*
G01*
X150964954Y-110151662D01*
X151006194Y-110160427D01*
X151041901Y-110163945D01*
X151086759Y-110177552D01*
X151138973Y-110188651D01*
X151172384Y-110203526D01*
X151201435Y-110212339D01*
X151247602Y-110237015D01*
X151301500Y-110261012D01*
X151326554Y-110279215D01*
X151348453Y-110290920D01*
X151393128Y-110327584D01*
X151445430Y-110365584D01*
X151462411Y-110384443D01*
X151477320Y-110396679D01*
X151517387Y-110445501D01*
X151564473Y-110497795D01*
X151574364Y-110514927D01*
X151583079Y-110525546D01*
X151615306Y-110585840D01*
X151653427Y-110651867D01*
X151657813Y-110665368D01*
X151661660Y-110672564D01*
X151682861Y-110742455D01*
X151708404Y-110821067D01*
X151709303Y-110829623D01*
X151710054Y-110832098D01*
X151717371Y-110906389D01*
X151727000Y-110998000D01*
X151717370Y-111089619D01*
X151710054Y-111163901D01*
X151709303Y-111166375D01*
X151708404Y-111174933D01*
X151682856Y-111253558D01*
X151661660Y-111323435D01*
X151657814Y-111330629D01*
X151653427Y-111344133D01*
X151615299Y-111410172D01*
X151583079Y-111470453D01*
X151574366Y-111481069D01*
X151564473Y-111498205D01*
X151517378Y-111550509D01*
X151477320Y-111599320D01*
X151462414Y-111611552D01*
X151445430Y-111630416D01*
X151393118Y-111668423D01*
X151348453Y-111705079D01*
X151326559Y-111716780D01*
X151301500Y-111734988D01*
X151247591Y-111758989D01*
X151201435Y-111783660D01*
X151172391Y-111792470D01*
X151138973Y-111807349D01*
X151086748Y-111818449D01*
X151041901Y-111832054D01*
X151006203Y-111835570D01*
X150964954Y-111844338D01*
X150917188Y-111844338D01*
X150876000Y-111848395D01*
X150834811Y-111844338D01*
X150787046Y-111844338D01*
X150745797Y-111835570D01*
X150710098Y-111832054D01*
X150665248Y-111818448D01*
X150613027Y-111807349D01*
X150579610Y-111792471D01*
X150550564Y-111783660D01*
X150504402Y-111758986D01*
X150450500Y-111734988D01*
X150425443Y-111716783D01*
X150403546Y-111705079D01*
X150358873Y-111668416D01*
X150306570Y-111630416D01*
X150289588Y-111611555D01*
X150274679Y-111599320D01*
X150234610Y-111550496D01*
X150187527Y-111498205D01*
X150177636Y-111481073D01*
X150168920Y-111470453D01*
X150136687Y-111410148D01*
X150098573Y-111344133D01*
X150094186Y-111330634D01*
X150090339Y-111323435D01*
X150069128Y-111253512D01*
X150043596Y-111174933D01*
X150042697Y-111166380D01*
X150041945Y-111163901D01*
X150034613Y-111089467D01*
X150025000Y-110998000D01*
X150034612Y-110906540D01*
X150041945Y-110832098D01*
X150042697Y-110829618D01*
X150043596Y-110821067D01*
X150069123Y-110742502D01*
X150090339Y-110672564D01*
X150094187Y-110665363D01*
X150098573Y-110651867D01*
X150136680Y-110585863D01*
X150168920Y-110525546D01*
X150177638Y-110514923D01*
X150187527Y-110497795D01*
X150234601Y-110445513D01*
X150274679Y-110396679D01*
X150289591Y-110384440D01*
X150306570Y-110365584D01*
X150358862Y-110327591D01*
X150403546Y-110290920D01*
X150425448Y-110279213D01*
X150450500Y-110261012D01*
X150504391Y-110237018D01*
X150550564Y-110212339D01*
X150579617Y-110203525D01*
X150613027Y-110188651D01*
X150665237Y-110177553D01*
X150710098Y-110163945D01*
X150745806Y-110160427D01*
X150787046Y-110151662D01*
X150834801Y-110151662D01*
X150876000Y-110147604D01*
X150917199Y-110151662D01*
G37*
G36*
X161077199Y-110151662D02*
G01*
X161124954Y-110151662D01*
X161166194Y-110160427D01*
X161201901Y-110163945D01*
X161246759Y-110177552D01*
X161298973Y-110188651D01*
X161332384Y-110203526D01*
X161361435Y-110212339D01*
X161407602Y-110237015D01*
X161461500Y-110261012D01*
X161486554Y-110279215D01*
X161508453Y-110290920D01*
X161553128Y-110327584D01*
X161605430Y-110365584D01*
X161622411Y-110384443D01*
X161637320Y-110396679D01*
X161677387Y-110445501D01*
X161724473Y-110497795D01*
X161734364Y-110514927D01*
X161743079Y-110525546D01*
X161775306Y-110585840D01*
X161813427Y-110651867D01*
X161817813Y-110665368D01*
X161821660Y-110672564D01*
X161842861Y-110742455D01*
X161868404Y-110821067D01*
X161869303Y-110829623D01*
X161870054Y-110832098D01*
X161877371Y-110906389D01*
X161887000Y-110998000D01*
X161877370Y-111089619D01*
X161870054Y-111163901D01*
X161869303Y-111166375D01*
X161868404Y-111174933D01*
X161842856Y-111253558D01*
X161821660Y-111323435D01*
X161817814Y-111330629D01*
X161813427Y-111344133D01*
X161775299Y-111410172D01*
X161743079Y-111470453D01*
X161734366Y-111481069D01*
X161724473Y-111498205D01*
X161677378Y-111550509D01*
X161637320Y-111599320D01*
X161622414Y-111611552D01*
X161605430Y-111630416D01*
X161553118Y-111668423D01*
X161508453Y-111705079D01*
X161486559Y-111716780D01*
X161461500Y-111734988D01*
X161407591Y-111758989D01*
X161361435Y-111783660D01*
X161332391Y-111792470D01*
X161298973Y-111807349D01*
X161246748Y-111818449D01*
X161201901Y-111832054D01*
X161166203Y-111835570D01*
X161124954Y-111844338D01*
X161077188Y-111844338D01*
X161036000Y-111848395D01*
X160994811Y-111844338D01*
X160947046Y-111844338D01*
X160905797Y-111835570D01*
X160870098Y-111832054D01*
X160825248Y-111818448D01*
X160773027Y-111807349D01*
X160739610Y-111792471D01*
X160710564Y-111783660D01*
X160664402Y-111758986D01*
X160610500Y-111734988D01*
X160585443Y-111716783D01*
X160563546Y-111705079D01*
X160518873Y-111668416D01*
X160466570Y-111630416D01*
X160449588Y-111611555D01*
X160434679Y-111599320D01*
X160394610Y-111550496D01*
X160347527Y-111498205D01*
X160337636Y-111481073D01*
X160328920Y-111470453D01*
X160296687Y-111410148D01*
X160258573Y-111344133D01*
X160254186Y-111330634D01*
X160250339Y-111323435D01*
X160229128Y-111253512D01*
X160203596Y-111174933D01*
X160202697Y-111166380D01*
X160201945Y-111163901D01*
X160194613Y-111089467D01*
X160185000Y-110998000D01*
X160194612Y-110906540D01*
X160201945Y-110832098D01*
X160202697Y-110829618D01*
X160203596Y-110821067D01*
X160229123Y-110742502D01*
X160250339Y-110672564D01*
X160254187Y-110665363D01*
X160258573Y-110651867D01*
X160296680Y-110585863D01*
X160328920Y-110525546D01*
X160337638Y-110514923D01*
X160347527Y-110497795D01*
X160394601Y-110445513D01*
X160434679Y-110396679D01*
X160449591Y-110384440D01*
X160466570Y-110365584D01*
X160518862Y-110327591D01*
X160563546Y-110290920D01*
X160585448Y-110279213D01*
X160610500Y-110261012D01*
X160664391Y-110237018D01*
X160710564Y-110212339D01*
X160739617Y-110203525D01*
X160773027Y-110188651D01*
X160825237Y-110177553D01*
X160870098Y-110163945D01*
X160905806Y-110160427D01*
X160947046Y-110151662D01*
X160994801Y-110151662D01*
X161036000Y-110147604D01*
X161077199Y-110151662D01*
G37*
G36*
X127554604Y-109035590D02*
G01*
X127595696Y-109035590D01*
X127641456Y-109044144D01*
X127693531Y-109049273D01*
X127733091Y-109061273D01*
X127768111Y-109067820D01*
X127816617Y-109086611D01*
X127871932Y-109103391D01*
X127903534Y-109120282D01*
X127931656Y-109131177D01*
X127980513Y-109161428D01*
X128036347Y-109191272D01*
X128059809Y-109210526D01*
X128080784Y-109223514D01*
X128127256Y-109265879D01*
X128180459Y-109309541D01*
X128196224Y-109328751D01*
X128210400Y-109341674D01*
X128251557Y-109396174D01*
X128298728Y-109453653D01*
X128307848Y-109470717D01*
X128316099Y-109481642D01*
X128348925Y-109547566D01*
X128386609Y-109618068D01*
X128390628Y-109631316D01*
X128394282Y-109638655D01*
X128415864Y-109714507D01*
X128440727Y-109796469D01*
X128441543Y-109804762D01*
X128442280Y-109807350D01*
X128449937Y-109889982D01*
X128459000Y-109982000D01*
X128449936Y-110074026D01*
X128442280Y-110156649D01*
X128441544Y-110159235D01*
X128440727Y-110167531D01*
X128415859Y-110249507D01*
X128394282Y-110325344D01*
X128390628Y-110332680D01*
X128386609Y-110345932D01*
X128348917Y-110416447D01*
X128316099Y-110482357D01*
X128307850Y-110493279D01*
X128298728Y-110510347D01*
X128251547Y-110567836D01*
X128210400Y-110622325D01*
X128196227Y-110635244D01*
X128180459Y-110654459D01*
X128127245Y-110698129D01*
X128080784Y-110740485D01*
X128059814Y-110753469D01*
X128036347Y-110772728D01*
X127980502Y-110802577D01*
X127931656Y-110832822D01*
X127903541Y-110843713D01*
X127871932Y-110860609D01*
X127816605Y-110877392D01*
X127768111Y-110896179D01*
X127733098Y-110902724D01*
X127693531Y-110914727D01*
X127641453Y-110919856D01*
X127595696Y-110928410D01*
X127554604Y-110928410D01*
X127508000Y-110933000D01*
X127461396Y-110928410D01*
X127420304Y-110928410D01*
X127374545Y-110919856D01*
X127322469Y-110914727D01*
X127282902Y-110902724D01*
X127247888Y-110896179D01*
X127199389Y-110877390D01*
X127144068Y-110860609D01*
X127112461Y-110843714D01*
X127084343Y-110832822D01*
X127035490Y-110802573D01*
X126979653Y-110772728D01*
X126956188Y-110753471D01*
X126935215Y-110740485D01*
X126888744Y-110698121D01*
X126835541Y-110654459D01*
X126819775Y-110635248D01*
X126805599Y-110622325D01*
X126764439Y-110567821D01*
X126717272Y-110510347D01*
X126708151Y-110493284D01*
X126699900Y-110482357D01*
X126667067Y-110416420D01*
X126629391Y-110345932D01*
X126625372Y-110332685D01*
X126621717Y-110325344D01*
X126600124Y-110249454D01*
X126575273Y-110167531D01*
X126574456Y-110159241D01*
X126573719Y-110156649D01*
X126566046Y-110073854D01*
X126557000Y-109982000D01*
X126566045Y-109890153D01*
X126573719Y-109807350D01*
X126574456Y-109804757D01*
X126575273Y-109796469D01*
X126600119Y-109714560D01*
X126621717Y-109638655D01*
X126625373Y-109631311D01*
X126629391Y-109618068D01*
X126667060Y-109547593D01*
X126699900Y-109481642D01*
X126708153Y-109470712D01*
X126717272Y-109453653D01*
X126764430Y-109396190D01*
X126805599Y-109341674D01*
X126819778Y-109328747D01*
X126835541Y-109309541D01*
X126888733Y-109265887D01*
X126935215Y-109223514D01*
X126956193Y-109210524D01*
X126979653Y-109191272D01*
X127035478Y-109161432D01*
X127084343Y-109131177D01*
X127112467Y-109120281D01*
X127144068Y-109103391D01*
X127199377Y-109086612D01*
X127247888Y-109067820D01*
X127282909Y-109061273D01*
X127322469Y-109049273D01*
X127374542Y-109044144D01*
X127420304Y-109035590D01*
X127461396Y-109035590D01*
X127508000Y-109031000D01*
X127554604Y-109035590D01*
G37*
G36*
X137643413Y-109135098D02*
G01*
X137807032Y-109167644D01*
X137961159Y-109231485D01*
X138099869Y-109324168D01*
X138217832Y-109442131D01*
X138310515Y-109580841D01*
X138374356Y-109734968D01*
X138406902Y-109898587D01*
X138406902Y-110065413D01*
X138374356Y-110229032D01*
X138310515Y-110383159D01*
X138217832Y-110521869D01*
X138099869Y-110639832D01*
X137961159Y-110732515D01*
X137807032Y-110796356D01*
X137643413Y-110828902D01*
X137560000Y-110833000D01*
X137556939Y-110833000D01*
X136763061Y-110833000D01*
X136760000Y-110833000D01*
X136676587Y-110828902D01*
X136512968Y-110796356D01*
X136358841Y-110732515D01*
X136220131Y-110639832D01*
X136102168Y-110521869D01*
X136009485Y-110383159D01*
X135945644Y-110229032D01*
X135913098Y-110065413D01*
X135913098Y-109898587D01*
X135945644Y-109734968D01*
X136009485Y-109580841D01*
X136102168Y-109442131D01*
X136220131Y-109324168D01*
X136358841Y-109231485D01*
X136512968Y-109167644D01*
X136676587Y-109135098D01*
X136760000Y-109131000D01*
X137560000Y-109131000D01*
X137643413Y-109135098D01*
G37*
G36*
X145263413Y-109135098D02*
G01*
X145427032Y-109167644D01*
X145581159Y-109231485D01*
X145719869Y-109324168D01*
X145837832Y-109442131D01*
X145930515Y-109580841D01*
X145994356Y-109734968D01*
X146026902Y-109898587D01*
X146026902Y-110065413D01*
X145994356Y-110229032D01*
X145930515Y-110383159D01*
X145837832Y-110521869D01*
X145719869Y-110639832D01*
X145581159Y-110732515D01*
X145427032Y-110796356D01*
X145263413Y-110828902D01*
X145180000Y-110833000D01*
X145176939Y-110833000D01*
X144383061Y-110833000D01*
X144380000Y-110833000D01*
X144296587Y-110828902D01*
X144132968Y-110796356D01*
X143978841Y-110732515D01*
X143840131Y-110639832D01*
X143722168Y-110521869D01*
X143629485Y-110383159D01*
X143565644Y-110229032D01*
X143533098Y-110065413D01*
X143533098Y-109898587D01*
X143565644Y-109734968D01*
X143629485Y-109580841D01*
X143722168Y-109442131D01*
X143840131Y-109324168D01*
X143978841Y-109231485D01*
X144132968Y-109167644D01*
X144296587Y-109135098D01*
X144380000Y-109131000D01*
X145180000Y-109131000D01*
X145263413Y-109135098D01*
G37*
G36*
X128427517Y-106494882D02*
G01*
X128444062Y-106505938D01*
X128455118Y-106522483D01*
X128459000Y-106542000D01*
X128459000Y-108342000D01*
X128455118Y-108361517D01*
X128444062Y-108378062D01*
X128427517Y-108389118D01*
X128408000Y-108393000D01*
X126608000Y-108393000D01*
X126588483Y-108389118D01*
X126571938Y-108378062D01*
X126560882Y-108361517D01*
X126557000Y-108342000D01*
X126557000Y-106542000D01*
X126560882Y-106522483D01*
X126571938Y-106505938D01*
X126588483Y-106494882D01*
X126608000Y-106491000D01*
X128408000Y-106491000D01*
X128427517Y-106494882D01*
G37*
G36*
X137643413Y-106595098D02*
G01*
X137807032Y-106627644D01*
X137961159Y-106691485D01*
X138099869Y-106784168D01*
X138217832Y-106902131D01*
X138310515Y-107040841D01*
X138374356Y-107194968D01*
X138406902Y-107358587D01*
X138406902Y-107525413D01*
X138374356Y-107689032D01*
X138310515Y-107843159D01*
X138217832Y-107981869D01*
X138099869Y-108099832D01*
X137961159Y-108192515D01*
X137807032Y-108256356D01*
X137643413Y-108288902D01*
X137560000Y-108293000D01*
X137556939Y-108293000D01*
X136763061Y-108293000D01*
X136760000Y-108293000D01*
X136676587Y-108288902D01*
X136512968Y-108256356D01*
X136358841Y-108192515D01*
X136220131Y-108099832D01*
X136102168Y-107981869D01*
X136009485Y-107843159D01*
X135945644Y-107689032D01*
X135913098Y-107525413D01*
X135913098Y-107358587D01*
X135945644Y-107194968D01*
X136009485Y-107040841D01*
X136102168Y-106902131D01*
X136220131Y-106784168D01*
X136358841Y-106691485D01*
X136512968Y-106627644D01*
X136676587Y-106595098D01*
X136760000Y-106591000D01*
X137560000Y-106591000D01*
X137643413Y-106595098D01*
G37*
G36*
X145263413Y-106595098D02*
G01*
X145427032Y-106627644D01*
X145581159Y-106691485D01*
X145719869Y-106784168D01*
X145837832Y-106902131D01*
X145930515Y-107040841D01*
X145994356Y-107194968D01*
X146026902Y-107358587D01*
X146026902Y-107525413D01*
X145994356Y-107689032D01*
X145930515Y-107843159D01*
X145837832Y-107981869D01*
X145719869Y-108099832D01*
X145581159Y-108192515D01*
X145427032Y-108256356D01*
X145263413Y-108288902D01*
X145180000Y-108293000D01*
X145176939Y-108293000D01*
X144383061Y-108293000D01*
X144380000Y-108293000D01*
X144296587Y-108288902D01*
X144132968Y-108256356D01*
X143978841Y-108192515D01*
X143840131Y-108099832D01*
X143722168Y-107981869D01*
X143629485Y-107843159D01*
X143565644Y-107689032D01*
X143533098Y-107525413D01*
X143533098Y-107358587D01*
X143565644Y-107194968D01*
X143629485Y-107040841D01*
X143722168Y-106902131D01*
X143840131Y-106784168D01*
X143978841Y-106691485D01*
X144132968Y-106627644D01*
X144296587Y-106595098D01*
X144380000Y-106591000D01*
X145180000Y-106591000D01*
X145263413Y-106595098D01*
G37*
G36*
X133391199Y-105833662D02*
G01*
X133438954Y-105833662D01*
X133480194Y-105842427D01*
X133515901Y-105845945D01*
X133560759Y-105859552D01*
X133612973Y-105870651D01*
X133646384Y-105885526D01*
X133675435Y-105894339D01*
X133721602Y-105919015D01*
X133775500Y-105943012D01*
X133800554Y-105961215D01*
X133822453Y-105972920D01*
X133867128Y-106009584D01*
X133919430Y-106047584D01*
X133936411Y-106066443D01*
X133951320Y-106078679D01*
X133991387Y-106127501D01*
X134038473Y-106179795D01*
X134048364Y-106196927D01*
X134057079Y-106207546D01*
X134089306Y-106267840D01*
X134127427Y-106333867D01*
X134131813Y-106347368D01*
X134135660Y-106354564D01*
X134156861Y-106424455D01*
X134182404Y-106503067D01*
X134183303Y-106511623D01*
X134184054Y-106514098D01*
X134191371Y-106588389D01*
X134201000Y-106680000D01*
X134191370Y-106771619D01*
X134184054Y-106845901D01*
X134183303Y-106848375D01*
X134182404Y-106856933D01*
X134156856Y-106935558D01*
X134135660Y-107005435D01*
X134131814Y-107012629D01*
X134127427Y-107026133D01*
X134089299Y-107092172D01*
X134057079Y-107152453D01*
X134048366Y-107163069D01*
X134038473Y-107180205D01*
X133991378Y-107232509D01*
X133951320Y-107281320D01*
X133936414Y-107293552D01*
X133919430Y-107312416D01*
X133867118Y-107350423D01*
X133822453Y-107387079D01*
X133800559Y-107398780D01*
X133775500Y-107416988D01*
X133721591Y-107440989D01*
X133675435Y-107465660D01*
X133646391Y-107474470D01*
X133612973Y-107489349D01*
X133560748Y-107500449D01*
X133515901Y-107514054D01*
X133480203Y-107517570D01*
X133438954Y-107526338D01*
X133391188Y-107526338D01*
X133350000Y-107530395D01*
X133308811Y-107526338D01*
X133261046Y-107526338D01*
X133219797Y-107517570D01*
X133184098Y-107514054D01*
X133139248Y-107500448D01*
X133087027Y-107489349D01*
X133053610Y-107474471D01*
X133024564Y-107465660D01*
X132978402Y-107440986D01*
X132924500Y-107416988D01*
X132899443Y-107398783D01*
X132877546Y-107387079D01*
X132832873Y-107350416D01*
X132780570Y-107312416D01*
X132763588Y-107293555D01*
X132748679Y-107281320D01*
X132708610Y-107232496D01*
X132661527Y-107180205D01*
X132651636Y-107163073D01*
X132642920Y-107152453D01*
X132610687Y-107092148D01*
X132572573Y-107026133D01*
X132568186Y-107012634D01*
X132564339Y-107005435D01*
X132543128Y-106935512D01*
X132517596Y-106856933D01*
X132516697Y-106848380D01*
X132515945Y-106845901D01*
X132508613Y-106771467D01*
X132499000Y-106680000D01*
X132508612Y-106588540D01*
X132515945Y-106514098D01*
X132516697Y-106511618D01*
X132517596Y-106503067D01*
X132543123Y-106424502D01*
X132564339Y-106354564D01*
X132568187Y-106347363D01*
X132572573Y-106333867D01*
X132610680Y-106267863D01*
X132642920Y-106207546D01*
X132651638Y-106196923D01*
X132661527Y-106179795D01*
X132708601Y-106127513D01*
X132748679Y-106078679D01*
X132763591Y-106066440D01*
X132780570Y-106047584D01*
X132832862Y-106009591D01*
X132877546Y-105972920D01*
X132899448Y-105961213D01*
X132924500Y-105943012D01*
X132978391Y-105919018D01*
X133024564Y-105894339D01*
X133053617Y-105885525D01*
X133087027Y-105870651D01*
X133139237Y-105859553D01*
X133184098Y-105845945D01*
X133219806Y-105842427D01*
X133261046Y-105833662D01*
X133308801Y-105833662D01*
X133350000Y-105829604D01*
X133391199Y-105833662D01*
G37*
G36*
X138379517Y-104054882D02*
G01*
X138396062Y-104065938D01*
X138407118Y-104082483D01*
X138411000Y-104102000D01*
X138411000Y-105702000D01*
X138407118Y-105721517D01*
X138396062Y-105738062D01*
X138379517Y-105749118D01*
X138360000Y-105753000D01*
X135960000Y-105753000D01*
X135940483Y-105749118D01*
X135923938Y-105738062D01*
X135912882Y-105721517D01*
X135909000Y-105702000D01*
X135909000Y-104102000D01*
X135912882Y-104082483D01*
X135923938Y-104065938D01*
X135940483Y-104054882D01*
X135960000Y-104051000D01*
X138360000Y-104051000D01*
X138379517Y-104054882D01*
G37*
G36*
X145263413Y-104055098D02*
G01*
X145427032Y-104087644D01*
X145581159Y-104151485D01*
X145719869Y-104244168D01*
X145837832Y-104362131D01*
X145930515Y-104500841D01*
X145994356Y-104654968D01*
X146026902Y-104818587D01*
X146026902Y-104985413D01*
X145994356Y-105149032D01*
X145930515Y-105303159D01*
X145837832Y-105441869D01*
X145719869Y-105559832D01*
X145581159Y-105652515D01*
X145427032Y-105716356D01*
X145263413Y-105748902D01*
X145180000Y-105753000D01*
X145176939Y-105753000D01*
X144383061Y-105753000D01*
X144380000Y-105753000D01*
X144296587Y-105748902D01*
X144132968Y-105716356D01*
X143978841Y-105652515D01*
X143840131Y-105559832D01*
X143722168Y-105441869D01*
X143629485Y-105303159D01*
X143565644Y-105149032D01*
X143533098Y-104985413D01*
X143533098Y-104818587D01*
X143565644Y-104654968D01*
X143629485Y-104500841D01*
X143722168Y-104362131D01*
X143840131Y-104244168D01*
X143978841Y-104151485D01*
X144132968Y-104087644D01*
X144296587Y-104055098D01*
X144380000Y-104051000D01*
X145180000Y-104051000D01*
X145263413Y-104055098D01*
G37*
G36*
X133391199Y-103333662D02*
G01*
X133438954Y-103333662D01*
X133480194Y-103342427D01*
X133515901Y-103345945D01*
X133560759Y-103359552D01*
X133612973Y-103370651D01*
X133646384Y-103385526D01*
X133675435Y-103394339D01*
X133721602Y-103419015D01*
X133775500Y-103443012D01*
X133800554Y-103461215D01*
X133822453Y-103472920D01*
X133867128Y-103509584D01*
X133919430Y-103547584D01*
X133936411Y-103566443D01*
X133951320Y-103578679D01*
X133991387Y-103627501D01*
X134038473Y-103679795D01*
X134048364Y-103696927D01*
X134057079Y-103707546D01*
X134089306Y-103767840D01*
X134127427Y-103833867D01*
X134131813Y-103847368D01*
X134135660Y-103854564D01*
X134156861Y-103924455D01*
X134182404Y-104003067D01*
X134183303Y-104011623D01*
X134184054Y-104014098D01*
X134191371Y-104088389D01*
X134201000Y-104180000D01*
X134191370Y-104271619D01*
X134184054Y-104345901D01*
X134183303Y-104348375D01*
X134182404Y-104356933D01*
X134156856Y-104435558D01*
X134135660Y-104505435D01*
X134131814Y-104512629D01*
X134127427Y-104526133D01*
X134089299Y-104592172D01*
X134057079Y-104652453D01*
X134048366Y-104663069D01*
X134038473Y-104680205D01*
X133991378Y-104732509D01*
X133951320Y-104781320D01*
X133936414Y-104793552D01*
X133919430Y-104812416D01*
X133867118Y-104850423D01*
X133822453Y-104887079D01*
X133800559Y-104898780D01*
X133775500Y-104916988D01*
X133721591Y-104940989D01*
X133675435Y-104965660D01*
X133646391Y-104974470D01*
X133612973Y-104989349D01*
X133560748Y-105000449D01*
X133515901Y-105014054D01*
X133480203Y-105017570D01*
X133438954Y-105026338D01*
X133391188Y-105026338D01*
X133350000Y-105030395D01*
X133308811Y-105026338D01*
X133261046Y-105026338D01*
X133219797Y-105017570D01*
X133184098Y-105014054D01*
X133139248Y-105000448D01*
X133087027Y-104989349D01*
X133053610Y-104974471D01*
X133024564Y-104965660D01*
X132978402Y-104940986D01*
X132924500Y-104916988D01*
X132899443Y-104898783D01*
X132877546Y-104887079D01*
X132832873Y-104850416D01*
X132780570Y-104812416D01*
X132763588Y-104793555D01*
X132748679Y-104781320D01*
X132708610Y-104732496D01*
X132661527Y-104680205D01*
X132651636Y-104663073D01*
X132642920Y-104652453D01*
X132610687Y-104592148D01*
X132572573Y-104526133D01*
X132568186Y-104512634D01*
X132564339Y-104505435D01*
X132543128Y-104435512D01*
X132517596Y-104356933D01*
X132516697Y-104348380D01*
X132515945Y-104345901D01*
X132508613Y-104271467D01*
X132499000Y-104180000D01*
X132508612Y-104088540D01*
X132515945Y-104014098D01*
X132516697Y-104011618D01*
X132517596Y-104003067D01*
X132543123Y-103924502D01*
X132564339Y-103854564D01*
X132568187Y-103847363D01*
X132572573Y-103833867D01*
X132610680Y-103767863D01*
X132642920Y-103707546D01*
X132651638Y-103696923D01*
X132661527Y-103679795D01*
X132708601Y-103627513D01*
X132748679Y-103578679D01*
X132763591Y-103566440D01*
X132780570Y-103547584D01*
X132832862Y-103509591D01*
X132877546Y-103472920D01*
X132899448Y-103461213D01*
X132924500Y-103443012D01*
X132978391Y-103419018D01*
X133024564Y-103394339D01*
X133053617Y-103385525D01*
X133087027Y-103370651D01*
X133139237Y-103359553D01*
X133184098Y-103345945D01*
X133219806Y-103342427D01*
X133261046Y-103333662D01*
X133308801Y-103333662D01*
X133350000Y-103329604D01*
X133391199Y-103333662D01*
G37*
G36*
X125686914Y-88580995D02*
G01*
X125702726Y-88587976D01*
X125710531Y-88589213D01*
X125743039Y-88605776D01*
X125788106Y-88625676D01*
X125866324Y-88703894D01*
X125886226Y-88748967D01*
X125902786Y-88781468D01*
X125904021Y-88789270D01*
X125911005Y-88805086D01*
X125919000Y-88874000D01*
X125919000Y-91974000D01*
X125911005Y-92042914D01*
X125904021Y-92058729D01*
X125902786Y-92066531D01*
X125886229Y-92099024D01*
X125866324Y-92144106D01*
X125788106Y-92222324D01*
X125743024Y-92242229D01*
X125710531Y-92258786D01*
X125702729Y-92260021D01*
X125686914Y-92267005D01*
X125618000Y-92275000D01*
X124318000Y-92275000D01*
X124249086Y-92267005D01*
X124233270Y-92260021D01*
X124225468Y-92258786D01*
X124192967Y-92242226D01*
X124147894Y-92222324D01*
X124069676Y-92144106D01*
X124049776Y-92099039D01*
X124033213Y-92066531D01*
X124031976Y-92058726D01*
X124024995Y-92042914D01*
X124017000Y-91974000D01*
X124017000Y-88874000D01*
X124024995Y-88805086D01*
X124031976Y-88789274D01*
X124033213Y-88781468D01*
X124049780Y-88748953D01*
X124069676Y-88703894D01*
X124147894Y-88625676D01*
X124192953Y-88605780D01*
X124225468Y-88589213D01*
X124233274Y-88587976D01*
X124249086Y-88580995D01*
X124318000Y-88573000D01*
X125618000Y-88573000D01*
X125686914Y-88580995D01*
G37*
G36*
X139148914Y-88580995D02*
G01*
X139164726Y-88587976D01*
X139172531Y-88589213D01*
X139205039Y-88605776D01*
X139250106Y-88625676D01*
X139328324Y-88703894D01*
X139348226Y-88748967D01*
X139364786Y-88781468D01*
X139366021Y-88789270D01*
X139373005Y-88805086D01*
X139381000Y-88874000D01*
X139381000Y-91974000D01*
X139373005Y-92042914D01*
X139366021Y-92058729D01*
X139364786Y-92066531D01*
X139348229Y-92099024D01*
X139328324Y-92144106D01*
X139250106Y-92222324D01*
X139205024Y-92242229D01*
X139172531Y-92258786D01*
X139164729Y-92260021D01*
X139148914Y-92267005D01*
X139080000Y-92275000D01*
X137780000Y-92275000D01*
X137711086Y-92267005D01*
X137695270Y-92260021D01*
X137687468Y-92258786D01*
X137654967Y-92242226D01*
X137609894Y-92222324D01*
X137531676Y-92144106D01*
X137511776Y-92099039D01*
X137495213Y-92066531D01*
X137493976Y-92058726D01*
X137486995Y-92042914D01*
X137479000Y-91974000D01*
X137479000Y-88874000D01*
X137486995Y-88805086D01*
X137493976Y-88789274D01*
X137495213Y-88781468D01*
X137511780Y-88748953D01*
X137531676Y-88703894D01*
X137609894Y-88625676D01*
X137654953Y-88605780D01*
X137687468Y-88589213D01*
X137695274Y-88587976D01*
X137711086Y-88580995D01*
X137780000Y-88573000D01*
X139080000Y-88573000D01*
X139148914Y-88580995D01*
G37*
G36*
X152610914Y-88580995D02*
G01*
X152626726Y-88587976D01*
X152634531Y-88589213D01*
X152667039Y-88605776D01*
X152712106Y-88625676D01*
X152790324Y-88703894D01*
X152810226Y-88748967D01*
X152826786Y-88781468D01*
X152828021Y-88789270D01*
X152835005Y-88805086D01*
X152843000Y-88874000D01*
X152843000Y-91974000D01*
X152835005Y-92042914D01*
X152828021Y-92058729D01*
X152826786Y-92066531D01*
X152810229Y-92099024D01*
X152790324Y-92144106D01*
X152712106Y-92222324D01*
X152667024Y-92242229D01*
X152634531Y-92258786D01*
X152626729Y-92260021D01*
X152610914Y-92267005D01*
X152542000Y-92275000D01*
X151242000Y-92275000D01*
X151173086Y-92267005D01*
X151157270Y-92260021D01*
X151149468Y-92258786D01*
X151116967Y-92242226D01*
X151071894Y-92222324D01*
X150993676Y-92144106D01*
X150973776Y-92099039D01*
X150957213Y-92066531D01*
X150955976Y-92058726D01*
X150948995Y-92042914D01*
X150941000Y-91974000D01*
X150941000Y-88874000D01*
X150948995Y-88805086D01*
X150955976Y-88789274D01*
X150957213Y-88781468D01*
X150973780Y-88748953D01*
X150993676Y-88703894D01*
X151071894Y-88625676D01*
X151116953Y-88605780D01*
X151149468Y-88589213D01*
X151157274Y-88587976D01*
X151173086Y-88580995D01*
X151242000Y-88573000D01*
X152542000Y-88573000D01*
X152610914Y-88580995D01*
G37*
G36*
X130130553Y-88577579D02*
G01*
X130141214Y-88577579D01*
X130182865Y-88585864D01*
X130269916Y-88599651D01*
X130297918Y-88608749D01*
X130324061Y-88613950D01*
X130360956Y-88629232D01*
X130411784Y-88645748D01*
X130459399Y-88670009D01*
X130496298Y-88685293D01*
X130518463Y-88700103D01*
X130544693Y-88713468D01*
X130615990Y-88765268D01*
X130651308Y-88788867D01*
X130658846Y-88796405D01*
X130665370Y-88801145D01*
X130770854Y-88906629D01*
X130775593Y-88913152D01*
X130783133Y-88920692D01*
X130806734Y-88956014D01*
X130858531Y-89027306D01*
X130871894Y-89053533D01*
X130886707Y-89075702D01*
X130901993Y-89112605D01*
X130926251Y-89160215D01*
X130942764Y-89211035D01*
X130958050Y-89247939D01*
X130963251Y-89274086D01*
X130972348Y-89302083D01*
X130986133Y-89389123D01*
X130994421Y-89430786D01*
X130995180Y-89446241D01*
X130996068Y-89451847D01*
X130998516Y-89514150D01*
X130999000Y-89524000D01*
X130999000Y-91324000D01*
X130998515Y-91333853D01*
X130996068Y-91396152D01*
X130995180Y-91401756D01*
X130994421Y-91417214D01*
X130986132Y-91458880D01*
X130972348Y-91545916D01*
X130963251Y-91573910D01*
X130958050Y-91600061D01*
X130942762Y-91636968D01*
X130926251Y-91687784D01*
X130901995Y-91735388D01*
X130886707Y-91772298D01*
X130871892Y-91794470D01*
X130858531Y-91820693D01*
X130806742Y-91891973D01*
X130783133Y-91927308D01*
X130775591Y-91934849D01*
X130770854Y-91941370D01*
X130665370Y-92046854D01*
X130658849Y-92051591D01*
X130651308Y-92059133D01*
X130615973Y-92082742D01*
X130544693Y-92134531D01*
X130518470Y-92147892D01*
X130496298Y-92162707D01*
X130459388Y-92177995D01*
X130411784Y-92202251D01*
X130360968Y-92218762D01*
X130324061Y-92234050D01*
X130297910Y-92239251D01*
X130269916Y-92248348D01*
X130182875Y-92262133D01*
X130141214Y-92270421D01*
X130130553Y-92270421D01*
X130122585Y-92271683D01*
X129973415Y-92271683D01*
X129965447Y-92270421D01*
X129954786Y-92270421D01*
X129913125Y-92262134D01*
X129826083Y-92248348D01*
X129798086Y-92239251D01*
X129771939Y-92234050D01*
X129735035Y-92218764D01*
X129684215Y-92202251D01*
X129636605Y-92177993D01*
X129599702Y-92162707D01*
X129577533Y-92147894D01*
X129551306Y-92134531D01*
X129480014Y-92082734D01*
X129444692Y-92059133D01*
X129437152Y-92051593D01*
X129430629Y-92046854D01*
X129325145Y-91941370D01*
X129320405Y-91934846D01*
X129312867Y-91927308D01*
X129289268Y-91891990D01*
X129237468Y-91820693D01*
X129224103Y-91794463D01*
X129209293Y-91772298D01*
X129194009Y-91735399D01*
X129169748Y-91687784D01*
X129153232Y-91636956D01*
X129137950Y-91600061D01*
X129132749Y-91573918D01*
X129123651Y-91545916D01*
X129109862Y-91458856D01*
X129101579Y-91417214D01*
X129100820Y-91401765D01*
X129099931Y-91396152D01*
X129097483Y-91333837D01*
X129097000Y-91324000D01*
X129097000Y-89524000D01*
X129097483Y-89514166D01*
X129099931Y-89451847D01*
X129100820Y-89446232D01*
X129101579Y-89430786D01*
X129109861Y-89389147D01*
X129123651Y-89302083D01*
X129132750Y-89274078D01*
X129137950Y-89247939D01*
X129153231Y-89211046D01*
X129169748Y-89160215D01*
X129194011Y-89112595D01*
X129209293Y-89075702D01*
X129224101Y-89053539D01*
X129237468Y-89027306D01*
X129289277Y-88955996D01*
X129312867Y-88920692D01*
X129320402Y-88913156D01*
X129325145Y-88906629D01*
X129430629Y-88801145D01*
X129437156Y-88796402D01*
X129444692Y-88788867D01*
X129479996Y-88765277D01*
X129551306Y-88713468D01*
X129577539Y-88700101D01*
X129599702Y-88685293D01*
X129636595Y-88670011D01*
X129684215Y-88645748D01*
X129735046Y-88629231D01*
X129771939Y-88613950D01*
X129798078Y-88608750D01*
X129826083Y-88599651D01*
X129913136Y-88585863D01*
X129954786Y-88577579D01*
X129965447Y-88577579D01*
X129973415Y-88576317D01*
X130122585Y-88576317D01*
X130130553Y-88577579D01*
G37*
G36*
X143592553Y-88577579D02*
G01*
X143603214Y-88577579D01*
X143644865Y-88585864D01*
X143731916Y-88599651D01*
X143759918Y-88608749D01*
X143786061Y-88613950D01*
X143822956Y-88629232D01*
X143873784Y-88645748D01*
X143921399Y-88670009D01*
X143958298Y-88685293D01*
X143980463Y-88700103D01*
X144006693Y-88713468D01*
X144077990Y-88765268D01*
X144113308Y-88788867D01*
X144120846Y-88796405D01*
X144127370Y-88801145D01*
X144232854Y-88906629D01*
X144237593Y-88913152D01*
X144245133Y-88920692D01*
X144268734Y-88956014D01*
X144320531Y-89027306D01*
X144333894Y-89053533D01*
X144348707Y-89075702D01*
X144363993Y-89112605D01*
X144388251Y-89160215D01*
X144404764Y-89211035D01*
X144420050Y-89247939D01*
X144425251Y-89274086D01*
X144434348Y-89302083D01*
X144448133Y-89389123D01*
X144456421Y-89430786D01*
X144457180Y-89446241D01*
X144458068Y-89451847D01*
X144460516Y-89514150D01*
X144461000Y-89524000D01*
X144461000Y-91324000D01*
X144460515Y-91333853D01*
X144458068Y-91396152D01*
X144457180Y-91401756D01*
X144456421Y-91417214D01*
X144448132Y-91458880D01*
X144434348Y-91545916D01*
X144425251Y-91573910D01*
X144420050Y-91600061D01*
X144404762Y-91636968D01*
X144388251Y-91687784D01*
X144363995Y-91735388D01*
X144348707Y-91772298D01*
X144333892Y-91794470D01*
X144320531Y-91820693D01*
X144268742Y-91891973D01*
X144245133Y-91927308D01*
X144237591Y-91934849D01*
X144232854Y-91941370D01*
X144127370Y-92046854D01*
X144120849Y-92051591D01*
X144113308Y-92059133D01*
X144077973Y-92082742D01*
X144006693Y-92134531D01*
X143980470Y-92147892D01*
X143958298Y-92162707D01*
X143921388Y-92177995D01*
X143873784Y-92202251D01*
X143822968Y-92218762D01*
X143786061Y-92234050D01*
X143759910Y-92239251D01*
X143731916Y-92248348D01*
X143644875Y-92262133D01*
X143603214Y-92270421D01*
X143592553Y-92270421D01*
X143584585Y-92271683D01*
X143435415Y-92271683D01*
X143427447Y-92270421D01*
X143416786Y-92270421D01*
X143375125Y-92262134D01*
X143288083Y-92248348D01*
X143260086Y-92239251D01*
X143233939Y-92234050D01*
X143197035Y-92218764D01*
X143146215Y-92202251D01*
X143098605Y-92177993D01*
X143061702Y-92162707D01*
X143039533Y-92147894D01*
X143013306Y-92134531D01*
X142942014Y-92082734D01*
X142906692Y-92059133D01*
X142899152Y-92051593D01*
X142892629Y-92046854D01*
X142787145Y-91941370D01*
X142782405Y-91934846D01*
X142774867Y-91927308D01*
X142751268Y-91891990D01*
X142699468Y-91820693D01*
X142686103Y-91794463D01*
X142671293Y-91772298D01*
X142656009Y-91735399D01*
X142631748Y-91687784D01*
X142615232Y-91636956D01*
X142599950Y-91600061D01*
X142594749Y-91573918D01*
X142585651Y-91545916D01*
X142571862Y-91458856D01*
X142563579Y-91417214D01*
X142562820Y-91401765D01*
X142561931Y-91396152D01*
X142559483Y-91333837D01*
X142559000Y-91324000D01*
X142559000Y-89524000D01*
X142559483Y-89514166D01*
X142561931Y-89451847D01*
X142562820Y-89446232D01*
X142563579Y-89430786D01*
X142571861Y-89389147D01*
X142585651Y-89302083D01*
X142594750Y-89274078D01*
X142599950Y-89247939D01*
X142615231Y-89211046D01*
X142631748Y-89160215D01*
X142656011Y-89112595D01*
X142671293Y-89075702D01*
X142686101Y-89053539D01*
X142699468Y-89027306D01*
X142751277Y-88955996D01*
X142774867Y-88920692D01*
X142782402Y-88913156D01*
X142787145Y-88906629D01*
X142892629Y-88801145D01*
X142899156Y-88796402D01*
X142906692Y-88788867D01*
X142941996Y-88765277D01*
X143013306Y-88713468D01*
X143039539Y-88700101D01*
X143061702Y-88685293D01*
X143098595Y-88670011D01*
X143146215Y-88645748D01*
X143197046Y-88629231D01*
X143233939Y-88613950D01*
X143260078Y-88608750D01*
X143288083Y-88599651D01*
X143375136Y-88585863D01*
X143416786Y-88577579D01*
X143427447Y-88577579D01*
X143435415Y-88576317D01*
X143584585Y-88576317D01*
X143592553Y-88577579D01*
G37*
G36*
X157054553Y-88577579D02*
G01*
X157065214Y-88577579D01*
X157106865Y-88585864D01*
X157193916Y-88599651D01*
X157221918Y-88608749D01*
X157248061Y-88613950D01*
X157284956Y-88629232D01*
X157335784Y-88645748D01*
X157383399Y-88670009D01*
X157420298Y-88685293D01*
X157442463Y-88700103D01*
X157468693Y-88713468D01*
X157539990Y-88765268D01*
X157575308Y-88788867D01*
X157582846Y-88796405D01*
X157589370Y-88801145D01*
X157694854Y-88906629D01*
X157699593Y-88913152D01*
X157707133Y-88920692D01*
X157730734Y-88956014D01*
X157782531Y-89027306D01*
X157795894Y-89053533D01*
X157810707Y-89075702D01*
X157825993Y-89112605D01*
X157850251Y-89160215D01*
X157866764Y-89211035D01*
X157882050Y-89247939D01*
X157887251Y-89274086D01*
X157896348Y-89302083D01*
X157910133Y-89389123D01*
X157918421Y-89430786D01*
X157919180Y-89446241D01*
X157920068Y-89451847D01*
X157922516Y-89514150D01*
X157923000Y-89524000D01*
X157923000Y-91324000D01*
X157922515Y-91333853D01*
X157920068Y-91396152D01*
X157919180Y-91401756D01*
X157918421Y-91417214D01*
X157910132Y-91458880D01*
X157896348Y-91545916D01*
X157887251Y-91573910D01*
X157882050Y-91600061D01*
X157866762Y-91636968D01*
X157850251Y-91687784D01*
X157825995Y-91735388D01*
X157810707Y-91772298D01*
X157795892Y-91794470D01*
X157782531Y-91820693D01*
X157730742Y-91891973D01*
X157707133Y-91927308D01*
X157699591Y-91934849D01*
X157694854Y-91941370D01*
X157589370Y-92046854D01*
X157582849Y-92051591D01*
X157575308Y-92059133D01*
X157539973Y-92082742D01*
X157468693Y-92134531D01*
X157442470Y-92147892D01*
X157420298Y-92162707D01*
X157383388Y-92177995D01*
X157335784Y-92202251D01*
X157284968Y-92218762D01*
X157248061Y-92234050D01*
X157221910Y-92239251D01*
X157193916Y-92248348D01*
X157106875Y-92262133D01*
X157065214Y-92270421D01*
X157054553Y-92270421D01*
X157046585Y-92271683D01*
X156897415Y-92271683D01*
X156889447Y-92270421D01*
X156878786Y-92270421D01*
X156837125Y-92262134D01*
X156750083Y-92248348D01*
X156722086Y-92239251D01*
X156695939Y-92234050D01*
X156659035Y-92218764D01*
X156608215Y-92202251D01*
X156560605Y-92177993D01*
X156523702Y-92162707D01*
X156501533Y-92147894D01*
X156475306Y-92134531D01*
X156404014Y-92082734D01*
X156368692Y-92059133D01*
X156361152Y-92051593D01*
X156354629Y-92046854D01*
X156249145Y-91941370D01*
X156244405Y-91934846D01*
X156236867Y-91927308D01*
X156213268Y-91891990D01*
X156161468Y-91820693D01*
X156148103Y-91794463D01*
X156133293Y-91772298D01*
X156118009Y-91735399D01*
X156093748Y-91687784D01*
X156077232Y-91636956D01*
X156061950Y-91600061D01*
X156056749Y-91573918D01*
X156047651Y-91545916D01*
X156033862Y-91458856D01*
X156025579Y-91417214D01*
X156024820Y-91401765D01*
X156023931Y-91396152D01*
X156021483Y-91333837D01*
X156021000Y-91324000D01*
X156021000Y-89524000D01*
X156021483Y-89514166D01*
X156023931Y-89451847D01*
X156024820Y-89446232D01*
X156025579Y-89430786D01*
X156033861Y-89389147D01*
X156047651Y-89302083D01*
X156056750Y-89274078D01*
X156061950Y-89247939D01*
X156077231Y-89211046D01*
X156093748Y-89160215D01*
X156118011Y-89112595D01*
X156133293Y-89075702D01*
X156148101Y-89053539D01*
X156161468Y-89027306D01*
X156213277Y-88955996D01*
X156236867Y-88920692D01*
X156244402Y-88913156D01*
X156249145Y-88906629D01*
X156354629Y-88801145D01*
X156361156Y-88796402D01*
X156368692Y-88788867D01*
X156403996Y-88765277D01*
X156475306Y-88713468D01*
X156501539Y-88700101D01*
X156523702Y-88685293D01*
X156560595Y-88670011D01*
X156608215Y-88645748D01*
X156659046Y-88629231D01*
X156695939Y-88613950D01*
X156722078Y-88608750D01*
X156750083Y-88599651D01*
X156837136Y-88585863D01*
X156878786Y-88577579D01*
X156889447Y-88577579D01*
X156897415Y-88576317D01*
X157046585Y-88576317D01*
X157054553Y-88577579D01*
G37*
M02*
