M48
; DRILL file {KiCad 8.0.6} date 2024-11-03T17:07:29-0300
; FORMAT={-:-/ absolute / inch / decimal}
; #@! TF.CreationDate,2024-11-03T17:07:29-03:00
; #@! TF.GenerationSoftware,Kicad,Pcbnew,8.0.6
; #@! TF.FileFunction,Plated,1,2,PTH
FMAT,2
INCH
; #@! TA.AperFunction,Plated,PTH,ComponentDrill
T1C0.0315
; #@! TA.AperFunction,Plated,PTH,ComponentDrill
T2C0.0354
; #@! TA.AperFunction,Plated,PTH,ComponentDrill
T3C0.0433
; #@! TA.AperFunction,Plated,PTH,ComponentDrill
T4C0.0472
; #@! TA.AperFunction,Plated,PTH,ViaDrill
T5C0.1299
%
G90
G05
T1
X4.87Y-4.52
X4.87Y-4.65
X5.25Y-4.1016
X5.25Y-4.2
X5.27Y-4.52
X5.27Y-4.65
X5.4Y-4.13
X5.4Y-4.23
X5.4Y-4.33
X5.4Y-4.43
X5.5016Y-4.58
X5.6Y-4.58
X5.7Y-4.13
X5.7Y-4.23
X5.7Y-4.33
X5.7Y-4.43
X5.94Y-4.37
X5.94Y-4.5
X6.34Y-4.37
X6.34Y-4.5
T2
X5.02Y-4.23
X5.02Y-4.33
T3
X6.0241Y-4.7728
X6.0241Y-4.95
X6.28Y-4.7728
X6.28Y-4.95
T4
X4.92Y-3.56
X5.12Y-3.56
X5.45Y-3.56
X5.65Y-3.56
X5.98Y-3.56
X6.18Y-3.56
T5
X4.68Y-3.42
X4.68Y-5.14
X6.41Y-3.42
X6.41Y-5.14
M30
