G75*
%MOIN*%
%OFA0B0*%
%FSLAX25Y25*%
%IPPOS*%
%LPD*%
%AMOC8*
5,1,8,0,0,1.08239X$1,22.5*
%
%ADD10C,0.00000*%
%ADD11OC8,0.04800*%
%ADD12C,0.06600*%
%ADD13R,0.07400X0.07400*%
%ADD14C,0.07400*%
%ADD15OC8,0.06600*%
%ADD16C,0.06000*%
%ADD17C,0.04000*%
D10*
X0003000Y0014685D02*
X0003000Y0210646D01*
X0198701Y0210646D01*
X0198701Y0014685D01*
X0003000Y0014685D01*
D11*
X0091000Y0079685D03*
X0111000Y0079685D03*
X0147000Y0051685D03*
X0147000Y0031685D03*
D12*
X0116000Y0097685D03*
X0116000Y0107685D03*
X0116000Y0117685D03*
X0116000Y0127685D03*
X0086000Y0127685D03*
X0086000Y0117685D03*
X0086000Y0107685D03*
X0086000Y0097685D03*
D13*
X0106000Y0197685D03*
D14*
X0096000Y0197685D03*
D15*
X0070000Y0174685D03*
X0070000Y0134685D03*
X0076000Y0107685D03*
X0036000Y0107685D03*
X0022000Y0107685D03*
X0012000Y0107685D03*
X0147000Y0117685D03*
X0147000Y0157685D03*
D16*
X0054900Y0157485D02*
X0054900Y0163485D01*
X0037100Y0163485D02*
X0037100Y0157485D01*
X0037100Y0137885D02*
X0037100Y0131885D01*
X0054900Y0131885D02*
X0054900Y0137885D01*
D17*
X0054900Y0134885D02*
X0055100Y0134685D01*
X0070000Y0134685D01*
X0070000Y0126685D01*
X0079000Y0117685D01*
X0086000Y0117685D01*
X0082256Y0122285D02*
X0080905Y0122285D01*
X0074600Y0128591D01*
X0074600Y0130942D01*
X0075900Y0132242D01*
X0075900Y0137129D01*
X0072444Y0140585D01*
X0067556Y0140585D01*
X0066256Y0139285D01*
X0060381Y0139285D01*
X0059647Y0141058D01*
X0059500Y0141205D01*
X0059500Y0154166D01*
X0059647Y0154313D01*
X0060500Y0156372D01*
X0060500Y0164599D01*
X0059647Y0166658D01*
X0058072Y0168233D01*
X0056014Y0169085D01*
X0055905Y0169085D01*
X0056905Y0170085D01*
X0066256Y0170085D01*
X0067556Y0168785D01*
X0072444Y0168785D01*
X0073744Y0170085D01*
X0111400Y0170085D01*
X0111400Y0131429D01*
X0110998Y0131028D01*
X0110100Y0128859D01*
X0110100Y0126512D01*
X0110998Y0124343D01*
X0112656Y0122685D01*
X0110998Y0121028D01*
X0110100Y0118859D01*
X0110100Y0116512D01*
X0110998Y0114343D01*
X0111400Y0113942D01*
X0111400Y0111429D01*
X0110998Y0111028D01*
X0110100Y0108859D01*
X0110100Y0106512D01*
X0110998Y0104343D01*
X0112656Y0102685D01*
X0110998Y0101028D01*
X0110100Y0098859D01*
X0110100Y0096512D01*
X0110998Y0094343D01*
X0111400Y0093942D01*
X0111400Y0086591D01*
X0109495Y0084685D01*
X0108929Y0084685D01*
X0106000Y0081757D01*
X0106000Y0077614D01*
X0108929Y0074685D01*
X0113071Y0074685D01*
X0116000Y0077614D01*
X0116000Y0078180D01*
X0118606Y0080786D01*
X0119900Y0082080D01*
X0120600Y0083770D01*
X0120600Y0093942D01*
X0121002Y0094343D01*
X0121900Y0096512D01*
X0121900Y0098859D01*
X0121002Y0101028D01*
X0119344Y0102685D01*
X0121002Y0104343D01*
X0121900Y0106512D01*
X0121900Y0108859D01*
X0121002Y0111028D01*
X0120600Y0111429D01*
X0120600Y0113085D01*
X0142400Y0113085D01*
X0142400Y0054157D01*
X0142000Y0053757D01*
X0142000Y0049614D01*
X0144929Y0046685D01*
X0149071Y0046685D01*
X0152000Y0049614D01*
X0152000Y0053757D01*
X0151600Y0054157D01*
X0151600Y0113942D01*
X0152900Y0115242D01*
X0152900Y0120129D01*
X0149444Y0123585D01*
X0144556Y0123585D01*
X0143256Y0122285D01*
X0119744Y0122285D01*
X0119344Y0122685D01*
X0121002Y0124343D01*
X0121900Y0126512D01*
X0121900Y0128859D01*
X0121002Y0131028D01*
X0120600Y0131429D01*
X0120600Y0193085D01*
X0128095Y0193085D01*
X0142400Y0178780D01*
X0142400Y0161429D01*
X0141100Y0160129D01*
X0141100Y0155242D01*
X0144556Y0151785D01*
X0149444Y0151785D01*
X0152900Y0155242D01*
X0152900Y0160129D01*
X0151600Y0161429D01*
X0151600Y0181600D01*
X0150900Y0183291D01*
X0149606Y0184585D01*
X0132606Y0201585D01*
X0130915Y0202285D01*
X0112141Y0202285D01*
X0111904Y0202858D01*
X0111173Y0203590D01*
X0110217Y0203985D01*
X0101783Y0203985D01*
X0100827Y0203590D01*
X0100169Y0202932D01*
X0099730Y0203268D01*
X0098970Y0203707D01*
X0098158Y0204044D01*
X0097310Y0204271D01*
X0096439Y0204385D01*
X0096000Y0204385D01*
X0095561Y0204385D01*
X0094690Y0204271D01*
X0093842Y0204044D01*
X0093030Y0203707D01*
X0092270Y0203268D01*
X0091573Y0202734D01*
X0090952Y0202113D01*
X0090417Y0201416D01*
X0089978Y0200655D01*
X0089642Y0199844D01*
X0089415Y0198995D01*
X0089300Y0198125D01*
X0089300Y0197686D01*
X0096000Y0197686D01*
X0096000Y0204385D01*
X0096000Y0197686D01*
X0096000Y0197686D01*
X0096000Y0197685D01*
X0096000Y0190985D01*
X0096439Y0190985D01*
X0097310Y0191100D01*
X0098158Y0191327D01*
X0098970Y0191664D01*
X0099730Y0192103D01*
X0100169Y0192439D01*
X0100827Y0191781D01*
X0101783Y0191385D01*
X0110217Y0191385D01*
X0111173Y0191781D01*
X0111400Y0192009D01*
X0111400Y0179285D01*
X0073744Y0179285D01*
X0072444Y0180585D01*
X0067556Y0180585D01*
X0066256Y0179285D01*
X0054085Y0179285D01*
X0052394Y0178585D01*
X0051100Y0177291D01*
X0042100Y0168291D01*
X0041710Y0167348D01*
X0041677Y0167394D01*
X0041009Y0168062D01*
X0040245Y0168617D01*
X0039403Y0169046D01*
X0038505Y0169338D01*
X0037572Y0169485D01*
X0037100Y0169485D01*
X0037100Y0160486D01*
X0037100Y0169485D01*
X0036628Y0169485D01*
X0035695Y0169338D01*
X0034797Y0169046D01*
X0033955Y0168617D01*
X0033191Y0168062D01*
X0032523Y0167394D01*
X0031968Y0166630D01*
X0031540Y0165789D01*
X0031248Y0164890D01*
X0031100Y0163958D01*
X0031100Y0160486D01*
X0037100Y0160486D01*
X0037100Y0160486D01*
X0037100Y0160485D01*
X0037100Y0151485D01*
X0037572Y0151485D01*
X0038505Y0151633D01*
X0039403Y0151925D01*
X0040245Y0152354D01*
X0041009Y0152909D01*
X0041400Y0153300D01*
X0041400Y0142071D01*
X0041009Y0142462D01*
X0040245Y0143017D01*
X0039403Y0143446D01*
X0038505Y0143738D01*
X0037572Y0143885D01*
X0037100Y0143885D01*
X0037100Y0134886D01*
X0037100Y0143885D01*
X0036628Y0143885D01*
X0035695Y0143738D01*
X0034797Y0143446D01*
X0033955Y0143017D01*
X0033191Y0142462D01*
X0032523Y0141794D01*
X0031968Y0141030D01*
X0031540Y0140189D01*
X0031248Y0139290D01*
X0031100Y0138358D01*
X0031100Y0134886D01*
X0037100Y0134886D01*
X0037100Y0134886D01*
X0037100Y0134885D01*
X0037100Y0125885D01*
X0037572Y0125885D01*
X0038505Y0126033D01*
X0039403Y0126325D01*
X0040245Y0126754D01*
X0041009Y0127309D01*
X0041400Y0127700D01*
X0041400Y0111770D01*
X0042100Y0110080D01*
X0043394Y0108786D01*
X0058394Y0093786D01*
X0060085Y0093085D01*
X0082256Y0093085D01*
X0082658Y0092684D01*
X0084826Y0091785D01*
X0087174Y0091785D01*
X0089342Y0092684D01*
X0091002Y0094343D01*
X0091900Y0096512D01*
X0091900Y0098859D01*
X0091002Y0101028D01*
X0089344Y0102685D01*
X0091002Y0104343D01*
X0091900Y0106512D01*
X0091900Y0108859D01*
X0091002Y0111028D01*
X0089344Y0112685D01*
X0091002Y0114343D01*
X0091900Y0116512D01*
X0091900Y0118859D01*
X0091002Y0121028D01*
X0089551Y0122478D01*
X0090104Y0122880D01*
X0090805Y0123581D01*
X0091388Y0124384D01*
X0091838Y0125267D01*
X0092145Y0126210D01*
X0092300Y0127190D01*
X0092300Y0127685D01*
X0086000Y0127685D01*
X0079700Y0127685D01*
X0079700Y0127190D01*
X0079855Y0126210D01*
X0080162Y0125267D01*
X0080612Y0124384D01*
X0081195Y0123581D01*
X0081896Y0122880D01*
X0082449Y0122478D01*
X0082256Y0122285D01*
X0082219Y0122645D02*
X0080546Y0122645D01*
X0079786Y0126644D02*
X0076547Y0126644D01*
X0079700Y0127686D02*
X0086000Y0127686D01*
X0086000Y0133985D01*
X0086000Y0127686D01*
X0086000Y0127686D01*
X0086000Y0127685D01*
X0086000Y0127686D01*
X0092300Y0127686D01*
X0092300Y0128181D01*
X0092145Y0129161D01*
X0091838Y0130104D01*
X0091388Y0130987D01*
X0090805Y0131790D01*
X0090104Y0132491D01*
X0089302Y0133074D01*
X0088418Y0133524D01*
X0087475Y0133830D01*
X0086496Y0133985D01*
X0086000Y0133985D01*
X0085504Y0133985D01*
X0084525Y0133830D01*
X0083582Y0133524D01*
X0082698Y0133074D01*
X0081896Y0132491D01*
X0081195Y0131790D01*
X0080612Y0130987D01*
X0080162Y0130104D01*
X0079855Y0129161D01*
X0079700Y0128181D01*
X0079700Y0127686D01*
X0080436Y0130642D02*
X0074600Y0130642D01*
X0075900Y0134641D02*
X0111400Y0134641D01*
X0111400Y0138639D02*
X0074390Y0138639D01*
X0086000Y0130642D02*
X0086000Y0130642D01*
X0086000Y0127685D02*
X0093000Y0127685D01*
X0094000Y0126685D01*
X0094000Y0082685D01*
X0091000Y0079685D01*
X0091000Y0074285D01*
X0091000Y0079685D01*
X0091000Y0079685D01*
X0091000Y0079686D01*
X0091000Y0085085D01*
X0093237Y0085085D01*
X0096400Y0081922D01*
X0096400Y0079686D01*
X0091000Y0079686D01*
X0091000Y0079686D01*
X0091000Y0085085D01*
X0088763Y0085085D01*
X0085600Y0081922D01*
X0085600Y0079686D01*
X0091000Y0079686D01*
X0091000Y0079685D01*
X0096400Y0079685D01*
X0096400Y0077449D01*
X0093237Y0074285D01*
X0091000Y0074285D01*
X0088763Y0074285D01*
X0085600Y0077449D01*
X0085600Y0079685D01*
X0091000Y0079685D01*
X0091000Y0031685D01*
X0041000Y0031685D01*
X0012000Y0060685D01*
X0012000Y0107685D01*
X0012000Y0101385D01*
X0014610Y0101385D01*
X0017283Y0104059D01*
X0019556Y0101785D01*
X0024444Y0101785D01*
X0025744Y0103085D01*
X0032256Y0103085D01*
X0033556Y0101785D01*
X0038444Y0101785D01*
X0041900Y0105242D01*
X0041900Y0110129D01*
X0038444Y0113585D01*
X0033556Y0113585D01*
X0032256Y0112285D01*
X0025744Y0112285D01*
X0024444Y0113585D01*
X0019556Y0113585D01*
X0017283Y0111312D01*
X0014610Y0113985D01*
X0012000Y0113985D01*
X0012000Y0107686D01*
X0012000Y0113985D01*
X0009390Y0113985D01*
X0007000Y0111595D01*
X0007000Y0206646D01*
X0194701Y0206646D01*
X0194701Y0018685D01*
X0007000Y0018685D01*
X0007000Y0103776D01*
X0009390Y0101385D01*
X0012000Y0101385D01*
X0012000Y0107685D01*
X0012000Y0107685D01*
X0012000Y0155685D01*
X0013000Y0156685D01*
X0016800Y0160485D01*
X0037100Y0160485D01*
X0037100Y0160485D01*
X0037100Y0151485D01*
X0036628Y0151485D01*
X0035695Y0151633D01*
X0034797Y0151925D01*
X0033955Y0152354D01*
X0033191Y0152909D01*
X0032523Y0153577D01*
X0031968Y0154341D01*
X0031540Y0155182D01*
X0031248Y0156080D01*
X0031100Y0157013D01*
X0031100Y0160485D01*
X0037100Y0160485D01*
X0037100Y0134885D01*
X0037100Y0134885D01*
X0037100Y0125885D01*
X0036628Y0125885D01*
X0035695Y0126033D01*
X0034797Y0126325D01*
X0033955Y0126754D01*
X0033191Y0127309D01*
X0032523Y0127977D01*
X0031968Y0128741D01*
X0031540Y0129582D01*
X0031248Y0130480D01*
X0031100Y0131413D01*
X0031100Y0134885D01*
X0037100Y0134885D01*
X0037100Y0134641D02*
X0037100Y0134641D01*
X0037100Y0138639D02*
X0037100Y0138639D01*
X0037100Y0142638D02*
X0037100Y0142638D01*
X0033433Y0142638D02*
X0007000Y0142638D01*
X0007000Y0146636D02*
X0041400Y0146636D01*
X0041400Y0142638D02*
X0040767Y0142638D01*
X0041400Y0150635D02*
X0007000Y0150635D01*
X0007000Y0154633D02*
X0031819Y0154633D01*
X0031100Y0158632D02*
X0007000Y0158632D01*
X0007000Y0162630D02*
X0031100Y0162630D01*
X0031968Y0166629D02*
X0007000Y0166629D01*
X0007000Y0170627D02*
X0044437Y0170627D01*
X0046000Y0165685D02*
X0055000Y0174685D01*
X0062000Y0174685D01*
X0070000Y0174685D01*
X0115000Y0174685D01*
X0116000Y0173685D01*
X0116000Y0197685D01*
X0130000Y0197685D01*
X0147000Y0180685D01*
X0147000Y0157685D01*
X0141708Y0154633D02*
X0120600Y0154633D01*
X0120600Y0150635D02*
X0194701Y0150635D01*
X0194701Y0154633D02*
X0152292Y0154633D01*
X0152900Y0158632D02*
X0194701Y0158632D01*
X0194701Y0162630D02*
X0151600Y0162630D01*
X0151600Y0166629D02*
X0194701Y0166629D01*
X0194701Y0170627D02*
X0151600Y0170627D01*
X0151600Y0174626D02*
X0194701Y0174626D01*
X0194701Y0178624D02*
X0151600Y0178624D01*
X0151176Y0182623D02*
X0194701Y0182623D01*
X0194701Y0186621D02*
X0147569Y0186621D01*
X0143571Y0190620D02*
X0194701Y0190620D01*
X0194701Y0194618D02*
X0139572Y0194618D01*
X0135574Y0198617D02*
X0194701Y0198617D01*
X0194701Y0202616D02*
X0112005Y0202616D01*
X0116000Y0197685D02*
X0106000Y0197685D01*
X0111400Y0190620D02*
X0007000Y0190620D01*
X0007000Y0194618D02*
X0090034Y0194618D01*
X0089978Y0194716D02*
X0090417Y0193955D01*
X0090952Y0193258D01*
X0091573Y0192637D01*
X0092270Y0192103D01*
X0093030Y0191664D01*
X0093842Y0191327D01*
X0094690Y0191100D01*
X0095561Y0190985D01*
X0096000Y0190985D01*
X0096000Y0197685D01*
X0096000Y0197685D01*
X0089300Y0197685D01*
X0089300Y0197246D01*
X0089415Y0196376D01*
X0089642Y0195527D01*
X0089978Y0194716D01*
X0089365Y0198617D02*
X0007000Y0198617D01*
X0007000Y0202616D02*
X0091455Y0202616D01*
X0096000Y0202616D02*
X0096000Y0202616D01*
X0096000Y0198617D02*
X0096000Y0198617D01*
X0096000Y0197685D02*
X0054000Y0197685D01*
X0016800Y0160485D01*
X0007000Y0174626D02*
X0048435Y0174626D01*
X0052489Y0178624D02*
X0007000Y0178624D01*
X0007000Y0182623D02*
X0111400Y0182623D01*
X0111400Y0186621D02*
X0007000Y0186621D01*
X0007000Y0206614D02*
X0194701Y0206614D01*
X0142400Y0178624D02*
X0120600Y0178624D01*
X0120600Y0174626D02*
X0142400Y0174626D01*
X0142400Y0170627D02*
X0120600Y0170627D01*
X0120600Y0166629D02*
X0142400Y0166629D01*
X0142400Y0162630D02*
X0120600Y0162630D01*
X0120600Y0158632D02*
X0141100Y0158632D01*
X0120600Y0146636D02*
X0194701Y0146636D01*
X0194701Y0142638D02*
X0120600Y0142638D01*
X0120600Y0138639D02*
X0194701Y0138639D01*
X0194701Y0134641D02*
X0120600Y0134641D01*
X0121161Y0130642D02*
X0194701Y0130642D01*
X0194701Y0126644D02*
X0121900Y0126644D01*
X0119384Y0122645D02*
X0143616Y0122645D01*
X0147000Y0117685D02*
X0116000Y0117685D01*
X0116000Y0107685D01*
X0121158Y0110650D02*
X0142400Y0110650D01*
X0142400Y0106651D02*
X0121900Y0106651D01*
X0119377Y0102653D02*
X0142400Y0102653D01*
X0142400Y0098654D02*
X0121900Y0098654D01*
X0121131Y0094656D02*
X0142400Y0094656D01*
X0142400Y0090657D02*
X0120600Y0090657D01*
X0120600Y0086659D02*
X0142400Y0086659D01*
X0142400Y0082660D02*
X0120140Y0082660D01*
X0118606Y0080786D02*
X0118606Y0080786D01*
X0116482Y0078662D02*
X0142400Y0078662D01*
X0142400Y0074663D02*
X0093614Y0074663D01*
X0091000Y0074663D02*
X0091000Y0074663D01*
X0088386Y0074663D02*
X0007000Y0074663D01*
X0007000Y0070665D02*
X0142400Y0070665D01*
X0142400Y0066666D02*
X0007000Y0066666D01*
X0007000Y0062668D02*
X0142400Y0062668D01*
X0142400Y0058669D02*
X0007000Y0058669D01*
X0007000Y0054671D02*
X0142400Y0054671D01*
X0142000Y0050672D02*
X0007000Y0050672D01*
X0007000Y0046674D02*
X0194701Y0046674D01*
X0194701Y0050672D02*
X0152000Y0050672D01*
X0151600Y0054671D02*
X0194701Y0054671D01*
X0194701Y0058669D02*
X0151600Y0058669D01*
X0151600Y0062668D02*
X0194701Y0062668D01*
X0194701Y0066666D02*
X0151600Y0066666D01*
X0151600Y0070665D02*
X0194701Y0070665D01*
X0194701Y0074663D02*
X0151600Y0074663D01*
X0151600Y0078662D02*
X0194701Y0078662D01*
X0194701Y0082660D02*
X0151600Y0082660D01*
X0151600Y0086659D02*
X0194701Y0086659D01*
X0194701Y0090657D02*
X0151600Y0090657D01*
X0151600Y0094656D02*
X0194701Y0094656D01*
X0194701Y0098654D02*
X0151600Y0098654D01*
X0151600Y0102653D02*
X0194701Y0102653D01*
X0194701Y0106651D02*
X0151600Y0106651D01*
X0151600Y0110650D02*
X0194701Y0110650D01*
X0194701Y0114648D02*
X0152307Y0114648D01*
X0152900Y0118647D02*
X0194701Y0118647D01*
X0194701Y0122645D02*
X0150384Y0122645D01*
X0147000Y0117685D02*
X0147000Y0051685D01*
X0147000Y0037085D02*
X0144763Y0037085D01*
X0141600Y0033922D01*
X0141600Y0031686D01*
X0147000Y0031686D01*
X0147000Y0037085D01*
X0147000Y0031686D01*
X0147000Y0031686D01*
X0147000Y0031685D01*
X0147000Y0026285D01*
X0149237Y0026285D01*
X0152400Y0029449D01*
X0152400Y0031685D01*
X0147000Y0031685D01*
X0147000Y0031685D01*
X0147000Y0026285D01*
X0144763Y0026285D01*
X0141600Y0029449D01*
X0141600Y0031685D01*
X0147000Y0031685D01*
X0147000Y0031686D01*
X0152400Y0031686D01*
X0152400Y0033922D01*
X0149237Y0037085D01*
X0147000Y0037085D01*
X0147000Y0034678D02*
X0147000Y0034678D01*
X0147000Y0031685D02*
X0091000Y0031685D01*
X0091000Y0078662D02*
X0091000Y0078662D01*
X0091000Y0082660D02*
X0091000Y0082660D01*
X0095662Y0082660D02*
X0106904Y0082660D01*
X0106000Y0078662D02*
X0096400Y0078662D01*
X0085600Y0078662D02*
X0007000Y0078662D01*
X0007000Y0082660D02*
X0086338Y0082660D01*
X0091131Y0094656D02*
X0110869Y0094656D01*
X0111400Y0090657D02*
X0007000Y0090657D01*
X0007000Y0086659D02*
X0111400Y0086659D01*
X0116000Y0084685D02*
X0111000Y0079685D01*
X0116000Y0084685D02*
X0116000Y0097685D01*
X0110100Y0098654D02*
X0091900Y0098654D01*
X0089377Y0102653D02*
X0112623Y0102653D01*
X0110100Y0106651D02*
X0091900Y0106651D01*
X0091158Y0110650D02*
X0110842Y0110650D01*
X0110872Y0114648D02*
X0091128Y0114648D01*
X0091900Y0118647D02*
X0110100Y0118647D01*
X0112616Y0122645D02*
X0089781Y0122645D01*
X0092214Y0126644D02*
X0110100Y0126644D01*
X0110839Y0130642D02*
X0091564Y0130642D01*
X0111400Y0142638D02*
X0059500Y0142638D01*
X0059500Y0146636D02*
X0111400Y0146636D01*
X0111400Y0150635D02*
X0059500Y0150635D01*
X0059780Y0154633D02*
X0111400Y0154633D01*
X0111400Y0158632D02*
X0060500Y0158632D01*
X0060500Y0162630D02*
X0111400Y0162630D01*
X0111400Y0166629D02*
X0059659Y0166629D01*
X0054900Y0160485D02*
X0054900Y0134885D01*
X0041400Y0126644D02*
X0040029Y0126644D01*
X0037100Y0126644D02*
X0037100Y0126644D01*
X0034171Y0126644D02*
X0007000Y0126644D01*
X0007000Y0130642D02*
X0031222Y0130642D01*
X0031100Y0134641D02*
X0007000Y0134641D01*
X0007000Y0138639D02*
X0031145Y0138639D01*
X0037100Y0130642D02*
X0037100Y0130642D01*
X0041400Y0122645D02*
X0007000Y0122645D01*
X0007000Y0118647D02*
X0041400Y0118647D01*
X0041400Y0114648D02*
X0007000Y0114648D01*
X0012000Y0110650D02*
X0012000Y0110650D01*
X0012000Y0107686D02*
X0012000Y0107686D01*
X0012000Y0106651D02*
X0012000Y0106651D01*
X0012000Y0102653D02*
X0012000Y0102653D01*
X0008123Y0102653D02*
X0007000Y0102653D01*
X0007000Y0098654D02*
X0053526Y0098654D01*
X0057524Y0094656D02*
X0007000Y0094656D01*
X0015877Y0102653D02*
X0018689Y0102653D01*
X0022000Y0107685D02*
X0036000Y0107685D01*
X0039311Y0102653D02*
X0049527Y0102653D01*
X0045529Y0106651D02*
X0041900Y0106651D01*
X0041864Y0110650D02*
X0041380Y0110650D01*
X0046000Y0112685D02*
X0046000Y0165685D01*
X0037100Y0166629D02*
X0037100Y0166629D01*
X0037100Y0162630D02*
X0037100Y0162630D01*
X0037100Y0158632D02*
X0037100Y0158632D01*
X0037100Y0154633D02*
X0037100Y0154633D01*
X0046000Y0112685D02*
X0061000Y0097685D01*
X0086000Y0097685D01*
X0086000Y0107685D02*
X0076000Y0107685D01*
X0116000Y0127685D02*
X0116000Y0173685D01*
X0120600Y0182623D02*
X0138557Y0182623D01*
X0134559Y0186621D02*
X0120600Y0186621D01*
X0120600Y0190620D02*
X0130560Y0190620D01*
X0096000Y0194618D02*
X0096000Y0194618D01*
X0032689Y0102653D02*
X0025311Y0102653D01*
X0007000Y0042675D02*
X0194701Y0042675D01*
X0194701Y0038677D02*
X0007000Y0038677D01*
X0007000Y0034678D02*
X0142356Y0034678D01*
X0141600Y0030680D02*
X0007000Y0030680D01*
X0007000Y0026681D02*
X0144368Y0026681D01*
X0147000Y0026681D02*
X0147000Y0026681D01*
X0149632Y0026681D02*
X0194701Y0026681D01*
X0194701Y0022682D02*
X0007000Y0022682D01*
X0147000Y0030680D02*
X0147000Y0030680D01*
X0152400Y0030680D02*
X0194701Y0030680D01*
X0194701Y0034678D02*
X0151644Y0034678D01*
M02*
