%
M48
M72
T01C0.03200
T02C0.04000
T03C0.04600
T04C0.10000
%
T01
X86000Y86000
X86000Y96000
X86000Y106000
X86000Y116000
X70000Y123000
X76000Y96000
X91000Y68000
X111000Y68000
X116000Y86000
X116000Y96000
X116000Y106000
X116000Y116000
X147000Y106000
X147000Y146000
X70000Y163000
X36000Y96000
X22000Y96000
X12000Y96000
X147000Y40000
X147000Y20000
T02
X54900Y123200
X37100Y123200
X37100Y148800
X54900Y148800
X22000Y65000
X22000Y55000
T03
X96157Y182000
X115843Y182000
T04
X16000Y16000
X16000Y186000
X187000Y187000
X186000Y16000
M30
