G75*
%MOIN*%
%OFA0B0*%
%FSLAX26Y26*%
%IPPOS*%
%LPD*%
%AMOC8*
5,1,8,0,0,1.08239X$1,22.5*
%
%ADD10OC8,0.048000*%
%ADD11C,0.066000*%
%ADD12OC8,0.066000*%
%ADD13C,0.060000*%
%ADD14C,0.074000*%
%ADD15R,0.080000X0.080000*%
%ADD16C,0.080000*%
%ADD17C,0.040000*%
D10*
X00880000Y00650000D03*
X01080000Y00650000D03*
X01440000Y00370000D03*
X01440000Y00170000D03*
D11*
X01130000Y00830000D03*
X01130000Y00930000D03*
X01130000Y01030000D03*
X01130000Y01130000D03*
X00830000Y01130000D03*
X00830000Y01030000D03*
X00830000Y00930000D03*
X00830000Y00830000D03*
D12*
X00730000Y00930000D03*
X00670000Y01200000D03*
X00330000Y00930000D03*
X00190000Y00930000D03*
X00090000Y00930000D03*
X00670000Y01600000D03*
X01440000Y01430000D03*
X01440000Y01030000D03*
D13*
X00519000Y01172000D02*
X00519000Y01232000D01*
X00341000Y01232000D02*
X00341000Y01172000D01*
X00341000Y01428000D02*
X00341000Y01488000D01*
X00519000Y01488000D02*
X00519000Y01428000D01*
D14*
X00190000Y00620000D03*
X00190000Y00520000D03*
D15*
X01128425Y01790000D03*
D16*
X00931575Y01790000D03*
D17*
X00030000Y00900905D02*
X00030000Y00030000D01*
X01927008Y00030000D01*
X01927008Y01929606D01*
X00030000Y01929606D01*
X00030000Y00959095D01*
X00063905Y00993000D01*
X00089999Y00993000D01*
X00089999Y00930001D01*
X00090000Y00930001D01*
X00090000Y00993000D01*
X00116095Y00993000D01*
X00140000Y00969095D01*
X00163905Y00993000D01*
X00216095Y00993000D01*
X00229095Y00980000D01*
X00290905Y00980000D01*
X00303905Y00993000D01*
X00356095Y00993000D01*
X00380678Y00968417D01*
X00380000Y00970054D01*
X00380000Y01126171D01*
X00372447Y01120683D01*
X00364032Y01116396D01*
X00355050Y01113477D01*
X00345722Y01112000D01*
X00341000Y01112000D01*
X00341000Y01201999D01*
X00340999Y01201999D01*
X00340999Y01112000D01*
X00336278Y01112000D01*
X00326950Y01113477D01*
X00317968Y01116396D01*
X00309553Y01120683D01*
X00301913Y01126234D01*
X00295234Y01132913D01*
X00289683Y01140553D01*
X00285396Y01148968D01*
X00282477Y01157950D01*
X00281000Y01167278D01*
X00281000Y01201999D01*
X00340999Y01201999D01*
X00340999Y01202000D01*
X00281000Y01202000D01*
X00281000Y01236722D01*
X00282477Y01246050D01*
X00285396Y01255032D01*
X00289683Y01263447D01*
X00295234Y01271087D01*
X00301913Y01277765D01*
X00309553Y01283316D01*
X00317968Y01287604D01*
X00326950Y01290523D01*
X00336278Y01292000D01*
X00340999Y01292000D01*
X00340999Y01202001D01*
X00341000Y01202001D01*
X00341000Y01292000D01*
X00345722Y01292000D01*
X00355050Y01290523D01*
X00364032Y01287604D01*
X00372447Y01283316D01*
X00380000Y01277829D01*
X00380000Y01382171D01*
X00372447Y01376683D01*
X00364032Y01372396D01*
X00355050Y01369477D01*
X00345722Y01368000D01*
X00341000Y01368000D01*
X00341000Y01457999D01*
X00340999Y01457999D01*
X00340999Y01368000D01*
X00336278Y01368000D01*
X00326950Y01369477D01*
X00317968Y01372396D01*
X00309553Y01376683D01*
X00301913Y01382234D01*
X00295234Y01388913D01*
X00289683Y01396553D01*
X00285396Y01404968D01*
X00282477Y01413950D01*
X00281000Y01423278D01*
X00281000Y01457999D01*
X00340999Y01457999D01*
X00340999Y01458000D01*
X00281000Y01458000D01*
X00281000Y01492722D01*
X00282477Y01502050D01*
X00285396Y01511032D01*
X00289683Y01519447D01*
X00295234Y01527087D01*
X00301913Y01533765D01*
X00309553Y01539316D01*
X00317968Y01543604D01*
X00326950Y01546523D01*
X00336278Y01548000D01*
X00340999Y01548000D01*
X00340999Y01458001D01*
X00341000Y01458001D01*
X00341000Y01548000D01*
X00345722Y01548000D01*
X00355050Y01546523D01*
X00364032Y01543604D01*
X00372447Y01539316D01*
X00380087Y01533765D01*
X00384073Y01529779D01*
X00387612Y01538323D01*
X00477612Y01628323D01*
X00477612Y01628323D01*
X00491677Y01642388D01*
X00510054Y01650000D01*
X00630905Y01650000D01*
X00643905Y01663000D01*
X00696095Y01663000D01*
X00709095Y01650000D01*
X01080000Y01650000D01*
X01080000Y01721018D01*
X01071431Y01724567D01*
X01062992Y01733006D01*
X01058425Y01744032D01*
X01058425Y01835967D01*
X01062992Y01846994D01*
X01071431Y01855433D01*
X01082458Y01860000D01*
X01089289Y01860000D01*
X01101677Y01872388D01*
X01120054Y01880000D01*
X01279946Y01880000D01*
X01298323Y01872388D01*
X01468323Y01702388D01*
X01482388Y01688323D01*
X01490000Y01669946D01*
X01490000Y01469095D01*
X01503000Y01456095D01*
X01503000Y01403905D01*
X01466095Y01367000D01*
X01413905Y01367000D01*
X01377000Y01403905D01*
X01377000Y01456095D01*
X01390000Y01469095D01*
X01390000Y01639289D01*
X01249289Y01780000D01*
X01198425Y01780000D01*
X01198425Y01744032D01*
X01193858Y01733006D01*
X01185419Y01724567D01*
X01180000Y01722323D01*
X01180000Y01169095D01*
X01183409Y01165687D01*
X01193000Y01142531D01*
X01193000Y01117468D01*
X01183409Y01094313D01*
X01169095Y01080000D01*
X01400905Y01080000D01*
X01413905Y01093000D01*
X01466095Y01093000D01*
X01503000Y01056095D01*
X01503000Y01003905D01*
X01490000Y00990905D01*
X01490000Y00396367D01*
X01494000Y00392367D01*
X01494000Y00347633D01*
X01462367Y00316000D01*
X01417633Y00316000D01*
X01386000Y00347633D01*
X01386000Y00392367D01*
X01390000Y00396367D01*
X01390000Y00980000D01*
X01180000Y00980000D01*
X01180000Y00969095D01*
X01183409Y00965687D01*
X01193000Y00942531D01*
X01193000Y00917468D01*
X01183409Y00894313D01*
X01169095Y00880000D01*
X01183409Y00865687D01*
X01193000Y00842531D01*
X01193000Y00817468D01*
X01183409Y00794313D01*
X01180000Y00790905D01*
X01180000Y00690054D01*
X01172388Y00671677D01*
X01134000Y00633289D01*
X01134000Y00627633D01*
X01102367Y00596000D01*
X01057633Y00596000D01*
X01026000Y00627633D01*
X01026000Y00672367D01*
X01057633Y00704000D01*
X01063289Y00704000D01*
X01080000Y00720711D01*
X01080000Y00790905D01*
X01076591Y00794313D01*
X01067000Y00817468D01*
X01067000Y00842531D01*
X01076591Y00865687D01*
X01090905Y00880000D01*
X01076591Y00894313D01*
X01067000Y00917468D01*
X01067000Y00942531D01*
X01076591Y00965687D01*
X01080000Y00969095D01*
X01080000Y00990905D01*
X01076591Y00994313D01*
X01067000Y01017468D01*
X01067000Y01042531D01*
X01076591Y01065687D01*
X01090905Y01080000D01*
X01076591Y01094313D01*
X01067000Y01117468D01*
X01067000Y01142531D01*
X01076591Y01165687D01*
X01080000Y01169095D01*
X01080000Y01550000D01*
X00709095Y01550000D01*
X00696095Y01537000D01*
X00643905Y01537000D01*
X00630905Y01550000D01*
X00540711Y01550000D01*
X00536433Y01545722D01*
X00552987Y01538865D01*
X00569865Y01521987D01*
X00579000Y01499935D01*
X00579000Y01416065D01*
X00569865Y01394013D01*
X00569000Y01393147D01*
X00569000Y01266853D01*
X00569865Y01265987D01*
X00576488Y01250000D01*
X00630905Y01250000D01*
X00643905Y01263000D01*
X00696095Y01263000D01*
X00733000Y01226095D01*
X00733000Y01173905D01*
X00720000Y01160905D01*
X00720000Y01140711D01*
X00780711Y01080000D01*
X00790905Y01080000D01*
X00791213Y01080308D01*
X00788958Y01081946D01*
X00781946Y01088958D01*
X00776117Y01096981D01*
X00771616Y01105816D01*
X00768551Y01115247D01*
X00767000Y01125042D01*
X00767000Y01129999D01*
X00829999Y01129999D01*
X00829999Y01130000D01*
X00767000Y01130000D01*
X00767000Y01134958D01*
X00768551Y01144752D01*
X00771616Y01154184D01*
X00776117Y01163019D01*
X00781946Y01171042D01*
X00788958Y01178054D01*
X00796981Y01183882D01*
X00805816Y01188384D01*
X00815247Y01191449D01*
X00825042Y01193000D01*
X00829999Y01193000D01*
X00829999Y01130001D01*
X00830000Y01130001D01*
X00830000Y01193000D01*
X00834958Y01193000D01*
X00844752Y01191449D01*
X00854184Y01188384D01*
X00863019Y01183882D01*
X00871042Y01178054D01*
X00878054Y01171042D01*
X00883882Y01163019D01*
X00888384Y01154184D01*
X00891449Y01144752D01*
X00893000Y01134958D01*
X00893000Y01130000D01*
X00830001Y01130000D01*
X00830001Y01129999D01*
X00893000Y01129999D01*
X00893000Y01125042D01*
X00891449Y01115247D01*
X00888384Y01105816D01*
X00883882Y01096981D01*
X00878054Y01088958D01*
X00871042Y01081946D01*
X00868787Y01080308D01*
X00883409Y01065687D01*
X00893000Y01042531D01*
X00893000Y01017468D01*
X00883409Y00994313D01*
X00869095Y00980000D01*
X00883409Y00965687D01*
X00893000Y00942531D01*
X00893000Y00917468D01*
X00883409Y00894313D01*
X00869095Y00880000D01*
X00883409Y00865687D01*
X00893000Y00842531D01*
X00893000Y00817468D01*
X00883409Y00794313D01*
X00865687Y00776591D01*
X00842531Y00767000D01*
X00817468Y00767000D01*
X00794313Y00776591D01*
X00790905Y00780000D01*
X00570054Y00780000D01*
X00551677Y00787612D01*
X00401677Y00937612D01*
X00401677Y00937612D01*
X00393000Y00946289D01*
X00393000Y00903905D01*
X00356095Y00867000D01*
X00303905Y00867000D01*
X00290905Y00880000D01*
X00240000Y00880000D01*
X00240000Y00664752D01*
X00246800Y00657952D01*
X00257000Y00633327D01*
X00257000Y00606673D01*
X00246800Y00582047D01*
X00234752Y00570000D01*
X00240481Y00564271D01*
X00245828Y00557303D01*
X00250219Y00549697D01*
X00253580Y00541583D01*
X00255853Y00533099D01*
X00257000Y00524391D01*
X00257000Y00520000D01*
X00190001Y00520000D01*
X00190001Y00519999D01*
X00257000Y00519999D01*
X00257000Y00515609D01*
X00255853Y00506901D01*
X00253580Y00498417D01*
X00250219Y00490303D01*
X00245828Y00482697D01*
X00240481Y00475729D01*
X00234271Y00469519D01*
X00227303Y00464172D01*
X00219697Y00459781D01*
X00211583Y00456420D01*
X00203099Y00454146D01*
X00194391Y00453000D01*
X00190000Y00453000D01*
X00190000Y00519999D01*
X00189999Y00519999D01*
X00189999Y00453000D01*
X00185609Y00453000D01*
X00176901Y00454146D01*
X00168417Y00456420D01*
X00160303Y00459781D01*
X00152697Y00464172D01*
X00145729Y00469519D01*
X00139519Y00475729D01*
X00134172Y00482697D01*
X00129781Y00490303D01*
X00126420Y00498417D01*
X00124146Y00506901D01*
X00123000Y00515609D01*
X00123000Y00519999D01*
X00189999Y00519999D01*
X00189999Y00520000D01*
X00123000Y00520000D01*
X00123000Y00524391D01*
X00124146Y00533099D01*
X00126420Y00541583D01*
X00129781Y00549697D01*
X00134172Y00557303D01*
X00139519Y00564271D01*
X00145248Y00570000D01*
X00133200Y00582047D01*
X00123000Y00606673D01*
X00123000Y00633327D01*
X00133200Y00657952D01*
X00140000Y00664752D01*
X00140000Y00890905D01*
X00116095Y00867000D01*
X00090000Y00867000D01*
X00090000Y00929999D01*
X00089999Y00929999D01*
X00089999Y00867000D01*
X00063905Y00867000D01*
X00030000Y00900905D01*
X00030000Y00879968D02*
X00050937Y00879968D01*
X00089999Y00879968D02*
X00090000Y00879968D01*
X00129063Y00879968D02*
X00140000Y00879968D01*
X00140000Y00839969D02*
X00030000Y00839969D01*
X00030000Y00799970D02*
X00140000Y00799970D01*
X00140000Y00759972D02*
X00030000Y00759972D01*
X00030000Y00719973D02*
X00140000Y00719973D01*
X00140000Y00679975D02*
X00030000Y00679975D01*
X00030000Y00639976D02*
X00125754Y00639976D01*
X00125773Y00599978D02*
X00030000Y00599978D01*
X00030000Y00559979D02*
X00136226Y00559979D01*
X00123000Y00519981D02*
X00030000Y00519981D01*
X00030000Y00479982D02*
X00136255Y00479982D01*
X00189999Y00479982D02*
X00190000Y00479982D01*
X00189999Y00519981D02*
X00190000Y00519981D01*
X00243745Y00479982D02*
X01390000Y00479982D01*
X01390000Y00439984D02*
X00030000Y00439984D01*
X00030000Y00399985D02*
X01390000Y00399985D01*
X01386000Y00359987D02*
X00030000Y00359987D01*
X00030000Y00319988D02*
X01413644Y00319988D01*
X01440000Y00370000D02*
X01440000Y01030000D01*
X01130000Y01030000D01*
X01130000Y00930000D01*
X01169128Y00879968D02*
X01390000Y00879968D01*
X01390000Y00919966D02*
X01193000Y00919966D01*
X01185779Y00959965D02*
X01390000Y00959965D01*
X01490000Y00959965D02*
X01927008Y00959965D01*
X01927008Y00999963D02*
X01499058Y00999963D01*
X01503000Y01039962D02*
X01927008Y01039962D01*
X01927008Y01079960D02*
X01479135Y01079960D01*
X01490000Y00919966D02*
X01927008Y00919966D01*
X01927008Y00879968D02*
X01490000Y00879968D01*
X01490000Y00839969D02*
X01927008Y00839969D01*
X01927008Y00799970D02*
X01490000Y00799970D01*
X01490000Y00759972D02*
X01927008Y00759972D01*
X01927008Y00719973D02*
X01490000Y00719973D01*
X01490000Y00679975D02*
X01927008Y00679975D01*
X01927008Y00639976D02*
X01490000Y00639976D01*
X01490000Y00599978D02*
X01927008Y00599978D01*
X01927008Y00559979D02*
X01490000Y00559979D01*
X01490000Y00519981D02*
X01927008Y00519981D01*
X01927008Y00479982D02*
X01490000Y00479982D01*
X01490000Y00439984D02*
X01927008Y00439984D01*
X01927008Y00399985D02*
X01490000Y00399985D01*
X01494000Y00359987D02*
X01927008Y00359987D01*
X01927008Y00319988D02*
X01466356Y00319988D01*
X01462367Y00224000D02*
X01440000Y00224000D01*
X01440000Y00170001D01*
X01439999Y00170001D01*
X01439999Y00224000D01*
X01417633Y00224000D01*
X01386000Y00192367D01*
X01386000Y00170000D01*
X01439999Y00170000D01*
X01439999Y00169999D01*
X01386000Y00169999D01*
X01386000Y00147633D01*
X01417633Y00116000D01*
X01439999Y00116000D01*
X01439999Y00169999D01*
X01440000Y00169999D01*
X01440000Y00116000D01*
X01462367Y00116000D01*
X01494000Y00147633D01*
X01494000Y00169999D01*
X01440001Y00169999D01*
X01440001Y00170000D01*
X01494000Y00170000D01*
X01494000Y00192367D01*
X01462367Y00224000D01*
X01440000Y00199993D02*
X01439999Y00199993D01*
X01440000Y00170000D02*
X00880000Y00170000D01*
X00880000Y00650000D01*
X00910000Y00680000D01*
X00910000Y01120000D01*
X00900000Y01130000D01*
X00830000Y01130000D01*
X00829999Y01159957D02*
X00830000Y01159957D01*
X00774557Y01159957D02*
X00720000Y01159957D01*
X00733000Y01199956D02*
X01080000Y01199956D01*
X01080000Y01239954D02*
X00719141Y01239954D01*
X00670000Y01200000D02*
X00521000Y01200000D01*
X00519000Y01202000D01*
X00519000Y01458000D01*
X00579000Y01439947D02*
X01080000Y01439947D01*
X01080000Y01479945D02*
X00579000Y01479945D01*
X00570712Y01519944D02*
X01080000Y01519944D01*
X01130000Y01590000D02*
X01120000Y01600000D01*
X00670000Y01600000D01*
X00520000Y01600000D01*
X00430000Y01510000D01*
X00430000Y00980000D01*
X00580000Y00830000D01*
X00830000Y00830000D01*
X00885752Y00799970D02*
X01074248Y00799970D01*
X01080000Y00759972D02*
X00240000Y00759972D01*
X00240000Y00719973D02*
X01079263Y00719973D01*
X01033608Y00679975D02*
X00926392Y00679975D01*
X00934000Y00672367D02*
X00902367Y00704000D01*
X00880000Y00704000D01*
X00880000Y00650001D01*
X00879999Y00650001D01*
X00879999Y00704000D01*
X00857633Y00704000D01*
X00826000Y00672367D01*
X00826000Y00650000D01*
X00879999Y00650000D01*
X00879999Y00649999D01*
X00880000Y00649999D01*
X00880000Y00596000D01*
X00902367Y00596000D01*
X00934000Y00627633D01*
X00934000Y00649999D01*
X00880001Y00649999D01*
X00880001Y00650000D01*
X00934000Y00650000D01*
X00934000Y00672367D01*
X00934000Y00639976D02*
X01026000Y00639976D01*
X01053655Y00599978D02*
X00906345Y00599978D01*
X00880000Y00599978D02*
X00879999Y00599978D01*
X00879999Y00596000D02*
X00879999Y00649999D01*
X00826000Y00649999D01*
X00826000Y00627633D01*
X00857633Y00596000D01*
X00879999Y00596000D01*
X00853655Y00599978D02*
X00254227Y00599978D01*
X00254246Y00639976D02*
X00826000Y00639976D01*
X00833608Y00679975D02*
X00240000Y00679975D01*
X00190000Y00620000D02*
X00190000Y00930000D01*
X00330000Y00930000D01*
X00369063Y00879968D02*
X00459322Y00879968D01*
X00419323Y00919966D02*
X00393000Y00919966D01*
X00380000Y00999963D02*
X00030000Y00999963D01*
X00030000Y00959965D02*
X00030869Y00959965D01*
X00089999Y00959965D02*
X00090000Y00959965D01*
X00090000Y00930000D02*
X00090000Y00460000D01*
X00380000Y00170000D01*
X00880000Y00170000D01*
X01106345Y00599978D02*
X01390000Y00599978D01*
X01390000Y00639976D02*
X01140687Y00639976D01*
X01175825Y00679975D02*
X01390000Y00679975D01*
X01390000Y00719973D02*
X01180000Y00719973D01*
X01180000Y00759972D02*
X01390000Y00759972D01*
X01390000Y00799970D02*
X01185752Y00799970D01*
X01193000Y00839969D02*
X01390000Y00839969D01*
X01130000Y00830000D02*
X01130000Y00700000D01*
X01080000Y00650000D01*
X00880000Y00639976D02*
X00879999Y00639976D01*
X00879999Y00679975D02*
X00880000Y00679975D01*
X00893000Y00839969D02*
X01067000Y00839969D01*
X01090872Y00879968D02*
X00869128Y00879968D01*
X00893000Y00919966D02*
X01067000Y00919966D01*
X01074221Y00959965D02*
X00885779Y00959965D01*
X00885749Y00999963D02*
X01074251Y00999963D01*
X01067000Y01039962D02*
X00893000Y01039962D01*
X00869135Y01079960D02*
X01090865Y01079960D01*
X01067000Y01119959D02*
X00892195Y01119959D01*
X00885443Y01159957D02*
X01074218Y01159957D01*
X01130000Y01130000D02*
X01130000Y01590000D01*
X01130000Y01790000D01*
X01128425Y01790000D01*
X01130000Y01790000D02*
X01130000Y01830000D01*
X01270000Y01830000D01*
X01440000Y01660000D01*
X01440000Y01430000D01*
X01390000Y01479945D02*
X01180000Y01479945D01*
X01180000Y01439947D02*
X01377000Y01439947D01*
X01380956Y01399948D02*
X01180000Y01399948D01*
X01180000Y01359950D02*
X01927008Y01359950D01*
X01927008Y01399948D02*
X01499044Y01399948D01*
X01503000Y01439947D02*
X01927008Y01439947D01*
X01927008Y01479945D02*
X01490000Y01479945D01*
X01490000Y01519944D02*
X01927008Y01519944D01*
X01927008Y01559942D02*
X01490000Y01559942D01*
X01490000Y01599941D02*
X01927008Y01599941D01*
X01927008Y01639939D02*
X01490000Y01639939D01*
X01485861Y01679938D02*
X01927008Y01679938D01*
X01927008Y01719937D02*
X01450774Y01719937D01*
X01410775Y01759935D02*
X01927008Y01759935D01*
X01907821Y01794684D02*
X01920000Y01824087D01*
X01920000Y01855913D01*
X01907821Y01885316D01*
X01885316Y01907821D01*
X01855913Y01920000D01*
X01824087Y01920000D01*
X01794684Y01907821D01*
X01772179Y01885316D01*
X01760000Y01855913D01*
X01760000Y01824087D01*
X01772179Y01794684D01*
X01794684Y01772179D01*
X01824087Y01760000D01*
X01855913Y01760000D01*
X01885316Y01772179D01*
X01907821Y01794684D01*
X01909995Y01799934D02*
X01927008Y01799934D01*
X01927008Y01839932D02*
X01920000Y01839932D01*
X01927008Y01879931D02*
X01910052Y01879931D01*
X01927008Y01919929D02*
X01856084Y01919929D01*
X01823916Y01919929D02*
X00030000Y01919929D01*
X00030000Y01879931D02*
X00066794Y01879931D01*
X00062179Y01875316D02*
X00050000Y01845913D01*
X00050000Y01814087D01*
X00062179Y01784684D01*
X00084684Y01762179D01*
X00114087Y01750000D01*
X00145913Y01750000D01*
X00175316Y01762179D01*
X00197821Y01784684D01*
X00210000Y01814087D01*
X00210000Y01845913D01*
X00197821Y01875316D01*
X00175316Y01897821D01*
X00145913Y01910000D01*
X00114087Y01910000D01*
X00084684Y01897821D01*
X00062179Y01875316D01*
X00050000Y01839932D02*
X00030000Y01839932D01*
X00030000Y01799934D02*
X00055862Y01799934D01*
X00030000Y01759935D02*
X00090102Y01759935D01*
X00030000Y01719937D02*
X01080000Y01719937D01*
X01080000Y01679938D02*
X00030000Y01679938D01*
X00030000Y01639939D02*
X00489229Y01639939D01*
X00449230Y01599941D02*
X00030000Y01599941D01*
X00030000Y01559942D02*
X00409232Y01559942D01*
X00341000Y01519944D02*
X00340999Y01519944D01*
X00340999Y01479945D02*
X00341000Y01479945D01*
X00341000Y01458000D02*
X00230000Y01458000D01*
X00230000Y01650000D01*
X00370000Y01790000D01*
X00931575Y01790000D01*
X00931576Y01790000D02*
X01001575Y01790000D01*
X01001575Y01794588D01*
X01000377Y01803686D01*
X00998002Y01812549D01*
X00994491Y01821027D01*
X00989902Y01828973D01*
X00984316Y01836253D01*
X00977828Y01842742D01*
X00970548Y01848328D01*
X00962601Y01852916D01*
X00954124Y01856427D01*
X00945260Y01858802D01*
X00936163Y01860000D01*
X00931575Y01860000D01*
X00931575Y01790001D01*
X00931574Y01790001D01*
X00931574Y01860000D01*
X00926987Y01860000D01*
X00917889Y01858802D01*
X00909026Y01856427D01*
X00900548Y01852916D01*
X00892601Y01848328D01*
X00885321Y01842742D01*
X00878833Y01836253D01*
X00873247Y01828973D01*
X00868659Y01821027D01*
X00865148Y01812549D01*
X00862773Y01803686D01*
X00861575Y01794588D01*
X00861575Y01790000D01*
X00931573Y01790000D01*
X00931573Y01789999D01*
X00861575Y01789999D01*
X00861575Y01785412D01*
X00862773Y01776314D01*
X00865148Y01767451D01*
X00868659Y01758973D01*
X00873247Y01751027D01*
X00878833Y01743747D01*
X00885321Y01737258D01*
X00892601Y01731672D01*
X00900548Y01727084D01*
X00909026Y01723573D01*
X00917889Y01721198D01*
X00926987Y01720000D01*
X00931574Y01720000D01*
X00931574Y01789999D01*
X00931575Y01789999D01*
X00931575Y01720000D01*
X00936163Y01720000D01*
X00945260Y01721198D01*
X00954124Y01723573D01*
X00962601Y01727084D01*
X00970548Y01731672D01*
X00977828Y01737258D01*
X00984316Y01743747D01*
X00989902Y01751027D01*
X00994491Y01758973D01*
X00998002Y01767451D01*
X01000377Y01776314D01*
X01001575Y01785412D01*
X01001575Y01789999D01*
X00931576Y01789999D01*
X00931576Y01790000D01*
X00931574Y01799934D02*
X00931575Y01799934D01*
X00931574Y01839932D02*
X00931575Y01839932D01*
X00882512Y01839932D02*
X00210000Y01839932D01*
X00204137Y01799934D02*
X00862279Y01799934D01*
X00868261Y01759935D02*
X00169898Y01759935D01*
X00193206Y01879931D02*
X01119887Y01879931D01*
X01060067Y01839932D02*
X00980638Y01839932D01*
X01000871Y01799934D02*
X01058425Y01799934D01*
X01058425Y01759935D02*
X00994889Y01759935D01*
X00931575Y01759935D02*
X00931574Y01759935D01*
X01180000Y01719937D02*
X01309353Y01719937D01*
X01269354Y01759935D02*
X01198425Y01759935D01*
X01180000Y01679938D02*
X01349351Y01679938D01*
X01389350Y01639939D02*
X01180000Y01639939D01*
X01180000Y01599941D02*
X01390000Y01599941D01*
X01390000Y01559942D02*
X01180000Y01559942D01*
X01180000Y01519944D02*
X01390000Y01519944D01*
X01180000Y01319951D02*
X01927008Y01319951D01*
X01927008Y01279953D02*
X01180000Y01279953D01*
X01180000Y01239954D02*
X01927008Y01239954D01*
X01927008Y01199956D02*
X01180000Y01199956D01*
X01185782Y01159957D02*
X01927008Y01159957D01*
X01927008Y01119959D02*
X01193000Y01119959D01*
X01080000Y01279953D02*
X00569000Y01279953D01*
X00569000Y01319951D02*
X01080000Y01319951D01*
X01080000Y01359950D02*
X00569000Y01359950D01*
X00572324Y01399948D02*
X01080000Y01399948D01*
X00767805Y01119959D02*
X00740752Y01119959D01*
X00670000Y01120000D02*
X00670000Y01200000D01*
X00670000Y01120000D02*
X00760000Y01030000D01*
X00830000Y01030000D01*
X00830000Y00930000D02*
X00730000Y00930000D01*
X00539319Y00799970D02*
X00240000Y00799970D01*
X00240000Y00839969D02*
X00499320Y00839969D01*
X00380000Y01039962D02*
X00030000Y01039962D01*
X00030000Y01079960D02*
X00380000Y01079960D01*
X00380000Y01119959D02*
X00371024Y01119959D01*
X00341000Y01119959D02*
X00340999Y01119959D01*
X00310975Y01119959D02*
X00030000Y01119959D01*
X00030000Y01159957D02*
X00282159Y01159957D01*
X00281000Y01199956D02*
X00030000Y01199956D01*
X00030000Y01239954D02*
X00281512Y01239954D01*
X00304923Y01279953D02*
X00030000Y01279953D01*
X00030000Y01319951D02*
X00380000Y01319951D01*
X00380000Y01279953D02*
X00377077Y01279953D01*
X00341000Y01279953D02*
X00340999Y01279953D01*
X00340999Y01239954D02*
X00341000Y01239954D01*
X00341000Y01202000D02*
X00341000Y01458000D01*
X00340999Y01439947D02*
X00341000Y01439947D01*
X00340999Y01399948D02*
X00341000Y01399948D01*
X00380000Y01359950D02*
X00030000Y01359950D01*
X00030000Y01399948D02*
X00287953Y01399948D01*
X00281000Y01439947D02*
X00030000Y01439947D01*
X00030000Y01479945D02*
X00281000Y01479945D01*
X00290045Y01519944D02*
X00030000Y01519944D01*
X00138000Y01458000D02*
X00090000Y01410000D01*
X00090000Y00930000D01*
X00089999Y00919966D02*
X00090000Y00919966D01*
X00240000Y00879968D02*
X00290937Y00879968D01*
X00340999Y01159957D02*
X00341000Y01159957D01*
X00340999Y01199956D02*
X00341000Y01199956D01*
X00230000Y01458000D02*
X00138000Y01458000D01*
X00243774Y00559979D02*
X01390000Y00559979D01*
X01390000Y00519981D02*
X00257000Y00519981D01*
X00030000Y00279990D02*
X01927008Y00279990D01*
X01927008Y00239991D02*
X00030000Y00239991D01*
X00030000Y00199993D02*
X00089927Y00199993D01*
X00084684Y00197821D02*
X00062179Y00175316D01*
X00050000Y00145913D01*
X00050000Y00114087D01*
X00062179Y00084684D01*
X00084684Y00062179D01*
X00114087Y00050000D01*
X00145913Y00050000D01*
X00175316Y00062179D01*
X00197821Y00084684D01*
X00210000Y00114087D01*
X00210000Y00145913D01*
X00197821Y00175316D01*
X00175316Y00197821D01*
X00145913Y00210000D01*
X00114087Y00210000D01*
X00084684Y00197821D01*
X00055833Y00159994D02*
X00030000Y00159994D01*
X00030000Y00119996D02*
X00050000Y00119996D01*
X00066866Y00079997D02*
X00030000Y00079997D01*
X00030000Y00039999D02*
X01927008Y00039999D01*
X01927008Y00079997D02*
X01893134Y00079997D01*
X01897821Y00084684D02*
X01910000Y00114087D01*
X01910000Y00145913D01*
X01897821Y00175316D01*
X01875316Y00197821D01*
X01845913Y00210000D01*
X01814087Y00210000D01*
X01784684Y00197821D01*
X01762179Y00175316D01*
X01750000Y00145913D01*
X01750000Y00114087D01*
X01762179Y00084684D01*
X01784684Y00062179D01*
X01814087Y00050000D01*
X01845913Y00050000D01*
X01875316Y00062179D01*
X01897821Y00084684D01*
X01910000Y00119996D02*
X01927008Y00119996D01*
X01927008Y00159994D02*
X01904167Y00159994D01*
X01927008Y00199993D02*
X01870073Y00199993D01*
X01789927Y00199993D02*
X01486375Y00199993D01*
X01494000Y00159994D02*
X01755833Y00159994D01*
X01750000Y00119996D02*
X01466363Y00119996D01*
X01440000Y00119996D02*
X01439999Y00119996D01*
X01413637Y00119996D02*
X00210000Y00119996D01*
X00204167Y00159994D02*
X01386000Y00159994D01*
X01393625Y00199993D02*
X00170073Y00199993D01*
X00193134Y00079997D02*
X01766866Y00079997D01*
X01440000Y00159994D02*
X01439999Y00159994D01*
X01370777Y01799934D02*
X01770005Y01799934D01*
X01760000Y01839932D02*
X01330778Y01839932D01*
X01280113Y01879931D02*
X01769948Y01879931D01*
M02*
