G75*
%MOIN*%
%OFA0B0*%
%FSLAX25Y25*%
%IPPOS*%
%LPD*%
%AMOC8*
5,1,8,0,0,1.08239X$1,22.5*
%
%ADD10C,0.00000*%
D10*
X0003000Y0003000D02*
X0003000Y0198961D01*
X0198701Y0198961D01*
X0198701Y0003000D01*
X0003000Y0003000D01*
X0011000Y0016000D02*
X0011002Y0016141D01*
X0011008Y0016282D01*
X0011018Y0016422D01*
X0011032Y0016562D01*
X0011050Y0016702D01*
X0011071Y0016841D01*
X0011097Y0016980D01*
X0011126Y0017118D01*
X0011160Y0017254D01*
X0011197Y0017390D01*
X0011238Y0017525D01*
X0011283Y0017659D01*
X0011332Y0017791D01*
X0011384Y0017922D01*
X0011440Y0018051D01*
X0011500Y0018178D01*
X0011563Y0018304D01*
X0011629Y0018428D01*
X0011700Y0018551D01*
X0011773Y0018671D01*
X0011850Y0018789D01*
X0011930Y0018905D01*
X0012014Y0019018D01*
X0012100Y0019129D01*
X0012190Y0019238D01*
X0012283Y0019344D01*
X0012378Y0019447D01*
X0012477Y0019548D01*
X0012578Y0019646D01*
X0012682Y0019741D01*
X0012789Y0019833D01*
X0012898Y0019922D01*
X0013010Y0020007D01*
X0013124Y0020090D01*
X0013240Y0020170D01*
X0013359Y0020246D01*
X0013480Y0020318D01*
X0013602Y0020388D01*
X0013727Y0020453D01*
X0013853Y0020516D01*
X0013981Y0020574D01*
X0014111Y0020629D01*
X0014242Y0020681D01*
X0014375Y0020728D01*
X0014509Y0020772D01*
X0014644Y0020813D01*
X0014780Y0020849D01*
X0014917Y0020881D01*
X0015055Y0020910D01*
X0015193Y0020935D01*
X0015333Y0020955D01*
X0015473Y0020972D01*
X0015613Y0020985D01*
X0015754Y0020994D01*
X0015894Y0020999D01*
X0016035Y0021000D01*
X0016176Y0020997D01*
X0016317Y0020990D01*
X0016457Y0020979D01*
X0016597Y0020964D01*
X0016737Y0020945D01*
X0016876Y0020923D01*
X0017014Y0020896D01*
X0017152Y0020866D01*
X0017288Y0020831D01*
X0017424Y0020793D01*
X0017558Y0020751D01*
X0017692Y0020705D01*
X0017824Y0020656D01*
X0017954Y0020602D01*
X0018083Y0020545D01*
X0018210Y0020485D01*
X0018336Y0020421D01*
X0018459Y0020353D01*
X0018581Y0020282D01*
X0018701Y0020208D01*
X0018818Y0020130D01*
X0018933Y0020049D01*
X0019046Y0019965D01*
X0019157Y0019878D01*
X0019265Y0019787D01*
X0019370Y0019694D01*
X0019473Y0019597D01*
X0019573Y0019498D01*
X0019670Y0019396D01*
X0019764Y0019291D01*
X0019855Y0019184D01*
X0019943Y0019074D01*
X0020028Y0018962D01*
X0020110Y0018847D01*
X0020189Y0018730D01*
X0020264Y0018611D01*
X0020336Y0018490D01*
X0020404Y0018367D01*
X0020469Y0018242D01*
X0020531Y0018115D01*
X0020588Y0017986D01*
X0020643Y0017856D01*
X0020693Y0017725D01*
X0020740Y0017592D01*
X0020783Y0017458D01*
X0020822Y0017322D01*
X0020857Y0017186D01*
X0020889Y0017049D01*
X0020916Y0016911D01*
X0020940Y0016772D01*
X0020960Y0016632D01*
X0020976Y0016492D01*
X0020988Y0016352D01*
X0020996Y0016211D01*
X0021000Y0016070D01*
X0021000Y0015930D01*
X0020996Y0015789D01*
X0020988Y0015648D01*
X0020976Y0015508D01*
X0020960Y0015368D01*
X0020940Y0015228D01*
X0020916Y0015089D01*
X0020889Y0014951D01*
X0020857Y0014814D01*
X0020822Y0014678D01*
X0020783Y0014542D01*
X0020740Y0014408D01*
X0020693Y0014275D01*
X0020643Y0014144D01*
X0020588Y0014014D01*
X0020531Y0013885D01*
X0020469Y0013758D01*
X0020404Y0013633D01*
X0020336Y0013510D01*
X0020264Y0013389D01*
X0020189Y0013270D01*
X0020110Y0013153D01*
X0020028Y0013038D01*
X0019943Y0012926D01*
X0019855Y0012816D01*
X0019764Y0012709D01*
X0019670Y0012604D01*
X0019573Y0012502D01*
X0019473Y0012403D01*
X0019370Y0012306D01*
X0019265Y0012213D01*
X0019157Y0012122D01*
X0019046Y0012035D01*
X0018933Y0011951D01*
X0018818Y0011870D01*
X0018701Y0011792D01*
X0018581Y0011718D01*
X0018459Y0011647D01*
X0018336Y0011579D01*
X0018210Y0011515D01*
X0018083Y0011455D01*
X0017954Y0011398D01*
X0017824Y0011344D01*
X0017692Y0011295D01*
X0017558Y0011249D01*
X0017424Y0011207D01*
X0017288Y0011169D01*
X0017152Y0011134D01*
X0017014Y0011104D01*
X0016876Y0011077D01*
X0016737Y0011055D01*
X0016597Y0011036D01*
X0016457Y0011021D01*
X0016317Y0011010D01*
X0016176Y0011003D01*
X0016035Y0011000D01*
X0015894Y0011001D01*
X0015754Y0011006D01*
X0015613Y0011015D01*
X0015473Y0011028D01*
X0015333Y0011045D01*
X0015193Y0011065D01*
X0015055Y0011090D01*
X0014917Y0011119D01*
X0014780Y0011151D01*
X0014644Y0011187D01*
X0014509Y0011228D01*
X0014375Y0011272D01*
X0014242Y0011319D01*
X0014111Y0011371D01*
X0013981Y0011426D01*
X0013853Y0011484D01*
X0013727Y0011547D01*
X0013602Y0011612D01*
X0013480Y0011682D01*
X0013359Y0011754D01*
X0013240Y0011830D01*
X0013124Y0011910D01*
X0013010Y0011993D01*
X0012898Y0012078D01*
X0012789Y0012167D01*
X0012682Y0012259D01*
X0012578Y0012354D01*
X0012477Y0012452D01*
X0012378Y0012553D01*
X0012283Y0012656D01*
X0012190Y0012762D01*
X0012100Y0012871D01*
X0012014Y0012982D01*
X0011930Y0013095D01*
X0011850Y0013211D01*
X0011773Y0013329D01*
X0011700Y0013449D01*
X0011629Y0013572D01*
X0011563Y0013696D01*
X0011500Y0013822D01*
X0011440Y0013949D01*
X0011384Y0014078D01*
X0011332Y0014209D01*
X0011283Y0014341D01*
X0011238Y0014475D01*
X0011197Y0014610D01*
X0011160Y0014746D01*
X0011126Y0014882D01*
X0011097Y0015020D01*
X0011071Y0015159D01*
X0011050Y0015298D01*
X0011032Y0015438D01*
X0011018Y0015578D01*
X0011008Y0015718D01*
X0011002Y0015859D01*
X0011000Y0016000D01*
X0011000Y0186000D02*
X0011002Y0186141D01*
X0011008Y0186282D01*
X0011018Y0186422D01*
X0011032Y0186562D01*
X0011050Y0186702D01*
X0011071Y0186841D01*
X0011097Y0186980D01*
X0011126Y0187118D01*
X0011160Y0187254D01*
X0011197Y0187390D01*
X0011238Y0187525D01*
X0011283Y0187659D01*
X0011332Y0187791D01*
X0011384Y0187922D01*
X0011440Y0188051D01*
X0011500Y0188178D01*
X0011563Y0188304D01*
X0011629Y0188428D01*
X0011700Y0188551D01*
X0011773Y0188671D01*
X0011850Y0188789D01*
X0011930Y0188905D01*
X0012014Y0189018D01*
X0012100Y0189129D01*
X0012190Y0189238D01*
X0012283Y0189344D01*
X0012378Y0189447D01*
X0012477Y0189548D01*
X0012578Y0189646D01*
X0012682Y0189741D01*
X0012789Y0189833D01*
X0012898Y0189922D01*
X0013010Y0190007D01*
X0013124Y0190090D01*
X0013240Y0190170D01*
X0013359Y0190246D01*
X0013480Y0190318D01*
X0013602Y0190388D01*
X0013727Y0190453D01*
X0013853Y0190516D01*
X0013981Y0190574D01*
X0014111Y0190629D01*
X0014242Y0190681D01*
X0014375Y0190728D01*
X0014509Y0190772D01*
X0014644Y0190813D01*
X0014780Y0190849D01*
X0014917Y0190881D01*
X0015055Y0190910D01*
X0015193Y0190935D01*
X0015333Y0190955D01*
X0015473Y0190972D01*
X0015613Y0190985D01*
X0015754Y0190994D01*
X0015894Y0190999D01*
X0016035Y0191000D01*
X0016176Y0190997D01*
X0016317Y0190990D01*
X0016457Y0190979D01*
X0016597Y0190964D01*
X0016737Y0190945D01*
X0016876Y0190923D01*
X0017014Y0190896D01*
X0017152Y0190866D01*
X0017288Y0190831D01*
X0017424Y0190793D01*
X0017558Y0190751D01*
X0017692Y0190705D01*
X0017824Y0190656D01*
X0017954Y0190602D01*
X0018083Y0190545D01*
X0018210Y0190485D01*
X0018336Y0190421D01*
X0018459Y0190353D01*
X0018581Y0190282D01*
X0018701Y0190208D01*
X0018818Y0190130D01*
X0018933Y0190049D01*
X0019046Y0189965D01*
X0019157Y0189878D01*
X0019265Y0189787D01*
X0019370Y0189694D01*
X0019473Y0189597D01*
X0019573Y0189498D01*
X0019670Y0189396D01*
X0019764Y0189291D01*
X0019855Y0189184D01*
X0019943Y0189074D01*
X0020028Y0188962D01*
X0020110Y0188847D01*
X0020189Y0188730D01*
X0020264Y0188611D01*
X0020336Y0188490D01*
X0020404Y0188367D01*
X0020469Y0188242D01*
X0020531Y0188115D01*
X0020588Y0187986D01*
X0020643Y0187856D01*
X0020693Y0187725D01*
X0020740Y0187592D01*
X0020783Y0187458D01*
X0020822Y0187322D01*
X0020857Y0187186D01*
X0020889Y0187049D01*
X0020916Y0186911D01*
X0020940Y0186772D01*
X0020960Y0186632D01*
X0020976Y0186492D01*
X0020988Y0186352D01*
X0020996Y0186211D01*
X0021000Y0186070D01*
X0021000Y0185930D01*
X0020996Y0185789D01*
X0020988Y0185648D01*
X0020976Y0185508D01*
X0020960Y0185368D01*
X0020940Y0185228D01*
X0020916Y0185089D01*
X0020889Y0184951D01*
X0020857Y0184814D01*
X0020822Y0184678D01*
X0020783Y0184542D01*
X0020740Y0184408D01*
X0020693Y0184275D01*
X0020643Y0184144D01*
X0020588Y0184014D01*
X0020531Y0183885D01*
X0020469Y0183758D01*
X0020404Y0183633D01*
X0020336Y0183510D01*
X0020264Y0183389D01*
X0020189Y0183270D01*
X0020110Y0183153D01*
X0020028Y0183038D01*
X0019943Y0182926D01*
X0019855Y0182816D01*
X0019764Y0182709D01*
X0019670Y0182604D01*
X0019573Y0182502D01*
X0019473Y0182403D01*
X0019370Y0182306D01*
X0019265Y0182213D01*
X0019157Y0182122D01*
X0019046Y0182035D01*
X0018933Y0181951D01*
X0018818Y0181870D01*
X0018701Y0181792D01*
X0018581Y0181718D01*
X0018459Y0181647D01*
X0018336Y0181579D01*
X0018210Y0181515D01*
X0018083Y0181455D01*
X0017954Y0181398D01*
X0017824Y0181344D01*
X0017692Y0181295D01*
X0017558Y0181249D01*
X0017424Y0181207D01*
X0017288Y0181169D01*
X0017152Y0181134D01*
X0017014Y0181104D01*
X0016876Y0181077D01*
X0016737Y0181055D01*
X0016597Y0181036D01*
X0016457Y0181021D01*
X0016317Y0181010D01*
X0016176Y0181003D01*
X0016035Y0181000D01*
X0015894Y0181001D01*
X0015754Y0181006D01*
X0015613Y0181015D01*
X0015473Y0181028D01*
X0015333Y0181045D01*
X0015193Y0181065D01*
X0015055Y0181090D01*
X0014917Y0181119D01*
X0014780Y0181151D01*
X0014644Y0181187D01*
X0014509Y0181228D01*
X0014375Y0181272D01*
X0014242Y0181319D01*
X0014111Y0181371D01*
X0013981Y0181426D01*
X0013853Y0181484D01*
X0013727Y0181547D01*
X0013602Y0181612D01*
X0013480Y0181682D01*
X0013359Y0181754D01*
X0013240Y0181830D01*
X0013124Y0181910D01*
X0013010Y0181993D01*
X0012898Y0182078D01*
X0012789Y0182167D01*
X0012682Y0182259D01*
X0012578Y0182354D01*
X0012477Y0182452D01*
X0012378Y0182553D01*
X0012283Y0182656D01*
X0012190Y0182762D01*
X0012100Y0182871D01*
X0012014Y0182982D01*
X0011930Y0183095D01*
X0011850Y0183211D01*
X0011773Y0183329D01*
X0011700Y0183449D01*
X0011629Y0183572D01*
X0011563Y0183696D01*
X0011500Y0183822D01*
X0011440Y0183949D01*
X0011384Y0184078D01*
X0011332Y0184209D01*
X0011283Y0184341D01*
X0011238Y0184475D01*
X0011197Y0184610D01*
X0011160Y0184746D01*
X0011126Y0184882D01*
X0011097Y0185020D01*
X0011071Y0185159D01*
X0011050Y0185298D01*
X0011032Y0185438D01*
X0011018Y0185578D01*
X0011008Y0185718D01*
X0011002Y0185859D01*
X0011000Y0186000D01*
X0182000Y0187000D02*
X0182002Y0187141D01*
X0182008Y0187282D01*
X0182018Y0187422D01*
X0182032Y0187562D01*
X0182050Y0187702D01*
X0182071Y0187841D01*
X0182097Y0187980D01*
X0182126Y0188118D01*
X0182160Y0188254D01*
X0182197Y0188390D01*
X0182238Y0188525D01*
X0182283Y0188659D01*
X0182332Y0188791D01*
X0182384Y0188922D01*
X0182440Y0189051D01*
X0182500Y0189178D01*
X0182563Y0189304D01*
X0182629Y0189428D01*
X0182700Y0189551D01*
X0182773Y0189671D01*
X0182850Y0189789D01*
X0182930Y0189905D01*
X0183014Y0190018D01*
X0183100Y0190129D01*
X0183190Y0190238D01*
X0183283Y0190344D01*
X0183378Y0190447D01*
X0183477Y0190548D01*
X0183578Y0190646D01*
X0183682Y0190741D01*
X0183789Y0190833D01*
X0183898Y0190922D01*
X0184010Y0191007D01*
X0184124Y0191090D01*
X0184240Y0191170D01*
X0184359Y0191246D01*
X0184480Y0191318D01*
X0184602Y0191388D01*
X0184727Y0191453D01*
X0184853Y0191516D01*
X0184981Y0191574D01*
X0185111Y0191629D01*
X0185242Y0191681D01*
X0185375Y0191728D01*
X0185509Y0191772D01*
X0185644Y0191813D01*
X0185780Y0191849D01*
X0185917Y0191881D01*
X0186055Y0191910D01*
X0186193Y0191935D01*
X0186333Y0191955D01*
X0186473Y0191972D01*
X0186613Y0191985D01*
X0186754Y0191994D01*
X0186894Y0191999D01*
X0187035Y0192000D01*
X0187176Y0191997D01*
X0187317Y0191990D01*
X0187457Y0191979D01*
X0187597Y0191964D01*
X0187737Y0191945D01*
X0187876Y0191923D01*
X0188014Y0191896D01*
X0188152Y0191866D01*
X0188288Y0191831D01*
X0188424Y0191793D01*
X0188558Y0191751D01*
X0188692Y0191705D01*
X0188824Y0191656D01*
X0188954Y0191602D01*
X0189083Y0191545D01*
X0189210Y0191485D01*
X0189336Y0191421D01*
X0189459Y0191353D01*
X0189581Y0191282D01*
X0189701Y0191208D01*
X0189818Y0191130D01*
X0189933Y0191049D01*
X0190046Y0190965D01*
X0190157Y0190878D01*
X0190265Y0190787D01*
X0190370Y0190694D01*
X0190473Y0190597D01*
X0190573Y0190498D01*
X0190670Y0190396D01*
X0190764Y0190291D01*
X0190855Y0190184D01*
X0190943Y0190074D01*
X0191028Y0189962D01*
X0191110Y0189847D01*
X0191189Y0189730D01*
X0191264Y0189611D01*
X0191336Y0189490D01*
X0191404Y0189367D01*
X0191469Y0189242D01*
X0191531Y0189115D01*
X0191588Y0188986D01*
X0191643Y0188856D01*
X0191693Y0188725D01*
X0191740Y0188592D01*
X0191783Y0188458D01*
X0191822Y0188322D01*
X0191857Y0188186D01*
X0191889Y0188049D01*
X0191916Y0187911D01*
X0191940Y0187772D01*
X0191960Y0187632D01*
X0191976Y0187492D01*
X0191988Y0187352D01*
X0191996Y0187211D01*
X0192000Y0187070D01*
X0192000Y0186930D01*
X0191996Y0186789D01*
X0191988Y0186648D01*
X0191976Y0186508D01*
X0191960Y0186368D01*
X0191940Y0186228D01*
X0191916Y0186089D01*
X0191889Y0185951D01*
X0191857Y0185814D01*
X0191822Y0185678D01*
X0191783Y0185542D01*
X0191740Y0185408D01*
X0191693Y0185275D01*
X0191643Y0185144D01*
X0191588Y0185014D01*
X0191531Y0184885D01*
X0191469Y0184758D01*
X0191404Y0184633D01*
X0191336Y0184510D01*
X0191264Y0184389D01*
X0191189Y0184270D01*
X0191110Y0184153D01*
X0191028Y0184038D01*
X0190943Y0183926D01*
X0190855Y0183816D01*
X0190764Y0183709D01*
X0190670Y0183604D01*
X0190573Y0183502D01*
X0190473Y0183403D01*
X0190370Y0183306D01*
X0190265Y0183213D01*
X0190157Y0183122D01*
X0190046Y0183035D01*
X0189933Y0182951D01*
X0189818Y0182870D01*
X0189701Y0182792D01*
X0189581Y0182718D01*
X0189459Y0182647D01*
X0189336Y0182579D01*
X0189210Y0182515D01*
X0189083Y0182455D01*
X0188954Y0182398D01*
X0188824Y0182344D01*
X0188692Y0182295D01*
X0188558Y0182249D01*
X0188424Y0182207D01*
X0188288Y0182169D01*
X0188152Y0182134D01*
X0188014Y0182104D01*
X0187876Y0182077D01*
X0187737Y0182055D01*
X0187597Y0182036D01*
X0187457Y0182021D01*
X0187317Y0182010D01*
X0187176Y0182003D01*
X0187035Y0182000D01*
X0186894Y0182001D01*
X0186754Y0182006D01*
X0186613Y0182015D01*
X0186473Y0182028D01*
X0186333Y0182045D01*
X0186193Y0182065D01*
X0186055Y0182090D01*
X0185917Y0182119D01*
X0185780Y0182151D01*
X0185644Y0182187D01*
X0185509Y0182228D01*
X0185375Y0182272D01*
X0185242Y0182319D01*
X0185111Y0182371D01*
X0184981Y0182426D01*
X0184853Y0182484D01*
X0184727Y0182547D01*
X0184602Y0182612D01*
X0184480Y0182682D01*
X0184359Y0182754D01*
X0184240Y0182830D01*
X0184124Y0182910D01*
X0184010Y0182993D01*
X0183898Y0183078D01*
X0183789Y0183167D01*
X0183682Y0183259D01*
X0183578Y0183354D01*
X0183477Y0183452D01*
X0183378Y0183553D01*
X0183283Y0183656D01*
X0183190Y0183762D01*
X0183100Y0183871D01*
X0183014Y0183982D01*
X0182930Y0184095D01*
X0182850Y0184211D01*
X0182773Y0184329D01*
X0182700Y0184449D01*
X0182629Y0184572D01*
X0182563Y0184696D01*
X0182500Y0184822D01*
X0182440Y0184949D01*
X0182384Y0185078D01*
X0182332Y0185209D01*
X0182283Y0185341D01*
X0182238Y0185475D01*
X0182197Y0185610D01*
X0182160Y0185746D01*
X0182126Y0185882D01*
X0182097Y0186020D01*
X0182071Y0186159D01*
X0182050Y0186298D01*
X0182032Y0186438D01*
X0182018Y0186578D01*
X0182008Y0186718D01*
X0182002Y0186859D01*
X0182000Y0187000D01*
X0181000Y0016000D02*
X0181002Y0016141D01*
X0181008Y0016282D01*
X0181018Y0016422D01*
X0181032Y0016562D01*
X0181050Y0016702D01*
X0181071Y0016841D01*
X0181097Y0016980D01*
X0181126Y0017118D01*
X0181160Y0017254D01*
X0181197Y0017390D01*
X0181238Y0017525D01*
X0181283Y0017659D01*
X0181332Y0017791D01*
X0181384Y0017922D01*
X0181440Y0018051D01*
X0181500Y0018178D01*
X0181563Y0018304D01*
X0181629Y0018428D01*
X0181700Y0018551D01*
X0181773Y0018671D01*
X0181850Y0018789D01*
X0181930Y0018905D01*
X0182014Y0019018D01*
X0182100Y0019129D01*
X0182190Y0019238D01*
X0182283Y0019344D01*
X0182378Y0019447D01*
X0182477Y0019548D01*
X0182578Y0019646D01*
X0182682Y0019741D01*
X0182789Y0019833D01*
X0182898Y0019922D01*
X0183010Y0020007D01*
X0183124Y0020090D01*
X0183240Y0020170D01*
X0183359Y0020246D01*
X0183480Y0020318D01*
X0183602Y0020388D01*
X0183727Y0020453D01*
X0183853Y0020516D01*
X0183981Y0020574D01*
X0184111Y0020629D01*
X0184242Y0020681D01*
X0184375Y0020728D01*
X0184509Y0020772D01*
X0184644Y0020813D01*
X0184780Y0020849D01*
X0184917Y0020881D01*
X0185055Y0020910D01*
X0185193Y0020935D01*
X0185333Y0020955D01*
X0185473Y0020972D01*
X0185613Y0020985D01*
X0185754Y0020994D01*
X0185894Y0020999D01*
X0186035Y0021000D01*
X0186176Y0020997D01*
X0186317Y0020990D01*
X0186457Y0020979D01*
X0186597Y0020964D01*
X0186737Y0020945D01*
X0186876Y0020923D01*
X0187014Y0020896D01*
X0187152Y0020866D01*
X0187288Y0020831D01*
X0187424Y0020793D01*
X0187558Y0020751D01*
X0187692Y0020705D01*
X0187824Y0020656D01*
X0187954Y0020602D01*
X0188083Y0020545D01*
X0188210Y0020485D01*
X0188336Y0020421D01*
X0188459Y0020353D01*
X0188581Y0020282D01*
X0188701Y0020208D01*
X0188818Y0020130D01*
X0188933Y0020049D01*
X0189046Y0019965D01*
X0189157Y0019878D01*
X0189265Y0019787D01*
X0189370Y0019694D01*
X0189473Y0019597D01*
X0189573Y0019498D01*
X0189670Y0019396D01*
X0189764Y0019291D01*
X0189855Y0019184D01*
X0189943Y0019074D01*
X0190028Y0018962D01*
X0190110Y0018847D01*
X0190189Y0018730D01*
X0190264Y0018611D01*
X0190336Y0018490D01*
X0190404Y0018367D01*
X0190469Y0018242D01*
X0190531Y0018115D01*
X0190588Y0017986D01*
X0190643Y0017856D01*
X0190693Y0017725D01*
X0190740Y0017592D01*
X0190783Y0017458D01*
X0190822Y0017322D01*
X0190857Y0017186D01*
X0190889Y0017049D01*
X0190916Y0016911D01*
X0190940Y0016772D01*
X0190960Y0016632D01*
X0190976Y0016492D01*
X0190988Y0016352D01*
X0190996Y0016211D01*
X0191000Y0016070D01*
X0191000Y0015930D01*
X0190996Y0015789D01*
X0190988Y0015648D01*
X0190976Y0015508D01*
X0190960Y0015368D01*
X0190940Y0015228D01*
X0190916Y0015089D01*
X0190889Y0014951D01*
X0190857Y0014814D01*
X0190822Y0014678D01*
X0190783Y0014542D01*
X0190740Y0014408D01*
X0190693Y0014275D01*
X0190643Y0014144D01*
X0190588Y0014014D01*
X0190531Y0013885D01*
X0190469Y0013758D01*
X0190404Y0013633D01*
X0190336Y0013510D01*
X0190264Y0013389D01*
X0190189Y0013270D01*
X0190110Y0013153D01*
X0190028Y0013038D01*
X0189943Y0012926D01*
X0189855Y0012816D01*
X0189764Y0012709D01*
X0189670Y0012604D01*
X0189573Y0012502D01*
X0189473Y0012403D01*
X0189370Y0012306D01*
X0189265Y0012213D01*
X0189157Y0012122D01*
X0189046Y0012035D01*
X0188933Y0011951D01*
X0188818Y0011870D01*
X0188701Y0011792D01*
X0188581Y0011718D01*
X0188459Y0011647D01*
X0188336Y0011579D01*
X0188210Y0011515D01*
X0188083Y0011455D01*
X0187954Y0011398D01*
X0187824Y0011344D01*
X0187692Y0011295D01*
X0187558Y0011249D01*
X0187424Y0011207D01*
X0187288Y0011169D01*
X0187152Y0011134D01*
X0187014Y0011104D01*
X0186876Y0011077D01*
X0186737Y0011055D01*
X0186597Y0011036D01*
X0186457Y0011021D01*
X0186317Y0011010D01*
X0186176Y0011003D01*
X0186035Y0011000D01*
X0185894Y0011001D01*
X0185754Y0011006D01*
X0185613Y0011015D01*
X0185473Y0011028D01*
X0185333Y0011045D01*
X0185193Y0011065D01*
X0185055Y0011090D01*
X0184917Y0011119D01*
X0184780Y0011151D01*
X0184644Y0011187D01*
X0184509Y0011228D01*
X0184375Y0011272D01*
X0184242Y0011319D01*
X0184111Y0011371D01*
X0183981Y0011426D01*
X0183853Y0011484D01*
X0183727Y0011547D01*
X0183602Y0011612D01*
X0183480Y0011682D01*
X0183359Y0011754D01*
X0183240Y0011830D01*
X0183124Y0011910D01*
X0183010Y0011993D01*
X0182898Y0012078D01*
X0182789Y0012167D01*
X0182682Y0012259D01*
X0182578Y0012354D01*
X0182477Y0012452D01*
X0182378Y0012553D01*
X0182283Y0012656D01*
X0182190Y0012762D01*
X0182100Y0012871D01*
X0182014Y0012982D01*
X0181930Y0013095D01*
X0181850Y0013211D01*
X0181773Y0013329D01*
X0181700Y0013449D01*
X0181629Y0013572D01*
X0181563Y0013696D01*
X0181500Y0013822D01*
X0181440Y0013949D01*
X0181384Y0014078D01*
X0181332Y0014209D01*
X0181283Y0014341D01*
X0181238Y0014475D01*
X0181197Y0014610D01*
X0181160Y0014746D01*
X0181126Y0014882D01*
X0181097Y0015020D01*
X0181071Y0015159D01*
X0181050Y0015298D01*
X0181032Y0015438D01*
X0181018Y0015578D01*
X0181008Y0015718D01*
X0181002Y0015859D01*
X0181000Y0016000D01*
M02*
