%
M48
M72
T01C0.03200
T02C0.04000
%
T01
X91000Y79685
X86000Y97685
X86000Y107685
X76000Y107685
X86000Y117685
X86000Y127685
X70000Y134685
X36000Y107685
X22000Y107685
X12000Y107685
X70000Y174685
X116000Y127685
X116000Y117685
X116000Y107685
X116000Y97685
X111000Y79685
X147000Y51685
X147000Y31685
X147000Y117685
X147000Y157685
T02
X106000Y197685
X96000Y197685
X54900Y160485
X37100Y160485
X37100Y134885
X54900Y134885
M30
