G75*
%MOIN*%
%OFA0B0*%
%FSLAX25Y25*%
%IPPOS*%
%LPD*%
%AMOC8*
5,1,8,0,0,1.08239X$1,22.5*
%
%ADD10C,0.00000*%
%ADD11C,0.00700*%
%ADD12C,0.00400*%
%ADD13C,0.00600*%
%ADD14C,0.00060*%
%ADD15C,0.01200*%
%ADD16C,0.00500*%
%ADD17C,0.00800*%
%ADD18C,0.00100*%
%ADD19R,0.02400X0.03400*%
%ADD20R,0.03400X0.02400*%
D10*
X0003000Y0014685D02*
X0003000Y0210646D01*
X0198701Y0210646D01*
X0198701Y0014685D01*
X0003000Y0014685D01*
D11*
X0008350Y0021035D02*
X0008350Y0028942D01*
X0013621Y0028942D01*
X0016269Y0026307D02*
X0016269Y0021035D01*
X0016269Y0023671D02*
X0018904Y0026307D01*
X0020222Y0026307D01*
X0022868Y0026307D02*
X0024186Y0026307D01*
X0024186Y0021035D01*
X0025503Y0021035D02*
X0022868Y0021035D01*
X0029465Y0022353D02*
X0029465Y0027624D01*
X0030782Y0026307D02*
X0028147Y0026307D01*
X0029465Y0022353D02*
X0030782Y0021035D01*
X0033426Y0021035D02*
X0038697Y0021035D01*
X0041345Y0022353D02*
X0041345Y0024989D01*
X0042663Y0026307D01*
X0045298Y0026307D01*
X0046616Y0024989D01*
X0046616Y0023671D01*
X0041345Y0023671D01*
X0041345Y0022353D02*
X0042663Y0021035D01*
X0045298Y0021035D01*
X0049264Y0021035D02*
X0049264Y0026307D01*
X0053217Y0026307D01*
X0054535Y0024989D01*
X0054535Y0021035D01*
X0057182Y0021035D02*
X0062454Y0021035D01*
X0065101Y0022353D02*
X0066419Y0023671D01*
X0070372Y0023671D01*
X0070372Y0024989D02*
X0070372Y0021035D01*
X0066419Y0021035D01*
X0065101Y0022353D01*
X0066419Y0026307D02*
X0069054Y0026307D01*
X0070372Y0024989D01*
X0073020Y0026307D02*
X0076973Y0026307D01*
X0078291Y0024989D01*
X0078291Y0022353D01*
X0076973Y0021035D01*
X0073020Y0021035D01*
X0073020Y0028942D01*
X0080939Y0022353D02*
X0080939Y0021035D01*
X0082256Y0021035D01*
X0082256Y0022353D01*
X0080939Y0022353D01*
X0084898Y0022353D02*
X0086216Y0021035D01*
X0090169Y0021035D01*
X0092817Y0022353D02*
X0094135Y0021035D01*
X0096770Y0021035D01*
X0098088Y0022353D01*
X0098088Y0024989D01*
X0096770Y0026307D01*
X0094135Y0026307D01*
X0092817Y0024989D01*
X0092817Y0022353D01*
X0090169Y0026307D02*
X0086216Y0026307D01*
X0084898Y0024989D01*
X0084898Y0022353D01*
X0100736Y0021035D02*
X0100736Y0026307D01*
X0102053Y0026307D01*
X0103371Y0024989D01*
X0104689Y0026307D01*
X0106007Y0024989D01*
X0106007Y0021035D01*
X0103371Y0021035D02*
X0103371Y0024989D01*
X0108654Y0022353D02*
X0108654Y0021035D01*
X0109972Y0021035D01*
X0109972Y0022353D01*
X0108654Y0022353D01*
X0112614Y0021035D02*
X0116567Y0021035D01*
X0117885Y0022353D01*
X0117885Y0024989D01*
X0116567Y0026307D01*
X0112614Y0026307D01*
X0112614Y0028942D02*
X0112614Y0021035D01*
X0120532Y0021035D02*
X0120532Y0026307D01*
X0120532Y0023671D02*
X0123168Y0026307D01*
X0124486Y0026307D01*
X0161025Y0032257D02*
X0162343Y0032257D01*
X0164979Y0032257D02*
X0164979Y0030939D01*
X0164979Y0032257D02*
X0170250Y0032257D01*
X0170250Y0030939D02*
X0170250Y0033575D01*
X0170250Y0028296D02*
X0168932Y0026978D01*
X0163661Y0026978D01*
X0164979Y0025660D02*
X0164979Y0028296D01*
X0162343Y0021699D02*
X0170250Y0021699D01*
X0170250Y0023016D02*
X0170250Y0020381D01*
X0170250Y0017733D02*
X0164979Y0017733D01*
X0162343Y0020381D02*
X0162343Y0021699D01*
X0170250Y0017733D02*
X0170250Y0013780D01*
X0168932Y0012462D01*
X0164979Y0012462D01*
X0162343Y0009815D02*
X0170250Y0009815D01*
X0170250Y0004543D02*
X0162343Y0004543D01*
X0164979Y0007179D01*
X0162343Y0009815D01*
X0164979Y0036218D02*
X0170250Y0038854D01*
X0164979Y0041490D01*
X0164979Y0044137D02*
X0164979Y0045455D01*
X0170250Y0045455D01*
X0170250Y0044137D02*
X0170250Y0046773D01*
X0170250Y0049416D02*
X0170250Y0053370D01*
X0168932Y0054688D01*
X0166297Y0054688D01*
X0164979Y0053370D01*
X0164979Y0049416D01*
X0162343Y0049416D02*
X0170250Y0049416D01*
X0170250Y0057335D02*
X0164979Y0057335D01*
X0167614Y0057335D02*
X0164979Y0059971D01*
X0164979Y0061288D01*
X0164979Y0065252D02*
X0164979Y0067887D01*
X0166297Y0069205D01*
X0170250Y0069205D01*
X0170250Y0065252D01*
X0168932Y0063934D01*
X0167614Y0065252D01*
X0167614Y0069205D01*
X0166297Y0071853D02*
X0164979Y0073171D01*
X0164979Y0077124D01*
X0162343Y0077124D02*
X0170250Y0077124D01*
X0170250Y0073171D01*
X0168932Y0071853D01*
X0166297Y0071853D01*
X0166297Y0079772D02*
X0164979Y0081089D01*
X0164979Y0083725D01*
X0166297Y0085043D01*
X0168932Y0085043D01*
X0170250Y0083725D01*
X0170250Y0081089D01*
X0168932Y0079772D01*
X0166297Y0079772D01*
X0167614Y0087690D02*
X0164979Y0090326D01*
X0164979Y0091644D01*
X0164979Y0087690D02*
X0170250Y0087690D01*
X0170250Y0102208D02*
X0162343Y0102208D01*
X0164979Y0104844D01*
X0162343Y0107479D01*
X0170250Y0107479D01*
X0168932Y0110127D02*
X0170250Y0111445D01*
X0170250Y0114080D01*
X0168932Y0115398D01*
X0166297Y0115398D01*
X0164979Y0114080D01*
X0164979Y0111445D01*
X0166297Y0110127D01*
X0168932Y0110127D01*
X0170250Y0118046D02*
X0164979Y0118046D01*
X0164979Y0121999D01*
X0166297Y0123317D01*
X0170250Y0123317D01*
X0168932Y0125964D02*
X0170250Y0127282D01*
X0170250Y0129918D01*
X0168932Y0131236D01*
X0166297Y0131236D01*
X0164979Y0129918D01*
X0164979Y0127282D01*
X0166297Y0125964D01*
X0168932Y0125964D01*
X0168932Y0133883D02*
X0166297Y0133883D01*
X0164979Y0135201D01*
X0164979Y0137837D01*
X0166297Y0139154D01*
X0167614Y0139154D01*
X0167614Y0133883D01*
X0168932Y0133883D02*
X0170250Y0135201D01*
X0170250Y0137837D01*
X0170250Y0141802D02*
X0170250Y0145755D01*
X0168932Y0147073D01*
X0167614Y0145755D01*
X0167614Y0143120D01*
X0166297Y0141802D01*
X0164979Y0143120D01*
X0164979Y0147073D01*
X0164979Y0149721D02*
X0164979Y0152356D01*
X0163661Y0151038D02*
X0168932Y0151038D01*
X0170250Y0152356D01*
X0168932Y0155000D02*
X0167614Y0156318D01*
X0167614Y0160271D01*
X0166297Y0160271D02*
X0170250Y0160271D01*
X0170250Y0156318D01*
X0168932Y0155000D01*
X0164979Y0156318D02*
X0164979Y0158953D01*
X0166297Y0160271D01*
X0164979Y0162919D02*
X0170250Y0165554D01*
X0164979Y0168190D01*
X0166297Y0170837D02*
X0164979Y0172155D01*
X0164979Y0174791D01*
X0166297Y0176109D01*
X0167614Y0176109D01*
X0167614Y0170837D01*
X0166297Y0170837D02*
X0168932Y0170837D01*
X0170250Y0172155D01*
X0170250Y0174791D01*
X0170250Y0178756D02*
X0170250Y0181392D01*
X0170250Y0180074D02*
X0162343Y0180074D01*
X0162343Y0178756D01*
X0162343Y0045455D02*
X0161025Y0045455D01*
X0057182Y0028942D02*
X0057182Y0021035D01*
X0038697Y0026307D02*
X0033426Y0021035D01*
X0033426Y0026307D02*
X0038697Y0026307D01*
X0024186Y0028942D02*
X0024186Y0030260D01*
X0010986Y0024989D02*
X0008350Y0024989D01*
D12*
X0097967Y0178885D02*
X0097200Y0179653D01*
X0097967Y0178885D02*
X0099502Y0178885D01*
X0100269Y0179653D01*
X0100269Y0181187D01*
X0099502Y0181955D01*
X0098735Y0181955D01*
X0097200Y0181187D01*
X0097200Y0183489D01*
X0100269Y0183489D01*
X0101804Y0183489D02*
X0101804Y0180420D01*
X0103339Y0178885D01*
X0104873Y0180420D01*
X0104873Y0183489D01*
X0099635Y0198187D02*
X0096566Y0198187D01*
X0090427Y0198187D02*
X0089660Y0198955D01*
X0088125Y0198955D01*
X0087358Y0198187D01*
X0087358Y0196653D01*
X0088125Y0195885D01*
X0089660Y0195885D01*
X0090427Y0196653D01*
X0090427Y0198187D01*
X0085824Y0198955D02*
X0084289Y0195885D01*
X0082754Y0198955D01*
X0080452Y0198955D02*
X0080452Y0195885D01*
X0079685Y0195885D02*
X0081220Y0195885D01*
X0078150Y0195885D02*
X0077383Y0196653D01*
X0077383Y0199722D01*
X0076616Y0198955D02*
X0078150Y0198955D01*
X0079685Y0198955D02*
X0080452Y0198955D01*
X0080452Y0200489D02*
X0080452Y0201257D01*
X0075081Y0198187D02*
X0075081Y0195885D01*
X0072779Y0195885D01*
X0072012Y0196653D01*
X0072779Y0197420D01*
X0075081Y0197420D01*
X0075081Y0198187D02*
X0074314Y0198955D01*
X0072779Y0198955D01*
X0070477Y0198955D02*
X0070477Y0195118D01*
X0069710Y0194351D01*
X0068942Y0194351D01*
X0068175Y0195885D02*
X0070477Y0195885D01*
X0068175Y0195885D02*
X0067408Y0196653D01*
X0067408Y0198187D01*
X0068175Y0198955D01*
X0070477Y0198955D01*
X0065873Y0198187D02*
X0065873Y0197420D01*
X0062804Y0197420D01*
X0062804Y0196653D02*
X0062804Y0198187D01*
X0063571Y0198955D01*
X0065106Y0198955D01*
X0065873Y0198187D01*
X0065106Y0195885D02*
X0063571Y0195885D01*
X0062804Y0196653D01*
X0061269Y0195885D02*
X0061269Y0200489D01*
X0058200Y0200489D02*
X0058200Y0195885D01*
X0061269Y0195885D02*
X0058200Y0200489D01*
X0112200Y0198187D02*
X0115269Y0198187D01*
X0113735Y0196653D02*
X0113735Y0199722D01*
X0121408Y0200489D02*
X0121408Y0195885D01*
X0121408Y0197420D02*
X0123710Y0197420D01*
X0124477Y0198187D01*
X0124477Y0199722D01*
X0123710Y0200489D01*
X0121408Y0200489D01*
X0126012Y0198187D02*
X0126012Y0196653D01*
X0126779Y0195885D01*
X0128314Y0195885D01*
X0129081Y0196653D01*
X0129081Y0198187D01*
X0128314Y0198955D01*
X0126779Y0198955D01*
X0126012Y0198187D01*
X0130616Y0198187D02*
X0131383Y0198955D01*
X0133685Y0198955D01*
X0135220Y0198955D02*
X0135987Y0198955D01*
X0135987Y0195885D01*
X0135220Y0195885D02*
X0136754Y0195885D01*
X0139056Y0196653D02*
X0139824Y0195885D01*
X0139056Y0196653D02*
X0139056Y0199722D01*
X0138289Y0198955D02*
X0139824Y0198955D01*
X0141358Y0198955D02*
X0142125Y0198955D01*
X0142125Y0195885D01*
X0141358Y0195885D02*
X0142893Y0195885D01*
X0145962Y0195885D02*
X0144427Y0198955D01*
X0142125Y0200489D02*
X0142125Y0201257D01*
X0147497Y0198955D02*
X0145962Y0195885D01*
X0149031Y0196653D02*
X0149799Y0195885D01*
X0151333Y0195885D01*
X0152101Y0196653D01*
X0152101Y0198187D01*
X0151333Y0198955D01*
X0149799Y0198955D01*
X0149031Y0198187D01*
X0149031Y0196653D01*
X0135987Y0200489D02*
X0135987Y0201257D01*
X0132918Y0197420D02*
X0131383Y0197420D01*
X0130616Y0198187D01*
X0130616Y0195885D02*
X0132918Y0195885D01*
X0133685Y0196653D01*
X0132918Y0197420D01*
X0177196Y0177816D02*
X0178731Y0179350D01*
X0180265Y0179350D01*
X0181800Y0177816D01*
X0181800Y0176281D02*
X0181800Y0173979D01*
X0181033Y0173212D01*
X0180265Y0173979D01*
X0180265Y0176281D01*
X0179498Y0176281D02*
X0181800Y0176281D01*
X0179498Y0176281D02*
X0178731Y0175514D01*
X0178731Y0173979D01*
X0178731Y0171677D02*
X0178731Y0169375D01*
X0179498Y0168608D01*
X0181033Y0168608D01*
X0181800Y0169375D01*
X0181800Y0171677D01*
X0182567Y0171677D02*
X0178731Y0171677D01*
X0182567Y0171677D02*
X0183335Y0170910D01*
X0183335Y0170143D01*
X0181800Y0167073D02*
X0181800Y0165539D01*
X0181800Y0166306D02*
X0178731Y0166306D01*
X0178731Y0165539D01*
X0177196Y0166306D02*
X0176429Y0166306D01*
X0177196Y0163237D02*
X0181800Y0163237D01*
X0181800Y0164004D02*
X0181800Y0162469D01*
X0181033Y0160935D02*
X0180265Y0160167D01*
X0180265Y0158633D01*
X0179498Y0157865D01*
X0178731Y0158633D01*
X0178731Y0160935D01*
X0177196Y0162469D02*
X0177196Y0163237D01*
X0181033Y0160935D02*
X0181800Y0160167D01*
X0181800Y0157865D01*
X0180265Y0156331D02*
X0180265Y0153261D01*
X0179498Y0153261D02*
X0181033Y0153261D01*
X0181800Y0154029D01*
X0181800Y0155563D01*
X0180265Y0156331D02*
X0179498Y0156331D01*
X0178731Y0155563D01*
X0178731Y0154029D01*
X0179498Y0153261D01*
X0178731Y0151727D02*
X0178731Y0149425D01*
X0179498Y0148658D01*
X0181033Y0148658D01*
X0181800Y0149425D01*
X0181800Y0151727D01*
X0177196Y0151727D01*
X0181033Y0142519D02*
X0181033Y0141752D01*
X0181800Y0141752D01*
X0181800Y0142519D01*
X0181033Y0142519D01*
X0181800Y0142519D02*
X0183335Y0140984D01*
X0181800Y0138682D02*
X0181033Y0139450D01*
X0179498Y0139450D01*
X0178731Y0138682D01*
X0178731Y0137148D01*
X0179498Y0136380D01*
X0181033Y0136380D01*
X0181800Y0137148D01*
X0181800Y0138682D01*
X0181033Y0134846D02*
X0181800Y0134078D01*
X0181800Y0131777D01*
X0183335Y0131777D02*
X0178731Y0131777D01*
X0178731Y0134078D01*
X0179498Y0134846D01*
X0181033Y0134846D01*
X0181800Y0130242D02*
X0179498Y0130242D01*
X0178731Y0129475D01*
X0179498Y0128707D01*
X0181800Y0128707D01*
X0181800Y0127173D02*
X0178731Y0127173D01*
X0178731Y0127940D01*
X0179498Y0128707D01*
X0179498Y0125638D02*
X0180265Y0125638D01*
X0180265Y0122569D01*
X0179498Y0122569D02*
X0181033Y0122569D01*
X0181800Y0123336D01*
X0181800Y0124871D01*
X0179498Y0125638D02*
X0178731Y0124871D01*
X0178731Y0123336D01*
X0179498Y0122569D01*
X0178731Y0121034D02*
X0178731Y0119499D01*
X0177963Y0120267D02*
X0181033Y0120267D01*
X0181800Y0121034D01*
X0181800Y0113361D02*
X0179498Y0113361D01*
X0178731Y0112593D01*
X0178731Y0111059D01*
X0180265Y0111059D02*
X0180265Y0113361D01*
X0181800Y0113361D02*
X0181800Y0111059D01*
X0181033Y0110292D01*
X0180265Y0111059D01*
X0178731Y0108757D02*
X0178731Y0107222D01*
X0177963Y0107990D02*
X0181033Y0107990D01*
X0181800Y0108757D01*
X0181800Y0105688D02*
X0179498Y0105688D01*
X0178731Y0104920D01*
X0178731Y0102618D01*
X0181800Y0102618D01*
X0181033Y0101084D02*
X0179498Y0101084D01*
X0178731Y0100316D01*
X0178731Y0098782D01*
X0179498Y0098014D01*
X0181033Y0098014D01*
X0181800Y0098782D01*
X0181800Y0100316D01*
X0181033Y0101084D01*
X0181800Y0096480D02*
X0181800Y0094178D01*
X0181033Y0093410D01*
X0179498Y0093410D01*
X0178731Y0094178D01*
X0178731Y0096480D01*
X0181033Y0087272D02*
X0181033Y0086505D01*
X0181800Y0086505D01*
X0181800Y0087272D01*
X0181033Y0087272D01*
X0181800Y0087272D02*
X0183335Y0085737D01*
X0181800Y0084203D02*
X0181800Y0081901D01*
X0181033Y0081133D01*
X0180265Y0081901D01*
X0180265Y0084203D01*
X0179498Y0084203D02*
X0181800Y0084203D01*
X0179498Y0084203D02*
X0178731Y0083435D01*
X0178731Y0081901D01*
X0178731Y0079599D02*
X0178731Y0077297D01*
X0179498Y0076529D01*
X0181033Y0076529D01*
X0181800Y0077297D01*
X0181800Y0079599D01*
X0182567Y0079599D02*
X0178731Y0079599D01*
X0182567Y0079599D02*
X0183335Y0078831D01*
X0183335Y0078064D01*
X0181800Y0074995D02*
X0181800Y0073460D01*
X0181800Y0074227D02*
X0178731Y0074227D01*
X0178731Y0073460D01*
X0177196Y0074227D02*
X0176429Y0074227D01*
X0177196Y0071158D02*
X0181800Y0071158D01*
X0181800Y0070391D02*
X0181800Y0071926D01*
X0181800Y0068856D02*
X0180265Y0067322D01*
X0178731Y0067322D01*
X0177196Y0068856D01*
X0177196Y0070391D02*
X0177196Y0071158D01*
X0178731Y0061183D02*
X0178731Y0060416D01*
X0180265Y0058881D01*
X0178731Y0058881D02*
X0181800Y0058881D01*
X0181033Y0057346D02*
X0179498Y0057346D01*
X0178731Y0056579D01*
X0178731Y0055044D01*
X0179498Y0054277D01*
X0181033Y0054277D01*
X0181800Y0055044D01*
X0181800Y0056579D01*
X0181033Y0057346D01*
X0181800Y0052742D02*
X0177196Y0052742D01*
X0178731Y0052742D02*
X0178731Y0050441D01*
X0179498Y0049673D01*
X0181033Y0049673D01*
X0181800Y0050441D01*
X0181800Y0052742D01*
X0181800Y0048139D02*
X0179498Y0048139D01*
X0178731Y0047371D01*
X0178731Y0045837D01*
X0180265Y0045837D02*
X0180265Y0048139D01*
X0181800Y0048139D02*
X0181800Y0045837D01*
X0181033Y0045069D01*
X0180265Y0045837D01*
X0178731Y0043535D02*
X0181800Y0040465D01*
X0181800Y0043535D01*
X0178731Y0043535D02*
X0178731Y0040465D01*
X0178731Y0038163D02*
X0181800Y0038163D01*
X0181800Y0037396D02*
X0181800Y0038931D01*
X0178731Y0038163D02*
X0178731Y0037396D01*
X0178731Y0035861D02*
X0178731Y0035094D01*
X0180265Y0033559D01*
X0178731Y0033559D02*
X0181800Y0033559D01*
X0181033Y0032025D02*
X0179498Y0032025D01*
X0178731Y0031258D01*
X0178731Y0029723D01*
X0179498Y0028956D01*
X0181033Y0028956D01*
X0181800Y0029723D01*
X0181800Y0031258D01*
X0181033Y0032025D01*
X0181033Y0027421D02*
X0179498Y0027421D01*
X0178731Y0026654D01*
X0178731Y0024352D01*
X0183335Y0024352D01*
X0181800Y0024352D02*
X0181800Y0026654D01*
X0181033Y0027421D01*
X0181800Y0022817D02*
X0179498Y0022817D01*
X0178731Y0022050D01*
X0179498Y0021282D01*
X0181800Y0021282D01*
X0181800Y0019748D02*
X0178731Y0019748D01*
X0178731Y0020515D01*
X0179498Y0021282D01*
X0179498Y0018213D02*
X0180265Y0018213D01*
X0180265Y0015144D01*
X0179498Y0015144D02*
X0181033Y0015144D01*
X0181800Y0015911D01*
X0181800Y0017446D01*
X0179498Y0018213D02*
X0178731Y0017446D01*
X0178731Y0015911D01*
X0179498Y0015144D01*
X0178731Y0013609D02*
X0178731Y0012075D01*
X0177963Y0012842D02*
X0181033Y0012842D01*
X0181800Y0013609D01*
X0180265Y0005936D02*
X0180265Y0002867D01*
X0178731Y0002867D02*
X0178731Y0005936D01*
X0177196Y0038163D02*
X0176429Y0038163D01*
D13*
X0151500Y0035185D02*
X0151500Y0048185D01*
X0147000Y0046685D02*
X0147000Y0042885D01*
X0147000Y0040385D02*
X0147000Y0036685D01*
X0142500Y0035185D02*
X0142500Y0048185D01*
X0107500Y0075185D02*
X0094500Y0075185D01*
X0096000Y0079685D02*
X0099700Y0079685D01*
X0102200Y0079685D02*
X0106000Y0079685D01*
X0107500Y0084185D02*
X0094500Y0084185D01*
X0089500Y0092685D02*
X0112500Y0092685D01*
X0112500Y0132685D01*
X0105000Y0132685D01*
X0104998Y0132559D01*
X0104992Y0132434D01*
X0104982Y0132309D01*
X0104968Y0132184D01*
X0104951Y0132059D01*
X0104929Y0131935D01*
X0104904Y0131812D01*
X0104874Y0131690D01*
X0104841Y0131569D01*
X0104804Y0131449D01*
X0104764Y0131330D01*
X0104719Y0131213D01*
X0104671Y0131096D01*
X0104619Y0130982D01*
X0104564Y0130869D01*
X0104505Y0130758D01*
X0104443Y0130649D01*
X0104377Y0130542D01*
X0104308Y0130437D01*
X0104236Y0130334D01*
X0104161Y0130233D01*
X0104082Y0130135D01*
X0104000Y0130040D01*
X0103916Y0129947D01*
X0103828Y0129857D01*
X0103738Y0129769D01*
X0103645Y0129685D01*
X0103550Y0129603D01*
X0103452Y0129524D01*
X0103351Y0129449D01*
X0103248Y0129377D01*
X0103143Y0129308D01*
X0103036Y0129242D01*
X0102927Y0129180D01*
X0102816Y0129121D01*
X0102703Y0129066D01*
X0102589Y0129014D01*
X0102472Y0128966D01*
X0102355Y0128921D01*
X0102236Y0128881D01*
X0102116Y0128844D01*
X0101995Y0128811D01*
X0101873Y0128781D01*
X0101750Y0128756D01*
X0101626Y0128734D01*
X0101501Y0128717D01*
X0101376Y0128703D01*
X0101251Y0128693D01*
X0101126Y0128687D01*
X0101000Y0128685D01*
X0100874Y0128687D01*
X0100749Y0128693D01*
X0100624Y0128703D01*
X0100499Y0128717D01*
X0100374Y0128734D01*
X0100250Y0128756D01*
X0100127Y0128781D01*
X0100005Y0128811D01*
X0099884Y0128844D01*
X0099764Y0128881D01*
X0099645Y0128921D01*
X0099528Y0128966D01*
X0099411Y0129014D01*
X0099297Y0129066D01*
X0099184Y0129121D01*
X0099073Y0129180D01*
X0098964Y0129242D01*
X0098857Y0129308D01*
X0098752Y0129377D01*
X0098649Y0129449D01*
X0098548Y0129524D01*
X0098450Y0129603D01*
X0098355Y0129685D01*
X0098262Y0129769D01*
X0098172Y0129857D01*
X0098084Y0129947D01*
X0098000Y0130040D01*
X0097918Y0130135D01*
X0097839Y0130233D01*
X0097764Y0130334D01*
X0097692Y0130437D01*
X0097623Y0130542D01*
X0097557Y0130649D01*
X0097495Y0130758D01*
X0097436Y0130869D01*
X0097381Y0130982D01*
X0097329Y0131096D01*
X0097281Y0131213D01*
X0097236Y0131330D01*
X0097196Y0131449D01*
X0097159Y0131569D01*
X0097126Y0131690D01*
X0097096Y0131812D01*
X0097071Y0131935D01*
X0097049Y0132059D01*
X0097032Y0132184D01*
X0097018Y0132309D01*
X0097008Y0132434D01*
X0097002Y0132559D01*
X0097000Y0132685D01*
X0089500Y0132685D01*
X0089500Y0092685D01*
X0080570Y0097188D02*
X0076300Y0097188D01*
X0079503Y0100391D01*
X0079503Y0093985D01*
X0068500Y0104185D02*
X0068500Y0111185D01*
X0068498Y0111245D01*
X0068493Y0111306D01*
X0068484Y0111365D01*
X0068471Y0111424D01*
X0068455Y0111483D01*
X0068435Y0111540D01*
X0068412Y0111595D01*
X0068385Y0111650D01*
X0068356Y0111702D01*
X0068323Y0111753D01*
X0068287Y0111802D01*
X0068249Y0111848D01*
X0068207Y0111892D01*
X0068163Y0111934D01*
X0068117Y0111972D01*
X0068068Y0112008D01*
X0068017Y0112041D01*
X0067965Y0112070D01*
X0067910Y0112097D01*
X0067855Y0112120D01*
X0067798Y0112140D01*
X0067739Y0112156D01*
X0067680Y0112169D01*
X0067621Y0112178D01*
X0067560Y0112183D01*
X0067500Y0112185D01*
X0066000Y0112185D01*
X0065500Y0111685D01*
X0046500Y0111685D01*
X0046000Y0112185D01*
X0044500Y0112185D01*
X0044440Y0112183D01*
X0044379Y0112178D01*
X0044320Y0112169D01*
X0044261Y0112156D01*
X0044202Y0112140D01*
X0044145Y0112120D01*
X0044090Y0112097D01*
X0044035Y0112070D01*
X0043983Y0112041D01*
X0043932Y0112008D01*
X0043883Y0111972D01*
X0043837Y0111934D01*
X0043793Y0111892D01*
X0043751Y0111848D01*
X0043713Y0111802D01*
X0043677Y0111753D01*
X0043644Y0111702D01*
X0043615Y0111650D01*
X0043588Y0111595D01*
X0043565Y0111540D01*
X0043545Y0111483D01*
X0043529Y0111424D01*
X0043516Y0111365D01*
X0043507Y0111306D01*
X0043502Y0111245D01*
X0043500Y0111185D01*
X0043500Y0104185D01*
X0043502Y0104125D01*
X0043507Y0104064D01*
X0043516Y0104005D01*
X0043529Y0103946D01*
X0043545Y0103887D01*
X0043565Y0103830D01*
X0043588Y0103775D01*
X0043615Y0103720D01*
X0043644Y0103668D01*
X0043677Y0103617D01*
X0043713Y0103568D01*
X0043751Y0103522D01*
X0043793Y0103478D01*
X0043837Y0103436D01*
X0043883Y0103398D01*
X0043932Y0103362D01*
X0043983Y0103329D01*
X0044035Y0103300D01*
X0044090Y0103273D01*
X0044145Y0103250D01*
X0044202Y0103230D01*
X0044261Y0103214D01*
X0044320Y0103201D01*
X0044379Y0103192D01*
X0044440Y0103187D01*
X0044500Y0103185D01*
X0046000Y0103185D01*
X0046500Y0103685D01*
X0065500Y0103685D01*
X0066000Y0103185D01*
X0067500Y0103185D01*
X0067560Y0103187D01*
X0067621Y0103192D01*
X0067680Y0103201D01*
X0067739Y0103214D01*
X0067798Y0103230D01*
X0067855Y0103250D01*
X0067910Y0103273D01*
X0067965Y0103300D01*
X0068017Y0103329D01*
X0068068Y0103362D01*
X0068117Y0103398D01*
X0068163Y0103436D01*
X0068207Y0103478D01*
X0068249Y0103522D01*
X0068287Y0103568D01*
X0068323Y0103617D01*
X0068356Y0103668D01*
X0068385Y0103720D01*
X0068412Y0103775D01*
X0068435Y0103830D01*
X0068455Y0103887D01*
X0068471Y0103946D01*
X0068484Y0104005D01*
X0068493Y0104064D01*
X0068498Y0104125D01*
X0068500Y0104185D01*
X0077300Y0124985D02*
X0081570Y0124985D01*
X0079435Y0124985D02*
X0079435Y0131391D01*
X0077300Y0129256D01*
X0073500Y0142185D02*
X0066500Y0142185D01*
X0066440Y0142187D01*
X0066379Y0142192D01*
X0066320Y0142201D01*
X0066261Y0142214D01*
X0066202Y0142230D01*
X0066145Y0142250D01*
X0066090Y0142273D01*
X0066035Y0142300D01*
X0065983Y0142329D01*
X0065932Y0142362D01*
X0065883Y0142398D01*
X0065837Y0142436D01*
X0065793Y0142478D01*
X0065751Y0142522D01*
X0065713Y0142568D01*
X0065677Y0142617D01*
X0065644Y0142668D01*
X0065615Y0142720D01*
X0065588Y0142775D01*
X0065565Y0142830D01*
X0065545Y0142887D01*
X0065529Y0142946D01*
X0065516Y0143005D01*
X0065507Y0143064D01*
X0065502Y0143125D01*
X0065500Y0143185D01*
X0065500Y0144685D01*
X0066000Y0145185D01*
X0066000Y0164185D01*
X0065500Y0164685D01*
X0065500Y0166185D01*
X0065502Y0166245D01*
X0065507Y0166306D01*
X0065516Y0166365D01*
X0065529Y0166424D01*
X0065545Y0166483D01*
X0065565Y0166540D01*
X0065588Y0166595D01*
X0065615Y0166650D01*
X0065644Y0166702D01*
X0065677Y0166753D01*
X0065713Y0166802D01*
X0065751Y0166848D01*
X0065793Y0166892D01*
X0065837Y0166934D01*
X0065883Y0166972D01*
X0065932Y0167008D01*
X0065983Y0167041D01*
X0066035Y0167070D01*
X0066090Y0167097D01*
X0066145Y0167120D01*
X0066202Y0167140D01*
X0066261Y0167156D01*
X0066320Y0167169D01*
X0066379Y0167178D01*
X0066440Y0167183D01*
X0066500Y0167185D01*
X0073500Y0167185D01*
X0073560Y0167183D01*
X0073621Y0167178D01*
X0073680Y0167169D01*
X0073739Y0167156D01*
X0073798Y0167140D01*
X0073855Y0167120D01*
X0073910Y0167097D01*
X0073965Y0167070D01*
X0074017Y0167041D01*
X0074068Y0167008D01*
X0074117Y0166972D01*
X0074163Y0166934D01*
X0074207Y0166892D01*
X0074249Y0166848D01*
X0074287Y0166802D01*
X0074323Y0166753D01*
X0074356Y0166702D01*
X0074385Y0166650D01*
X0074412Y0166595D01*
X0074435Y0166540D01*
X0074455Y0166483D01*
X0074471Y0166424D01*
X0074484Y0166365D01*
X0074493Y0166306D01*
X0074498Y0166245D01*
X0074500Y0166185D01*
X0074500Y0164685D01*
X0074000Y0164185D01*
X0074000Y0145185D01*
X0074500Y0144685D01*
X0074500Y0143185D01*
X0074498Y0143125D01*
X0074493Y0143064D01*
X0074484Y0143005D01*
X0074471Y0142946D01*
X0074455Y0142887D01*
X0074435Y0142830D01*
X0074412Y0142775D01*
X0074385Y0142720D01*
X0074356Y0142668D01*
X0074323Y0142617D01*
X0074287Y0142568D01*
X0074249Y0142522D01*
X0074207Y0142478D01*
X0074163Y0142436D01*
X0074117Y0142398D01*
X0074068Y0142362D01*
X0074017Y0142329D01*
X0073965Y0142300D01*
X0073910Y0142273D01*
X0073855Y0142250D01*
X0073798Y0142230D01*
X0073739Y0142214D01*
X0073680Y0142201D01*
X0073621Y0142192D01*
X0073560Y0142187D01*
X0073500Y0142185D01*
X0121300Y0130323D02*
X0121300Y0129256D01*
X0122368Y0128188D01*
X0124503Y0128188D01*
X0125570Y0127121D01*
X0125570Y0126053D01*
X0124503Y0124985D01*
X0122368Y0124985D01*
X0121300Y0126053D01*
X0121300Y0127121D01*
X0122368Y0128188D01*
X0124503Y0128188D02*
X0125570Y0129256D01*
X0125570Y0130323D01*
X0124503Y0131391D01*
X0122368Y0131391D01*
X0121300Y0130323D01*
X0142500Y0127685D02*
X0143000Y0128185D01*
X0143000Y0147185D01*
X0142500Y0147685D01*
X0142500Y0149185D01*
X0142502Y0149245D01*
X0142507Y0149306D01*
X0142516Y0149365D01*
X0142529Y0149424D01*
X0142545Y0149483D01*
X0142565Y0149540D01*
X0142588Y0149595D01*
X0142615Y0149650D01*
X0142644Y0149702D01*
X0142677Y0149753D01*
X0142713Y0149802D01*
X0142751Y0149848D01*
X0142793Y0149892D01*
X0142837Y0149934D01*
X0142883Y0149972D01*
X0142932Y0150008D01*
X0142983Y0150041D01*
X0143035Y0150070D01*
X0143090Y0150097D01*
X0143145Y0150120D01*
X0143202Y0150140D01*
X0143261Y0150156D01*
X0143320Y0150169D01*
X0143379Y0150178D01*
X0143440Y0150183D01*
X0143500Y0150185D01*
X0150500Y0150185D01*
X0150560Y0150183D01*
X0150621Y0150178D01*
X0150680Y0150169D01*
X0150739Y0150156D01*
X0150798Y0150140D01*
X0150855Y0150120D01*
X0150910Y0150097D01*
X0150965Y0150070D01*
X0151017Y0150041D01*
X0151068Y0150008D01*
X0151117Y0149972D01*
X0151163Y0149934D01*
X0151207Y0149892D01*
X0151249Y0149848D01*
X0151287Y0149802D01*
X0151323Y0149753D01*
X0151356Y0149702D01*
X0151385Y0149650D01*
X0151412Y0149595D01*
X0151435Y0149540D01*
X0151455Y0149483D01*
X0151471Y0149424D01*
X0151484Y0149365D01*
X0151493Y0149306D01*
X0151498Y0149245D01*
X0151500Y0149185D01*
X0151500Y0147685D01*
X0151000Y0147185D01*
X0151000Y0128185D01*
X0151500Y0127685D01*
X0151500Y0126185D01*
X0151498Y0126125D01*
X0151493Y0126064D01*
X0151484Y0126005D01*
X0151471Y0125946D01*
X0151455Y0125887D01*
X0151435Y0125830D01*
X0151412Y0125775D01*
X0151385Y0125720D01*
X0151356Y0125668D01*
X0151323Y0125617D01*
X0151287Y0125568D01*
X0151249Y0125522D01*
X0151207Y0125478D01*
X0151163Y0125436D01*
X0151117Y0125398D01*
X0151068Y0125362D01*
X0151017Y0125329D01*
X0150965Y0125300D01*
X0150910Y0125273D01*
X0150855Y0125250D01*
X0150798Y0125230D01*
X0150739Y0125214D01*
X0150680Y0125201D01*
X0150621Y0125192D01*
X0150560Y0125187D01*
X0150500Y0125185D01*
X0143500Y0125185D01*
X0143440Y0125187D01*
X0143379Y0125192D01*
X0143320Y0125201D01*
X0143261Y0125214D01*
X0143202Y0125230D01*
X0143145Y0125250D01*
X0143090Y0125273D01*
X0143035Y0125300D01*
X0142983Y0125329D01*
X0142932Y0125362D01*
X0142883Y0125398D01*
X0142837Y0125436D01*
X0142793Y0125478D01*
X0142751Y0125522D01*
X0142713Y0125568D01*
X0142677Y0125617D01*
X0142644Y0125668D01*
X0142615Y0125720D01*
X0142588Y0125775D01*
X0142565Y0125830D01*
X0142545Y0125887D01*
X0142529Y0125946D01*
X0142516Y0126005D01*
X0142507Y0126064D01*
X0142502Y0126125D01*
X0142500Y0126185D01*
X0142500Y0127685D01*
X0125570Y0100391D02*
X0121300Y0100391D01*
X0121300Y0097188D01*
X0123435Y0098256D01*
X0124503Y0098256D01*
X0125570Y0097188D01*
X0125570Y0095053D01*
X0124503Y0093985D01*
X0122368Y0093985D01*
X0121300Y0095053D01*
X0007000Y0107685D02*
X0007003Y0107930D01*
X0007012Y0108176D01*
X0007027Y0108421D01*
X0007048Y0108665D01*
X0007075Y0108909D01*
X0007108Y0109152D01*
X0007147Y0109395D01*
X0007192Y0109636D01*
X0007243Y0109876D01*
X0007300Y0110115D01*
X0007362Y0110352D01*
X0007431Y0110588D01*
X0007505Y0110822D01*
X0007585Y0111054D01*
X0007670Y0111284D01*
X0007761Y0111512D01*
X0007858Y0111737D01*
X0007960Y0111961D01*
X0008068Y0112181D01*
X0008181Y0112399D01*
X0008299Y0112614D01*
X0008423Y0112826D01*
X0008551Y0113035D01*
X0008685Y0113241D01*
X0008824Y0113443D01*
X0008968Y0113642D01*
X0009117Y0113837D01*
X0009270Y0114029D01*
X0009428Y0114217D01*
X0009590Y0114401D01*
X0009758Y0114580D01*
X0009929Y0114756D01*
X0010105Y0114927D01*
X0010284Y0115095D01*
X0010468Y0115257D01*
X0010656Y0115415D01*
X0010848Y0115568D01*
X0011043Y0115717D01*
X0011242Y0115861D01*
X0011444Y0116000D01*
X0011650Y0116134D01*
X0011859Y0116262D01*
X0012071Y0116386D01*
X0012286Y0116504D01*
X0012504Y0116617D01*
X0012724Y0116725D01*
X0012948Y0116827D01*
X0013173Y0116924D01*
X0013401Y0117015D01*
X0013631Y0117100D01*
X0013863Y0117180D01*
X0014097Y0117254D01*
X0014333Y0117323D01*
X0014570Y0117385D01*
X0014809Y0117442D01*
X0015049Y0117493D01*
X0015290Y0117538D01*
X0015533Y0117577D01*
X0015776Y0117610D01*
X0016020Y0117637D01*
X0016264Y0117658D01*
X0016509Y0117673D01*
X0016755Y0117682D01*
X0017000Y0117685D01*
X0017245Y0117682D01*
X0017491Y0117673D01*
X0017736Y0117658D01*
X0017980Y0117637D01*
X0018224Y0117610D01*
X0018467Y0117577D01*
X0018710Y0117538D01*
X0018951Y0117493D01*
X0019191Y0117442D01*
X0019430Y0117385D01*
X0019667Y0117323D01*
X0019903Y0117254D01*
X0020137Y0117180D01*
X0020369Y0117100D01*
X0020599Y0117015D01*
X0020827Y0116924D01*
X0021052Y0116827D01*
X0021276Y0116725D01*
X0021496Y0116617D01*
X0021714Y0116504D01*
X0021929Y0116386D01*
X0022141Y0116262D01*
X0022350Y0116134D01*
X0022556Y0116000D01*
X0022758Y0115861D01*
X0022957Y0115717D01*
X0023152Y0115568D01*
X0023344Y0115415D01*
X0023532Y0115257D01*
X0023716Y0115095D01*
X0023895Y0114927D01*
X0024071Y0114756D01*
X0024242Y0114580D01*
X0024410Y0114401D01*
X0024572Y0114217D01*
X0024730Y0114029D01*
X0024883Y0113837D01*
X0025032Y0113642D01*
X0025176Y0113443D01*
X0025315Y0113241D01*
X0025449Y0113035D01*
X0025577Y0112826D01*
X0025701Y0112614D01*
X0025819Y0112399D01*
X0025932Y0112181D01*
X0026040Y0111961D01*
X0026142Y0111737D01*
X0026239Y0111512D01*
X0026330Y0111284D01*
X0026415Y0111054D01*
X0026495Y0110822D01*
X0026569Y0110588D01*
X0026638Y0110352D01*
X0026700Y0110115D01*
X0026757Y0109876D01*
X0026808Y0109636D01*
X0026853Y0109395D01*
X0026892Y0109152D01*
X0026925Y0108909D01*
X0026952Y0108665D01*
X0026973Y0108421D01*
X0026988Y0108176D01*
X0026997Y0107930D01*
X0027000Y0107685D01*
X0026997Y0107440D01*
X0026988Y0107194D01*
X0026973Y0106949D01*
X0026952Y0106705D01*
X0026925Y0106461D01*
X0026892Y0106218D01*
X0026853Y0105975D01*
X0026808Y0105734D01*
X0026757Y0105494D01*
X0026700Y0105255D01*
X0026638Y0105018D01*
X0026569Y0104782D01*
X0026495Y0104548D01*
X0026415Y0104316D01*
X0026330Y0104086D01*
X0026239Y0103858D01*
X0026142Y0103633D01*
X0026040Y0103409D01*
X0025932Y0103189D01*
X0025819Y0102971D01*
X0025701Y0102756D01*
X0025577Y0102544D01*
X0025449Y0102335D01*
X0025315Y0102129D01*
X0025176Y0101927D01*
X0025032Y0101728D01*
X0024883Y0101533D01*
X0024730Y0101341D01*
X0024572Y0101153D01*
X0024410Y0100969D01*
X0024242Y0100790D01*
X0024071Y0100614D01*
X0023895Y0100443D01*
X0023716Y0100275D01*
X0023532Y0100113D01*
X0023344Y0099955D01*
X0023152Y0099802D01*
X0022957Y0099653D01*
X0022758Y0099509D01*
X0022556Y0099370D01*
X0022350Y0099236D01*
X0022141Y0099108D01*
X0021929Y0098984D01*
X0021714Y0098866D01*
X0021496Y0098753D01*
X0021276Y0098645D01*
X0021052Y0098543D01*
X0020827Y0098446D01*
X0020599Y0098355D01*
X0020369Y0098270D01*
X0020137Y0098190D01*
X0019903Y0098116D01*
X0019667Y0098047D01*
X0019430Y0097985D01*
X0019191Y0097928D01*
X0018951Y0097877D01*
X0018710Y0097832D01*
X0018467Y0097793D01*
X0018224Y0097760D01*
X0017980Y0097733D01*
X0017736Y0097712D01*
X0017491Y0097697D01*
X0017245Y0097688D01*
X0017000Y0097685D01*
X0016755Y0097688D01*
X0016509Y0097697D01*
X0016264Y0097712D01*
X0016020Y0097733D01*
X0015776Y0097760D01*
X0015533Y0097793D01*
X0015290Y0097832D01*
X0015049Y0097877D01*
X0014809Y0097928D01*
X0014570Y0097985D01*
X0014333Y0098047D01*
X0014097Y0098116D01*
X0013863Y0098190D01*
X0013631Y0098270D01*
X0013401Y0098355D01*
X0013173Y0098446D01*
X0012948Y0098543D01*
X0012724Y0098645D01*
X0012504Y0098753D01*
X0012286Y0098866D01*
X0012071Y0098984D01*
X0011859Y0099108D01*
X0011650Y0099236D01*
X0011444Y0099370D01*
X0011242Y0099509D01*
X0011043Y0099653D01*
X0010848Y0099802D01*
X0010656Y0099955D01*
X0010468Y0100113D01*
X0010284Y0100275D01*
X0010105Y0100443D01*
X0009929Y0100614D01*
X0009758Y0100790D01*
X0009590Y0100969D01*
X0009428Y0101153D01*
X0009270Y0101341D01*
X0009117Y0101533D01*
X0008968Y0101728D01*
X0008824Y0101927D01*
X0008685Y0102129D01*
X0008551Y0102335D01*
X0008423Y0102544D01*
X0008299Y0102756D01*
X0008181Y0102971D01*
X0008068Y0103189D01*
X0007960Y0103409D01*
X0007858Y0103633D01*
X0007761Y0103858D01*
X0007670Y0104086D01*
X0007585Y0104316D01*
X0007505Y0104548D01*
X0007431Y0104782D01*
X0007362Y0105018D01*
X0007300Y0105255D01*
X0007243Y0105494D01*
X0007192Y0105734D01*
X0007147Y0105975D01*
X0007108Y0106218D01*
X0007075Y0106461D01*
X0007048Y0106705D01*
X0007027Y0106949D01*
X0007012Y0107194D01*
X0007003Y0107440D01*
X0007000Y0107685D01*
D14*
X0094471Y0084454D02*
X0094471Y0083914D01*
X0094470Y0083915D02*
X0094390Y0083911D01*
X0094309Y0083904D01*
X0094230Y0083894D01*
X0094150Y0083879D01*
X0094072Y0083861D01*
X0093994Y0083839D01*
X0093918Y0083814D01*
X0093843Y0083785D01*
X0093769Y0083753D01*
X0093697Y0083717D01*
X0093626Y0083678D01*
X0093558Y0083636D01*
X0093491Y0083591D01*
X0093427Y0083542D01*
X0093365Y0083491D01*
X0093306Y0083436D01*
X0093249Y0083379D01*
X0093194Y0083320D01*
X0093143Y0083258D01*
X0093094Y0083194D01*
X0093049Y0083127D01*
X0093007Y0083059D01*
X0092968Y0082988D01*
X0092932Y0082916D01*
X0092900Y0082842D01*
X0092871Y0082767D01*
X0092846Y0082691D01*
X0092824Y0082613D01*
X0092806Y0082535D01*
X0092791Y0082455D01*
X0092781Y0082376D01*
X0092774Y0082295D01*
X0092770Y0082215D01*
X0092231Y0082214D01*
X0092230Y0082215D01*
X0092233Y0082310D01*
X0092241Y0082404D01*
X0092252Y0082498D01*
X0092267Y0082592D01*
X0092286Y0082685D01*
X0092308Y0082777D01*
X0092335Y0082868D01*
X0092365Y0082957D01*
X0092399Y0083046D01*
X0092437Y0083133D01*
X0092479Y0083218D01*
X0092523Y0083301D01*
X0092572Y0083383D01*
X0092623Y0083462D01*
X0092678Y0083539D01*
X0092736Y0083614D01*
X0092798Y0083687D01*
X0092862Y0083756D01*
X0092929Y0083823D01*
X0092998Y0083887D01*
X0093071Y0083949D01*
X0093146Y0084007D01*
X0093223Y0084062D01*
X0093302Y0084113D01*
X0093384Y0084162D01*
X0093467Y0084206D01*
X0093552Y0084248D01*
X0093639Y0084286D01*
X0093728Y0084320D01*
X0093817Y0084350D01*
X0093908Y0084377D01*
X0094000Y0084399D01*
X0094093Y0084418D01*
X0094187Y0084433D01*
X0094281Y0084444D01*
X0094375Y0084452D01*
X0094470Y0084455D01*
X0094470Y0084399D01*
X0094378Y0084396D01*
X0094286Y0084389D01*
X0094194Y0084378D01*
X0094103Y0084363D01*
X0094012Y0084345D01*
X0093923Y0084322D01*
X0093834Y0084296D01*
X0093746Y0084267D01*
X0093660Y0084234D01*
X0093576Y0084197D01*
X0093492Y0084156D01*
X0093411Y0084113D01*
X0093332Y0084066D01*
X0093254Y0084015D01*
X0093179Y0083962D01*
X0093106Y0083905D01*
X0093035Y0083845D01*
X0092967Y0083783D01*
X0092902Y0083718D01*
X0092840Y0083650D01*
X0092780Y0083579D01*
X0092723Y0083506D01*
X0092670Y0083431D01*
X0092619Y0083353D01*
X0092572Y0083274D01*
X0092529Y0083193D01*
X0092488Y0083109D01*
X0092451Y0083025D01*
X0092418Y0082939D01*
X0092389Y0082851D01*
X0092363Y0082762D01*
X0092340Y0082673D01*
X0092322Y0082582D01*
X0092307Y0082491D01*
X0092296Y0082399D01*
X0092289Y0082307D01*
X0092286Y0082215D01*
X0092342Y0082215D01*
X0092345Y0082307D01*
X0092353Y0082400D01*
X0092364Y0082491D01*
X0092379Y0082583D01*
X0092398Y0082673D01*
X0092421Y0082763D01*
X0092447Y0082851D01*
X0092478Y0082939D01*
X0092512Y0083025D01*
X0092550Y0083109D01*
X0092591Y0083192D01*
X0092636Y0083273D01*
X0092684Y0083352D01*
X0092736Y0083428D01*
X0092791Y0083503D01*
X0092849Y0083575D01*
X0092910Y0083644D01*
X0092974Y0083711D01*
X0093041Y0083775D01*
X0093110Y0083836D01*
X0093182Y0083894D01*
X0093257Y0083949D01*
X0093333Y0084001D01*
X0093412Y0084049D01*
X0093493Y0084094D01*
X0093576Y0084135D01*
X0093660Y0084173D01*
X0093746Y0084207D01*
X0093834Y0084238D01*
X0093922Y0084264D01*
X0094012Y0084287D01*
X0094102Y0084306D01*
X0094194Y0084321D01*
X0094285Y0084332D01*
X0094378Y0084340D01*
X0094470Y0084343D01*
X0094470Y0084287D01*
X0094380Y0084284D01*
X0094290Y0084277D01*
X0094201Y0084266D01*
X0094112Y0084251D01*
X0094024Y0084232D01*
X0093937Y0084210D01*
X0093850Y0084184D01*
X0093765Y0084154D01*
X0093682Y0084121D01*
X0093600Y0084084D01*
X0093519Y0084044D01*
X0093440Y0084000D01*
X0093364Y0083953D01*
X0093289Y0083903D01*
X0093216Y0083850D01*
X0093146Y0083793D01*
X0093079Y0083734D01*
X0093014Y0083671D01*
X0092951Y0083606D01*
X0092892Y0083539D01*
X0092835Y0083469D01*
X0092782Y0083396D01*
X0092732Y0083321D01*
X0092685Y0083245D01*
X0092641Y0083166D01*
X0092601Y0083085D01*
X0092564Y0083003D01*
X0092531Y0082920D01*
X0092501Y0082835D01*
X0092475Y0082748D01*
X0092453Y0082661D01*
X0092434Y0082573D01*
X0092419Y0082484D01*
X0092408Y0082395D01*
X0092401Y0082305D01*
X0092398Y0082215D01*
X0092454Y0082215D01*
X0092457Y0082303D01*
X0092464Y0082390D01*
X0092475Y0082477D01*
X0092489Y0082563D01*
X0092507Y0082649D01*
X0092529Y0082734D01*
X0092554Y0082818D01*
X0092583Y0082900D01*
X0092616Y0082982D01*
X0092651Y0083062D01*
X0092691Y0083140D01*
X0092733Y0083217D01*
X0092779Y0083291D01*
X0092828Y0083364D01*
X0092880Y0083434D01*
X0092935Y0083503D01*
X0092993Y0083568D01*
X0093053Y0083632D01*
X0093117Y0083692D01*
X0093182Y0083750D01*
X0093251Y0083805D01*
X0093321Y0083857D01*
X0093394Y0083906D01*
X0093468Y0083952D01*
X0093545Y0083994D01*
X0093623Y0084034D01*
X0093703Y0084069D01*
X0093785Y0084102D01*
X0093867Y0084131D01*
X0093951Y0084156D01*
X0094036Y0084178D01*
X0094122Y0084196D01*
X0094208Y0084210D01*
X0094295Y0084221D01*
X0094382Y0084228D01*
X0094470Y0084231D01*
X0094470Y0084175D01*
X0094382Y0084172D01*
X0094295Y0084164D01*
X0094208Y0084153D01*
X0094122Y0084139D01*
X0094036Y0084120D01*
X0093952Y0084098D01*
X0093868Y0084072D01*
X0093786Y0084042D01*
X0093705Y0084009D01*
X0093625Y0083972D01*
X0093547Y0083932D01*
X0093471Y0083888D01*
X0093397Y0083842D01*
X0093325Y0083791D01*
X0093256Y0083738D01*
X0093189Y0083682D01*
X0093124Y0083623D01*
X0093062Y0083561D01*
X0093003Y0083496D01*
X0092947Y0083429D01*
X0092894Y0083360D01*
X0092843Y0083288D01*
X0092797Y0083214D01*
X0092753Y0083138D01*
X0092713Y0083060D01*
X0092676Y0082980D01*
X0092643Y0082899D01*
X0092613Y0082817D01*
X0092587Y0082733D01*
X0092565Y0082649D01*
X0092546Y0082563D01*
X0092532Y0082477D01*
X0092521Y0082390D01*
X0092513Y0082303D01*
X0092510Y0082215D01*
X0092566Y0082215D01*
X0092569Y0082300D01*
X0092576Y0082385D01*
X0092587Y0082469D01*
X0092601Y0082553D01*
X0092619Y0082636D01*
X0092641Y0082718D01*
X0092666Y0082800D01*
X0092695Y0082880D01*
X0092727Y0082958D01*
X0092763Y0083036D01*
X0092802Y0083111D01*
X0092845Y0083185D01*
X0092890Y0083257D01*
X0092939Y0083327D01*
X0092991Y0083394D01*
X0093045Y0083459D01*
X0093103Y0083522D01*
X0093163Y0083582D01*
X0093226Y0083640D01*
X0093291Y0083694D01*
X0093358Y0083746D01*
X0093428Y0083795D01*
X0093500Y0083840D01*
X0093574Y0083883D01*
X0093649Y0083922D01*
X0093727Y0083958D01*
X0093805Y0083990D01*
X0093885Y0084019D01*
X0093967Y0084044D01*
X0094049Y0084066D01*
X0094132Y0084084D01*
X0094216Y0084098D01*
X0094300Y0084109D01*
X0094385Y0084116D01*
X0094470Y0084119D01*
X0094470Y0084063D01*
X0094385Y0084059D01*
X0094300Y0084052D01*
X0094216Y0084041D01*
X0094132Y0084027D01*
X0094049Y0084008D01*
X0093967Y0083986D01*
X0093886Y0083960D01*
X0093807Y0083930D01*
X0093729Y0083897D01*
X0093652Y0083861D01*
X0093577Y0083820D01*
X0093504Y0083777D01*
X0093433Y0083730D01*
X0093364Y0083680D01*
X0093298Y0083628D01*
X0093233Y0083572D01*
X0093172Y0083513D01*
X0093113Y0083452D01*
X0093057Y0083387D01*
X0093005Y0083321D01*
X0092955Y0083252D01*
X0092908Y0083181D01*
X0092865Y0083108D01*
X0092824Y0083033D01*
X0092788Y0082956D01*
X0092755Y0082878D01*
X0092725Y0082799D01*
X0092699Y0082718D01*
X0092677Y0082636D01*
X0092658Y0082553D01*
X0092644Y0082469D01*
X0092633Y0082385D01*
X0092626Y0082300D01*
X0092622Y0082215D01*
X0092678Y0082215D01*
X0092681Y0082297D01*
X0092688Y0082379D01*
X0092699Y0082461D01*
X0092713Y0082542D01*
X0092731Y0082623D01*
X0092753Y0082702D01*
X0092778Y0082781D01*
X0092807Y0082858D01*
X0092839Y0082934D01*
X0092875Y0083008D01*
X0092913Y0083081D01*
X0092956Y0083152D01*
X0093001Y0083220D01*
X0093049Y0083287D01*
X0093101Y0083352D01*
X0093155Y0083414D01*
X0093212Y0083473D01*
X0093271Y0083530D01*
X0093333Y0083584D01*
X0093398Y0083636D01*
X0093465Y0083684D01*
X0093533Y0083729D01*
X0093604Y0083772D01*
X0093677Y0083810D01*
X0093751Y0083846D01*
X0093827Y0083878D01*
X0093904Y0083907D01*
X0093983Y0083932D01*
X0094062Y0083954D01*
X0094143Y0083972D01*
X0094224Y0083986D01*
X0094306Y0083997D01*
X0094388Y0084004D01*
X0094470Y0084007D01*
X0094470Y0083951D01*
X0094388Y0083947D01*
X0094306Y0083940D01*
X0094224Y0083929D01*
X0094143Y0083915D01*
X0094063Y0083896D01*
X0093984Y0083874D01*
X0093906Y0083848D01*
X0093829Y0083819D01*
X0093754Y0083786D01*
X0093680Y0083749D01*
X0093608Y0083709D01*
X0093538Y0083666D01*
X0093470Y0083620D01*
X0093405Y0083570D01*
X0093341Y0083518D01*
X0093281Y0083462D01*
X0093223Y0083404D01*
X0093167Y0083344D01*
X0093115Y0083280D01*
X0093065Y0083215D01*
X0093019Y0083147D01*
X0092976Y0083077D01*
X0092936Y0083005D01*
X0092899Y0082931D01*
X0092866Y0082856D01*
X0092837Y0082779D01*
X0092811Y0082701D01*
X0092789Y0082622D01*
X0092770Y0082542D01*
X0092756Y0082461D01*
X0092745Y0082379D01*
X0092738Y0082297D01*
X0092734Y0082215D01*
X0092231Y0077156D02*
X0092771Y0077156D01*
X0092770Y0077155D02*
X0092774Y0077075D01*
X0092781Y0076994D01*
X0092791Y0076915D01*
X0092806Y0076835D01*
X0092824Y0076757D01*
X0092846Y0076679D01*
X0092871Y0076603D01*
X0092900Y0076528D01*
X0092932Y0076454D01*
X0092968Y0076382D01*
X0093007Y0076311D01*
X0093049Y0076243D01*
X0093094Y0076176D01*
X0093143Y0076112D01*
X0093194Y0076050D01*
X0093249Y0075991D01*
X0093306Y0075934D01*
X0093365Y0075879D01*
X0093427Y0075828D01*
X0093491Y0075779D01*
X0093558Y0075734D01*
X0093626Y0075692D01*
X0093697Y0075653D01*
X0093769Y0075617D01*
X0093843Y0075585D01*
X0093918Y0075556D01*
X0093994Y0075531D01*
X0094072Y0075509D01*
X0094150Y0075491D01*
X0094230Y0075476D01*
X0094309Y0075466D01*
X0094390Y0075459D01*
X0094470Y0075455D01*
X0094471Y0074916D01*
X0094470Y0074915D01*
X0094375Y0074918D01*
X0094281Y0074926D01*
X0094187Y0074937D01*
X0094093Y0074952D01*
X0094000Y0074971D01*
X0093908Y0074993D01*
X0093817Y0075020D01*
X0093728Y0075050D01*
X0093639Y0075084D01*
X0093552Y0075122D01*
X0093467Y0075164D01*
X0093384Y0075208D01*
X0093302Y0075257D01*
X0093223Y0075308D01*
X0093146Y0075363D01*
X0093071Y0075421D01*
X0092998Y0075483D01*
X0092929Y0075547D01*
X0092862Y0075614D01*
X0092798Y0075683D01*
X0092736Y0075756D01*
X0092678Y0075831D01*
X0092623Y0075908D01*
X0092572Y0075987D01*
X0092523Y0076069D01*
X0092479Y0076152D01*
X0092437Y0076237D01*
X0092399Y0076324D01*
X0092365Y0076413D01*
X0092335Y0076502D01*
X0092308Y0076593D01*
X0092286Y0076685D01*
X0092267Y0076778D01*
X0092252Y0076872D01*
X0092241Y0076966D01*
X0092233Y0077060D01*
X0092230Y0077155D01*
X0092286Y0077155D01*
X0092289Y0077063D01*
X0092296Y0076971D01*
X0092307Y0076879D01*
X0092322Y0076788D01*
X0092340Y0076697D01*
X0092363Y0076608D01*
X0092389Y0076519D01*
X0092418Y0076431D01*
X0092451Y0076345D01*
X0092488Y0076261D01*
X0092529Y0076177D01*
X0092572Y0076096D01*
X0092619Y0076017D01*
X0092670Y0075939D01*
X0092723Y0075864D01*
X0092780Y0075791D01*
X0092840Y0075720D01*
X0092902Y0075652D01*
X0092967Y0075587D01*
X0093035Y0075525D01*
X0093106Y0075465D01*
X0093179Y0075408D01*
X0093254Y0075355D01*
X0093332Y0075304D01*
X0093411Y0075257D01*
X0093492Y0075214D01*
X0093576Y0075173D01*
X0093660Y0075136D01*
X0093746Y0075103D01*
X0093834Y0075074D01*
X0093923Y0075048D01*
X0094012Y0075025D01*
X0094103Y0075007D01*
X0094194Y0074992D01*
X0094286Y0074981D01*
X0094378Y0074974D01*
X0094470Y0074971D01*
X0094470Y0075027D01*
X0094378Y0075030D01*
X0094285Y0075038D01*
X0094194Y0075049D01*
X0094102Y0075064D01*
X0094012Y0075083D01*
X0093922Y0075106D01*
X0093834Y0075132D01*
X0093746Y0075163D01*
X0093660Y0075197D01*
X0093576Y0075235D01*
X0093493Y0075276D01*
X0093412Y0075321D01*
X0093333Y0075369D01*
X0093257Y0075421D01*
X0093182Y0075476D01*
X0093110Y0075534D01*
X0093041Y0075595D01*
X0092974Y0075659D01*
X0092910Y0075726D01*
X0092849Y0075795D01*
X0092791Y0075867D01*
X0092736Y0075942D01*
X0092684Y0076018D01*
X0092636Y0076097D01*
X0092591Y0076178D01*
X0092550Y0076261D01*
X0092512Y0076345D01*
X0092478Y0076431D01*
X0092447Y0076519D01*
X0092421Y0076607D01*
X0092398Y0076697D01*
X0092379Y0076787D01*
X0092364Y0076879D01*
X0092353Y0076970D01*
X0092345Y0077063D01*
X0092342Y0077155D01*
X0092398Y0077155D01*
X0092401Y0077065D01*
X0092408Y0076975D01*
X0092419Y0076886D01*
X0092434Y0076797D01*
X0092453Y0076709D01*
X0092475Y0076622D01*
X0092501Y0076535D01*
X0092531Y0076450D01*
X0092564Y0076367D01*
X0092601Y0076285D01*
X0092641Y0076204D01*
X0092685Y0076125D01*
X0092732Y0076049D01*
X0092782Y0075974D01*
X0092835Y0075901D01*
X0092892Y0075831D01*
X0092951Y0075764D01*
X0093014Y0075699D01*
X0093079Y0075636D01*
X0093146Y0075577D01*
X0093216Y0075520D01*
X0093289Y0075467D01*
X0093364Y0075417D01*
X0093440Y0075370D01*
X0093519Y0075326D01*
X0093600Y0075286D01*
X0093682Y0075249D01*
X0093765Y0075216D01*
X0093850Y0075186D01*
X0093937Y0075160D01*
X0094024Y0075138D01*
X0094112Y0075119D01*
X0094201Y0075104D01*
X0094290Y0075093D01*
X0094380Y0075086D01*
X0094470Y0075083D01*
X0094470Y0075139D01*
X0094382Y0075142D01*
X0094295Y0075149D01*
X0094208Y0075160D01*
X0094122Y0075174D01*
X0094036Y0075192D01*
X0093951Y0075214D01*
X0093867Y0075239D01*
X0093785Y0075268D01*
X0093703Y0075301D01*
X0093623Y0075336D01*
X0093545Y0075376D01*
X0093468Y0075418D01*
X0093394Y0075464D01*
X0093321Y0075513D01*
X0093251Y0075565D01*
X0093182Y0075620D01*
X0093117Y0075678D01*
X0093053Y0075738D01*
X0092993Y0075802D01*
X0092935Y0075867D01*
X0092880Y0075936D01*
X0092828Y0076006D01*
X0092779Y0076079D01*
X0092733Y0076153D01*
X0092691Y0076230D01*
X0092651Y0076308D01*
X0092616Y0076388D01*
X0092583Y0076470D01*
X0092554Y0076552D01*
X0092529Y0076636D01*
X0092507Y0076721D01*
X0092489Y0076807D01*
X0092475Y0076893D01*
X0092464Y0076980D01*
X0092457Y0077067D01*
X0092454Y0077155D01*
X0092510Y0077155D01*
X0092513Y0077067D01*
X0092521Y0076980D01*
X0092532Y0076893D01*
X0092546Y0076807D01*
X0092565Y0076721D01*
X0092587Y0076637D01*
X0092613Y0076553D01*
X0092643Y0076471D01*
X0092676Y0076390D01*
X0092713Y0076310D01*
X0092753Y0076232D01*
X0092797Y0076156D01*
X0092843Y0076082D01*
X0092894Y0076010D01*
X0092947Y0075941D01*
X0093003Y0075874D01*
X0093062Y0075809D01*
X0093124Y0075747D01*
X0093189Y0075688D01*
X0093256Y0075632D01*
X0093325Y0075579D01*
X0093397Y0075528D01*
X0093471Y0075482D01*
X0093547Y0075438D01*
X0093625Y0075398D01*
X0093705Y0075361D01*
X0093786Y0075328D01*
X0093868Y0075298D01*
X0093952Y0075272D01*
X0094036Y0075250D01*
X0094122Y0075231D01*
X0094208Y0075217D01*
X0094295Y0075206D01*
X0094382Y0075198D01*
X0094470Y0075195D01*
X0094470Y0075251D01*
X0094385Y0075254D01*
X0094300Y0075261D01*
X0094216Y0075272D01*
X0094132Y0075286D01*
X0094049Y0075304D01*
X0093967Y0075326D01*
X0093885Y0075351D01*
X0093805Y0075380D01*
X0093727Y0075412D01*
X0093649Y0075448D01*
X0093574Y0075487D01*
X0093500Y0075530D01*
X0093428Y0075575D01*
X0093358Y0075624D01*
X0093291Y0075676D01*
X0093226Y0075730D01*
X0093163Y0075788D01*
X0093103Y0075848D01*
X0093045Y0075911D01*
X0092991Y0075976D01*
X0092939Y0076043D01*
X0092890Y0076113D01*
X0092845Y0076185D01*
X0092802Y0076259D01*
X0092763Y0076334D01*
X0092727Y0076412D01*
X0092695Y0076490D01*
X0092666Y0076570D01*
X0092641Y0076652D01*
X0092619Y0076734D01*
X0092601Y0076817D01*
X0092587Y0076901D01*
X0092576Y0076985D01*
X0092569Y0077070D01*
X0092566Y0077155D01*
X0092622Y0077155D01*
X0092626Y0077070D01*
X0092633Y0076985D01*
X0092644Y0076901D01*
X0092658Y0076817D01*
X0092677Y0076734D01*
X0092699Y0076652D01*
X0092725Y0076571D01*
X0092755Y0076492D01*
X0092788Y0076414D01*
X0092824Y0076337D01*
X0092865Y0076262D01*
X0092908Y0076189D01*
X0092955Y0076118D01*
X0093005Y0076049D01*
X0093057Y0075983D01*
X0093113Y0075918D01*
X0093172Y0075857D01*
X0093233Y0075798D01*
X0093298Y0075742D01*
X0093364Y0075690D01*
X0093433Y0075640D01*
X0093504Y0075593D01*
X0093577Y0075550D01*
X0093652Y0075509D01*
X0093729Y0075473D01*
X0093807Y0075440D01*
X0093886Y0075410D01*
X0093967Y0075384D01*
X0094049Y0075362D01*
X0094132Y0075343D01*
X0094216Y0075329D01*
X0094300Y0075318D01*
X0094385Y0075311D01*
X0094470Y0075307D01*
X0094470Y0075363D01*
X0094388Y0075366D01*
X0094306Y0075373D01*
X0094224Y0075384D01*
X0094143Y0075398D01*
X0094062Y0075416D01*
X0093983Y0075438D01*
X0093904Y0075463D01*
X0093827Y0075492D01*
X0093751Y0075524D01*
X0093677Y0075560D01*
X0093604Y0075598D01*
X0093533Y0075641D01*
X0093465Y0075686D01*
X0093398Y0075734D01*
X0093333Y0075786D01*
X0093271Y0075840D01*
X0093212Y0075897D01*
X0093155Y0075956D01*
X0093101Y0076018D01*
X0093049Y0076083D01*
X0093001Y0076150D01*
X0092956Y0076218D01*
X0092913Y0076289D01*
X0092875Y0076362D01*
X0092839Y0076436D01*
X0092807Y0076512D01*
X0092778Y0076589D01*
X0092753Y0076668D01*
X0092731Y0076747D01*
X0092713Y0076828D01*
X0092699Y0076909D01*
X0092688Y0076991D01*
X0092681Y0077073D01*
X0092678Y0077155D01*
X0092734Y0077155D01*
X0092738Y0077073D01*
X0092745Y0076991D01*
X0092756Y0076909D01*
X0092770Y0076828D01*
X0092789Y0076748D01*
X0092811Y0076669D01*
X0092837Y0076591D01*
X0092866Y0076514D01*
X0092899Y0076439D01*
X0092936Y0076365D01*
X0092976Y0076293D01*
X0093019Y0076223D01*
X0093065Y0076155D01*
X0093115Y0076090D01*
X0093167Y0076026D01*
X0093223Y0075966D01*
X0093281Y0075908D01*
X0093341Y0075852D01*
X0093405Y0075800D01*
X0093470Y0075750D01*
X0093538Y0075704D01*
X0093608Y0075661D01*
X0093680Y0075621D01*
X0093754Y0075584D01*
X0093829Y0075551D01*
X0093906Y0075522D01*
X0093984Y0075496D01*
X0094063Y0075474D01*
X0094143Y0075455D01*
X0094224Y0075441D01*
X0094306Y0075430D01*
X0094388Y0075423D01*
X0094470Y0075419D01*
X0107529Y0074916D02*
X0107529Y0075456D01*
X0107530Y0075455D02*
X0107610Y0075459D01*
X0107691Y0075466D01*
X0107770Y0075476D01*
X0107850Y0075491D01*
X0107928Y0075509D01*
X0108006Y0075531D01*
X0108082Y0075556D01*
X0108157Y0075585D01*
X0108231Y0075617D01*
X0108303Y0075653D01*
X0108374Y0075692D01*
X0108442Y0075734D01*
X0108509Y0075779D01*
X0108573Y0075828D01*
X0108635Y0075879D01*
X0108694Y0075934D01*
X0108751Y0075991D01*
X0108806Y0076050D01*
X0108857Y0076112D01*
X0108906Y0076176D01*
X0108951Y0076243D01*
X0108993Y0076311D01*
X0109032Y0076382D01*
X0109068Y0076454D01*
X0109100Y0076528D01*
X0109129Y0076603D01*
X0109154Y0076679D01*
X0109176Y0076757D01*
X0109194Y0076835D01*
X0109209Y0076915D01*
X0109219Y0076994D01*
X0109226Y0077075D01*
X0109230Y0077155D01*
X0109769Y0077156D01*
X0109770Y0077155D01*
X0109767Y0077060D01*
X0109759Y0076966D01*
X0109748Y0076872D01*
X0109733Y0076778D01*
X0109714Y0076685D01*
X0109692Y0076593D01*
X0109665Y0076502D01*
X0109635Y0076413D01*
X0109601Y0076324D01*
X0109563Y0076237D01*
X0109521Y0076152D01*
X0109477Y0076069D01*
X0109428Y0075987D01*
X0109377Y0075908D01*
X0109322Y0075831D01*
X0109264Y0075756D01*
X0109202Y0075683D01*
X0109138Y0075614D01*
X0109071Y0075547D01*
X0109002Y0075483D01*
X0108929Y0075421D01*
X0108854Y0075363D01*
X0108777Y0075308D01*
X0108698Y0075257D01*
X0108616Y0075208D01*
X0108533Y0075164D01*
X0108448Y0075122D01*
X0108361Y0075084D01*
X0108272Y0075050D01*
X0108183Y0075020D01*
X0108092Y0074993D01*
X0108000Y0074971D01*
X0107907Y0074952D01*
X0107813Y0074937D01*
X0107719Y0074926D01*
X0107625Y0074918D01*
X0107530Y0074915D01*
X0107530Y0074971D01*
X0107622Y0074974D01*
X0107714Y0074981D01*
X0107806Y0074992D01*
X0107897Y0075007D01*
X0107988Y0075025D01*
X0108077Y0075048D01*
X0108166Y0075074D01*
X0108254Y0075103D01*
X0108340Y0075136D01*
X0108424Y0075173D01*
X0108508Y0075214D01*
X0108589Y0075257D01*
X0108668Y0075304D01*
X0108746Y0075355D01*
X0108821Y0075408D01*
X0108894Y0075465D01*
X0108965Y0075525D01*
X0109033Y0075587D01*
X0109098Y0075652D01*
X0109160Y0075720D01*
X0109220Y0075791D01*
X0109277Y0075864D01*
X0109330Y0075939D01*
X0109381Y0076017D01*
X0109428Y0076096D01*
X0109471Y0076177D01*
X0109512Y0076261D01*
X0109549Y0076345D01*
X0109582Y0076431D01*
X0109611Y0076519D01*
X0109637Y0076608D01*
X0109660Y0076697D01*
X0109678Y0076788D01*
X0109693Y0076879D01*
X0109704Y0076971D01*
X0109711Y0077063D01*
X0109714Y0077155D01*
X0109658Y0077155D01*
X0109655Y0077063D01*
X0109647Y0076970D01*
X0109636Y0076879D01*
X0109621Y0076787D01*
X0109602Y0076697D01*
X0109579Y0076607D01*
X0109553Y0076519D01*
X0109522Y0076431D01*
X0109488Y0076345D01*
X0109450Y0076261D01*
X0109409Y0076178D01*
X0109364Y0076097D01*
X0109316Y0076018D01*
X0109264Y0075942D01*
X0109209Y0075867D01*
X0109151Y0075795D01*
X0109090Y0075726D01*
X0109026Y0075659D01*
X0108959Y0075595D01*
X0108890Y0075534D01*
X0108818Y0075476D01*
X0108743Y0075421D01*
X0108667Y0075369D01*
X0108588Y0075321D01*
X0108507Y0075276D01*
X0108424Y0075235D01*
X0108340Y0075197D01*
X0108254Y0075163D01*
X0108166Y0075132D01*
X0108078Y0075106D01*
X0107988Y0075083D01*
X0107898Y0075064D01*
X0107806Y0075049D01*
X0107715Y0075038D01*
X0107622Y0075030D01*
X0107530Y0075027D01*
X0107530Y0075083D01*
X0107620Y0075086D01*
X0107710Y0075093D01*
X0107799Y0075104D01*
X0107888Y0075119D01*
X0107976Y0075138D01*
X0108063Y0075160D01*
X0108150Y0075186D01*
X0108235Y0075216D01*
X0108318Y0075249D01*
X0108400Y0075286D01*
X0108481Y0075326D01*
X0108560Y0075370D01*
X0108636Y0075417D01*
X0108711Y0075467D01*
X0108784Y0075520D01*
X0108854Y0075577D01*
X0108921Y0075636D01*
X0108986Y0075699D01*
X0109049Y0075764D01*
X0109108Y0075831D01*
X0109165Y0075901D01*
X0109218Y0075974D01*
X0109268Y0076049D01*
X0109315Y0076125D01*
X0109359Y0076204D01*
X0109399Y0076285D01*
X0109436Y0076367D01*
X0109469Y0076450D01*
X0109499Y0076535D01*
X0109525Y0076622D01*
X0109547Y0076709D01*
X0109566Y0076797D01*
X0109581Y0076886D01*
X0109592Y0076975D01*
X0109599Y0077065D01*
X0109602Y0077155D01*
X0109546Y0077155D01*
X0109543Y0077067D01*
X0109536Y0076980D01*
X0109525Y0076893D01*
X0109511Y0076807D01*
X0109493Y0076721D01*
X0109471Y0076636D01*
X0109446Y0076552D01*
X0109417Y0076470D01*
X0109384Y0076388D01*
X0109349Y0076308D01*
X0109309Y0076230D01*
X0109267Y0076153D01*
X0109221Y0076079D01*
X0109172Y0076006D01*
X0109120Y0075936D01*
X0109065Y0075867D01*
X0109007Y0075802D01*
X0108947Y0075738D01*
X0108883Y0075678D01*
X0108818Y0075620D01*
X0108749Y0075565D01*
X0108679Y0075513D01*
X0108606Y0075464D01*
X0108532Y0075418D01*
X0108455Y0075376D01*
X0108377Y0075336D01*
X0108297Y0075301D01*
X0108215Y0075268D01*
X0108133Y0075239D01*
X0108049Y0075214D01*
X0107964Y0075192D01*
X0107878Y0075174D01*
X0107792Y0075160D01*
X0107705Y0075149D01*
X0107618Y0075142D01*
X0107530Y0075139D01*
X0107530Y0075195D01*
X0107618Y0075198D01*
X0107705Y0075206D01*
X0107792Y0075217D01*
X0107878Y0075231D01*
X0107964Y0075250D01*
X0108048Y0075272D01*
X0108132Y0075298D01*
X0108214Y0075328D01*
X0108295Y0075361D01*
X0108375Y0075398D01*
X0108453Y0075438D01*
X0108529Y0075482D01*
X0108603Y0075528D01*
X0108675Y0075579D01*
X0108744Y0075632D01*
X0108811Y0075688D01*
X0108876Y0075747D01*
X0108938Y0075809D01*
X0108997Y0075874D01*
X0109053Y0075941D01*
X0109106Y0076010D01*
X0109157Y0076082D01*
X0109203Y0076156D01*
X0109247Y0076232D01*
X0109287Y0076310D01*
X0109324Y0076390D01*
X0109357Y0076471D01*
X0109387Y0076553D01*
X0109413Y0076637D01*
X0109435Y0076721D01*
X0109454Y0076807D01*
X0109468Y0076893D01*
X0109479Y0076980D01*
X0109487Y0077067D01*
X0109490Y0077155D01*
X0109434Y0077155D01*
X0109431Y0077070D01*
X0109424Y0076985D01*
X0109413Y0076901D01*
X0109399Y0076817D01*
X0109381Y0076734D01*
X0109359Y0076652D01*
X0109334Y0076570D01*
X0109305Y0076490D01*
X0109273Y0076412D01*
X0109237Y0076334D01*
X0109198Y0076259D01*
X0109155Y0076185D01*
X0109110Y0076113D01*
X0109061Y0076043D01*
X0109009Y0075976D01*
X0108955Y0075911D01*
X0108897Y0075848D01*
X0108837Y0075788D01*
X0108774Y0075730D01*
X0108709Y0075676D01*
X0108642Y0075624D01*
X0108572Y0075575D01*
X0108500Y0075530D01*
X0108426Y0075487D01*
X0108351Y0075448D01*
X0108273Y0075412D01*
X0108195Y0075380D01*
X0108115Y0075351D01*
X0108033Y0075326D01*
X0107951Y0075304D01*
X0107868Y0075286D01*
X0107784Y0075272D01*
X0107700Y0075261D01*
X0107615Y0075254D01*
X0107530Y0075251D01*
X0107530Y0075307D01*
X0107615Y0075311D01*
X0107700Y0075318D01*
X0107784Y0075329D01*
X0107868Y0075343D01*
X0107951Y0075362D01*
X0108033Y0075384D01*
X0108114Y0075410D01*
X0108193Y0075440D01*
X0108271Y0075473D01*
X0108348Y0075509D01*
X0108423Y0075550D01*
X0108496Y0075593D01*
X0108567Y0075640D01*
X0108636Y0075690D01*
X0108702Y0075742D01*
X0108767Y0075798D01*
X0108828Y0075857D01*
X0108887Y0075918D01*
X0108943Y0075983D01*
X0108995Y0076049D01*
X0109045Y0076118D01*
X0109092Y0076189D01*
X0109135Y0076262D01*
X0109176Y0076337D01*
X0109212Y0076414D01*
X0109245Y0076492D01*
X0109275Y0076571D01*
X0109301Y0076652D01*
X0109323Y0076734D01*
X0109342Y0076817D01*
X0109356Y0076901D01*
X0109367Y0076985D01*
X0109374Y0077070D01*
X0109378Y0077155D01*
X0109322Y0077155D01*
X0109319Y0077073D01*
X0109312Y0076991D01*
X0109301Y0076909D01*
X0109287Y0076828D01*
X0109269Y0076747D01*
X0109247Y0076668D01*
X0109222Y0076589D01*
X0109193Y0076512D01*
X0109161Y0076436D01*
X0109125Y0076362D01*
X0109087Y0076289D01*
X0109044Y0076218D01*
X0108999Y0076150D01*
X0108951Y0076083D01*
X0108899Y0076018D01*
X0108845Y0075956D01*
X0108788Y0075897D01*
X0108729Y0075840D01*
X0108667Y0075786D01*
X0108602Y0075734D01*
X0108535Y0075686D01*
X0108467Y0075641D01*
X0108396Y0075598D01*
X0108323Y0075560D01*
X0108249Y0075524D01*
X0108173Y0075492D01*
X0108096Y0075463D01*
X0108017Y0075438D01*
X0107938Y0075416D01*
X0107857Y0075398D01*
X0107776Y0075384D01*
X0107694Y0075373D01*
X0107612Y0075366D01*
X0107530Y0075363D01*
X0107530Y0075419D01*
X0107612Y0075423D01*
X0107694Y0075430D01*
X0107776Y0075441D01*
X0107857Y0075455D01*
X0107937Y0075474D01*
X0108016Y0075496D01*
X0108094Y0075522D01*
X0108171Y0075551D01*
X0108246Y0075584D01*
X0108320Y0075621D01*
X0108392Y0075661D01*
X0108462Y0075704D01*
X0108530Y0075750D01*
X0108595Y0075800D01*
X0108659Y0075852D01*
X0108719Y0075908D01*
X0108777Y0075966D01*
X0108833Y0076026D01*
X0108885Y0076090D01*
X0108935Y0076155D01*
X0108981Y0076223D01*
X0109024Y0076293D01*
X0109064Y0076365D01*
X0109101Y0076439D01*
X0109134Y0076514D01*
X0109163Y0076591D01*
X0109189Y0076669D01*
X0109211Y0076748D01*
X0109230Y0076828D01*
X0109244Y0076909D01*
X0109255Y0076991D01*
X0109262Y0077073D01*
X0109266Y0077155D01*
X0109769Y0082214D02*
X0109229Y0082214D01*
X0109230Y0082215D02*
X0109226Y0082295D01*
X0109219Y0082376D01*
X0109209Y0082455D01*
X0109194Y0082535D01*
X0109176Y0082613D01*
X0109154Y0082691D01*
X0109129Y0082767D01*
X0109100Y0082842D01*
X0109068Y0082916D01*
X0109032Y0082988D01*
X0108993Y0083059D01*
X0108951Y0083127D01*
X0108906Y0083194D01*
X0108857Y0083258D01*
X0108806Y0083320D01*
X0108751Y0083379D01*
X0108694Y0083436D01*
X0108635Y0083491D01*
X0108573Y0083542D01*
X0108509Y0083591D01*
X0108442Y0083636D01*
X0108374Y0083678D01*
X0108303Y0083717D01*
X0108231Y0083753D01*
X0108157Y0083785D01*
X0108082Y0083814D01*
X0108006Y0083839D01*
X0107928Y0083861D01*
X0107850Y0083879D01*
X0107770Y0083894D01*
X0107691Y0083904D01*
X0107610Y0083911D01*
X0107530Y0083915D01*
X0107529Y0084454D01*
X0107530Y0084455D01*
X0107625Y0084452D01*
X0107719Y0084444D01*
X0107813Y0084433D01*
X0107907Y0084418D01*
X0108000Y0084399D01*
X0108092Y0084377D01*
X0108183Y0084350D01*
X0108272Y0084320D01*
X0108361Y0084286D01*
X0108448Y0084248D01*
X0108533Y0084206D01*
X0108616Y0084162D01*
X0108698Y0084113D01*
X0108777Y0084062D01*
X0108854Y0084007D01*
X0108929Y0083949D01*
X0109002Y0083887D01*
X0109071Y0083823D01*
X0109138Y0083756D01*
X0109202Y0083687D01*
X0109264Y0083614D01*
X0109322Y0083539D01*
X0109377Y0083462D01*
X0109428Y0083383D01*
X0109477Y0083301D01*
X0109521Y0083218D01*
X0109563Y0083133D01*
X0109601Y0083046D01*
X0109635Y0082957D01*
X0109665Y0082868D01*
X0109692Y0082777D01*
X0109714Y0082685D01*
X0109733Y0082592D01*
X0109748Y0082498D01*
X0109759Y0082404D01*
X0109767Y0082310D01*
X0109770Y0082215D01*
X0109714Y0082215D01*
X0109711Y0082307D01*
X0109704Y0082399D01*
X0109693Y0082491D01*
X0109678Y0082582D01*
X0109660Y0082673D01*
X0109637Y0082762D01*
X0109611Y0082851D01*
X0109582Y0082939D01*
X0109549Y0083025D01*
X0109512Y0083109D01*
X0109471Y0083193D01*
X0109428Y0083274D01*
X0109381Y0083353D01*
X0109330Y0083431D01*
X0109277Y0083506D01*
X0109220Y0083579D01*
X0109160Y0083650D01*
X0109098Y0083718D01*
X0109033Y0083783D01*
X0108965Y0083845D01*
X0108894Y0083905D01*
X0108821Y0083962D01*
X0108746Y0084015D01*
X0108668Y0084066D01*
X0108589Y0084113D01*
X0108508Y0084156D01*
X0108424Y0084197D01*
X0108340Y0084234D01*
X0108254Y0084267D01*
X0108166Y0084296D01*
X0108077Y0084322D01*
X0107988Y0084345D01*
X0107897Y0084363D01*
X0107806Y0084378D01*
X0107714Y0084389D01*
X0107622Y0084396D01*
X0107530Y0084399D01*
X0107530Y0084343D01*
X0107622Y0084340D01*
X0107715Y0084332D01*
X0107806Y0084321D01*
X0107898Y0084306D01*
X0107988Y0084287D01*
X0108078Y0084264D01*
X0108166Y0084238D01*
X0108254Y0084207D01*
X0108340Y0084173D01*
X0108424Y0084135D01*
X0108507Y0084094D01*
X0108588Y0084049D01*
X0108667Y0084001D01*
X0108743Y0083949D01*
X0108818Y0083894D01*
X0108890Y0083836D01*
X0108959Y0083775D01*
X0109026Y0083711D01*
X0109090Y0083644D01*
X0109151Y0083575D01*
X0109209Y0083503D01*
X0109264Y0083428D01*
X0109316Y0083352D01*
X0109364Y0083273D01*
X0109409Y0083192D01*
X0109450Y0083109D01*
X0109488Y0083025D01*
X0109522Y0082939D01*
X0109553Y0082851D01*
X0109579Y0082763D01*
X0109602Y0082673D01*
X0109621Y0082583D01*
X0109636Y0082491D01*
X0109647Y0082400D01*
X0109655Y0082307D01*
X0109658Y0082215D01*
X0109602Y0082215D01*
X0109599Y0082305D01*
X0109592Y0082395D01*
X0109581Y0082484D01*
X0109566Y0082573D01*
X0109547Y0082661D01*
X0109525Y0082748D01*
X0109499Y0082835D01*
X0109469Y0082920D01*
X0109436Y0083003D01*
X0109399Y0083085D01*
X0109359Y0083166D01*
X0109315Y0083245D01*
X0109268Y0083321D01*
X0109218Y0083396D01*
X0109165Y0083469D01*
X0109108Y0083539D01*
X0109049Y0083606D01*
X0108986Y0083671D01*
X0108921Y0083734D01*
X0108854Y0083793D01*
X0108784Y0083850D01*
X0108711Y0083903D01*
X0108636Y0083953D01*
X0108560Y0084000D01*
X0108481Y0084044D01*
X0108400Y0084084D01*
X0108318Y0084121D01*
X0108235Y0084154D01*
X0108150Y0084184D01*
X0108063Y0084210D01*
X0107976Y0084232D01*
X0107888Y0084251D01*
X0107799Y0084266D01*
X0107710Y0084277D01*
X0107620Y0084284D01*
X0107530Y0084287D01*
X0107530Y0084231D01*
X0107618Y0084228D01*
X0107705Y0084221D01*
X0107792Y0084210D01*
X0107878Y0084196D01*
X0107964Y0084178D01*
X0108049Y0084156D01*
X0108133Y0084131D01*
X0108215Y0084102D01*
X0108297Y0084069D01*
X0108377Y0084034D01*
X0108455Y0083994D01*
X0108532Y0083952D01*
X0108606Y0083906D01*
X0108679Y0083857D01*
X0108749Y0083805D01*
X0108818Y0083750D01*
X0108883Y0083692D01*
X0108947Y0083632D01*
X0109007Y0083568D01*
X0109065Y0083503D01*
X0109120Y0083434D01*
X0109172Y0083364D01*
X0109221Y0083291D01*
X0109267Y0083217D01*
X0109309Y0083140D01*
X0109349Y0083062D01*
X0109384Y0082982D01*
X0109417Y0082900D01*
X0109446Y0082818D01*
X0109471Y0082734D01*
X0109493Y0082649D01*
X0109511Y0082563D01*
X0109525Y0082477D01*
X0109536Y0082390D01*
X0109543Y0082303D01*
X0109546Y0082215D01*
X0109490Y0082215D01*
X0109487Y0082303D01*
X0109479Y0082390D01*
X0109468Y0082477D01*
X0109454Y0082563D01*
X0109435Y0082649D01*
X0109413Y0082733D01*
X0109387Y0082817D01*
X0109357Y0082899D01*
X0109324Y0082980D01*
X0109287Y0083060D01*
X0109247Y0083138D01*
X0109203Y0083214D01*
X0109157Y0083288D01*
X0109106Y0083360D01*
X0109053Y0083429D01*
X0108997Y0083496D01*
X0108938Y0083561D01*
X0108876Y0083623D01*
X0108811Y0083682D01*
X0108744Y0083738D01*
X0108675Y0083791D01*
X0108603Y0083842D01*
X0108529Y0083888D01*
X0108453Y0083932D01*
X0108375Y0083972D01*
X0108295Y0084009D01*
X0108214Y0084042D01*
X0108132Y0084072D01*
X0108048Y0084098D01*
X0107964Y0084120D01*
X0107878Y0084139D01*
X0107792Y0084153D01*
X0107705Y0084164D01*
X0107618Y0084172D01*
X0107530Y0084175D01*
X0107530Y0084119D01*
X0107615Y0084116D01*
X0107700Y0084109D01*
X0107784Y0084098D01*
X0107868Y0084084D01*
X0107951Y0084066D01*
X0108033Y0084044D01*
X0108115Y0084019D01*
X0108195Y0083990D01*
X0108273Y0083958D01*
X0108351Y0083922D01*
X0108426Y0083883D01*
X0108500Y0083840D01*
X0108572Y0083795D01*
X0108642Y0083746D01*
X0108709Y0083694D01*
X0108774Y0083640D01*
X0108837Y0083582D01*
X0108897Y0083522D01*
X0108955Y0083459D01*
X0109009Y0083394D01*
X0109061Y0083327D01*
X0109110Y0083257D01*
X0109155Y0083185D01*
X0109198Y0083111D01*
X0109237Y0083036D01*
X0109273Y0082958D01*
X0109305Y0082880D01*
X0109334Y0082800D01*
X0109359Y0082718D01*
X0109381Y0082636D01*
X0109399Y0082553D01*
X0109413Y0082469D01*
X0109424Y0082385D01*
X0109431Y0082300D01*
X0109434Y0082215D01*
X0109378Y0082215D01*
X0109374Y0082300D01*
X0109367Y0082385D01*
X0109356Y0082469D01*
X0109342Y0082553D01*
X0109323Y0082636D01*
X0109301Y0082718D01*
X0109275Y0082799D01*
X0109245Y0082878D01*
X0109212Y0082956D01*
X0109176Y0083033D01*
X0109135Y0083108D01*
X0109092Y0083181D01*
X0109045Y0083252D01*
X0108995Y0083321D01*
X0108943Y0083387D01*
X0108887Y0083452D01*
X0108828Y0083513D01*
X0108767Y0083572D01*
X0108702Y0083628D01*
X0108636Y0083680D01*
X0108567Y0083730D01*
X0108496Y0083777D01*
X0108423Y0083820D01*
X0108348Y0083861D01*
X0108271Y0083897D01*
X0108193Y0083930D01*
X0108114Y0083960D01*
X0108033Y0083986D01*
X0107951Y0084008D01*
X0107868Y0084027D01*
X0107784Y0084041D01*
X0107700Y0084052D01*
X0107615Y0084059D01*
X0107530Y0084063D01*
X0107530Y0084007D01*
X0107612Y0084004D01*
X0107694Y0083997D01*
X0107776Y0083986D01*
X0107857Y0083972D01*
X0107938Y0083954D01*
X0108017Y0083932D01*
X0108096Y0083907D01*
X0108173Y0083878D01*
X0108249Y0083846D01*
X0108323Y0083810D01*
X0108396Y0083772D01*
X0108467Y0083729D01*
X0108535Y0083684D01*
X0108602Y0083636D01*
X0108667Y0083584D01*
X0108729Y0083530D01*
X0108788Y0083473D01*
X0108845Y0083414D01*
X0108899Y0083352D01*
X0108951Y0083287D01*
X0108999Y0083220D01*
X0109044Y0083152D01*
X0109087Y0083081D01*
X0109125Y0083008D01*
X0109161Y0082934D01*
X0109193Y0082858D01*
X0109222Y0082781D01*
X0109247Y0082702D01*
X0109269Y0082623D01*
X0109287Y0082542D01*
X0109301Y0082461D01*
X0109312Y0082379D01*
X0109319Y0082297D01*
X0109322Y0082215D01*
X0109266Y0082215D01*
X0109262Y0082297D01*
X0109255Y0082379D01*
X0109244Y0082461D01*
X0109230Y0082542D01*
X0109211Y0082622D01*
X0109189Y0082701D01*
X0109163Y0082779D01*
X0109134Y0082856D01*
X0109101Y0082931D01*
X0109064Y0083005D01*
X0109024Y0083077D01*
X0108981Y0083147D01*
X0108935Y0083215D01*
X0108885Y0083280D01*
X0108833Y0083344D01*
X0108777Y0083404D01*
X0108719Y0083462D01*
X0108659Y0083518D01*
X0108595Y0083570D01*
X0108530Y0083620D01*
X0108462Y0083666D01*
X0108392Y0083709D01*
X0108320Y0083749D01*
X0108246Y0083786D01*
X0108171Y0083819D01*
X0108094Y0083848D01*
X0108016Y0083874D01*
X0107937Y0083896D01*
X0107857Y0083915D01*
X0107776Y0083929D01*
X0107694Y0083940D01*
X0107612Y0083947D01*
X0107530Y0083951D01*
X0144471Y0050454D02*
X0144471Y0049914D01*
X0144470Y0049915D02*
X0144390Y0049911D01*
X0144309Y0049904D01*
X0144230Y0049894D01*
X0144150Y0049879D01*
X0144072Y0049861D01*
X0143994Y0049839D01*
X0143918Y0049814D01*
X0143843Y0049785D01*
X0143769Y0049753D01*
X0143697Y0049717D01*
X0143626Y0049678D01*
X0143558Y0049636D01*
X0143491Y0049591D01*
X0143427Y0049542D01*
X0143365Y0049491D01*
X0143306Y0049436D01*
X0143249Y0049379D01*
X0143194Y0049320D01*
X0143143Y0049258D01*
X0143094Y0049194D01*
X0143049Y0049127D01*
X0143007Y0049059D01*
X0142968Y0048988D01*
X0142932Y0048916D01*
X0142900Y0048842D01*
X0142871Y0048767D01*
X0142846Y0048691D01*
X0142824Y0048613D01*
X0142806Y0048535D01*
X0142791Y0048455D01*
X0142781Y0048376D01*
X0142774Y0048295D01*
X0142770Y0048215D01*
X0142231Y0048214D01*
X0142230Y0048215D01*
X0142233Y0048310D01*
X0142241Y0048404D01*
X0142252Y0048498D01*
X0142267Y0048592D01*
X0142286Y0048685D01*
X0142308Y0048777D01*
X0142335Y0048868D01*
X0142365Y0048957D01*
X0142399Y0049046D01*
X0142437Y0049133D01*
X0142479Y0049218D01*
X0142523Y0049301D01*
X0142572Y0049383D01*
X0142623Y0049462D01*
X0142678Y0049539D01*
X0142736Y0049614D01*
X0142798Y0049687D01*
X0142862Y0049756D01*
X0142929Y0049823D01*
X0142998Y0049887D01*
X0143071Y0049949D01*
X0143146Y0050007D01*
X0143223Y0050062D01*
X0143302Y0050113D01*
X0143384Y0050162D01*
X0143467Y0050206D01*
X0143552Y0050248D01*
X0143639Y0050286D01*
X0143728Y0050320D01*
X0143817Y0050350D01*
X0143908Y0050377D01*
X0144000Y0050399D01*
X0144093Y0050418D01*
X0144187Y0050433D01*
X0144281Y0050444D01*
X0144375Y0050452D01*
X0144470Y0050455D01*
X0144470Y0050399D01*
X0144378Y0050396D01*
X0144286Y0050389D01*
X0144194Y0050378D01*
X0144103Y0050363D01*
X0144012Y0050345D01*
X0143923Y0050322D01*
X0143834Y0050296D01*
X0143746Y0050267D01*
X0143660Y0050234D01*
X0143576Y0050197D01*
X0143492Y0050156D01*
X0143411Y0050113D01*
X0143332Y0050066D01*
X0143254Y0050015D01*
X0143179Y0049962D01*
X0143106Y0049905D01*
X0143035Y0049845D01*
X0142967Y0049783D01*
X0142902Y0049718D01*
X0142840Y0049650D01*
X0142780Y0049579D01*
X0142723Y0049506D01*
X0142670Y0049431D01*
X0142619Y0049353D01*
X0142572Y0049274D01*
X0142529Y0049193D01*
X0142488Y0049109D01*
X0142451Y0049025D01*
X0142418Y0048939D01*
X0142389Y0048851D01*
X0142363Y0048762D01*
X0142340Y0048673D01*
X0142322Y0048582D01*
X0142307Y0048491D01*
X0142296Y0048399D01*
X0142289Y0048307D01*
X0142286Y0048215D01*
X0142342Y0048215D01*
X0142345Y0048307D01*
X0142353Y0048400D01*
X0142364Y0048491D01*
X0142379Y0048583D01*
X0142398Y0048673D01*
X0142421Y0048763D01*
X0142447Y0048851D01*
X0142478Y0048939D01*
X0142512Y0049025D01*
X0142550Y0049109D01*
X0142591Y0049192D01*
X0142636Y0049273D01*
X0142684Y0049352D01*
X0142736Y0049428D01*
X0142791Y0049503D01*
X0142849Y0049575D01*
X0142910Y0049644D01*
X0142974Y0049711D01*
X0143041Y0049775D01*
X0143110Y0049836D01*
X0143182Y0049894D01*
X0143257Y0049949D01*
X0143333Y0050001D01*
X0143412Y0050049D01*
X0143493Y0050094D01*
X0143576Y0050135D01*
X0143660Y0050173D01*
X0143746Y0050207D01*
X0143834Y0050238D01*
X0143922Y0050264D01*
X0144012Y0050287D01*
X0144102Y0050306D01*
X0144194Y0050321D01*
X0144285Y0050332D01*
X0144378Y0050340D01*
X0144470Y0050343D01*
X0144470Y0050287D01*
X0144380Y0050284D01*
X0144290Y0050277D01*
X0144201Y0050266D01*
X0144112Y0050251D01*
X0144024Y0050232D01*
X0143937Y0050210D01*
X0143850Y0050184D01*
X0143765Y0050154D01*
X0143682Y0050121D01*
X0143600Y0050084D01*
X0143519Y0050044D01*
X0143440Y0050000D01*
X0143364Y0049953D01*
X0143289Y0049903D01*
X0143216Y0049850D01*
X0143146Y0049793D01*
X0143079Y0049734D01*
X0143014Y0049671D01*
X0142951Y0049606D01*
X0142892Y0049539D01*
X0142835Y0049469D01*
X0142782Y0049396D01*
X0142732Y0049321D01*
X0142685Y0049245D01*
X0142641Y0049166D01*
X0142601Y0049085D01*
X0142564Y0049003D01*
X0142531Y0048920D01*
X0142501Y0048835D01*
X0142475Y0048748D01*
X0142453Y0048661D01*
X0142434Y0048573D01*
X0142419Y0048484D01*
X0142408Y0048395D01*
X0142401Y0048305D01*
X0142398Y0048215D01*
X0142454Y0048215D01*
X0142457Y0048303D01*
X0142464Y0048390D01*
X0142475Y0048477D01*
X0142489Y0048563D01*
X0142507Y0048649D01*
X0142529Y0048734D01*
X0142554Y0048818D01*
X0142583Y0048900D01*
X0142616Y0048982D01*
X0142651Y0049062D01*
X0142691Y0049140D01*
X0142733Y0049217D01*
X0142779Y0049291D01*
X0142828Y0049364D01*
X0142880Y0049434D01*
X0142935Y0049503D01*
X0142993Y0049568D01*
X0143053Y0049632D01*
X0143117Y0049692D01*
X0143182Y0049750D01*
X0143251Y0049805D01*
X0143321Y0049857D01*
X0143394Y0049906D01*
X0143468Y0049952D01*
X0143545Y0049994D01*
X0143623Y0050034D01*
X0143703Y0050069D01*
X0143785Y0050102D01*
X0143867Y0050131D01*
X0143951Y0050156D01*
X0144036Y0050178D01*
X0144122Y0050196D01*
X0144208Y0050210D01*
X0144295Y0050221D01*
X0144382Y0050228D01*
X0144470Y0050231D01*
X0144470Y0050175D01*
X0144382Y0050172D01*
X0144295Y0050164D01*
X0144208Y0050153D01*
X0144122Y0050139D01*
X0144036Y0050120D01*
X0143952Y0050098D01*
X0143868Y0050072D01*
X0143786Y0050042D01*
X0143705Y0050009D01*
X0143625Y0049972D01*
X0143547Y0049932D01*
X0143471Y0049888D01*
X0143397Y0049842D01*
X0143325Y0049791D01*
X0143256Y0049738D01*
X0143189Y0049682D01*
X0143124Y0049623D01*
X0143062Y0049561D01*
X0143003Y0049496D01*
X0142947Y0049429D01*
X0142894Y0049360D01*
X0142843Y0049288D01*
X0142797Y0049214D01*
X0142753Y0049138D01*
X0142713Y0049060D01*
X0142676Y0048980D01*
X0142643Y0048899D01*
X0142613Y0048817D01*
X0142587Y0048733D01*
X0142565Y0048649D01*
X0142546Y0048563D01*
X0142532Y0048477D01*
X0142521Y0048390D01*
X0142513Y0048303D01*
X0142510Y0048215D01*
X0142566Y0048215D01*
X0142569Y0048300D01*
X0142576Y0048385D01*
X0142587Y0048469D01*
X0142601Y0048553D01*
X0142619Y0048636D01*
X0142641Y0048718D01*
X0142666Y0048800D01*
X0142695Y0048880D01*
X0142727Y0048958D01*
X0142763Y0049036D01*
X0142802Y0049111D01*
X0142845Y0049185D01*
X0142890Y0049257D01*
X0142939Y0049327D01*
X0142991Y0049394D01*
X0143045Y0049459D01*
X0143103Y0049522D01*
X0143163Y0049582D01*
X0143226Y0049640D01*
X0143291Y0049694D01*
X0143358Y0049746D01*
X0143428Y0049795D01*
X0143500Y0049840D01*
X0143574Y0049883D01*
X0143649Y0049922D01*
X0143727Y0049958D01*
X0143805Y0049990D01*
X0143885Y0050019D01*
X0143967Y0050044D01*
X0144049Y0050066D01*
X0144132Y0050084D01*
X0144216Y0050098D01*
X0144300Y0050109D01*
X0144385Y0050116D01*
X0144470Y0050119D01*
X0144470Y0050063D01*
X0144385Y0050059D01*
X0144300Y0050052D01*
X0144216Y0050041D01*
X0144132Y0050027D01*
X0144049Y0050008D01*
X0143967Y0049986D01*
X0143886Y0049960D01*
X0143807Y0049930D01*
X0143729Y0049897D01*
X0143652Y0049861D01*
X0143577Y0049820D01*
X0143504Y0049777D01*
X0143433Y0049730D01*
X0143364Y0049680D01*
X0143298Y0049628D01*
X0143233Y0049572D01*
X0143172Y0049513D01*
X0143113Y0049452D01*
X0143057Y0049387D01*
X0143005Y0049321D01*
X0142955Y0049252D01*
X0142908Y0049181D01*
X0142865Y0049108D01*
X0142824Y0049033D01*
X0142788Y0048956D01*
X0142755Y0048878D01*
X0142725Y0048799D01*
X0142699Y0048718D01*
X0142677Y0048636D01*
X0142658Y0048553D01*
X0142644Y0048469D01*
X0142633Y0048385D01*
X0142626Y0048300D01*
X0142622Y0048215D01*
X0142678Y0048215D01*
X0142681Y0048297D01*
X0142688Y0048379D01*
X0142699Y0048461D01*
X0142713Y0048542D01*
X0142731Y0048623D01*
X0142753Y0048702D01*
X0142778Y0048781D01*
X0142807Y0048858D01*
X0142839Y0048934D01*
X0142875Y0049008D01*
X0142913Y0049081D01*
X0142956Y0049152D01*
X0143001Y0049220D01*
X0143049Y0049287D01*
X0143101Y0049352D01*
X0143155Y0049414D01*
X0143212Y0049473D01*
X0143271Y0049530D01*
X0143333Y0049584D01*
X0143398Y0049636D01*
X0143465Y0049684D01*
X0143533Y0049729D01*
X0143604Y0049772D01*
X0143677Y0049810D01*
X0143751Y0049846D01*
X0143827Y0049878D01*
X0143904Y0049907D01*
X0143983Y0049932D01*
X0144062Y0049954D01*
X0144143Y0049972D01*
X0144224Y0049986D01*
X0144306Y0049997D01*
X0144388Y0050004D01*
X0144470Y0050007D01*
X0144470Y0049951D01*
X0144388Y0049947D01*
X0144306Y0049940D01*
X0144224Y0049929D01*
X0144143Y0049915D01*
X0144063Y0049896D01*
X0143984Y0049874D01*
X0143906Y0049848D01*
X0143829Y0049819D01*
X0143754Y0049786D01*
X0143680Y0049749D01*
X0143608Y0049709D01*
X0143538Y0049666D01*
X0143470Y0049620D01*
X0143405Y0049570D01*
X0143341Y0049518D01*
X0143281Y0049462D01*
X0143223Y0049404D01*
X0143167Y0049344D01*
X0143115Y0049280D01*
X0143065Y0049215D01*
X0143019Y0049147D01*
X0142976Y0049077D01*
X0142936Y0049005D01*
X0142899Y0048931D01*
X0142866Y0048856D01*
X0142837Y0048779D01*
X0142811Y0048701D01*
X0142789Y0048622D01*
X0142770Y0048542D01*
X0142756Y0048461D01*
X0142745Y0048379D01*
X0142738Y0048297D01*
X0142734Y0048215D01*
X0151769Y0048214D02*
X0151229Y0048214D01*
X0151230Y0048215D02*
X0151226Y0048295D01*
X0151219Y0048376D01*
X0151209Y0048455D01*
X0151194Y0048535D01*
X0151176Y0048613D01*
X0151154Y0048691D01*
X0151129Y0048767D01*
X0151100Y0048842D01*
X0151068Y0048916D01*
X0151032Y0048988D01*
X0150993Y0049059D01*
X0150951Y0049127D01*
X0150906Y0049194D01*
X0150857Y0049258D01*
X0150806Y0049320D01*
X0150751Y0049379D01*
X0150694Y0049436D01*
X0150635Y0049491D01*
X0150573Y0049542D01*
X0150509Y0049591D01*
X0150442Y0049636D01*
X0150374Y0049678D01*
X0150303Y0049717D01*
X0150231Y0049753D01*
X0150157Y0049785D01*
X0150082Y0049814D01*
X0150006Y0049839D01*
X0149928Y0049861D01*
X0149850Y0049879D01*
X0149770Y0049894D01*
X0149691Y0049904D01*
X0149610Y0049911D01*
X0149530Y0049915D01*
X0149529Y0050454D01*
X0149530Y0050455D01*
X0149625Y0050452D01*
X0149719Y0050444D01*
X0149813Y0050433D01*
X0149907Y0050418D01*
X0150000Y0050399D01*
X0150092Y0050377D01*
X0150183Y0050350D01*
X0150272Y0050320D01*
X0150361Y0050286D01*
X0150448Y0050248D01*
X0150533Y0050206D01*
X0150616Y0050162D01*
X0150698Y0050113D01*
X0150777Y0050062D01*
X0150854Y0050007D01*
X0150929Y0049949D01*
X0151002Y0049887D01*
X0151071Y0049823D01*
X0151138Y0049756D01*
X0151202Y0049687D01*
X0151264Y0049614D01*
X0151322Y0049539D01*
X0151377Y0049462D01*
X0151428Y0049383D01*
X0151477Y0049301D01*
X0151521Y0049218D01*
X0151563Y0049133D01*
X0151601Y0049046D01*
X0151635Y0048957D01*
X0151665Y0048868D01*
X0151692Y0048777D01*
X0151714Y0048685D01*
X0151733Y0048592D01*
X0151748Y0048498D01*
X0151759Y0048404D01*
X0151767Y0048310D01*
X0151770Y0048215D01*
X0151714Y0048215D01*
X0151711Y0048307D01*
X0151704Y0048399D01*
X0151693Y0048491D01*
X0151678Y0048582D01*
X0151660Y0048673D01*
X0151637Y0048762D01*
X0151611Y0048851D01*
X0151582Y0048939D01*
X0151549Y0049025D01*
X0151512Y0049109D01*
X0151471Y0049193D01*
X0151428Y0049274D01*
X0151381Y0049353D01*
X0151330Y0049431D01*
X0151277Y0049506D01*
X0151220Y0049579D01*
X0151160Y0049650D01*
X0151098Y0049718D01*
X0151033Y0049783D01*
X0150965Y0049845D01*
X0150894Y0049905D01*
X0150821Y0049962D01*
X0150746Y0050015D01*
X0150668Y0050066D01*
X0150589Y0050113D01*
X0150508Y0050156D01*
X0150424Y0050197D01*
X0150340Y0050234D01*
X0150254Y0050267D01*
X0150166Y0050296D01*
X0150077Y0050322D01*
X0149988Y0050345D01*
X0149897Y0050363D01*
X0149806Y0050378D01*
X0149714Y0050389D01*
X0149622Y0050396D01*
X0149530Y0050399D01*
X0149530Y0050343D01*
X0149622Y0050340D01*
X0149715Y0050332D01*
X0149806Y0050321D01*
X0149898Y0050306D01*
X0149988Y0050287D01*
X0150078Y0050264D01*
X0150166Y0050238D01*
X0150254Y0050207D01*
X0150340Y0050173D01*
X0150424Y0050135D01*
X0150507Y0050094D01*
X0150588Y0050049D01*
X0150667Y0050001D01*
X0150743Y0049949D01*
X0150818Y0049894D01*
X0150890Y0049836D01*
X0150959Y0049775D01*
X0151026Y0049711D01*
X0151090Y0049644D01*
X0151151Y0049575D01*
X0151209Y0049503D01*
X0151264Y0049428D01*
X0151316Y0049352D01*
X0151364Y0049273D01*
X0151409Y0049192D01*
X0151450Y0049109D01*
X0151488Y0049025D01*
X0151522Y0048939D01*
X0151553Y0048851D01*
X0151579Y0048763D01*
X0151602Y0048673D01*
X0151621Y0048583D01*
X0151636Y0048491D01*
X0151647Y0048400D01*
X0151655Y0048307D01*
X0151658Y0048215D01*
X0151602Y0048215D01*
X0151599Y0048305D01*
X0151592Y0048395D01*
X0151581Y0048484D01*
X0151566Y0048573D01*
X0151547Y0048661D01*
X0151525Y0048748D01*
X0151499Y0048835D01*
X0151469Y0048920D01*
X0151436Y0049003D01*
X0151399Y0049085D01*
X0151359Y0049166D01*
X0151315Y0049245D01*
X0151268Y0049321D01*
X0151218Y0049396D01*
X0151165Y0049469D01*
X0151108Y0049539D01*
X0151049Y0049606D01*
X0150986Y0049671D01*
X0150921Y0049734D01*
X0150854Y0049793D01*
X0150784Y0049850D01*
X0150711Y0049903D01*
X0150636Y0049953D01*
X0150560Y0050000D01*
X0150481Y0050044D01*
X0150400Y0050084D01*
X0150318Y0050121D01*
X0150235Y0050154D01*
X0150150Y0050184D01*
X0150063Y0050210D01*
X0149976Y0050232D01*
X0149888Y0050251D01*
X0149799Y0050266D01*
X0149710Y0050277D01*
X0149620Y0050284D01*
X0149530Y0050287D01*
X0149530Y0050231D01*
X0149618Y0050228D01*
X0149705Y0050221D01*
X0149792Y0050210D01*
X0149878Y0050196D01*
X0149964Y0050178D01*
X0150049Y0050156D01*
X0150133Y0050131D01*
X0150215Y0050102D01*
X0150297Y0050069D01*
X0150377Y0050034D01*
X0150455Y0049994D01*
X0150532Y0049952D01*
X0150606Y0049906D01*
X0150679Y0049857D01*
X0150749Y0049805D01*
X0150818Y0049750D01*
X0150883Y0049692D01*
X0150947Y0049632D01*
X0151007Y0049568D01*
X0151065Y0049503D01*
X0151120Y0049434D01*
X0151172Y0049364D01*
X0151221Y0049291D01*
X0151267Y0049217D01*
X0151309Y0049140D01*
X0151349Y0049062D01*
X0151384Y0048982D01*
X0151417Y0048900D01*
X0151446Y0048818D01*
X0151471Y0048734D01*
X0151493Y0048649D01*
X0151511Y0048563D01*
X0151525Y0048477D01*
X0151536Y0048390D01*
X0151543Y0048303D01*
X0151546Y0048215D01*
X0151490Y0048215D01*
X0151487Y0048303D01*
X0151479Y0048390D01*
X0151468Y0048477D01*
X0151454Y0048563D01*
X0151435Y0048649D01*
X0151413Y0048733D01*
X0151387Y0048817D01*
X0151357Y0048899D01*
X0151324Y0048980D01*
X0151287Y0049060D01*
X0151247Y0049138D01*
X0151203Y0049214D01*
X0151157Y0049288D01*
X0151106Y0049360D01*
X0151053Y0049429D01*
X0150997Y0049496D01*
X0150938Y0049561D01*
X0150876Y0049623D01*
X0150811Y0049682D01*
X0150744Y0049738D01*
X0150675Y0049791D01*
X0150603Y0049842D01*
X0150529Y0049888D01*
X0150453Y0049932D01*
X0150375Y0049972D01*
X0150295Y0050009D01*
X0150214Y0050042D01*
X0150132Y0050072D01*
X0150048Y0050098D01*
X0149964Y0050120D01*
X0149878Y0050139D01*
X0149792Y0050153D01*
X0149705Y0050164D01*
X0149618Y0050172D01*
X0149530Y0050175D01*
X0149530Y0050119D01*
X0149615Y0050116D01*
X0149700Y0050109D01*
X0149784Y0050098D01*
X0149868Y0050084D01*
X0149951Y0050066D01*
X0150033Y0050044D01*
X0150115Y0050019D01*
X0150195Y0049990D01*
X0150273Y0049958D01*
X0150351Y0049922D01*
X0150426Y0049883D01*
X0150500Y0049840D01*
X0150572Y0049795D01*
X0150642Y0049746D01*
X0150709Y0049694D01*
X0150774Y0049640D01*
X0150837Y0049582D01*
X0150897Y0049522D01*
X0150955Y0049459D01*
X0151009Y0049394D01*
X0151061Y0049327D01*
X0151110Y0049257D01*
X0151155Y0049185D01*
X0151198Y0049111D01*
X0151237Y0049036D01*
X0151273Y0048958D01*
X0151305Y0048880D01*
X0151334Y0048800D01*
X0151359Y0048718D01*
X0151381Y0048636D01*
X0151399Y0048553D01*
X0151413Y0048469D01*
X0151424Y0048385D01*
X0151431Y0048300D01*
X0151434Y0048215D01*
X0151378Y0048215D01*
X0151374Y0048300D01*
X0151367Y0048385D01*
X0151356Y0048469D01*
X0151342Y0048553D01*
X0151323Y0048636D01*
X0151301Y0048718D01*
X0151275Y0048799D01*
X0151245Y0048878D01*
X0151212Y0048956D01*
X0151176Y0049033D01*
X0151135Y0049108D01*
X0151092Y0049181D01*
X0151045Y0049252D01*
X0150995Y0049321D01*
X0150943Y0049387D01*
X0150887Y0049452D01*
X0150828Y0049513D01*
X0150767Y0049572D01*
X0150702Y0049628D01*
X0150636Y0049680D01*
X0150567Y0049730D01*
X0150496Y0049777D01*
X0150423Y0049820D01*
X0150348Y0049861D01*
X0150271Y0049897D01*
X0150193Y0049930D01*
X0150114Y0049960D01*
X0150033Y0049986D01*
X0149951Y0050008D01*
X0149868Y0050027D01*
X0149784Y0050041D01*
X0149700Y0050052D01*
X0149615Y0050059D01*
X0149530Y0050063D01*
X0149530Y0050007D01*
X0149612Y0050004D01*
X0149694Y0049997D01*
X0149776Y0049986D01*
X0149857Y0049972D01*
X0149938Y0049954D01*
X0150017Y0049932D01*
X0150096Y0049907D01*
X0150173Y0049878D01*
X0150249Y0049846D01*
X0150323Y0049810D01*
X0150396Y0049772D01*
X0150467Y0049729D01*
X0150535Y0049684D01*
X0150602Y0049636D01*
X0150667Y0049584D01*
X0150729Y0049530D01*
X0150788Y0049473D01*
X0150845Y0049414D01*
X0150899Y0049352D01*
X0150951Y0049287D01*
X0150999Y0049220D01*
X0151044Y0049152D01*
X0151087Y0049081D01*
X0151125Y0049008D01*
X0151161Y0048934D01*
X0151193Y0048858D01*
X0151222Y0048781D01*
X0151247Y0048702D01*
X0151269Y0048623D01*
X0151287Y0048542D01*
X0151301Y0048461D01*
X0151312Y0048379D01*
X0151319Y0048297D01*
X0151322Y0048215D01*
X0151266Y0048215D01*
X0151262Y0048297D01*
X0151255Y0048379D01*
X0151244Y0048461D01*
X0151230Y0048542D01*
X0151211Y0048622D01*
X0151189Y0048701D01*
X0151163Y0048779D01*
X0151134Y0048856D01*
X0151101Y0048931D01*
X0151064Y0049005D01*
X0151024Y0049077D01*
X0150981Y0049147D01*
X0150935Y0049215D01*
X0150885Y0049280D01*
X0150833Y0049344D01*
X0150777Y0049404D01*
X0150719Y0049462D01*
X0150659Y0049518D01*
X0150595Y0049570D01*
X0150530Y0049620D01*
X0150462Y0049666D01*
X0150392Y0049709D01*
X0150320Y0049749D01*
X0150246Y0049786D01*
X0150171Y0049819D01*
X0150094Y0049848D01*
X0150016Y0049874D01*
X0149937Y0049896D01*
X0149857Y0049915D01*
X0149776Y0049929D01*
X0149694Y0049940D01*
X0149612Y0049947D01*
X0149530Y0049951D01*
X0149529Y0032916D02*
X0149529Y0033456D01*
X0149530Y0033455D02*
X0149610Y0033459D01*
X0149691Y0033466D01*
X0149770Y0033476D01*
X0149850Y0033491D01*
X0149928Y0033509D01*
X0150006Y0033531D01*
X0150082Y0033556D01*
X0150157Y0033585D01*
X0150231Y0033617D01*
X0150303Y0033653D01*
X0150374Y0033692D01*
X0150442Y0033734D01*
X0150509Y0033779D01*
X0150573Y0033828D01*
X0150635Y0033879D01*
X0150694Y0033934D01*
X0150751Y0033991D01*
X0150806Y0034050D01*
X0150857Y0034112D01*
X0150906Y0034176D01*
X0150951Y0034243D01*
X0150993Y0034311D01*
X0151032Y0034382D01*
X0151068Y0034454D01*
X0151100Y0034528D01*
X0151129Y0034603D01*
X0151154Y0034679D01*
X0151176Y0034757D01*
X0151194Y0034835D01*
X0151209Y0034915D01*
X0151219Y0034994D01*
X0151226Y0035075D01*
X0151230Y0035155D01*
X0151769Y0035156D01*
X0151770Y0035155D01*
X0151767Y0035060D01*
X0151759Y0034966D01*
X0151748Y0034872D01*
X0151733Y0034778D01*
X0151714Y0034685D01*
X0151692Y0034593D01*
X0151665Y0034502D01*
X0151635Y0034413D01*
X0151601Y0034324D01*
X0151563Y0034237D01*
X0151521Y0034152D01*
X0151477Y0034069D01*
X0151428Y0033987D01*
X0151377Y0033908D01*
X0151322Y0033831D01*
X0151264Y0033756D01*
X0151202Y0033683D01*
X0151138Y0033614D01*
X0151071Y0033547D01*
X0151002Y0033483D01*
X0150929Y0033421D01*
X0150854Y0033363D01*
X0150777Y0033308D01*
X0150698Y0033257D01*
X0150616Y0033208D01*
X0150533Y0033164D01*
X0150448Y0033122D01*
X0150361Y0033084D01*
X0150272Y0033050D01*
X0150183Y0033020D01*
X0150092Y0032993D01*
X0150000Y0032971D01*
X0149907Y0032952D01*
X0149813Y0032937D01*
X0149719Y0032926D01*
X0149625Y0032918D01*
X0149530Y0032915D01*
X0149530Y0032971D01*
X0149622Y0032974D01*
X0149714Y0032981D01*
X0149806Y0032992D01*
X0149897Y0033007D01*
X0149988Y0033025D01*
X0150077Y0033048D01*
X0150166Y0033074D01*
X0150254Y0033103D01*
X0150340Y0033136D01*
X0150424Y0033173D01*
X0150508Y0033214D01*
X0150589Y0033257D01*
X0150668Y0033304D01*
X0150746Y0033355D01*
X0150821Y0033408D01*
X0150894Y0033465D01*
X0150965Y0033525D01*
X0151033Y0033587D01*
X0151098Y0033652D01*
X0151160Y0033720D01*
X0151220Y0033791D01*
X0151277Y0033864D01*
X0151330Y0033939D01*
X0151381Y0034017D01*
X0151428Y0034096D01*
X0151471Y0034177D01*
X0151512Y0034261D01*
X0151549Y0034345D01*
X0151582Y0034431D01*
X0151611Y0034519D01*
X0151637Y0034608D01*
X0151660Y0034697D01*
X0151678Y0034788D01*
X0151693Y0034879D01*
X0151704Y0034971D01*
X0151711Y0035063D01*
X0151714Y0035155D01*
X0151658Y0035155D01*
X0151655Y0035063D01*
X0151647Y0034970D01*
X0151636Y0034879D01*
X0151621Y0034787D01*
X0151602Y0034697D01*
X0151579Y0034607D01*
X0151553Y0034519D01*
X0151522Y0034431D01*
X0151488Y0034345D01*
X0151450Y0034261D01*
X0151409Y0034178D01*
X0151364Y0034097D01*
X0151316Y0034018D01*
X0151264Y0033942D01*
X0151209Y0033867D01*
X0151151Y0033795D01*
X0151090Y0033726D01*
X0151026Y0033659D01*
X0150959Y0033595D01*
X0150890Y0033534D01*
X0150818Y0033476D01*
X0150743Y0033421D01*
X0150667Y0033369D01*
X0150588Y0033321D01*
X0150507Y0033276D01*
X0150424Y0033235D01*
X0150340Y0033197D01*
X0150254Y0033163D01*
X0150166Y0033132D01*
X0150078Y0033106D01*
X0149988Y0033083D01*
X0149898Y0033064D01*
X0149806Y0033049D01*
X0149715Y0033038D01*
X0149622Y0033030D01*
X0149530Y0033027D01*
X0149530Y0033083D01*
X0149620Y0033086D01*
X0149710Y0033093D01*
X0149799Y0033104D01*
X0149888Y0033119D01*
X0149976Y0033138D01*
X0150063Y0033160D01*
X0150150Y0033186D01*
X0150235Y0033216D01*
X0150318Y0033249D01*
X0150400Y0033286D01*
X0150481Y0033326D01*
X0150560Y0033370D01*
X0150636Y0033417D01*
X0150711Y0033467D01*
X0150784Y0033520D01*
X0150854Y0033577D01*
X0150921Y0033636D01*
X0150986Y0033699D01*
X0151049Y0033764D01*
X0151108Y0033831D01*
X0151165Y0033901D01*
X0151218Y0033974D01*
X0151268Y0034049D01*
X0151315Y0034125D01*
X0151359Y0034204D01*
X0151399Y0034285D01*
X0151436Y0034367D01*
X0151469Y0034450D01*
X0151499Y0034535D01*
X0151525Y0034622D01*
X0151547Y0034709D01*
X0151566Y0034797D01*
X0151581Y0034886D01*
X0151592Y0034975D01*
X0151599Y0035065D01*
X0151602Y0035155D01*
X0151546Y0035155D01*
X0151543Y0035067D01*
X0151536Y0034980D01*
X0151525Y0034893D01*
X0151511Y0034807D01*
X0151493Y0034721D01*
X0151471Y0034636D01*
X0151446Y0034552D01*
X0151417Y0034470D01*
X0151384Y0034388D01*
X0151349Y0034308D01*
X0151309Y0034230D01*
X0151267Y0034153D01*
X0151221Y0034079D01*
X0151172Y0034006D01*
X0151120Y0033936D01*
X0151065Y0033867D01*
X0151007Y0033802D01*
X0150947Y0033738D01*
X0150883Y0033678D01*
X0150818Y0033620D01*
X0150749Y0033565D01*
X0150679Y0033513D01*
X0150606Y0033464D01*
X0150532Y0033418D01*
X0150455Y0033376D01*
X0150377Y0033336D01*
X0150297Y0033301D01*
X0150215Y0033268D01*
X0150133Y0033239D01*
X0150049Y0033214D01*
X0149964Y0033192D01*
X0149878Y0033174D01*
X0149792Y0033160D01*
X0149705Y0033149D01*
X0149618Y0033142D01*
X0149530Y0033139D01*
X0149530Y0033195D01*
X0149618Y0033198D01*
X0149705Y0033206D01*
X0149792Y0033217D01*
X0149878Y0033231D01*
X0149964Y0033250D01*
X0150048Y0033272D01*
X0150132Y0033298D01*
X0150214Y0033328D01*
X0150295Y0033361D01*
X0150375Y0033398D01*
X0150453Y0033438D01*
X0150529Y0033482D01*
X0150603Y0033528D01*
X0150675Y0033579D01*
X0150744Y0033632D01*
X0150811Y0033688D01*
X0150876Y0033747D01*
X0150938Y0033809D01*
X0150997Y0033874D01*
X0151053Y0033941D01*
X0151106Y0034010D01*
X0151157Y0034082D01*
X0151203Y0034156D01*
X0151247Y0034232D01*
X0151287Y0034310D01*
X0151324Y0034390D01*
X0151357Y0034471D01*
X0151387Y0034553D01*
X0151413Y0034637D01*
X0151435Y0034721D01*
X0151454Y0034807D01*
X0151468Y0034893D01*
X0151479Y0034980D01*
X0151487Y0035067D01*
X0151490Y0035155D01*
X0151434Y0035155D01*
X0151431Y0035070D01*
X0151424Y0034985D01*
X0151413Y0034901D01*
X0151399Y0034817D01*
X0151381Y0034734D01*
X0151359Y0034652D01*
X0151334Y0034570D01*
X0151305Y0034490D01*
X0151273Y0034412D01*
X0151237Y0034334D01*
X0151198Y0034259D01*
X0151155Y0034185D01*
X0151110Y0034113D01*
X0151061Y0034043D01*
X0151009Y0033976D01*
X0150955Y0033911D01*
X0150897Y0033848D01*
X0150837Y0033788D01*
X0150774Y0033730D01*
X0150709Y0033676D01*
X0150642Y0033624D01*
X0150572Y0033575D01*
X0150500Y0033530D01*
X0150426Y0033487D01*
X0150351Y0033448D01*
X0150273Y0033412D01*
X0150195Y0033380D01*
X0150115Y0033351D01*
X0150033Y0033326D01*
X0149951Y0033304D01*
X0149868Y0033286D01*
X0149784Y0033272D01*
X0149700Y0033261D01*
X0149615Y0033254D01*
X0149530Y0033251D01*
X0149530Y0033307D01*
X0149615Y0033311D01*
X0149700Y0033318D01*
X0149784Y0033329D01*
X0149868Y0033343D01*
X0149951Y0033362D01*
X0150033Y0033384D01*
X0150114Y0033410D01*
X0150193Y0033440D01*
X0150271Y0033473D01*
X0150348Y0033509D01*
X0150423Y0033550D01*
X0150496Y0033593D01*
X0150567Y0033640D01*
X0150636Y0033690D01*
X0150702Y0033742D01*
X0150767Y0033798D01*
X0150828Y0033857D01*
X0150887Y0033918D01*
X0150943Y0033983D01*
X0150995Y0034049D01*
X0151045Y0034118D01*
X0151092Y0034189D01*
X0151135Y0034262D01*
X0151176Y0034337D01*
X0151212Y0034414D01*
X0151245Y0034492D01*
X0151275Y0034571D01*
X0151301Y0034652D01*
X0151323Y0034734D01*
X0151342Y0034817D01*
X0151356Y0034901D01*
X0151367Y0034985D01*
X0151374Y0035070D01*
X0151378Y0035155D01*
X0151322Y0035155D01*
X0151319Y0035073D01*
X0151312Y0034991D01*
X0151301Y0034909D01*
X0151287Y0034828D01*
X0151269Y0034747D01*
X0151247Y0034668D01*
X0151222Y0034589D01*
X0151193Y0034512D01*
X0151161Y0034436D01*
X0151125Y0034362D01*
X0151087Y0034289D01*
X0151044Y0034218D01*
X0150999Y0034150D01*
X0150951Y0034083D01*
X0150899Y0034018D01*
X0150845Y0033956D01*
X0150788Y0033897D01*
X0150729Y0033840D01*
X0150667Y0033786D01*
X0150602Y0033734D01*
X0150535Y0033686D01*
X0150467Y0033641D01*
X0150396Y0033598D01*
X0150323Y0033560D01*
X0150249Y0033524D01*
X0150173Y0033492D01*
X0150096Y0033463D01*
X0150017Y0033438D01*
X0149938Y0033416D01*
X0149857Y0033398D01*
X0149776Y0033384D01*
X0149694Y0033373D01*
X0149612Y0033366D01*
X0149530Y0033363D01*
X0149530Y0033419D01*
X0149612Y0033423D01*
X0149694Y0033430D01*
X0149776Y0033441D01*
X0149857Y0033455D01*
X0149937Y0033474D01*
X0150016Y0033496D01*
X0150094Y0033522D01*
X0150171Y0033551D01*
X0150246Y0033584D01*
X0150320Y0033621D01*
X0150392Y0033661D01*
X0150462Y0033704D01*
X0150530Y0033750D01*
X0150595Y0033800D01*
X0150659Y0033852D01*
X0150719Y0033908D01*
X0150777Y0033966D01*
X0150833Y0034026D01*
X0150885Y0034090D01*
X0150935Y0034155D01*
X0150981Y0034223D01*
X0151024Y0034293D01*
X0151064Y0034365D01*
X0151101Y0034439D01*
X0151134Y0034514D01*
X0151163Y0034591D01*
X0151189Y0034669D01*
X0151211Y0034748D01*
X0151230Y0034828D01*
X0151244Y0034909D01*
X0151255Y0034991D01*
X0151262Y0035073D01*
X0151266Y0035155D01*
X0142231Y0035156D02*
X0142771Y0035156D01*
X0142770Y0035155D02*
X0142774Y0035075D01*
X0142781Y0034994D01*
X0142791Y0034915D01*
X0142806Y0034835D01*
X0142824Y0034757D01*
X0142846Y0034679D01*
X0142871Y0034603D01*
X0142900Y0034528D01*
X0142932Y0034454D01*
X0142968Y0034382D01*
X0143007Y0034311D01*
X0143049Y0034243D01*
X0143094Y0034176D01*
X0143143Y0034112D01*
X0143194Y0034050D01*
X0143249Y0033991D01*
X0143306Y0033934D01*
X0143365Y0033879D01*
X0143427Y0033828D01*
X0143491Y0033779D01*
X0143558Y0033734D01*
X0143626Y0033692D01*
X0143697Y0033653D01*
X0143769Y0033617D01*
X0143843Y0033585D01*
X0143918Y0033556D01*
X0143994Y0033531D01*
X0144072Y0033509D01*
X0144150Y0033491D01*
X0144230Y0033476D01*
X0144309Y0033466D01*
X0144390Y0033459D01*
X0144470Y0033455D01*
X0144471Y0032916D01*
X0144470Y0032915D01*
X0144375Y0032918D01*
X0144281Y0032926D01*
X0144187Y0032937D01*
X0144093Y0032952D01*
X0144000Y0032971D01*
X0143908Y0032993D01*
X0143817Y0033020D01*
X0143728Y0033050D01*
X0143639Y0033084D01*
X0143552Y0033122D01*
X0143467Y0033164D01*
X0143384Y0033208D01*
X0143302Y0033257D01*
X0143223Y0033308D01*
X0143146Y0033363D01*
X0143071Y0033421D01*
X0142998Y0033483D01*
X0142929Y0033547D01*
X0142862Y0033614D01*
X0142798Y0033683D01*
X0142736Y0033756D01*
X0142678Y0033831D01*
X0142623Y0033908D01*
X0142572Y0033987D01*
X0142523Y0034069D01*
X0142479Y0034152D01*
X0142437Y0034237D01*
X0142399Y0034324D01*
X0142365Y0034413D01*
X0142335Y0034502D01*
X0142308Y0034593D01*
X0142286Y0034685D01*
X0142267Y0034778D01*
X0142252Y0034872D01*
X0142241Y0034966D01*
X0142233Y0035060D01*
X0142230Y0035155D01*
X0142286Y0035155D01*
X0142289Y0035063D01*
X0142296Y0034971D01*
X0142307Y0034879D01*
X0142322Y0034788D01*
X0142340Y0034697D01*
X0142363Y0034608D01*
X0142389Y0034519D01*
X0142418Y0034431D01*
X0142451Y0034345D01*
X0142488Y0034261D01*
X0142529Y0034177D01*
X0142572Y0034096D01*
X0142619Y0034017D01*
X0142670Y0033939D01*
X0142723Y0033864D01*
X0142780Y0033791D01*
X0142840Y0033720D01*
X0142902Y0033652D01*
X0142967Y0033587D01*
X0143035Y0033525D01*
X0143106Y0033465D01*
X0143179Y0033408D01*
X0143254Y0033355D01*
X0143332Y0033304D01*
X0143411Y0033257D01*
X0143492Y0033214D01*
X0143576Y0033173D01*
X0143660Y0033136D01*
X0143746Y0033103D01*
X0143834Y0033074D01*
X0143923Y0033048D01*
X0144012Y0033025D01*
X0144103Y0033007D01*
X0144194Y0032992D01*
X0144286Y0032981D01*
X0144378Y0032974D01*
X0144470Y0032971D01*
X0144470Y0033027D01*
X0144378Y0033030D01*
X0144285Y0033038D01*
X0144194Y0033049D01*
X0144102Y0033064D01*
X0144012Y0033083D01*
X0143922Y0033106D01*
X0143834Y0033132D01*
X0143746Y0033163D01*
X0143660Y0033197D01*
X0143576Y0033235D01*
X0143493Y0033276D01*
X0143412Y0033321D01*
X0143333Y0033369D01*
X0143257Y0033421D01*
X0143182Y0033476D01*
X0143110Y0033534D01*
X0143041Y0033595D01*
X0142974Y0033659D01*
X0142910Y0033726D01*
X0142849Y0033795D01*
X0142791Y0033867D01*
X0142736Y0033942D01*
X0142684Y0034018D01*
X0142636Y0034097D01*
X0142591Y0034178D01*
X0142550Y0034261D01*
X0142512Y0034345D01*
X0142478Y0034431D01*
X0142447Y0034519D01*
X0142421Y0034607D01*
X0142398Y0034697D01*
X0142379Y0034787D01*
X0142364Y0034879D01*
X0142353Y0034970D01*
X0142345Y0035063D01*
X0142342Y0035155D01*
X0142398Y0035155D01*
X0142401Y0035065D01*
X0142408Y0034975D01*
X0142419Y0034886D01*
X0142434Y0034797D01*
X0142453Y0034709D01*
X0142475Y0034622D01*
X0142501Y0034535D01*
X0142531Y0034450D01*
X0142564Y0034367D01*
X0142601Y0034285D01*
X0142641Y0034204D01*
X0142685Y0034125D01*
X0142732Y0034049D01*
X0142782Y0033974D01*
X0142835Y0033901D01*
X0142892Y0033831D01*
X0142951Y0033764D01*
X0143014Y0033699D01*
X0143079Y0033636D01*
X0143146Y0033577D01*
X0143216Y0033520D01*
X0143289Y0033467D01*
X0143364Y0033417D01*
X0143440Y0033370D01*
X0143519Y0033326D01*
X0143600Y0033286D01*
X0143682Y0033249D01*
X0143765Y0033216D01*
X0143850Y0033186D01*
X0143937Y0033160D01*
X0144024Y0033138D01*
X0144112Y0033119D01*
X0144201Y0033104D01*
X0144290Y0033093D01*
X0144380Y0033086D01*
X0144470Y0033083D01*
X0144470Y0033139D01*
X0144382Y0033142D01*
X0144295Y0033149D01*
X0144208Y0033160D01*
X0144122Y0033174D01*
X0144036Y0033192D01*
X0143951Y0033214D01*
X0143867Y0033239D01*
X0143785Y0033268D01*
X0143703Y0033301D01*
X0143623Y0033336D01*
X0143545Y0033376D01*
X0143468Y0033418D01*
X0143394Y0033464D01*
X0143321Y0033513D01*
X0143251Y0033565D01*
X0143182Y0033620D01*
X0143117Y0033678D01*
X0143053Y0033738D01*
X0142993Y0033802D01*
X0142935Y0033867D01*
X0142880Y0033936D01*
X0142828Y0034006D01*
X0142779Y0034079D01*
X0142733Y0034153D01*
X0142691Y0034230D01*
X0142651Y0034308D01*
X0142616Y0034388D01*
X0142583Y0034470D01*
X0142554Y0034552D01*
X0142529Y0034636D01*
X0142507Y0034721D01*
X0142489Y0034807D01*
X0142475Y0034893D01*
X0142464Y0034980D01*
X0142457Y0035067D01*
X0142454Y0035155D01*
X0142510Y0035155D01*
X0142513Y0035067D01*
X0142521Y0034980D01*
X0142532Y0034893D01*
X0142546Y0034807D01*
X0142565Y0034721D01*
X0142587Y0034637D01*
X0142613Y0034553D01*
X0142643Y0034471D01*
X0142676Y0034390D01*
X0142713Y0034310D01*
X0142753Y0034232D01*
X0142797Y0034156D01*
X0142843Y0034082D01*
X0142894Y0034010D01*
X0142947Y0033941D01*
X0143003Y0033874D01*
X0143062Y0033809D01*
X0143124Y0033747D01*
X0143189Y0033688D01*
X0143256Y0033632D01*
X0143325Y0033579D01*
X0143397Y0033528D01*
X0143471Y0033482D01*
X0143547Y0033438D01*
X0143625Y0033398D01*
X0143705Y0033361D01*
X0143786Y0033328D01*
X0143868Y0033298D01*
X0143952Y0033272D01*
X0144036Y0033250D01*
X0144122Y0033231D01*
X0144208Y0033217D01*
X0144295Y0033206D01*
X0144382Y0033198D01*
X0144470Y0033195D01*
X0144470Y0033251D01*
X0144385Y0033254D01*
X0144300Y0033261D01*
X0144216Y0033272D01*
X0144132Y0033286D01*
X0144049Y0033304D01*
X0143967Y0033326D01*
X0143885Y0033351D01*
X0143805Y0033380D01*
X0143727Y0033412D01*
X0143649Y0033448D01*
X0143574Y0033487D01*
X0143500Y0033530D01*
X0143428Y0033575D01*
X0143358Y0033624D01*
X0143291Y0033676D01*
X0143226Y0033730D01*
X0143163Y0033788D01*
X0143103Y0033848D01*
X0143045Y0033911D01*
X0142991Y0033976D01*
X0142939Y0034043D01*
X0142890Y0034113D01*
X0142845Y0034185D01*
X0142802Y0034259D01*
X0142763Y0034334D01*
X0142727Y0034412D01*
X0142695Y0034490D01*
X0142666Y0034570D01*
X0142641Y0034652D01*
X0142619Y0034734D01*
X0142601Y0034817D01*
X0142587Y0034901D01*
X0142576Y0034985D01*
X0142569Y0035070D01*
X0142566Y0035155D01*
X0142622Y0035155D01*
X0142626Y0035070D01*
X0142633Y0034985D01*
X0142644Y0034901D01*
X0142658Y0034817D01*
X0142677Y0034734D01*
X0142699Y0034652D01*
X0142725Y0034571D01*
X0142755Y0034492D01*
X0142788Y0034414D01*
X0142824Y0034337D01*
X0142865Y0034262D01*
X0142908Y0034189D01*
X0142955Y0034118D01*
X0143005Y0034049D01*
X0143057Y0033983D01*
X0143113Y0033918D01*
X0143172Y0033857D01*
X0143233Y0033798D01*
X0143298Y0033742D01*
X0143364Y0033690D01*
X0143433Y0033640D01*
X0143504Y0033593D01*
X0143577Y0033550D01*
X0143652Y0033509D01*
X0143729Y0033473D01*
X0143807Y0033440D01*
X0143886Y0033410D01*
X0143967Y0033384D01*
X0144049Y0033362D01*
X0144132Y0033343D01*
X0144216Y0033329D01*
X0144300Y0033318D01*
X0144385Y0033311D01*
X0144470Y0033307D01*
X0144470Y0033363D01*
X0144388Y0033366D01*
X0144306Y0033373D01*
X0144224Y0033384D01*
X0144143Y0033398D01*
X0144062Y0033416D01*
X0143983Y0033438D01*
X0143904Y0033463D01*
X0143827Y0033492D01*
X0143751Y0033524D01*
X0143677Y0033560D01*
X0143604Y0033598D01*
X0143533Y0033641D01*
X0143465Y0033686D01*
X0143398Y0033734D01*
X0143333Y0033786D01*
X0143271Y0033840D01*
X0143212Y0033897D01*
X0143155Y0033956D01*
X0143101Y0034018D01*
X0143049Y0034083D01*
X0143001Y0034150D01*
X0142956Y0034218D01*
X0142913Y0034289D01*
X0142875Y0034362D01*
X0142839Y0034436D01*
X0142807Y0034512D01*
X0142778Y0034589D01*
X0142753Y0034668D01*
X0142731Y0034747D01*
X0142713Y0034828D01*
X0142699Y0034909D01*
X0142688Y0034991D01*
X0142681Y0035073D01*
X0142678Y0035155D01*
X0142734Y0035155D01*
X0142738Y0035073D01*
X0142745Y0034991D01*
X0142756Y0034909D01*
X0142770Y0034828D01*
X0142789Y0034748D01*
X0142811Y0034669D01*
X0142837Y0034591D01*
X0142866Y0034514D01*
X0142899Y0034439D01*
X0142936Y0034365D01*
X0142976Y0034293D01*
X0143019Y0034223D01*
X0143065Y0034155D01*
X0143115Y0034090D01*
X0143167Y0034026D01*
X0143223Y0033966D01*
X0143281Y0033908D01*
X0143341Y0033852D01*
X0143405Y0033800D01*
X0143470Y0033750D01*
X0143538Y0033704D01*
X0143608Y0033661D01*
X0143680Y0033621D01*
X0143754Y0033584D01*
X0143829Y0033551D01*
X0143906Y0033522D01*
X0143984Y0033496D01*
X0144063Y0033474D01*
X0144143Y0033455D01*
X0144224Y0033441D01*
X0144306Y0033430D01*
X0144388Y0033423D01*
X0144470Y0033419D01*
D15*
X0144000Y0040385D02*
X0147000Y0040385D01*
X0150000Y0040385D01*
X0150000Y0042885D02*
X0147000Y0042885D01*
X0144000Y0042885D01*
X0102200Y0076685D02*
X0102200Y0079685D01*
X0102200Y0082685D01*
X0099700Y0082685D02*
X0099700Y0079685D01*
X0099700Y0076685D01*
D16*
X0101293Y0073939D02*
X0100542Y0073189D01*
X0100542Y0070186D01*
X0101293Y0069435D01*
X0102794Y0069435D01*
X0103545Y0070186D01*
X0105146Y0069435D02*
X0108149Y0072438D01*
X0108149Y0073189D01*
X0107398Y0073939D01*
X0105897Y0073939D01*
X0105146Y0073189D01*
X0103545Y0073189D02*
X0102794Y0073939D01*
X0101293Y0073939D01*
X0105146Y0069435D02*
X0108149Y0069435D01*
X0152746Y0047333D02*
X0157250Y0047333D01*
X0157250Y0045832D02*
X0157250Y0048834D01*
X0154247Y0045832D02*
X0152746Y0047333D01*
X0153497Y0044230D02*
X0152746Y0043480D01*
X0152746Y0041978D01*
X0153497Y0041228D01*
X0156499Y0041228D01*
X0157250Y0041978D01*
X0157250Y0043480D01*
X0156499Y0044230D01*
X0140750Y0125935D02*
X0136246Y0125935D01*
X0136246Y0128187D01*
X0136997Y0128938D01*
X0138498Y0128938D01*
X0139249Y0128187D01*
X0139249Y0125935D01*
X0139249Y0127437D02*
X0140750Y0128938D01*
X0140750Y0130539D02*
X0137747Y0130539D01*
X0136246Y0132041D01*
X0137747Y0133542D01*
X0140750Y0133542D01*
X0138498Y0133542D02*
X0138498Y0130539D01*
X0100426Y0133935D02*
X0097423Y0133935D01*
X0098924Y0133935D02*
X0098924Y0138439D01*
X0097423Y0136938D01*
X0095822Y0137689D02*
X0095071Y0138439D01*
X0093570Y0138439D01*
X0092819Y0137689D01*
X0092819Y0134686D01*
X0093570Y0133935D01*
X0095071Y0133935D01*
X0095822Y0134686D01*
X0091251Y0133935D02*
X0089750Y0133935D01*
X0090501Y0133935D02*
X0090501Y0138439D01*
X0091251Y0138439D02*
X0089750Y0138439D01*
X0080750Y0157728D02*
X0076246Y0157728D01*
X0076246Y0159980D01*
X0076997Y0160730D01*
X0078498Y0160730D01*
X0079249Y0159980D01*
X0079249Y0157728D01*
X0079249Y0159229D02*
X0080750Y0160730D01*
X0080750Y0162332D02*
X0080750Y0164583D01*
X0079999Y0165334D01*
X0079249Y0165334D01*
X0078498Y0164583D01*
X0078498Y0162332D01*
X0076246Y0162332D02*
X0076246Y0164583D01*
X0076997Y0165334D01*
X0077747Y0165334D01*
X0078498Y0164583D01*
X0080750Y0162332D02*
X0076246Y0162332D01*
X0091000Y0185685D02*
X0111000Y0185685D01*
X0111000Y0207685D01*
X0106000Y0207685D01*
X0106000Y0202685D01*
X0096000Y0202685D01*
X0096000Y0207685D01*
X0106000Y0207685D01*
X0096000Y0207685D02*
X0091000Y0207685D01*
X0091000Y0185685D01*
X0030750Y0145542D02*
X0030750Y0142539D01*
X0030750Y0144041D02*
X0026246Y0144041D01*
X0027747Y0142539D01*
X0026997Y0140938D02*
X0026246Y0140187D01*
X0026246Y0138686D01*
X0026997Y0137935D01*
X0027747Y0137935D01*
X0028498Y0138686D01*
X0028498Y0140187D01*
X0029249Y0140938D01*
X0029999Y0140938D01*
X0030750Y0140187D01*
X0030750Y0138686D01*
X0029999Y0137935D01*
X0044250Y0118439D02*
X0046502Y0118439D01*
X0047253Y0117689D01*
X0047253Y0116187D01*
X0046502Y0115437D01*
X0044250Y0115437D01*
X0045751Y0115437D02*
X0047253Y0113935D01*
X0048854Y0114686D02*
X0049605Y0113935D01*
X0051106Y0113935D01*
X0051856Y0114686D01*
X0048854Y0114686D02*
X0048854Y0117689D01*
X0049605Y0118439D01*
X0051106Y0118439D01*
X0051856Y0117689D01*
X0044250Y0118439D02*
X0044250Y0113935D01*
X0021647Y0092339D02*
X0021647Y0087835D01*
X0020146Y0087835D02*
X0023149Y0087835D01*
X0020146Y0090838D02*
X0021647Y0092339D01*
X0018545Y0091589D02*
X0017794Y0092339D01*
X0015542Y0092339D01*
X0015542Y0087835D01*
X0017794Y0087835D01*
X0018545Y0088586D01*
X0018545Y0091589D01*
X0013941Y0092339D02*
X0010938Y0092339D01*
X0010938Y0087835D01*
X0013941Y0087835D01*
X0012439Y0090087D02*
X0010938Y0090087D01*
X0009337Y0087835D02*
X0006334Y0087835D01*
X0006334Y0092339D01*
D17*
X0007000Y0100185D02*
X0007000Y0115185D01*
X0034000Y0139185D02*
X0034000Y0156185D01*
X0042071Y0159685D02*
X0050000Y0159685D01*
X0058000Y0156185D02*
X0058000Y0139185D01*
X0050000Y0135685D02*
X0041953Y0135685D01*
X0039000Y0147685D02*
X0039002Y0147857D01*
X0039008Y0148028D01*
X0039019Y0148200D01*
X0039034Y0148371D01*
X0039053Y0148542D01*
X0039076Y0148712D01*
X0039103Y0148882D01*
X0039135Y0149051D01*
X0039170Y0149219D01*
X0039210Y0149386D01*
X0039254Y0149552D01*
X0039301Y0149717D01*
X0039353Y0149881D01*
X0039409Y0150043D01*
X0039469Y0150204D01*
X0039533Y0150364D01*
X0039601Y0150522D01*
X0039672Y0150678D01*
X0039747Y0150832D01*
X0039827Y0150985D01*
X0039909Y0151135D01*
X0039996Y0151284D01*
X0040086Y0151430D01*
X0040180Y0151574D01*
X0040277Y0151716D01*
X0040378Y0151855D01*
X0040482Y0151992D01*
X0040589Y0152126D01*
X0040700Y0152257D01*
X0040813Y0152386D01*
X0040930Y0152512D01*
X0041050Y0152635D01*
X0041173Y0152755D01*
X0041299Y0152872D01*
X0041428Y0152985D01*
X0041559Y0153096D01*
X0041693Y0153203D01*
X0041830Y0153307D01*
X0041969Y0153408D01*
X0042111Y0153505D01*
X0042255Y0153599D01*
X0042401Y0153689D01*
X0042550Y0153776D01*
X0042700Y0153858D01*
X0042853Y0153938D01*
X0043007Y0154013D01*
X0043163Y0154084D01*
X0043321Y0154152D01*
X0043481Y0154216D01*
X0043642Y0154276D01*
X0043804Y0154332D01*
X0043968Y0154384D01*
X0044133Y0154431D01*
X0044299Y0154475D01*
X0044466Y0154515D01*
X0044634Y0154550D01*
X0044803Y0154582D01*
X0044973Y0154609D01*
X0045143Y0154632D01*
X0045314Y0154651D01*
X0045485Y0154666D01*
X0045657Y0154677D01*
X0045828Y0154683D01*
X0046000Y0154685D01*
X0046172Y0154683D01*
X0046343Y0154677D01*
X0046515Y0154666D01*
X0046686Y0154651D01*
X0046857Y0154632D01*
X0047027Y0154609D01*
X0047197Y0154582D01*
X0047366Y0154550D01*
X0047534Y0154515D01*
X0047701Y0154475D01*
X0047867Y0154431D01*
X0048032Y0154384D01*
X0048196Y0154332D01*
X0048358Y0154276D01*
X0048519Y0154216D01*
X0048679Y0154152D01*
X0048837Y0154084D01*
X0048993Y0154013D01*
X0049147Y0153938D01*
X0049300Y0153858D01*
X0049450Y0153776D01*
X0049599Y0153689D01*
X0049745Y0153599D01*
X0049889Y0153505D01*
X0050031Y0153408D01*
X0050170Y0153307D01*
X0050307Y0153203D01*
X0050441Y0153096D01*
X0050572Y0152985D01*
X0050701Y0152872D01*
X0050827Y0152755D01*
X0050950Y0152635D01*
X0051070Y0152512D01*
X0051187Y0152386D01*
X0051300Y0152257D01*
X0051411Y0152126D01*
X0051518Y0151992D01*
X0051622Y0151855D01*
X0051723Y0151716D01*
X0051820Y0151574D01*
X0051914Y0151430D01*
X0052004Y0151284D01*
X0052091Y0151135D01*
X0052173Y0150985D01*
X0052253Y0150832D01*
X0052328Y0150678D01*
X0052399Y0150522D01*
X0052467Y0150364D01*
X0052531Y0150204D01*
X0052591Y0150043D01*
X0052647Y0149881D01*
X0052699Y0149717D01*
X0052746Y0149552D01*
X0052790Y0149386D01*
X0052830Y0149219D01*
X0052865Y0149051D01*
X0052897Y0148882D01*
X0052924Y0148712D01*
X0052947Y0148542D01*
X0052966Y0148371D01*
X0052981Y0148200D01*
X0052992Y0148028D01*
X0052998Y0147857D01*
X0053000Y0147685D01*
X0052998Y0147513D01*
X0052992Y0147342D01*
X0052981Y0147170D01*
X0052966Y0146999D01*
X0052947Y0146828D01*
X0052924Y0146658D01*
X0052897Y0146488D01*
X0052865Y0146319D01*
X0052830Y0146151D01*
X0052790Y0145984D01*
X0052746Y0145818D01*
X0052699Y0145653D01*
X0052647Y0145489D01*
X0052591Y0145327D01*
X0052531Y0145166D01*
X0052467Y0145006D01*
X0052399Y0144848D01*
X0052328Y0144692D01*
X0052253Y0144538D01*
X0052173Y0144385D01*
X0052091Y0144235D01*
X0052004Y0144086D01*
X0051914Y0143940D01*
X0051820Y0143796D01*
X0051723Y0143654D01*
X0051622Y0143515D01*
X0051518Y0143378D01*
X0051411Y0143244D01*
X0051300Y0143113D01*
X0051187Y0142984D01*
X0051070Y0142858D01*
X0050950Y0142735D01*
X0050827Y0142615D01*
X0050701Y0142498D01*
X0050572Y0142385D01*
X0050441Y0142274D01*
X0050307Y0142167D01*
X0050170Y0142063D01*
X0050031Y0141962D01*
X0049889Y0141865D01*
X0049745Y0141771D01*
X0049599Y0141681D01*
X0049450Y0141594D01*
X0049300Y0141512D01*
X0049147Y0141432D01*
X0048993Y0141357D01*
X0048837Y0141286D01*
X0048679Y0141218D01*
X0048519Y0141154D01*
X0048358Y0141094D01*
X0048196Y0141038D01*
X0048032Y0140986D01*
X0047867Y0140939D01*
X0047701Y0140895D01*
X0047534Y0140855D01*
X0047366Y0140820D01*
X0047197Y0140788D01*
X0047027Y0140761D01*
X0046857Y0140738D01*
X0046686Y0140719D01*
X0046515Y0140704D01*
X0046343Y0140693D01*
X0046172Y0140687D01*
X0046000Y0140685D01*
X0045828Y0140687D01*
X0045657Y0140693D01*
X0045485Y0140704D01*
X0045314Y0140719D01*
X0045143Y0140738D01*
X0044973Y0140761D01*
X0044803Y0140788D01*
X0044634Y0140820D01*
X0044466Y0140855D01*
X0044299Y0140895D01*
X0044133Y0140939D01*
X0043968Y0140986D01*
X0043804Y0141038D01*
X0043642Y0141094D01*
X0043481Y0141154D01*
X0043321Y0141218D01*
X0043163Y0141286D01*
X0043007Y0141357D01*
X0042853Y0141432D01*
X0042700Y0141512D01*
X0042550Y0141594D01*
X0042401Y0141681D01*
X0042255Y0141771D01*
X0042111Y0141865D01*
X0041969Y0141962D01*
X0041830Y0142063D01*
X0041693Y0142167D01*
X0041559Y0142274D01*
X0041428Y0142385D01*
X0041299Y0142498D01*
X0041173Y0142615D01*
X0041050Y0142735D01*
X0040930Y0142858D01*
X0040813Y0142984D01*
X0040700Y0143113D01*
X0040589Y0143244D01*
X0040482Y0143378D01*
X0040378Y0143515D01*
X0040277Y0143654D01*
X0040180Y0143796D01*
X0040086Y0143940D01*
X0039996Y0144086D01*
X0039909Y0144235D01*
X0039827Y0144385D01*
X0039747Y0144538D01*
X0039672Y0144692D01*
X0039601Y0144848D01*
X0039533Y0145006D01*
X0039469Y0145166D01*
X0039409Y0145327D01*
X0039353Y0145489D01*
X0039301Y0145653D01*
X0039254Y0145818D01*
X0039210Y0145984D01*
X0039170Y0146151D01*
X0039135Y0146319D01*
X0039103Y0146488D01*
X0039076Y0146658D01*
X0039053Y0146828D01*
X0039034Y0146999D01*
X0039019Y0147170D01*
X0039008Y0147342D01*
X0039002Y0147513D01*
X0039000Y0147685D01*
D18*
X0006671Y0099876D02*
X0007391Y0100416D01*
X0007390Y0100415D02*
X0007571Y0100182D01*
X0007757Y0099954D01*
X0007949Y0099730D01*
X0008146Y0099511D01*
X0008348Y0099297D01*
X0008556Y0099088D01*
X0008769Y0098885D01*
X0008986Y0098686D01*
X0009209Y0098493D01*
X0009436Y0098305D01*
X0009667Y0098123D01*
X0009903Y0097946D01*
X0010144Y0097776D01*
X0010388Y0097611D01*
X0010636Y0097453D01*
X0010888Y0097300D01*
X0011144Y0097154D01*
X0011403Y0097014D01*
X0011666Y0096880D01*
X0011931Y0096753D01*
X0012200Y0096632D01*
X0012472Y0096518D01*
X0012746Y0096411D01*
X0013023Y0096310D01*
X0013302Y0096216D01*
X0013584Y0096129D01*
X0013867Y0096049D01*
X0014153Y0095976D01*
X0014440Y0095910D01*
X0014729Y0095851D01*
X0015019Y0095799D01*
X0015310Y0095754D01*
X0015602Y0095716D01*
X0015895Y0095686D01*
X0016189Y0095662D01*
X0016483Y0095646D01*
X0016777Y0095637D01*
X0017072Y0095635D01*
X0017367Y0095641D01*
X0017661Y0095653D01*
X0017955Y0095673D01*
X0018248Y0095700D01*
X0018541Y0095734D01*
X0018833Y0095775D01*
X0019123Y0095824D01*
X0019413Y0095879D01*
X0019700Y0095941D01*
X0019987Y0096011D01*
X0020271Y0096088D01*
X0020554Y0096171D01*
X0020834Y0096261D01*
X0021112Y0096358D01*
X0021388Y0096462D01*
X0021661Y0096573D01*
X0021931Y0096690D01*
X0022199Y0096814D01*
X0022463Y0096944D01*
X0022724Y0097081D01*
X0022981Y0097224D01*
X0023235Y0097374D01*
X0023486Y0097529D01*
X0023732Y0097691D01*
X0023974Y0097858D01*
X0024212Y0098032D01*
X0024446Y0098211D01*
X0024676Y0098396D01*
X0024900Y0098586D01*
X0025121Y0098782D01*
X0025336Y0098983D01*
X0025546Y0099190D01*
X0025751Y0099401D01*
X0025951Y0099618D01*
X0026146Y0099839D01*
X0026335Y0100065D01*
X0026518Y0100295D01*
X0026696Y0100530D01*
X0026868Y0100770D01*
X0027034Y0101013D01*
X0027194Y0101260D01*
X0027348Y0101511D01*
X0027496Y0101766D01*
X0027638Y0102025D01*
X0027773Y0102286D01*
X0027902Y0102551D01*
X0028024Y0102819D01*
X0028140Y0103090D01*
X0028249Y0103364D01*
X0028351Y0103640D01*
X0028446Y0103919D01*
X0028535Y0104200D01*
X0028617Y0104483D01*
X0028692Y0104768D01*
X0028759Y0105055D01*
X0028820Y0105343D01*
X0028874Y0105633D01*
X0028921Y0105924D01*
X0028960Y0106216D01*
X0028992Y0106508D01*
X0029018Y0106802D01*
X0029036Y0107096D01*
X0029046Y0107390D01*
X0029050Y0107685D01*
X0029046Y0107980D01*
X0029036Y0108274D01*
X0029018Y0108568D01*
X0028992Y0108862D01*
X0028960Y0109154D01*
X0028921Y0109446D01*
X0028874Y0109737D01*
X0028820Y0110027D01*
X0028759Y0110315D01*
X0028692Y0110602D01*
X0028617Y0110887D01*
X0028535Y0111170D01*
X0028446Y0111451D01*
X0028351Y0111730D01*
X0028249Y0112006D01*
X0028140Y0112280D01*
X0028024Y0112551D01*
X0027902Y0112819D01*
X0027773Y0113084D01*
X0027638Y0113345D01*
X0027496Y0113604D01*
X0027348Y0113859D01*
X0027194Y0114110D01*
X0027034Y0114357D01*
X0026868Y0114600D01*
X0026696Y0114840D01*
X0026518Y0115075D01*
X0026335Y0115305D01*
X0026146Y0115531D01*
X0025951Y0115752D01*
X0025751Y0115969D01*
X0025546Y0116180D01*
X0025336Y0116387D01*
X0025121Y0116588D01*
X0024900Y0116784D01*
X0024676Y0116974D01*
X0024446Y0117159D01*
X0024212Y0117338D01*
X0023974Y0117512D01*
X0023732Y0117679D01*
X0023486Y0117841D01*
X0023235Y0117996D01*
X0022981Y0118146D01*
X0022724Y0118289D01*
X0022463Y0118426D01*
X0022199Y0118556D01*
X0021931Y0118680D01*
X0021661Y0118797D01*
X0021388Y0118908D01*
X0021112Y0119012D01*
X0020834Y0119109D01*
X0020554Y0119199D01*
X0020271Y0119282D01*
X0019987Y0119359D01*
X0019700Y0119429D01*
X0019413Y0119491D01*
X0019123Y0119546D01*
X0018833Y0119595D01*
X0018541Y0119636D01*
X0018248Y0119670D01*
X0017955Y0119697D01*
X0017661Y0119717D01*
X0017367Y0119729D01*
X0017072Y0119735D01*
X0016777Y0119733D01*
X0016483Y0119724D01*
X0016189Y0119708D01*
X0015895Y0119684D01*
X0015602Y0119654D01*
X0015310Y0119616D01*
X0015019Y0119571D01*
X0014729Y0119519D01*
X0014440Y0119460D01*
X0014153Y0119394D01*
X0013867Y0119321D01*
X0013584Y0119241D01*
X0013302Y0119154D01*
X0013023Y0119060D01*
X0012746Y0118959D01*
X0012472Y0118852D01*
X0012200Y0118738D01*
X0011931Y0118617D01*
X0011666Y0118490D01*
X0011403Y0118356D01*
X0011144Y0118216D01*
X0010888Y0118070D01*
X0010636Y0117917D01*
X0010388Y0117759D01*
X0010144Y0117594D01*
X0009903Y0117424D01*
X0009667Y0117247D01*
X0009436Y0117065D01*
X0009209Y0116877D01*
X0008986Y0116684D01*
X0008769Y0116485D01*
X0008556Y0116282D01*
X0008348Y0116073D01*
X0008146Y0115859D01*
X0007949Y0115640D01*
X0007757Y0115416D01*
X0007571Y0115188D01*
X0007390Y0114955D01*
X0006671Y0115494D01*
X0006670Y0115495D01*
X0006864Y0115745D01*
X0007064Y0115991D01*
X0007270Y0116231D01*
X0007482Y0116466D01*
X0007700Y0116696D01*
X0007923Y0116921D01*
X0008151Y0117140D01*
X0008385Y0117354D01*
X0008624Y0117562D01*
X0008868Y0117764D01*
X0009117Y0117959D01*
X0009371Y0118149D01*
X0009629Y0118332D01*
X0009891Y0118509D01*
X0010158Y0118680D01*
X0010429Y0118844D01*
X0010704Y0119001D01*
X0010982Y0119152D01*
X0011265Y0119296D01*
X0011550Y0119432D01*
X0011839Y0119562D01*
X0012131Y0119685D01*
X0012426Y0119800D01*
X0012723Y0119908D01*
X0013024Y0120009D01*
X0013326Y0120103D01*
X0013631Y0120189D01*
X0013938Y0120268D01*
X0014246Y0120339D01*
X0014556Y0120402D01*
X0014868Y0120458D01*
X0015181Y0120507D01*
X0015495Y0120547D01*
X0015810Y0120580D01*
X0016126Y0120605D01*
X0016442Y0120623D01*
X0016758Y0120633D01*
X0017075Y0120635D01*
X0017392Y0120629D01*
X0017708Y0120616D01*
X0018024Y0120594D01*
X0018339Y0120566D01*
X0018654Y0120529D01*
X0018967Y0120485D01*
X0019280Y0120433D01*
X0019591Y0120373D01*
X0019900Y0120306D01*
X0020208Y0120231D01*
X0020514Y0120149D01*
X0020817Y0120060D01*
X0021119Y0119963D01*
X0021418Y0119858D01*
X0021714Y0119746D01*
X0022008Y0119628D01*
X0022298Y0119502D01*
X0022585Y0119369D01*
X0022870Y0119228D01*
X0023150Y0119081D01*
X0023427Y0118928D01*
X0023700Y0118767D01*
X0023969Y0118600D01*
X0024234Y0118426D01*
X0024494Y0118246D01*
X0024750Y0118060D01*
X0025001Y0117867D01*
X0025248Y0117669D01*
X0025490Y0117464D01*
X0025726Y0117254D01*
X0025958Y0117037D01*
X0026183Y0116815D01*
X0026404Y0116588D01*
X0026619Y0116356D01*
X0026828Y0116118D01*
X0027031Y0115875D01*
X0027229Y0115627D01*
X0027420Y0115375D01*
X0027605Y0115118D01*
X0027783Y0114856D01*
X0027955Y0114590D01*
X0028121Y0114321D01*
X0028280Y0114047D01*
X0028432Y0113769D01*
X0028577Y0113488D01*
X0028716Y0113203D01*
X0028847Y0112915D01*
X0028971Y0112623D01*
X0029089Y0112329D01*
X0029199Y0112032D01*
X0029301Y0111733D01*
X0029396Y0111431D01*
X0029484Y0111127D01*
X0029565Y0110820D01*
X0029638Y0110512D01*
X0029703Y0110202D01*
X0029761Y0109891D01*
X0029811Y0109578D01*
X0029853Y0109264D01*
X0029888Y0108950D01*
X0029915Y0108634D01*
X0029935Y0108318D01*
X0029946Y0108002D01*
X0029950Y0107685D01*
X0029946Y0107368D01*
X0029935Y0107052D01*
X0029915Y0106736D01*
X0029888Y0106420D01*
X0029853Y0106106D01*
X0029811Y0105792D01*
X0029761Y0105479D01*
X0029703Y0105168D01*
X0029638Y0104858D01*
X0029565Y0104550D01*
X0029484Y0104243D01*
X0029396Y0103939D01*
X0029301Y0103637D01*
X0029199Y0103338D01*
X0029089Y0103041D01*
X0028971Y0102747D01*
X0028847Y0102455D01*
X0028716Y0102167D01*
X0028577Y0101882D01*
X0028432Y0101601D01*
X0028280Y0101323D01*
X0028121Y0101049D01*
X0027955Y0100780D01*
X0027783Y0100514D01*
X0027605Y0100252D01*
X0027420Y0099995D01*
X0027229Y0099743D01*
X0027031Y0099495D01*
X0026828Y0099252D01*
X0026619Y0099014D01*
X0026404Y0098782D01*
X0026183Y0098555D01*
X0025958Y0098333D01*
X0025726Y0098116D01*
X0025490Y0097906D01*
X0025248Y0097701D01*
X0025001Y0097503D01*
X0024750Y0097310D01*
X0024494Y0097124D01*
X0024234Y0096944D01*
X0023969Y0096770D01*
X0023700Y0096603D01*
X0023427Y0096442D01*
X0023150Y0096289D01*
X0022870Y0096142D01*
X0022585Y0096001D01*
X0022298Y0095868D01*
X0022008Y0095742D01*
X0021714Y0095624D01*
X0021418Y0095512D01*
X0021119Y0095407D01*
X0020817Y0095310D01*
X0020514Y0095221D01*
X0020208Y0095139D01*
X0019900Y0095064D01*
X0019591Y0094997D01*
X0019280Y0094937D01*
X0018967Y0094885D01*
X0018654Y0094841D01*
X0018339Y0094804D01*
X0018024Y0094776D01*
X0017708Y0094754D01*
X0017392Y0094741D01*
X0017075Y0094735D01*
X0016758Y0094737D01*
X0016442Y0094747D01*
X0016126Y0094765D01*
X0015810Y0094790D01*
X0015495Y0094823D01*
X0015181Y0094863D01*
X0014868Y0094912D01*
X0014556Y0094968D01*
X0014246Y0095031D01*
X0013938Y0095102D01*
X0013631Y0095181D01*
X0013326Y0095267D01*
X0013024Y0095361D01*
X0012723Y0095462D01*
X0012426Y0095570D01*
X0012131Y0095685D01*
X0011839Y0095808D01*
X0011550Y0095938D01*
X0011265Y0096074D01*
X0010982Y0096218D01*
X0010704Y0096369D01*
X0010429Y0096526D01*
X0010158Y0096690D01*
X0009891Y0096861D01*
X0009629Y0097038D01*
X0009371Y0097221D01*
X0009117Y0097411D01*
X0008868Y0097606D01*
X0008624Y0097808D01*
X0008385Y0098016D01*
X0008151Y0098230D01*
X0007923Y0098449D01*
X0007700Y0098674D01*
X0007482Y0098904D01*
X0007270Y0099139D01*
X0007064Y0099379D01*
X0006864Y0099625D01*
X0006670Y0099875D01*
X0006745Y0099931D01*
X0006938Y0099683D01*
X0007137Y0099439D01*
X0007341Y0099201D01*
X0007551Y0098967D01*
X0007767Y0098739D01*
X0007989Y0098516D01*
X0008216Y0098298D01*
X0008448Y0098086D01*
X0008685Y0097880D01*
X0008927Y0097679D01*
X0009175Y0097485D01*
X0009426Y0097297D01*
X0009683Y0097115D01*
X0009943Y0096939D01*
X0010208Y0096770D01*
X0010477Y0096607D01*
X0010750Y0096451D01*
X0011026Y0096301D01*
X0011306Y0096159D01*
X0011590Y0096023D01*
X0011877Y0095894D01*
X0012167Y0095772D01*
X0012459Y0095658D01*
X0012755Y0095550D01*
X0013053Y0095450D01*
X0013353Y0095357D01*
X0013656Y0095272D01*
X0013960Y0095194D01*
X0014266Y0095123D01*
X0014574Y0095060D01*
X0014884Y0095004D01*
X0015194Y0094956D01*
X0015506Y0094916D01*
X0015819Y0094883D01*
X0016132Y0094858D01*
X0016446Y0094841D01*
X0016760Y0094831D01*
X0017075Y0094829D01*
X0017389Y0094835D01*
X0017703Y0094848D01*
X0018017Y0094869D01*
X0018330Y0094898D01*
X0018642Y0094934D01*
X0018953Y0094978D01*
X0019263Y0095030D01*
X0019572Y0095089D01*
X0019879Y0095156D01*
X0020185Y0095230D01*
X0020488Y0095311D01*
X0020790Y0095400D01*
X0021089Y0095497D01*
X0021386Y0095600D01*
X0021680Y0095711D01*
X0021971Y0095829D01*
X0022260Y0095954D01*
X0022545Y0096086D01*
X0022827Y0096225D01*
X0023105Y0096371D01*
X0023380Y0096524D01*
X0023651Y0096683D01*
X0023918Y0096849D01*
X0024181Y0097022D01*
X0024440Y0097200D01*
X0024694Y0097385D01*
X0024943Y0097577D01*
X0025188Y0097774D01*
X0025428Y0097977D01*
X0025663Y0098186D01*
X0025893Y0098401D01*
X0026117Y0098621D01*
X0026336Y0098846D01*
X0026549Y0099077D01*
X0026757Y0099313D01*
X0026959Y0099555D01*
X0027154Y0099800D01*
X0027344Y0100051D01*
X0027528Y0100306D01*
X0027705Y0100566D01*
X0027876Y0100830D01*
X0028040Y0101098D01*
X0028198Y0101370D01*
X0028349Y0101645D01*
X0028493Y0101925D01*
X0028631Y0102207D01*
X0028761Y0102493D01*
X0028885Y0102782D01*
X0029001Y0103075D01*
X0029110Y0103369D01*
X0029212Y0103667D01*
X0029306Y0103966D01*
X0029394Y0104269D01*
X0029474Y0104573D01*
X0029546Y0104878D01*
X0029611Y0105186D01*
X0029668Y0105495D01*
X0029718Y0105806D01*
X0029760Y0106117D01*
X0029795Y0106430D01*
X0029821Y0106743D01*
X0029841Y0107057D01*
X0029852Y0107371D01*
X0029856Y0107685D01*
X0029852Y0107999D01*
X0029841Y0108313D01*
X0029821Y0108627D01*
X0029795Y0108940D01*
X0029760Y0109253D01*
X0029718Y0109564D01*
X0029668Y0109875D01*
X0029611Y0110184D01*
X0029546Y0110492D01*
X0029474Y0110797D01*
X0029394Y0111101D01*
X0029306Y0111404D01*
X0029212Y0111703D01*
X0029110Y0112001D01*
X0029001Y0112295D01*
X0028885Y0112588D01*
X0028761Y0112877D01*
X0028631Y0113163D01*
X0028493Y0113445D01*
X0028349Y0113725D01*
X0028198Y0114000D01*
X0028040Y0114272D01*
X0027876Y0114540D01*
X0027705Y0114804D01*
X0027528Y0115064D01*
X0027344Y0115319D01*
X0027154Y0115570D01*
X0026959Y0115815D01*
X0026757Y0116057D01*
X0026549Y0116293D01*
X0026336Y0116524D01*
X0026117Y0116749D01*
X0025893Y0116969D01*
X0025663Y0117184D01*
X0025428Y0117393D01*
X0025188Y0117596D01*
X0024943Y0117793D01*
X0024694Y0117985D01*
X0024440Y0118170D01*
X0024181Y0118348D01*
X0023918Y0118521D01*
X0023651Y0118687D01*
X0023380Y0118846D01*
X0023105Y0118999D01*
X0022827Y0119145D01*
X0022545Y0119284D01*
X0022260Y0119416D01*
X0021971Y0119541D01*
X0021680Y0119659D01*
X0021386Y0119770D01*
X0021089Y0119873D01*
X0020790Y0119970D01*
X0020488Y0120059D01*
X0020185Y0120140D01*
X0019879Y0120214D01*
X0019572Y0120281D01*
X0019263Y0120340D01*
X0018953Y0120392D01*
X0018642Y0120436D01*
X0018330Y0120472D01*
X0018017Y0120501D01*
X0017703Y0120522D01*
X0017389Y0120535D01*
X0017075Y0120541D01*
X0016760Y0120539D01*
X0016446Y0120529D01*
X0016132Y0120512D01*
X0015819Y0120487D01*
X0015506Y0120454D01*
X0015194Y0120414D01*
X0014884Y0120366D01*
X0014574Y0120310D01*
X0014266Y0120247D01*
X0013960Y0120176D01*
X0013656Y0120098D01*
X0013353Y0120013D01*
X0013053Y0119920D01*
X0012755Y0119820D01*
X0012459Y0119712D01*
X0012167Y0119598D01*
X0011877Y0119476D01*
X0011590Y0119347D01*
X0011306Y0119211D01*
X0011026Y0119069D01*
X0010750Y0118919D01*
X0010477Y0118763D01*
X0010208Y0118600D01*
X0009943Y0118431D01*
X0009683Y0118255D01*
X0009426Y0118073D01*
X0009175Y0117885D01*
X0008927Y0117691D01*
X0008685Y0117490D01*
X0008448Y0117284D01*
X0008216Y0117072D01*
X0007989Y0116854D01*
X0007767Y0116631D01*
X0007551Y0116403D01*
X0007341Y0116169D01*
X0007137Y0115931D01*
X0006938Y0115687D01*
X0006745Y0115439D01*
X0006820Y0115382D01*
X0007012Y0115629D01*
X0007209Y0115871D01*
X0007412Y0116108D01*
X0007621Y0116339D01*
X0007835Y0116566D01*
X0008055Y0116788D01*
X0008280Y0117004D01*
X0008511Y0117214D01*
X0008746Y0117419D01*
X0008987Y0117618D01*
X0009232Y0117811D01*
X0009482Y0117997D01*
X0009736Y0118178D01*
X0009995Y0118353D01*
X0010258Y0118521D01*
X0010525Y0118682D01*
X0010796Y0118837D01*
X0011070Y0118986D01*
X0011348Y0119127D01*
X0011630Y0119262D01*
X0011914Y0119390D01*
X0012202Y0119511D01*
X0012493Y0119625D01*
X0012786Y0119731D01*
X0013082Y0119831D01*
X0013380Y0119923D01*
X0013680Y0120008D01*
X0013983Y0120085D01*
X0014287Y0120155D01*
X0014592Y0120218D01*
X0014899Y0120273D01*
X0015208Y0120321D01*
X0015517Y0120361D01*
X0015828Y0120393D01*
X0016139Y0120418D01*
X0016450Y0120435D01*
X0016762Y0120445D01*
X0017074Y0120447D01*
X0017386Y0120441D01*
X0017698Y0120428D01*
X0018009Y0120407D01*
X0018320Y0120379D01*
X0018630Y0120342D01*
X0018939Y0120299D01*
X0019247Y0120248D01*
X0019554Y0120189D01*
X0019858Y0120123D01*
X0020162Y0120049D01*
X0020463Y0119968D01*
X0020762Y0119880D01*
X0021059Y0119784D01*
X0021354Y0119681D01*
X0021646Y0119571D01*
X0021935Y0119454D01*
X0022222Y0119330D01*
X0022505Y0119199D01*
X0022785Y0119061D01*
X0023061Y0118916D01*
X0023334Y0118764D01*
X0023603Y0118606D01*
X0023868Y0118441D01*
X0024129Y0118270D01*
X0024385Y0118093D01*
X0024638Y0117909D01*
X0024885Y0117719D01*
X0025128Y0117524D01*
X0025367Y0117322D01*
X0025600Y0117114D01*
X0025828Y0116901D01*
X0026050Y0116683D01*
X0026268Y0116459D01*
X0026479Y0116230D01*
X0026685Y0115995D01*
X0026886Y0115756D01*
X0027080Y0115512D01*
X0027268Y0115263D01*
X0027451Y0115010D01*
X0027627Y0114752D01*
X0027796Y0114490D01*
X0027959Y0114224D01*
X0028116Y0113954D01*
X0028266Y0113680D01*
X0028409Y0113403D01*
X0028546Y0113123D01*
X0028675Y0112839D01*
X0028798Y0112552D01*
X0028913Y0112262D01*
X0029021Y0111969D01*
X0029123Y0111674D01*
X0029217Y0111376D01*
X0029303Y0111076D01*
X0029382Y0110775D01*
X0029454Y0110471D01*
X0029519Y0110166D01*
X0029576Y0109859D01*
X0029625Y0109551D01*
X0029667Y0109241D01*
X0029701Y0108931D01*
X0029728Y0108620D01*
X0029747Y0108309D01*
X0029758Y0107997D01*
X0029762Y0107685D01*
X0029758Y0107373D01*
X0029747Y0107061D01*
X0029728Y0106750D01*
X0029701Y0106439D01*
X0029667Y0106129D01*
X0029625Y0105819D01*
X0029576Y0105511D01*
X0029519Y0105204D01*
X0029454Y0104899D01*
X0029382Y0104595D01*
X0029303Y0104294D01*
X0029217Y0103994D01*
X0029123Y0103696D01*
X0029021Y0103401D01*
X0028913Y0103108D01*
X0028798Y0102818D01*
X0028675Y0102531D01*
X0028546Y0102247D01*
X0028409Y0101967D01*
X0028266Y0101690D01*
X0028116Y0101416D01*
X0027959Y0101146D01*
X0027796Y0100880D01*
X0027627Y0100618D01*
X0027451Y0100360D01*
X0027268Y0100107D01*
X0027080Y0099858D01*
X0026886Y0099614D01*
X0026685Y0099375D01*
X0026479Y0099140D01*
X0026268Y0098911D01*
X0026050Y0098687D01*
X0025828Y0098469D01*
X0025600Y0098256D01*
X0025367Y0098048D01*
X0025128Y0097846D01*
X0024885Y0097651D01*
X0024638Y0097461D01*
X0024385Y0097277D01*
X0024129Y0097100D01*
X0023868Y0096929D01*
X0023603Y0096764D01*
X0023334Y0096606D01*
X0023061Y0096454D01*
X0022785Y0096309D01*
X0022505Y0096171D01*
X0022222Y0096040D01*
X0021935Y0095916D01*
X0021646Y0095799D01*
X0021354Y0095689D01*
X0021059Y0095586D01*
X0020762Y0095490D01*
X0020463Y0095402D01*
X0020162Y0095321D01*
X0019858Y0095247D01*
X0019554Y0095181D01*
X0019247Y0095122D01*
X0018939Y0095071D01*
X0018630Y0095028D01*
X0018320Y0094991D01*
X0018009Y0094963D01*
X0017698Y0094942D01*
X0017386Y0094929D01*
X0017074Y0094923D01*
X0016762Y0094925D01*
X0016450Y0094935D01*
X0016139Y0094952D01*
X0015828Y0094977D01*
X0015517Y0095009D01*
X0015208Y0095049D01*
X0014899Y0095097D01*
X0014592Y0095152D01*
X0014287Y0095215D01*
X0013983Y0095285D01*
X0013680Y0095362D01*
X0013380Y0095447D01*
X0013082Y0095539D01*
X0012786Y0095639D01*
X0012493Y0095745D01*
X0012202Y0095859D01*
X0011914Y0095980D01*
X0011630Y0096108D01*
X0011348Y0096243D01*
X0011070Y0096384D01*
X0010796Y0096533D01*
X0010525Y0096688D01*
X0010258Y0096849D01*
X0009995Y0097017D01*
X0009736Y0097192D01*
X0009482Y0097373D01*
X0009232Y0097559D01*
X0008987Y0097752D01*
X0008746Y0097951D01*
X0008511Y0098156D01*
X0008280Y0098366D01*
X0008055Y0098582D01*
X0007835Y0098804D01*
X0007621Y0099031D01*
X0007412Y0099262D01*
X0007209Y0099499D01*
X0007012Y0099741D01*
X0006820Y0099988D01*
X0006896Y0100044D01*
X0007086Y0099799D01*
X0007281Y0099559D01*
X0007483Y0099324D01*
X0007690Y0099094D01*
X0007903Y0098869D01*
X0008121Y0098649D01*
X0008345Y0098435D01*
X0008574Y0098226D01*
X0008807Y0098023D01*
X0009046Y0097825D01*
X0009289Y0097634D01*
X0009538Y0097448D01*
X0009790Y0097269D01*
X0010047Y0097096D01*
X0010308Y0096929D01*
X0010573Y0096768D01*
X0010842Y0096615D01*
X0011114Y0096467D01*
X0011390Y0096327D01*
X0011670Y0096193D01*
X0011952Y0096066D01*
X0012238Y0095946D01*
X0012526Y0095833D01*
X0012817Y0095727D01*
X0013111Y0095629D01*
X0013407Y0095537D01*
X0013705Y0095453D01*
X0014005Y0095376D01*
X0014307Y0095307D01*
X0014610Y0095244D01*
X0014915Y0095190D01*
X0015221Y0095142D01*
X0015529Y0095103D01*
X0015837Y0095071D01*
X0016145Y0095046D01*
X0016455Y0095029D01*
X0016764Y0095019D01*
X0017074Y0095017D01*
X0017384Y0095023D01*
X0017693Y0095036D01*
X0018002Y0095057D01*
X0018311Y0095085D01*
X0018618Y0095121D01*
X0018925Y0095164D01*
X0019231Y0095215D01*
X0019535Y0095273D01*
X0019838Y0095339D01*
X0020139Y0095412D01*
X0020438Y0095492D01*
X0020735Y0095580D01*
X0021030Y0095675D01*
X0021322Y0095777D01*
X0021612Y0095886D01*
X0021899Y0096003D01*
X0022183Y0096126D01*
X0022464Y0096256D01*
X0022742Y0096393D01*
X0023016Y0096537D01*
X0023287Y0096687D01*
X0023554Y0096844D01*
X0023817Y0097008D01*
X0024076Y0097178D01*
X0024331Y0097354D01*
X0024582Y0097536D01*
X0024827Y0097725D01*
X0025069Y0097919D01*
X0025305Y0098119D01*
X0025536Y0098325D01*
X0025763Y0098537D01*
X0025984Y0098754D01*
X0026199Y0098976D01*
X0026410Y0099203D01*
X0026614Y0099436D01*
X0026813Y0099674D01*
X0027006Y0099916D01*
X0027193Y0100163D01*
X0027374Y0100414D01*
X0027548Y0100670D01*
X0027717Y0100930D01*
X0027879Y0101194D01*
X0028034Y0101462D01*
X0028183Y0101734D01*
X0028325Y0102009D01*
X0028461Y0102288D01*
X0028589Y0102569D01*
X0028711Y0102854D01*
X0028825Y0103142D01*
X0028933Y0103433D01*
X0029033Y0103726D01*
X0029127Y0104021D01*
X0029213Y0104319D01*
X0029291Y0104618D01*
X0029362Y0104920D01*
X0029426Y0105223D01*
X0029483Y0105527D01*
X0029532Y0105833D01*
X0029573Y0106140D01*
X0029607Y0106448D01*
X0029634Y0106757D01*
X0029653Y0107066D01*
X0029664Y0107375D01*
X0029668Y0107685D01*
X0029664Y0107995D01*
X0029653Y0108304D01*
X0029634Y0108613D01*
X0029607Y0108922D01*
X0029573Y0109230D01*
X0029532Y0109537D01*
X0029483Y0109843D01*
X0029426Y0110147D01*
X0029362Y0110450D01*
X0029291Y0110752D01*
X0029213Y0111051D01*
X0029127Y0111349D01*
X0029033Y0111644D01*
X0028933Y0111937D01*
X0028825Y0112228D01*
X0028711Y0112516D01*
X0028589Y0112801D01*
X0028461Y0113082D01*
X0028325Y0113361D01*
X0028183Y0113636D01*
X0028034Y0113908D01*
X0027879Y0114176D01*
X0027717Y0114440D01*
X0027548Y0114700D01*
X0027374Y0114956D01*
X0027193Y0115207D01*
X0027006Y0115454D01*
X0026813Y0115696D01*
X0026614Y0115934D01*
X0026410Y0116167D01*
X0026199Y0116394D01*
X0025984Y0116616D01*
X0025763Y0116833D01*
X0025536Y0117045D01*
X0025305Y0117251D01*
X0025069Y0117451D01*
X0024827Y0117645D01*
X0024582Y0117834D01*
X0024331Y0118016D01*
X0024076Y0118192D01*
X0023817Y0118362D01*
X0023554Y0118526D01*
X0023287Y0118683D01*
X0023016Y0118833D01*
X0022742Y0118977D01*
X0022464Y0119114D01*
X0022183Y0119244D01*
X0021899Y0119367D01*
X0021612Y0119484D01*
X0021322Y0119593D01*
X0021030Y0119695D01*
X0020735Y0119790D01*
X0020438Y0119878D01*
X0020139Y0119958D01*
X0019838Y0120031D01*
X0019535Y0120097D01*
X0019231Y0120155D01*
X0018925Y0120206D01*
X0018618Y0120249D01*
X0018311Y0120285D01*
X0018002Y0120313D01*
X0017693Y0120334D01*
X0017384Y0120347D01*
X0017074Y0120353D01*
X0016764Y0120351D01*
X0016455Y0120341D01*
X0016145Y0120324D01*
X0015837Y0120299D01*
X0015529Y0120267D01*
X0015221Y0120228D01*
X0014915Y0120180D01*
X0014610Y0120126D01*
X0014307Y0120063D01*
X0014005Y0119994D01*
X0013705Y0119917D01*
X0013407Y0119833D01*
X0013111Y0119741D01*
X0012817Y0119643D01*
X0012526Y0119537D01*
X0012238Y0119424D01*
X0011952Y0119304D01*
X0011670Y0119177D01*
X0011390Y0119043D01*
X0011114Y0118903D01*
X0010842Y0118755D01*
X0010573Y0118602D01*
X0010308Y0118441D01*
X0010047Y0118274D01*
X0009790Y0118101D01*
X0009538Y0117922D01*
X0009289Y0117736D01*
X0009046Y0117545D01*
X0008807Y0117347D01*
X0008574Y0117144D01*
X0008345Y0116935D01*
X0008121Y0116721D01*
X0007903Y0116501D01*
X0007690Y0116276D01*
X0007483Y0116046D01*
X0007281Y0115811D01*
X0007086Y0115571D01*
X0006896Y0115326D01*
X0006971Y0115269D01*
X0007159Y0115512D01*
X0007354Y0115751D01*
X0007554Y0115984D01*
X0007759Y0116212D01*
X0007971Y0116436D01*
X0008187Y0116654D01*
X0008409Y0116867D01*
X0008636Y0117074D01*
X0008868Y0117276D01*
X0009105Y0117472D01*
X0009347Y0117662D01*
X0009593Y0117846D01*
X0009844Y0118024D01*
X0010099Y0118196D01*
X0010358Y0118361D01*
X0010621Y0118521D01*
X0010888Y0118673D01*
X0011158Y0118820D01*
X0011432Y0118959D01*
X0011709Y0119092D01*
X0011990Y0119218D01*
X0012273Y0119337D01*
X0012560Y0119449D01*
X0012849Y0119554D01*
X0013140Y0119652D01*
X0013434Y0119743D01*
X0013730Y0119826D01*
X0014027Y0119903D01*
X0014327Y0119972D01*
X0014628Y0120033D01*
X0014931Y0120088D01*
X0015235Y0120134D01*
X0015540Y0120174D01*
X0015845Y0120206D01*
X0016152Y0120230D01*
X0016459Y0120247D01*
X0016766Y0120257D01*
X0017074Y0120259D01*
X0017381Y0120253D01*
X0017688Y0120240D01*
X0017995Y0120220D01*
X0018301Y0120191D01*
X0018607Y0120156D01*
X0018911Y0120113D01*
X0019214Y0120062D01*
X0019516Y0120005D01*
X0019817Y0119939D01*
X0020116Y0119867D01*
X0020412Y0119787D01*
X0020707Y0119700D01*
X0021000Y0119606D01*
X0021290Y0119504D01*
X0021578Y0119396D01*
X0021863Y0119281D01*
X0022145Y0119158D01*
X0022424Y0119029D01*
X0022700Y0118893D01*
X0022972Y0118750D01*
X0023241Y0118601D01*
X0023506Y0118445D01*
X0023767Y0118283D01*
X0024024Y0118114D01*
X0024277Y0117939D01*
X0024525Y0117758D01*
X0024769Y0117571D01*
X0025009Y0117378D01*
X0025243Y0117180D01*
X0025473Y0116975D01*
X0025698Y0116765D01*
X0025917Y0116550D01*
X0026131Y0116329D01*
X0026340Y0116104D01*
X0026543Y0115873D01*
X0026740Y0115637D01*
X0026932Y0115396D01*
X0027117Y0115151D01*
X0027297Y0114902D01*
X0027470Y0114648D01*
X0027637Y0114390D01*
X0027798Y0114128D01*
X0027952Y0113862D01*
X0028100Y0113592D01*
X0028241Y0113319D01*
X0028376Y0113042D01*
X0028503Y0112763D01*
X0028624Y0112480D01*
X0028738Y0112194D01*
X0028844Y0111906D01*
X0028944Y0111615D01*
X0029037Y0111322D01*
X0029122Y0111026D01*
X0029200Y0110729D01*
X0029271Y0110430D01*
X0029334Y0110129D01*
X0029390Y0109827D01*
X0029439Y0109523D01*
X0029480Y0109218D01*
X0029514Y0108913D01*
X0029540Y0108607D01*
X0029559Y0108300D01*
X0029570Y0107992D01*
X0029574Y0107685D01*
X0029570Y0107378D01*
X0029559Y0107070D01*
X0029540Y0106763D01*
X0029514Y0106457D01*
X0029480Y0106152D01*
X0029439Y0105847D01*
X0029390Y0105543D01*
X0029334Y0105241D01*
X0029271Y0104940D01*
X0029200Y0104641D01*
X0029122Y0104344D01*
X0029037Y0104048D01*
X0028944Y0103755D01*
X0028844Y0103464D01*
X0028738Y0103176D01*
X0028624Y0102890D01*
X0028503Y0102607D01*
X0028376Y0102328D01*
X0028241Y0102051D01*
X0028100Y0101778D01*
X0027952Y0101508D01*
X0027798Y0101242D01*
X0027637Y0100980D01*
X0027470Y0100722D01*
X0027297Y0100468D01*
X0027117Y0100219D01*
X0026932Y0099974D01*
X0026740Y0099733D01*
X0026543Y0099497D01*
X0026340Y0099266D01*
X0026131Y0099041D01*
X0025917Y0098820D01*
X0025698Y0098605D01*
X0025473Y0098395D01*
X0025243Y0098190D01*
X0025009Y0097992D01*
X0024769Y0097799D01*
X0024525Y0097612D01*
X0024277Y0097431D01*
X0024024Y0097256D01*
X0023767Y0097087D01*
X0023506Y0096925D01*
X0023241Y0096769D01*
X0022972Y0096620D01*
X0022700Y0096477D01*
X0022424Y0096341D01*
X0022145Y0096212D01*
X0021863Y0096089D01*
X0021578Y0095974D01*
X0021290Y0095866D01*
X0021000Y0095764D01*
X0020707Y0095670D01*
X0020412Y0095583D01*
X0020116Y0095503D01*
X0019817Y0095431D01*
X0019516Y0095365D01*
X0019214Y0095308D01*
X0018911Y0095257D01*
X0018607Y0095214D01*
X0018301Y0095179D01*
X0017995Y0095150D01*
X0017688Y0095130D01*
X0017381Y0095117D01*
X0017074Y0095111D01*
X0016766Y0095113D01*
X0016459Y0095123D01*
X0016152Y0095140D01*
X0015845Y0095164D01*
X0015540Y0095196D01*
X0015235Y0095236D01*
X0014931Y0095282D01*
X0014628Y0095337D01*
X0014327Y0095398D01*
X0014027Y0095467D01*
X0013730Y0095544D01*
X0013434Y0095627D01*
X0013140Y0095718D01*
X0012849Y0095816D01*
X0012560Y0095921D01*
X0012273Y0096033D01*
X0011990Y0096152D01*
X0011709Y0096278D01*
X0011432Y0096411D01*
X0011158Y0096550D01*
X0010888Y0096697D01*
X0010621Y0096849D01*
X0010358Y0097009D01*
X0010099Y0097174D01*
X0009844Y0097346D01*
X0009593Y0097524D01*
X0009347Y0097708D01*
X0009105Y0097898D01*
X0008868Y0098094D01*
X0008636Y0098296D01*
X0008409Y0098503D01*
X0008187Y0098716D01*
X0007971Y0098934D01*
X0007759Y0099158D01*
X0007554Y0099386D01*
X0007354Y0099619D01*
X0007159Y0099858D01*
X0006971Y0100101D01*
X0007046Y0100157D01*
X0007233Y0099916D01*
X0007426Y0099679D01*
X0007625Y0099448D01*
X0007829Y0099221D01*
X0008038Y0098999D01*
X0008253Y0098783D01*
X0008474Y0098572D01*
X0008699Y0098366D01*
X0008929Y0098166D01*
X0009165Y0097971D01*
X0009404Y0097783D01*
X0009649Y0097600D01*
X0009898Y0097423D01*
X0010151Y0097253D01*
X0010408Y0097088D01*
X0010669Y0096930D01*
X0010934Y0096779D01*
X0011202Y0096634D01*
X0011474Y0096495D01*
X0011749Y0096363D01*
X0012028Y0096238D01*
X0012309Y0096120D01*
X0012593Y0096009D01*
X0012880Y0095905D01*
X0013169Y0095807D01*
X0013461Y0095717D01*
X0013754Y0095634D01*
X0014050Y0095559D01*
X0014347Y0095490D01*
X0014646Y0095429D01*
X0014947Y0095375D01*
X0015248Y0095329D01*
X0015551Y0095289D01*
X0015854Y0095258D01*
X0016159Y0095233D01*
X0016463Y0095217D01*
X0016768Y0095207D01*
X0017073Y0095205D01*
X0017378Y0095211D01*
X0017683Y0095224D01*
X0017988Y0095244D01*
X0018292Y0095272D01*
X0018595Y0095307D01*
X0018897Y0095350D01*
X0019198Y0095400D01*
X0019498Y0095457D01*
X0019796Y0095522D01*
X0020092Y0095594D01*
X0020387Y0095673D01*
X0020680Y0095760D01*
X0020970Y0095853D01*
X0021258Y0095954D01*
X0021544Y0096062D01*
X0021827Y0096176D01*
X0022107Y0096298D01*
X0022384Y0096426D01*
X0022657Y0096561D01*
X0022927Y0096702D01*
X0023194Y0096851D01*
X0023457Y0097005D01*
X0023716Y0097166D01*
X0023972Y0097334D01*
X0024223Y0097507D01*
X0024469Y0097687D01*
X0024711Y0097873D01*
X0024949Y0098064D01*
X0025182Y0098261D01*
X0025410Y0098464D01*
X0025633Y0098673D01*
X0025851Y0098886D01*
X0026063Y0099105D01*
X0026270Y0099329D01*
X0026472Y0099559D01*
X0026668Y0099793D01*
X0026858Y0100031D01*
X0027042Y0100275D01*
X0027220Y0100522D01*
X0027392Y0100774D01*
X0027558Y0101031D01*
X0027717Y0101291D01*
X0027871Y0101555D01*
X0028017Y0101822D01*
X0028157Y0102093D01*
X0028291Y0102368D01*
X0028417Y0102645D01*
X0028537Y0102926D01*
X0028650Y0103210D01*
X0028756Y0103496D01*
X0028855Y0103784D01*
X0028947Y0104075D01*
X0029031Y0104369D01*
X0029109Y0104664D01*
X0029179Y0104961D01*
X0029242Y0105259D01*
X0029298Y0105559D01*
X0029346Y0105861D01*
X0029387Y0106163D01*
X0029420Y0106466D01*
X0029446Y0106770D01*
X0029465Y0107075D01*
X0029476Y0107380D01*
X0029480Y0107685D01*
X0029476Y0107990D01*
X0029465Y0108295D01*
X0029446Y0108600D01*
X0029420Y0108904D01*
X0029387Y0109207D01*
X0029346Y0109509D01*
X0029298Y0109811D01*
X0029242Y0110111D01*
X0029179Y0110409D01*
X0029109Y0110706D01*
X0029031Y0111001D01*
X0028947Y0111295D01*
X0028855Y0111586D01*
X0028756Y0111874D01*
X0028650Y0112160D01*
X0028537Y0112444D01*
X0028417Y0112725D01*
X0028291Y0113002D01*
X0028157Y0113277D01*
X0028017Y0113548D01*
X0027871Y0113815D01*
X0027717Y0114079D01*
X0027558Y0114339D01*
X0027392Y0114596D01*
X0027220Y0114848D01*
X0027042Y0115095D01*
X0026858Y0115339D01*
X0026668Y0115577D01*
X0026472Y0115811D01*
X0026270Y0116041D01*
X0026063Y0116265D01*
X0025851Y0116484D01*
X0025633Y0116697D01*
X0025410Y0116906D01*
X0025182Y0117109D01*
X0024949Y0117306D01*
X0024711Y0117497D01*
X0024469Y0117683D01*
X0024223Y0117863D01*
X0023972Y0118036D01*
X0023716Y0118204D01*
X0023457Y0118365D01*
X0023194Y0118519D01*
X0022927Y0118668D01*
X0022657Y0118809D01*
X0022384Y0118944D01*
X0022107Y0119072D01*
X0021827Y0119194D01*
X0021544Y0119308D01*
X0021258Y0119416D01*
X0020970Y0119517D01*
X0020680Y0119610D01*
X0020387Y0119697D01*
X0020092Y0119776D01*
X0019796Y0119848D01*
X0019498Y0119913D01*
X0019198Y0119970D01*
X0018897Y0120020D01*
X0018595Y0120063D01*
X0018292Y0120098D01*
X0017988Y0120126D01*
X0017683Y0120146D01*
X0017378Y0120159D01*
X0017073Y0120165D01*
X0016768Y0120163D01*
X0016463Y0120153D01*
X0016159Y0120137D01*
X0015854Y0120112D01*
X0015551Y0120081D01*
X0015248Y0120041D01*
X0014947Y0119995D01*
X0014646Y0119941D01*
X0014347Y0119880D01*
X0014050Y0119811D01*
X0013754Y0119736D01*
X0013461Y0119653D01*
X0013169Y0119563D01*
X0012880Y0119465D01*
X0012593Y0119361D01*
X0012309Y0119250D01*
X0012028Y0119132D01*
X0011749Y0119007D01*
X0011474Y0118875D01*
X0011202Y0118736D01*
X0010934Y0118591D01*
X0010669Y0118440D01*
X0010408Y0118282D01*
X0010151Y0118117D01*
X0009898Y0117947D01*
X0009649Y0117770D01*
X0009404Y0117587D01*
X0009165Y0117399D01*
X0008929Y0117204D01*
X0008699Y0117004D01*
X0008474Y0116798D01*
X0008253Y0116587D01*
X0008038Y0116371D01*
X0007829Y0116149D01*
X0007625Y0115922D01*
X0007426Y0115691D01*
X0007233Y0115454D01*
X0007046Y0115213D01*
X0007121Y0115157D01*
X0007307Y0115396D01*
X0007498Y0115631D01*
X0007695Y0115860D01*
X0007898Y0116085D01*
X0008106Y0116306D01*
X0008320Y0116520D01*
X0008538Y0116730D01*
X0008762Y0116934D01*
X0008990Y0117133D01*
X0009224Y0117326D01*
X0009462Y0117513D01*
X0009704Y0117694D01*
X0009951Y0117870D01*
X0010202Y0118039D01*
X0010458Y0118202D01*
X0010717Y0118359D01*
X0010980Y0118509D01*
X0011246Y0118653D01*
X0011516Y0118791D01*
X0011789Y0118922D01*
X0012065Y0119046D01*
X0012345Y0119163D01*
X0012627Y0119273D01*
X0012911Y0119377D01*
X0013198Y0119473D01*
X0013488Y0119563D01*
X0013779Y0119645D01*
X0014072Y0119720D01*
X0014368Y0119788D01*
X0014664Y0119849D01*
X0014962Y0119902D01*
X0015262Y0119948D01*
X0015562Y0119987D01*
X0015863Y0120019D01*
X0016165Y0120043D01*
X0016468Y0120060D01*
X0016770Y0120069D01*
X0017073Y0120071D01*
X0017376Y0120065D01*
X0017678Y0120052D01*
X0017981Y0120032D01*
X0018282Y0120004D01*
X0018583Y0119969D01*
X0018883Y0119927D01*
X0019182Y0119877D01*
X0019479Y0119820D01*
X0019775Y0119756D01*
X0020069Y0119685D01*
X0020362Y0119606D01*
X0020652Y0119520D01*
X0020941Y0119427D01*
X0021226Y0119328D01*
X0021510Y0119221D01*
X0021790Y0119107D01*
X0022068Y0118987D01*
X0022343Y0118859D01*
X0022615Y0118725D01*
X0022883Y0118585D01*
X0023148Y0118438D01*
X0023409Y0118284D01*
X0023666Y0118124D01*
X0023919Y0117958D01*
X0024168Y0117786D01*
X0024413Y0117608D01*
X0024654Y0117423D01*
X0024889Y0117233D01*
X0025120Y0117038D01*
X0025347Y0116836D01*
X0025568Y0116630D01*
X0025784Y0116417D01*
X0025995Y0116200D01*
X0026200Y0115978D01*
X0026400Y0115750D01*
X0026595Y0115518D01*
X0026783Y0115281D01*
X0026966Y0115039D01*
X0027143Y0114794D01*
X0027314Y0114543D01*
X0027478Y0114289D01*
X0027637Y0114031D01*
X0027789Y0113769D01*
X0027934Y0113504D01*
X0028073Y0113235D01*
X0028206Y0112962D01*
X0028331Y0112687D01*
X0028450Y0112408D01*
X0028562Y0112127D01*
X0028667Y0111843D01*
X0028766Y0111556D01*
X0028857Y0111267D01*
X0028941Y0110976D01*
X0029018Y0110683D01*
X0029087Y0110389D01*
X0029150Y0110092D01*
X0029205Y0109795D01*
X0029253Y0109496D01*
X0029294Y0109196D01*
X0029327Y0108894D01*
X0029353Y0108593D01*
X0029371Y0108290D01*
X0029382Y0107988D01*
X0029386Y0107685D01*
X0029382Y0107382D01*
X0029371Y0107080D01*
X0029353Y0106777D01*
X0029327Y0106476D01*
X0029294Y0106174D01*
X0029253Y0105874D01*
X0029205Y0105575D01*
X0029150Y0105278D01*
X0029087Y0104981D01*
X0029018Y0104687D01*
X0028941Y0104394D01*
X0028857Y0104103D01*
X0028766Y0103814D01*
X0028667Y0103527D01*
X0028562Y0103243D01*
X0028450Y0102962D01*
X0028331Y0102683D01*
X0028206Y0102408D01*
X0028073Y0102135D01*
X0027934Y0101866D01*
X0027789Y0101601D01*
X0027637Y0101339D01*
X0027478Y0101081D01*
X0027314Y0100827D01*
X0027143Y0100576D01*
X0026966Y0100331D01*
X0026783Y0100089D01*
X0026595Y0099852D01*
X0026400Y0099620D01*
X0026200Y0099392D01*
X0025995Y0099170D01*
X0025784Y0098953D01*
X0025568Y0098740D01*
X0025347Y0098534D01*
X0025120Y0098332D01*
X0024889Y0098137D01*
X0024654Y0097947D01*
X0024413Y0097762D01*
X0024168Y0097584D01*
X0023919Y0097412D01*
X0023666Y0097246D01*
X0023409Y0097086D01*
X0023148Y0096932D01*
X0022883Y0096785D01*
X0022615Y0096645D01*
X0022343Y0096511D01*
X0022068Y0096383D01*
X0021790Y0096263D01*
X0021510Y0096149D01*
X0021226Y0096042D01*
X0020941Y0095943D01*
X0020652Y0095850D01*
X0020362Y0095764D01*
X0020069Y0095685D01*
X0019775Y0095614D01*
X0019479Y0095550D01*
X0019182Y0095493D01*
X0018883Y0095443D01*
X0018583Y0095401D01*
X0018282Y0095366D01*
X0017981Y0095338D01*
X0017678Y0095318D01*
X0017376Y0095305D01*
X0017073Y0095299D01*
X0016770Y0095301D01*
X0016468Y0095310D01*
X0016165Y0095327D01*
X0015863Y0095351D01*
X0015562Y0095383D01*
X0015262Y0095422D01*
X0014962Y0095468D01*
X0014664Y0095521D01*
X0014368Y0095582D01*
X0014072Y0095650D01*
X0013779Y0095725D01*
X0013488Y0095807D01*
X0013198Y0095897D01*
X0012911Y0095993D01*
X0012627Y0096097D01*
X0012345Y0096207D01*
X0012065Y0096324D01*
X0011789Y0096448D01*
X0011516Y0096579D01*
X0011246Y0096717D01*
X0010980Y0096861D01*
X0010717Y0097011D01*
X0010458Y0097168D01*
X0010202Y0097331D01*
X0009951Y0097500D01*
X0009704Y0097676D01*
X0009462Y0097857D01*
X0009224Y0098044D01*
X0008990Y0098237D01*
X0008762Y0098436D01*
X0008538Y0098640D01*
X0008320Y0098850D01*
X0008106Y0099064D01*
X0007898Y0099285D01*
X0007695Y0099510D01*
X0007498Y0099739D01*
X0007307Y0099974D01*
X0007121Y0100213D01*
X0007196Y0100270D01*
X0007381Y0100032D01*
X0007571Y0099800D01*
X0007766Y0099571D01*
X0007967Y0099348D01*
X0008174Y0099130D01*
X0008386Y0098916D01*
X0008603Y0098708D01*
X0008825Y0098506D01*
X0009052Y0098309D01*
X0009283Y0098117D01*
X0009519Y0097931D01*
X0009760Y0097751D01*
X0010005Y0097577D01*
X0010254Y0097409D01*
X0010508Y0097247D01*
X0010765Y0097092D01*
X0011026Y0096943D01*
X0011290Y0096800D01*
X0011558Y0096663D01*
X0011829Y0096534D01*
X0012103Y0096411D01*
X0012380Y0096294D01*
X0012660Y0096185D01*
X0012943Y0096082D01*
X0013227Y0095986D01*
X0013515Y0095898D01*
X0013804Y0095816D01*
X0014095Y0095741D01*
X0014388Y0095674D01*
X0014682Y0095613D01*
X0014978Y0095560D01*
X0015275Y0095515D01*
X0015573Y0095476D01*
X0015872Y0095445D01*
X0016172Y0095421D01*
X0016472Y0095404D01*
X0016772Y0095395D01*
X0017073Y0095393D01*
X0017373Y0095399D01*
X0017674Y0095411D01*
X0017973Y0095432D01*
X0018273Y0095459D01*
X0018571Y0095494D01*
X0018869Y0095536D01*
X0019165Y0095585D01*
X0019460Y0095642D01*
X0019754Y0095706D01*
X0020046Y0095776D01*
X0020336Y0095854D01*
X0020625Y0095940D01*
X0020911Y0096032D01*
X0021195Y0096131D01*
X0021476Y0096237D01*
X0021754Y0096350D01*
X0022030Y0096469D01*
X0022303Y0096596D01*
X0022572Y0096729D01*
X0022838Y0096868D01*
X0023101Y0097014D01*
X0023360Y0097166D01*
X0023616Y0097325D01*
X0023867Y0097490D01*
X0024114Y0097661D01*
X0024357Y0097838D01*
X0024596Y0098021D01*
X0024830Y0098209D01*
X0025059Y0098403D01*
X0025283Y0098603D01*
X0025503Y0098808D01*
X0025717Y0099019D01*
X0025927Y0099235D01*
X0026131Y0099455D01*
X0026329Y0099681D01*
X0026522Y0099912D01*
X0026709Y0100147D01*
X0026891Y0100386D01*
X0027066Y0100630D01*
X0027236Y0100879D01*
X0027399Y0101131D01*
X0027556Y0101387D01*
X0027707Y0101647D01*
X0027851Y0101911D01*
X0027989Y0102178D01*
X0028121Y0102448D01*
X0028245Y0102721D01*
X0028363Y0102998D01*
X0028474Y0103277D01*
X0028579Y0103559D01*
X0028676Y0103843D01*
X0028767Y0104130D01*
X0028850Y0104419D01*
X0028926Y0104709D01*
X0028996Y0105002D01*
X0029058Y0105296D01*
X0029112Y0105591D01*
X0029160Y0105888D01*
X0029200Y0106186D01*
X0029233Y0106485D01*
X0029259Y0106784D01*
X0029277Y0107084D01*
X0029288Y0107384D01*
X0029292Y0107685D01*
X0029288Y0107986D01*
X0029277Y0108286D01*
X0029259Y0108586D01*
X0029233Y0108885D01*
X0029200Y0109184D01*
X0029160Y0109482D01*
X0029112Y0109779D01*
X0029058Y0110074D01*
X0028996Y0110368D01*
X0028926Y0110661D01*
X0028850Y0110951D01*
X0028767Y0111240D01*
X0028676Y0111527D01*
X0028579Y0111811D01*
X0028474Y0112093D01*
X0028363Y0112372D01*
X0028245Y0112649D01*
X0028121Y0112922D01*
X0027989Y0113192D01*
X0027851Y0113459D01*
X0027707Y0113723D01*
X0027556Y0113983D01*
X0027399Y0114239D01*
X0027236Y0114491D01*
X0027066Y0114740D01*
X0026891Y0114984D01*
X0026709Y0115223D01*
X0026522Y0115458D01*
X0026329Y0115689D01*
X0026131Y0115915D01*
X0025927Y0116135D01*
X0025717Y0116351D01*
X0025503Y0116562D01*
X0025283Y0116767D01*
X0025059Y0116967D01*
X0024830Y0117161D01*
X0024596Y0117349D01*
X0024357Y0117532D01*
X0024114Y0117709D01*
X0023867Y0117880D01*
X0023616Y0118045D01*
X0023360Y0118204D01*
X0023101Y0118356D01*
X0022838Y0118502D01*
X0022572Y0118641D01*
X0022303Y0118774D01*
X0022030Y0118901D01*
X0021754Y0119020D01*
X0021476Y0119133D01*
X0021195Y0119239D01*
X0020911Y0119338D01*
X0020625Y0119430D01*
X0020336Y0119516D01*
X0020046Y0119594D01*
X0019754Y0119664D01*
X0019460Y0119728D01*
X0019165Y0119785D01*
X0018869Y0119834D01*
X0018571Y0119876D01*
X0018273Y0119911D01*
X0017973Y0119938D01*
X0017674Y0119959D01*
X0017373Y0119971D01*
X0017073Y0119977D01*
X0016772Y0119975D01*
X0016472Y0119966D01*
X0016172Y0119949D01*
X0015872Y0119925D01*
X0015573Y0119894D01*
X0015275Y0119855D01*
X0014978Y0119810D01*
X0014682Y0119757D01*
X0014388Y0119696D01*
X0014095Y0119629D01*
X0013804Y0119554D01*
X0013515Y0119472D01*
X0013227Y0119384D01*
X0012943Y0119288D01*
X0012660Y0119185D01*
X0012380Y0119076D01*
X0012103Y0118959D01*
X0011829Y0118836D01*
X0011558Y0118707D01*
X0011290Y0118570D01*
X0011026Y0118427D01*
X0010765Y0118278D01*
X0010508Y0118123D01*
X0010254Y0117961D01*
X0010005Y0117793D01*
X0009760Y0117619D01*
X0009519Y0117439D01*
X0009283Y0117253D01*
X0009052Y0117061D01*
X0008825Y0116864D01*
X0008603Y0116662D01*
X0008386Y0116454D01*
X0008174Y0116240D01*
X0007967Y0116022D01*
X0007766Y0115799D01*
X0007571Y0115570D01*
X0007381Y0115338D01*
X0007196Y0115100D01*
X0007272Y0115044D01*
X0007454Y0115279D01*
X0007643Y0115510D01*
X0007837Y0115737D01*
X0008037Y0115959D01*
X0008242Y0116175D01*
X0008452Y0116387D01*
X0008667Y0116593D01*
X0008887Y0116794D01*
X0009113Y0116990D01*
X0009342Y0117180D01*
X0009577Y0117364D01*
X0009816Y0117543D01*
X0010059Y0117716D01*
X0010306Y0117882D01*
X0010558Y0118043D01*
X0010813Y0118197D01*
X0011072Y0118345D01*
X0011334Y0118487D01*
X0011600Y0118622D01*
X0011869Y0118751D01*
X0012141Y0118873D01*
X0012416Y0118989D01*
X0012694Y0119098D01*
X0012974Y0119199D01*
X0013257Y0119294D01*
X0013542Y0119382D01*
X0013829Y0119463D01*
X0014117Y0119538D01*
X0014408Y0119604D01*
X0014700Y0119664D01*
X0014994Y0119717D01*
X0015289Y0119762D01*
X0015584Y0119801D01*
X0015881Y0119832D01*
X0016178Y0119855D01*
X0016476Y0119872D01*
X0016774Y0119881D01*
X0017072Y0119883D01*
X0017371Y0119877D01*
X0017669Y0119865D01*
X0017966Y0119845D01*
X0018263Y0119817D01*
X0018559Y0119783D01*
X0018855Y0119741D01*
X0019149Y0119692D01*
X0019442Y0119636D01*
X0019733Y0119573D01*
X0020023Y0119502D01*
X0020311Y0119425D01*
X0020597Y0119341D01*
X0020881Y0119249D01*
X0021163Y0119151D01*
X0021442Y0119046D01*
X0021718Y0118934D01*
X0021992Y0118815D01*
X0022262Y0118690D01*
X0022530Y0118558D01*
X0022794Y0118419D01*
X0023055Y0118274D01*
X0023312Y0118123D01*
X0023565Y0117966D01*
X0023814Y0117802D01*
X0024060Y0117632D01*
X0024301Y0117457D01*
X0024538Y0117275D01*
X0024770Y0117088D01*
X0024997Y0116896D01*
X0025220Y0116697D01*
X0025438Y0116494D01*
X0025651Y0116285D01*
X0025859Y0116071D01*
X0026061Y0115851D01*
X0026258Y0115628D01*
X0026449Y0115399D01*
X0026635Y0115165D01*
X0026815Y0114928D01*
X0026989Y0114686D01*
X0027157Y0114439D01*
X0027319Y0114189D01*
X0027475Y0113935D01*
X0027625Y0113677D01*
X0027768Y0113415D01*
X0027905Y0113150D01*
X0028036Y0112882D01*
X0028159Y0112611D01*
X0028276Y0112336D01*
X0028387Y0112059D01*
X0028490Y0111779D01*
X0028587Y0111497D01*
X0028677Y0111213D01*
X0028759Y0110926D01*
X0028835Y0110638D01*
X0028904Y0110348D01*
X0028965Y0110056D01*
X0029020Y0109763D01*
X0029067Y0109468D01*
X0029107Y0109173D01*
X0029140Y0108876D01*
X0029165Y0108579D01*
X0029183Y0108281D01*
X0029194Y0107983D01*
X0029198Y0107685D01*
X0029194Y0107387D01*
X0029183Y0107089D01*
X0029165Y0106791D01*
X0029140Y0106494D01*
X0029107Y0106197D01*
X0029067Y0105902D01*
X0029020Y0105607D01*
X0028965Y0105314D01*
X0028904Y0105022D01*
X0028835Y0104732D01*
X0028759Y0104444D01*
X0028677Y0104157D01*
X0028587Y0103873D01*
X0028490Y0103591D01*
X0028387Y0103311D01*
X0028276Y0103034D01*
X0028159Y0102759D01*
X0028036Y0102488D01*
X0027905Y0102220D01*
X0027768Y0101955D01*
X0027625Y0101693D01*
X0027475Y0101435D01*
X0027319Y0101181D01*
X0027157Y0100931D01*
X0026989Y0100684D01*
X0026815Y0100442D01*
X0026635Y0100205D01*
X0026449Y0099971D01*
X0026258Y0099742D01*
X0026061Y0099519D01*
X0025859Y0099299D01*
X0025651Y0099085D01*
X0025438Y0098876D01*
X0025220Y0098673D01*
X0024997Y0098474D01*
X0024770Y0098282D01*
X0024538Y0098095D01*
X0024301Y0097913D01*
X0024060Y0097738D01*
X0023814Y0097568D01*
X0023565Y0097404D01*
X0023312Y0097247D01*
X0023055Y0097096D01*
X0022794Y0096951D01*
X0022530Y0096812D01*
X0022262Y0096680D01*
X0021992Y0096555D01*
X0021718Y0096436D01*
X0021442Y0096324D01*
X0021163Y0096219D01*
X0020881Y0096121D01*
X0020597Y0096029D01*
X0020311Y0095945D01*
X0020023Y0095868D01*
X0019733Y0095797D01*
X0019442Y0095734D01*
X0019149Y0095678D01*
X0018855Y0095629D01*
X0018559Y0095587D01*
X0018263Y0095553D01*
X0017966Y0095525D01*
X0017669Y0095505D01*
X0017371Y0095493D01*
X0017072Y0095487D01*
X0016774Y0095489D01*
X0016476Y0095498D01*
X0016178Y0095515D01*
X0015881Y0095538D01*
X0015584Y0095569D01*
X0015289Y0095608D01*
X0014994Y0095653D01*
X0014700Y0095706D01*
X0014408Y0095766D01*
X0014117Y0095832D01*
X0013829Y0095907D01*
X0013542Y0095988D01*
X0013257Y0096076D01*
X0012974Y0096171D01*
X0012694Y0096272D01*
X0012416Y0096381D01*
X0012141Y0096497D01*
X0011869Y0096619D01*
X0011600Y0096748D01*
X0011334Y0096883D01*
X0011072Y0097025D01*
X0010813Y0097173D01*
X0010558Y0097327D01*
X0010306Y0097488D01*
X0010059Y0097654D01*
X0009816Y0097827D01*
X0009577Y0098006D01*
X0009342Y0098190D01*
X0009113Y0098380D01*
X0008887Y0098576D01*
X0008667Y0098777D01*
X0008452Y0098983D01*
X0008242Y0099195D01*
X0008037Y0099411D01*
X0007837Y0099633D01*
X0007643Y0099860D01*
X0007454Y0100091D01*
X0007272Y0100326D01*
X0007347Y0100383D01*
X0007528Y0100149D01*
X0007715Y0099920D01*
X0007908Y0099695D01*
X0008106Y0099475D01*
X0008309Y0099260D01*
X0008518Y0099050D01*
X0008732Y0098845D01*
X0008950Y0098646D01*
X0009174Y0098452D01*
X0009402Y0098263D01*
X0009634Y0098080D01*
X0009871Y0097903D01*
X0010113Y0097732D01*
X0010358Y0097566D01*
X0010607Y0097407D01*
X0010861Y0097254D01*
X0011117Y0097107D01*
X0011378Y0096966D01*
X0011642Y0096832D01*
X0011909Y0096704D01*
X0012179Y0096583D01*
X0012451Y0096468D01*
X0012727Y0096360D01*
X0013005Y0096259D01*
X0013286Y0096165D01*
X0013568Y0096078D01*
X0013853Y0095997D01*
X0014140Y0095924D01*
X0014428Y0095857D01*
X0014718Y0095798D01*
X0015010Y0095746D01*
X0015302Y0095701D01*
X0015596Y0095663D01*
X0015890Y0095632D01*
X0016185Y0095608D01*
X0016480Y0095592D01*
X0016776Y0095583D01*
X0017072Y0095581D01*
X0017368Y0095587D01*
X0017664Y0095599D01*
X0017959Y0095619D01*
X0018254Y0095646D01*
X0018548Y0095680D01*
X0018841Y0095722D01*
X0019133Y0095770D01*
X0019423Y0095826D01*
X0019712Y0095889D01*
X0020000Y0095959D01*
X0020286Y0096036D01*
X0020570Y0096119D01*
X0020851Y0096210D01*
X0021131Y0096308D01*
X0021408Y0096412D01*
X0021682Y0096523D01*
X0021953Y0096641D01*
X0022222Y0096765D01*
X0022487Y0096896D01*
X0022749Y0097034D01*
X0023008Y0097177D01*
X0023263Y0097327D01*
X0023515Y0097484D01*
X0023762Y0097646D01*
X0024005Y0097814D01*
X0024245Y0097989D01*
X0024480Y0098169D01*
X0024710Y0098354D01*
X0024936Y0098546D01*
X0025157Y0098742D01*
X0025373Y0098944D01*
X0025584Y0099152D01*
X0025790Y0099364D01*
X0025991Y0099582D01*
X0026187Y0099804D01*
X0026377Y0100031D01*
X0026561Y0100262D01*
X0026739Y0100498D01*
X0026912Y0100738D01*
X0027079Y0100983D01*
X0027240Y0101231D01*
X0027395Y0101484D01*
X0027543Y0101740D01*
X0027685Y0101999D01*
X0027821Y0102262D01*
X0027951Y0102528D01*
X0028073Y0102797D01*
X0028190Y0103070D01*
X0028299Y0103345D01*
X0028402Y0103622D01*
X0028498Y0103902D01*
X0028587Y0104184D01*
X0028669Y0104469D01*
X0028744Y0104755D01*
X0028812Y0105043D01*
X0028873Y0105332D01*
X0028927Y0105623D01*
X0028974Y0105916D01*
X0029014Y0106209D01*
X0029046Y0106503D01*
X0029071Y0106798D01*
X0029090Y0107093D01*
X0029100Y0107389D01*
X0029104Y0107685D01*
X0029100Y0107981D01*
X0029090Y0108277D01*
X0029071Y0108572D01*
X0029046Y0108867D01*
X0029014Y0109161D01*
X0028974Y0109454D01*
X0028927Y0109747D01*
X0028873Y0110038D01*
X0028812Y0110327D01*
X0028744Y0110615D01*
X0028669Y0110901D01*
X0028587Y0111186D01*
X0028498Y0111468D01*
X0028402Y0111748D01*
X0028299Y0112025D01*
X0028190Y0112300D01*
X0028073Y0112573D01*
X0027951Y0112842D01*
X0027821Y0113108D01*
X0027685Y0113371D01*
X0027543Y0113630D01*
X0027395Y0113886D01*
X0027240Y0114139D01*
X0027079Y0114387D01*
X0026912Y0114632D01*
X0026739Y0114872D01*
X0026561Y0115108D01*
X0026377Y0115339D01*
X0026187Y0115566D01*
X0025991Y0115788D01*
X0025790Y0116006D01*
X0025584Y0116218D01*
X0025373Y0116426D01*
X0025157Y0116628D01*
X0024936Y0116824D01*
X0024710Y0117016D01*
X0024480Y0117201D01*
X0024245Y0117381D01*
X0024005Y0117556D01*
X0023762Y0117724D01*
X0023515Y0117886D01*
X0023263Y0118043D01*
X0023008Y0118193D01*
X0022749Y0118336D01*
X0022487Y0118474D01*
X0022222Y0118605D01*
X0021953Y0118729D01*
X0021682Y0118847D01*
X0021408Y0118958D01*
X0021131Y0119062D01*
X0020851Y0119160D01*
X0020570Y0119251D01*
X0020286Y0119334D01*
X0020000Y0119411D01*
X0019712Y0119481D01*
X0019423Y0119544D01*
X0019133Y0119600D01*
X0018841Y0119648D01*
X0018548Y0119690D01*
X0018254Y0119724D01*
X0017959Y0119751D01*
X0017664Y0119771D01*
X0017368Y0119783D01*
X0017072Y0119789D01*
X0016776Y0119787D01*
X0016480Y0119778D01*
X0016185Y0119762D01*
X0015890Y0119738D01*
X0015596Y0119707D01*
X0015302Y0119669D01*
X0015010Y0119624D01*
X0014718Y0119572D01*
X0014428Y0119513D01*
X0014140Y0119446D01*
X0013853Y0119373D01*
X0013568Y0119292D01*
X0013286Y0119205D01*
X0013005Y0119111D01*
X0012727Y0119010D01*
X0012451Y0118902D01*
X0012179Y0118787D01*
X0011909Y0118666D01*
X0011642Y0118538D01*
X0011378Y0118404D01*
X0011117Y0118263D01*
X0010861Y0118116D01*
X0010607Y0117963D01*
X0010358Y0117804D01*
X0010113Y0117638D01*
X0009871Y0117467D01*
X0009634Y0117290D01*
X0009402Y0117107D01*
X0009174Y0116918D01*
X0008950Y0116724D01*
X0008732Y0116525D01*
X0008518Y0116320D01*
X0008309Y0116110D01*
X0008106Y0115895D01*
X0007908Y0115675D01*
X0007715Y0115450D01*
X0007528Y0115221D01*
X0007347Y0114987D01*
D19*
X0070000Y0140485D03*
X0070000Y0168885D03*
X0147000Y0151885D03*
X0147000Y0123485D03*
D20*
X0070200Y0107685D03*
X0041800Y0107685D03*
M02*
